<?xml version="1.0" encoding="utf-8"?><svg width="39" height="31" fill="none" xmlns="http://www.w3.org/2000/svg" viewBox="0 0 39 31"><path d="M12.558 30.527c-2.33 0-4.435-.59-6.315-1.769-1.853-1.179-3.313-2.89-4.38-5.136-1.066-2.274-1.6-5.025-1.6-8.253 0-3.228.534-5.965 1.6-8.21 1.067-2.274 2.527-4 4.38-5.18C8.123.8 10.229.211 12.558.211c2.358 0 4.464.59 6.316 1.768 1.853 1.18 3.313 2.906 4.38 5.18 1.094 2.245 1.641 4.982 1.641 8.21 0 3.228-.547 5.979-1.642 8.253-1.067 2.245-2.526 3.957-4.379 5.136-1.852 1.18-3.958 1.769-6.316 1.769zm0-4.758c1.376 0 2.569-.365 3.58-1.095 1.01-.758 1.796-1.909 2.357-3.453.59-1.543.884-3.494.884-5.852 0-2.386-.294-4.337-.884-5.853-.561-1.544-1.347-2.68-2.358-3.41-1.01-.758-2.203-1.137-3.579-1.137-1.319 0-2.498.379-3.536 1.137-1.011.73-1.811 1.866-2.4 3.41-.562 1.516-.843 3.467-.843 5.853 0 2.358.281 4.309.843 5.852.589 1.544 1.389 2.695 2.4 3.453 1.038.73 2.217 1.095 3.536 1.095zM33.269 30.106V2.737l2.4 2.484h-8.632V.632h11.706v29.474h-5.474z" fill="#fff" fill-opacity=".1"/></svg>