<?xml version="1.0" encoding="utf-8"?><svg width="50" height="31" fill="none" xmlns="http://www.w3.org/2000/svg" viewBox="0 0 50 31"><path d="M12.295 30.527c-2.33 0-4.435-.59-6.316-1.769-1.853-1.179-3.312-2.89-4.379-5.136C.533 21.348 0 18.596 0 15.369c0-3.228.533-5.965 1.6-8.21 1.067-2.274 2.526-4 4.379-5.18C7.859.8 9.965.211 12.295.211c2.358 0 4.463.59 6.315 1.768 1.853 1.18 3.313 2.906 4.38 5.18 1.094 2.245 1.642 4.982 1.642 8.21 0 3.228-.548 5.979-1.643 8.253-1.066 2.245-2.526 3.957-4.379 5.136-1.852 1.18-3.957 1.769-6.315 1.769zm0-4.758c1.375 0 2.568-.365 3.579-1.095 1.01-.758 1.796-1.909 2.358-3.453.59-1.543.884-3.494.884-5.852 0-2.386-.295-4.337-.884-5.853-.562-1.544-1.348-2.68-2.358-3.41-1.01-.758-2.204-1.137-3.58-1.137-1.319 0-2.498.379-3.536 1.137-1.01.73-1.81 1.866-2.4 3.41-.562 1.516-.842 3.467-.842 5.853 0 2.358.28 4.309.842 5.852.59 1.544 1.39 2.695 2.4 3.453 1.038.73 2.217 1.095 3.537 1.095zM27.91 30.106v-3.664l11.706-11.115c.982-.927 1.712-1.74 2.19-2.442.477-.702.785-1.348.926-1.937a6.586 6.586 0 00.252-1.727c0-1.347-.463-2.386-1.39-3.115-.926-.758-2.287-1.137-4.084-1.137-1.431 0-2.736.252-3.915.758-1.151.505-2.148 1.277-2.99 2.316l-3.831-2.948c1.15-1.544 2.694-2.737 4.631-3.579C33.37.646 35.56.211 37.974.211c2.133 0 3.986.35 5.558 1.053 1.6.673 2.82 1.642 3.663 2.905.87 1.263 1.305 2.765 1.305 4.505 0 .954-.126 1.909-.379 2.863-.253.927-.73 1.909-1.431 2.948-.702 1.038-1.727 2.203-3.074 3.494l-10.063 9.558-1.137-2.063h17.22v4.632H27.91z" fill="#fff" fill-opacity=".1"/></svg>