<?xml version="1.0" encoding="utf-8"?><svg width="49" height="31" fill="none" xmlns="http://www.w3.org/2000/svg" viewBox="0 0 49 31"><path d="M12.295 30.527c-2.33 0-4.435-.59-6.316-1.769-1.853-1.179-3.312-2.89-4.379-5.136C.533 21.348 0 18.596 0 15.369c0-3.228.533-5.965 1.6-8.21 1.067-2.274 2.526-4 4.379-5.18C7.859.8 9.965.211 12.295.211c2.358 0 4.463.59 6.315 1.768 1.853 1.18 3.313 2.906 4.38 5.18 1.094 2.245 1.642 4.982 1.642 8.21 0 3.228-.548 5.979-1.643 8.253-1.066 2.245-2.526 3.957-4.379 5.136-1.852 1.18-3.957 1.769-6.315 1.769zm0-4.758c1.375 0 2.568-.365 3.579-1.095 1.01-.758 1.796-1.909 2.358-3.453.59-1.543.884-3.494.884-5.852 0-2.386-.295-4.337-.884-5.853-.562-1.544-1.348-2.68-2.358-3.41-1.01-.758-2.204-1.137-3.58-1.137-1.319 0-2.498.379-3.536 1.137-1.01.73-1.81 1.866-2.4 3.41-.562 1.516-.842 3.467-.842 5.853 0 2.358.28 4.309.842 5.852.59 1.544 1.39 2.695 2.4 3.453 1.038.73 2.217 1.095 3.537 1.095zM37.183 30.527c-2.078 0-4.113-.295-6.106-.885-1.965-.617-3.62-1.46-4.968-2.526l2.358-4.252c1.066.87 2.358 1.572 3.873 2.105 1.516.533 3.102.8 4.758.8 1.965 0 3.495-.393 4.59-1.18 1.095-.813 1.642-1.908 1.642-3.283 0-1.348-.505-2.414-1.516-3.2-1.01-.786-2.639-1.18-4.884-1.18h-2.695V13.18l8.421-10.02.716 2.062H27.541V.632h20.084v3.663l-8.421 10.021-2.864-1.684h1.643c3.62 0 6.33.814 8.126 2.442 1.824 1.6 2.737 3.663 2.737 6.19a8.758 8.758 0 01-1.263 4.589c-.843 1.404-2.134 2.54-3.874 3.41-1.712.843-3.888 1.264-6.526 1.264z" fill="#fff" fill-opacity=".1"/></svg>