<?xml version="1.0" encoding="utf-8"?><svg width="493" height="507" fill="none" xmlns="http://www.w3.org/2000/svg" viewBox="0 0 493 507"><circle cx="246.5" cy="246.5" r="246" stroke="#fff"/><path fill-rule="evenodd" clip-rule="evenodd" d="M257.932 491.431c-.188-.574-.498-.892-1.227-1.259-1.269-.639-1.67-.693-5.11-.693l-2.696-.001-5.921-5.91c-3.592-3.585-6.039-5.983-6.219-6.096-.602-.374-.878-.435-2.106-.463-1.207-.028-1.366-.002-1.534.256-.247.377-.382.139 3.693 6.494 2.086 3.254 3.773 5.933 3.748 5.954-.025.021-.665.083-1.422.139-1.318.097-5.287.472-5.659.535-.166.028-.196.003-.438-.366-2.189-3.341-2.765-4.169-2.941-4.23-.273-.096-1.475-.082-1.717.019-.2.084-.383.344-.383.546 0 .059.277 1.352.616 2.875l.615 2.767-.622 2.799c-.678 3.048-.681 3.079-.356 3.321.144.107.264.125.915.142.554.014.801-.003.948-.065.169-.071.423-.424 1.691-2.349 1.484-2.254 1.492-2.266 1.671-2.236.558.094 6.3.615 6.784.615.152.001.29.025.308.054.019.029-.438.788-1.014 1.685-4.98 7.762-6.518 10.181-6.547 10.299-.053.212.114.544.329.655.164.084.344.094 1.309.071 1.235-.029 1.51-.089 2.112-.464.18-.113 2.627-2.511 6.219-6.096l5.921-5.91h2.696c3.442-.001 3.888-.062 5.118-.702.612-.318.907-.579 1.1-.975.191-.39.245-1.026.119-1.411z" fill="#fff"/></svg>