<?xml version="1.0" encoding="utf-8"?><svg width="565" height="144" fill="none" xmlns="http://www.w3.org/2000/svg" viewBox="0 0 565 144"><path d="M342.886 144c-10.919 0-20.973-1.8-30.161-5.4-9.188-3.6-17.178-8.6-23.969-15-6.791-6.533-12.051-14.133-15.78-22.8-3.728-8.8-5.593-18.4-5.593-28.8 0-10.4 1.865-19.933 5.593-28.6 3.729-8.8 8.989-16.4 15.78-22.8 6.791-6.533 14.781-11.6 23.969-15.2C321.913 1.8 331.9 0 342.686 0c10.919 0 20.907 1.8 29.962 5.4 9.188 3.6 17.177 8.667 23.969 15.2 6.791 6.4 12.051 14 15.779 22.8 3.729 8.667 5.593 18.2 5.593 28.6 0 10.4-1.864 20-5.593 28.8-3.728 8.8-8.988 16.4-15.779 22.8-6.792 6.4-14.781 11.4-23.969 15-9.055 3.6-18.976 5.4-29.762 5.4zm-.2-22.8c7.058 0 13.583-1.2 19.575-3.6 5.992-2.4 11.185-5.8 15.58-10.2a48.638 48.638 0 0010.187-15.6c2.53-6 3.795-12.6 3.795-19.8 0-7.2-1.265-13.733-3.795-19.6-2.397-6-5.793-11.2-10.187-15.6-4.395-4.533-9.588-8-15.58-10.4-5.992-2.4-12.517-3.6-19.575-3.6-7.057 0-13.582 1.2-19.574 3.6-5.86 2.4-11.053 5.867-15.58 10.4-4.395 4.4-7.857 9.6-10.387 15.6-2.397 5.867-3.595 12.4-3.595 19.6 0 7.067 1.198 13.6 3.595 19.6 2.53 6 5.992 11.267 10.387 15.8 4.394 4.4 9.587 7.8 15.58 10.2 5.992 2.4 12.517 3.6 19.574 3.6zM183.031 141.668v-118h-46.34v-22h118.647v22h-46.341v118h-25.966zM0 141.668l62.919-140h25.567l63.118 140h-27.165l-54.13-126.2h10.387l-53.93 126.2H0zm28.963-32.4l6.99-20.4h75.503l6.991 20.4H28.963zM445.55 142V2h57.528c12.384 0 22.971 2 31.76 6 8.922 4 15.78 9.733 20.574 17.2 4.794 7.467 7.191 16.333 7.191 26.6 0 10.267-2.397 19.133-7.191 26.6-4.794 7.333-11.652 13-20.574 17-8.789 3.867-19.376 5.8-31.76 5.8h-43.146l11.585-11.8V142H445.55zm91.485 0l-35.356-50.8h27.766L565 142h-27.965zm-65.518-49.8l-11.585-12.4h41.947c11.453 0 20.042-2.467 25.768-7.4 5.859-4.933 8.789-11.8 8.789-20.6 0-8.933-2.93-15.8-8.789-20.6-5.726-4.8-14.315-7.2-25.768-7.2h-41.947l11.585-12.8v81z" fill="#fff"/><path d="M445.55 142V2h57.528c12.384 0 22.971 2 31.76 6 8.922 4 15.78 9.733 20.574 17.2 4.794 7.467 7.191 16.333 7.191 26.6 0 10.267-2.397 19.133-7.191 26.6-4.794 7.333-11.652 13-20.574 17-8.789 3.867-19.376 5.8-31.76 5.8h-43.146l11.585-11.8V142H445.55zm91.485 0l-35.356-50.8h27.766L565 142h-27.965zm-65.518-49.8l-11.585-12.4h41.947c11.453 0 20.042-2.467 25.768-7.4 5.859-4.933 8.789-11.8 8.789-20.6 0-8.933-2.93-15.8-8.789-20.6-5.726-4.8-14.315-7.2-25.768-7.2h-41.947l11.585-12.8v81z" fill="#fff"/></svg>