<?xml version="1.0" encoding="utf-8"?><svg width="222" height="207" fill="none" xmlns="http://www.w3.org/2000/svg" viewBox="0 0 222 207"><g clip-path="url(#auclip0_3339_6808)"><path d="M10.849 54.863l-.766-.905 1.702.142c1.84.153 3.66.497 5.429 1.026a26.674 26.674 0 0010.044 1.01l5.591-.505a55.806 55.806 0 0011.33-2.224l1.402-.43a69.905 69.905 0 0014.743-6.456L80.638 34.67l10.934-5.076a76.2 76.2 0 0112.134-4.427l6.289-1.707a48.654 48.654 0 0122.392-.73l4.117.832a30.528 30.528 0 0123.556 22.497l.361 1.44c.998 3.978 1.284 8.1.847 12.177l-.262 2.434a48.537 48.537 0 01-4.618 16.065l-5.666 11.64-10.091 17.982-5.295 10.106a86.77 86.77 0 00-6.359 15.7l-1.226 4.149a62.781 62.781 0 00-2.418 22.14l.138 1.973a50.54 50.54 0 003.668 15.69l.247.6a47.685 47.685 0 0018.515 22.115l.442.281a53.998 53.998 0 0025.68 8.336l5.695.349a76.075 76.075 0 0016.467-.78l24.149-3.794 12.054-2.687a114.585 114.585 0 0128.345-2.694l1.962.059a100.766 100.766 0 0152.144 16.386 101.11 101.11 0 0121.847 19.304l12.469 14.734 9.848 14.386a168.888 168.888 0 0128.537 77.153l1.867 17.18-28.597 21.556-10.093-36.031-11.092-31.409-.525-1.092a213.87 213.87 0 00-29.548-45.605l-7.16-7.222a60.64 60.64 0 00-37.295-17.668l-1.39-.133a69.546 69.546 0 00-12.082-.099l-14.137 1.115-30.969 5.809a111.372 111.372 0 01-35.539-.528l-1.961-.347a93.45 93.45 0 01-12.818-3.219l-1.5-.492a79.928 79.928 0 01-34.894-22.913l-8.6-9.697-1.022-1.208a75.262 75.262 0 01-13.447-23.362l-.45-1.266a67.168 67.168 0 011.534-48.999l2.933-6.846a102.262 102.262 0 018.749-16.206l7.997-12.07 10.531-18.354 6.254-11.71a19.787 19.787 0 00-7.922-26.658 19.805 19.805 0 00-11.376-2.366l-6.398.596a40.732 40.732 0 00-11.781 2.913l-9.16 3.786-5.853 3.26a115.79 115.79 0 01-17.72 8.005l-4.844 1.714a59.636 59.636 0 01-10.53 2.678l-8.484 1.35a31.907 31.907 0 01-29.37-10.9z" fill="#C03B5E"/><path d="M411.875 336.825l-3.235-25.691a140.306 140.306 0 00-11.247-40.028l-1.316-2.926a184.031 184.031 0 00-14.07-25.624l-7.742-11.775-16.205-19.149-8.364-7.575a127.475 127.475 0 00-24.091-17.185l-2.184-1.202a108.338 108.338 0 00-50.754-13.422l-16.878-.233-28.294 3.168-21.486 4.962-16.28 2.307c-3.08.437-6.196.58-9.304.429l-4.75-.231a31.333 31.333 0 01-15.317-4.874l-.355-.227a29.884 29.884 0 01-12.863-32.708l1.74-6.705a49.216 49.216 0 014.742-11.773l11.036-19.634 9.525-16.987a65.244 65.244 0 004.91-11.05l.78-2.31a51.702 51.702 0 00-1.786-37.615l-.353-.789a47.813 47.813 0 00-32.098-26.892l-.395-.098a49.384 49.384 0 00-22.186-.388l-4.664.99a70.056 70.056 0 00-18.653 6.837l-13.225 7.116L68.769 37.16 49.044 47.866a44.815 44.815 0 01-13.61 4.75l-4.42.777a29.011 29.011 0 01-15.768-1.622l-3.899-1.554c-2.277-.907-4.089 2.053-2.244 3.668a21.811 21.811 0 0015.015 5.388l6.225-.186a37.661 37.661 0 009.984-1.658l5.698-1.759a81.637 81.637 0 0014.772-6.205l15.202-8.226 21.486-9.872 14.296-4.491a39.768 39.768 0 0112.888-1.817l3.54.086c6.913.169 13.619 2.786 18.854 7.303a29.435 29.435 0 017.047 9.019 29.204 29.204 0 012.495 19.104l-1.226 5.859a46.318 46.318 0 01-3.382 10.142l-9.419 20.134-11.68 21.923a92.165 92.165 0 00-7.524 18.894l-1.706 6.201a55.874 55.874 0 00-1.813 19.394l.068.821a51.227 51.227 0 0015.29 32.48l.842.821a57.612 57.612 0 0017.243 11.588l1.779.774a68.191 68.191 0 0019.729 5.255l.279.031a70.084 70.084 0 0023.679-1.421l17.287-4.047 31.527-5.149 12.208-.578a84.134 84.134 0 0154.816 17.002l2.265 1.717a98.456 98.456 0 0115.663 14.847l13.476 15.925 14.822 22.678a144.375 144.375 0 0122.066 58.512l3.448 24.058 25.533-21.607z" fill="#FF4878"/><ellipse rx="12.392" ry="8.002" transform="scale(1 -1) rotate(-29.703 -336.629 -386.048)" fill="#EE6D8F"/><ellipse rx="13.248" ry="6.971" transform="scale(1 -1) rotate(-52.537 -139.328 -224.478)" fill="#EE6D8F"/><ellipse rx="13.248" ry="6.971" transform="scale(1 -1) rotate(-85.013 -36.333 -144.414)" fill="#EE6D8F"/><ellipse rx="12.29" ry="6.129" transform="scale(-1 1) rotate(74.049 -147.07 -10.074)" fill="#EE6D8F"/><ellipse rx="10.541" ry="5.979" transform="scale(-1 1) rotate(64.831 -147.971 -48.275)" fill="#EE6D8F"/><ellipse rx="10.541" ry="5.979" transform="scale(-1 1) rotate(56.86 -143.655 -93.435)" fill="#EE6D8F"/><ellipse rx="10.541" ry="5.979" transform="scale(1 -1) rotate(-63.243 33.835 -144.133)" fill="#EE6D8F"/><ellipse rx="10.541" ry="5.979" transform="scale(1 -1) rotate(-7.779 -191.405 -970.205)" fill="#EE6D8F"/><ellipse rx="8.523" ry="4.134" transform="scale(1 -1) rotate(16.667 169.843 337.726)" fill="#EE6D8F"/><ellipse rx="8.224" ry="3.706" transform="scale(1 -1) rotate(31.563 119.575 117.043)" fill="#EE6D8F"/><ellipse rx="9.693" ry="4.018" transform="scale(1 -1) rotate(15.079 251.81 198.77)" fill="#EE6D8F"/><ellipse rx="9.693" ry="3.012" transform="scale(1 -1) rotate(-2.703 -1347.56 -823.815)" fill="#EE6D8F"/><ellipse rx="7.851" ry="3.028" transform="scale(1 -1) rotate(31.563 130.334 128.175)" fill="#EE6D8F"/><ellipse rx="7.029" ry="3.456" transform="scale(1 -1) rotate(16.667 201.041 347.413)" fill="#EE6D8F"/><ellipse rx="9.685" ry="3.662" transform="scale(-1 1) rotate(60.848 -131.56 -69.973)" fill="#EE6D8F"/><ellipse rx="9.685" ry="4.521" transform="scale(1 -1) rotate(-69.145 27.773 -123.52)" fill="#EE6D8F"/><ellipse rx="12.29" ry="6.222" transform="scale(-1 1) rotate(68.061 -148.594 -7.106)" fill="#EE6D8F"/><ellipse rx="12.29" ry="4.875" transform="scale(-1 1) rotate(58.549 -150.507 -50.49)" fill="#EE6D8F"/><ellipse rx="11.751" ry="5.639" transform="scale(1 -1) rotate(-49.797 -173.74 -235.841)" fill="#EE6D8F"/><ellipse rx="11.751" ry="6.892" transform="scale(1 -1) rotate(-70.744 -84.04 -165.116)" fill="#EE6D8F"/><ellipse rx="11.751" ry="6.892" transform="scale(-1 1) rotate(89.849 -127.91 33.795)" fill="#EE6D8F"/></g><defs><clipPath id="auclip0_3339_6808"><path fill="#fff" d="M0 0h222v278H0z"/></clipPath></defs></svg>