<?xml version="1.0" encoding="utf-8"?><svg width="326" height="427" fill="none" xmlns="http://www.w3.org/2000/svg" viewBox="0 0 326 427"><path d="M325.217 359.136c-44.198 42.788-129.404 68.978-168.142 66.743 0 0 2.566-5.151 2.98-8.195.413-3.044.355-2.805.413-3.102l.013-.008c.808-.349 38.464-10.477 69.386-22.086 8.306-3.118 16.125-6.343 22.615-9.514 17.129-8.371 29.23-15.783 39.68-23.83 6.256-4.817 11.92-9.86 17.718-15.473l.009.009 15.328 15.456zM149.781.254c3.014.493 4.107.706 5.77 1.126 1.058.268 2.323.625 2.811.794.488.168 1.554.509 2.367.755.814.247 1.813.59 2.22.762.407.173.946.314 1.198.315.253 0 .585.094.74.207.257.188 2.293.754 5.311 1.478 1.809.434 3.891.75 6.658 1.012 1.384.131 3.581.344 4.883.473s4.231.348 6.51.486c5.411.33 8.375.632 11.096 1.133 9.646 1.777 17.956 4.388 25.005 7.856 5.239 2.579 15.29 8.868 18.801 11.765 3.292 2.716 3.644 3.063 5.07 5.015 1.526 2.087 2.021 3.493 2.021 5.746 0 1.07.054 1.945.122 1.945.914 0 5.032.855 6.586 1.368 9.482 3.13 20.958 12.284 26.597 21.218 1.597 2.53 3.576 6.505 4.558 9.157.374 1.007.789 2.051.924 2.32.259.518 1.993 6.334 2.801 9.4.265 1.008.661 2.49.879 3.297.219.805.615 2.289.883 3.296.266 1.007.613 2.27.77 2.808 1.85 6.341 2.255 17.585.84 23.342-.789 3.211-1.231 4.829-1.662 6.081-.272.793-.866 2.334-1.492 3.906-.836 2.098-1.73 4.252-1.998 4.762-.211.403-1.081 2.106-1.932 3.785-1.515 2.986-2.043 3.974-3.987 7.447-.526.941-1.342 2.424-1.812 3.297L22.836 110.33l-.614.618a20.239 20.239 0 00-1.413 1.587c-3.136 3.902-5.618 9.64-6.759 15.758-.334 1.792-.44 5.336-.319 7.953.056 1.206.162 2.216.315 2.765.203.725.31 1.366.237 1.426-.163.135-.587.038-1.207-.261-.527-.255-1.196-.656-1.966-1.185-2.82-1.937-5.194-4.79-7.377-8.867-1.62-3.025-3.017-8.705-3.543-14.406-.285-3.089-.261-4.331.153-7.928.27-2.345.556-4.349.634-4.454.078-.104.274-.877.435-1.718.161-.84.413-1.857.559-2.26.146-.403.548-1.612.894-2.686.346-1.074.744-2.173.884-2.442.14-.268.521-1.147.847-1.953.566-1.401 1.242-2.858 1.814-3.907.146-.269.761-1.752 1.366-3.296.605-1.545 1.212-2.913 1.348-3.04.136-.128.25-.403.25-.61.001-.21.201-.694.444-1.079.243-.384.442-.802.442-.929 0-.21.486-1.179 1.681-3.348.25-.454.902-1.438 1.448-2.186.546-.748.94-1.404.873-1.458-.199-.165-4.99 2.945-6.04 3.92-.936.869-1.217.528-1.212-1.465.011-3.733 1.78-10.059 3.907-13.979 3.14-5.786 4.879-7.468 12.807-12.402 2.93-1.823 6.059-3.886 6.954-4.585 1.57-1.226 8.294-5.993 12.719-9.017 1.18-.806 2.297-1.585 2.485-1.73.586-.457 9.553-6.285 11.044-7.178 3.714-2.224 13.345-7.33 13.828-7.33.078 0 .839-.34 1.692-.754 4.045-1.969 12.882-5.385 18.005-6.96 1.058-.326 2.19-.69 2.515-.81.326-.12 1.458-.458 2.516-.75 1.058-.293 2.127-.62 2.377-.726.25-.106.91-.276 1.47-.377.558-.102 1.22-.275 1.469-.385.25-.11 1.453-.434 2.673-.72 1.221-.285 2.552-.618 2.959-.74.407-.12 1.273-.327 1.924-.458.651-.132 1.982-.417 2.959-.634.976-.217 2.541-.552 3.477-.744 3.429-.702 5.143-1.064 6.879-1.452C127.151 1.923 133.683.816 138.24.339c2.036-.213 10.381-.274 11.541-.085zM30.278 212.722l-1.802-30.634L28 174l40.619 78.884H45.084c-17.084 0-12.56-1.945-14.806-40.162z" fill="#fff"/><path d="M118 318.5c-1.868 3.736 20.039 41.989 34.983 56.932 11.913 11.913 9.976 30.999 7.498 39.142.808-.349 38.464-10.477 69.386-22.086 8.306-3.118 16.125-6.343 22.615-9.514 17.129-8.371 29.23-15.783 39.68-23.83 6.256-4.817 11.92-9.86 17.718-15.473l.009.009.003-.003-50.435-63.511s7.472-95.889 16.812-89.662c9.34 6.226 18.733-18.683 16.812-52.303-.214-3.742-.563-7.37-1.033-10.886-.836 2.098-1.73 4.252-1.998 4.762-.211.403-1.081 2.106-1.932 3.785-1.515 2.986-2.043 3.974-3.987 7.447-.526.941-1.342 2.424-1.812 3.297L22.836 110.33l-.614.618a20.239 20.239 0 00-1.413 1.587c-3.51 9.342-5.875 17.602-7.078 23.711.056 1.206.162 2.216.315 2.765.203.725.31 1.366.237 1.426-.163.135-.587.038-1.207-.261a38.233 38.233 0 00-.19 1.76c-1.211 14.527 8.561 30.622 15.59 40.152L28 174l40.619 78.884H58.194c4.32 2.821 4.377 20.757 7.806 39.616 3.736 20.548 4.736 28.802 14.132 33.5 8.104 4.052 39.736-11.236 37.868-7.5z" fill="#fff"/></svg>