<?xml version="1.0" encoding="utf-8"?><svg width="1382" height="591" fill="none" xmlns="http://www.w3.org/2000/svg" viewBox="0 0 1382 591"><g clip-path="url(#azclip0_2530_4889)"><path d="M1159.6 294c-10.93 0-21-1.8-30.2-5.4-9.2-3.6-17.2-8.6-24-15-6.8-6.533-12.07-14.133-15.8-22.8-3.73-8.8-5.6-18.4-5.6-28.8 0-10.4 1.87-19.933 5.6-28.6 3.73-8.8 9-16.4 15.8-22.8 6.8-6.533 14.8-11.6 24-15.2 9.2-3.6 19.2-5.4 30-5.4 10.93 0 20.93 1.8 30 5.4 9.2 3.6 17.2 8.667 24 15.2 6.8 6.4 12.07 14 15.8 22.8 3.73 8.667 5.6 18.2 5.6 28.6 0 10.4-1.87 20-5.6 28.8-3.73 8.8-9 16.4-15.8 22.8-6.8 6.4-14.8 11.4-24 15-9.07 3.6-19 5.4-29.8 5.4zm-.2-22.8c7.07 0 13.6-1.2 19.6-3.6 6-2.4 11.2-5.8 15.6-10.2 4.4-4.533 7.8-9.733 10.2-15.6 2.53-6 3.8-12.6 3.8-19.8 0-7.2-1.27-13.733-3.8-19.6-2.4-6-5.8-11.2-10.2-15.6-4.4-4.533-9.6-8-15.6-10.4-6-2.4-12.53-3.6-19.6-3.6-7.07 0-13.6 1.2-19.6 3.6-5.87 2.4-11.07 5.867-15.6 10.4-4.4 4.4-7.87 9.6-10.4 15.6-2.4 5.867-3.6 12.4-3.6 19.6 0 7.067 1.2 13.6 3.6 19.6 2.53 6 6 11.267 10.4 15.8 4.4 4.4 9.6 7.8 15.6 10.2 6 2.4 12.53 3.6 19.6 3.6zM999.539 291.668v-118h-46.4v-22h118.801v22h-46.4v118h-26.001zM816.271 291.668l63-140h25.6l63.2 140h-27.2l-54.2-126.2h10.4l-54 126.2h-26.8zm29-32.4l7-20.4h75.6l7 20.4h-89.6z" fill="#fff"/><path d="M972.378 287.979l2.527-.805-3.393-1.753a59.653 59.653 0 00-11.502-4.505 59.632 59.632 0 01-20.225-10.017l-9.991-7.599a124.78 124.78 0 01-18.82-17.669l-2.144-2.479a156.26 156.26 0 01-20.257-29.741l-24.399-46.576-14.681-22.604a170.428 170.428 0 00-17.726-22.798l-9.885-10.702a108.78 108.78 0 00-41.545-27.982l-8.788-3.311a68.251 68.251 0 00-71.34 14.632l-2.395 2.3a77.797 77.797 0 00-16.066 22.058l-2.396 4.921a108.485 108.485 0 00-10.333 35.915l-3.094 28.778-2.246 46.047-1.974 25.43a194.021 194.021 0 01-6.602 37.291l-2.608 9.316a140.35 140.35 0 01-21.717 44.807l-2.604 3.575a112.974 112.974 0 01-25.585 25.361l-1.179.843a106.605 106.605 0 01-61.339 19.898l-1.171.007a120.724 120.724 0 01-58.543-14.713l-11.202-6.103a170.244 170.244 0 01-30.264-21.035l-41.235-35.871-19.641-19.408a256.188 256.188 0 00-50.49-38.77l-3.785-2.219A225.271 225.271 0 00205.507 231.6a226.031 226.031 0 00-64.309 10.614l-41.118 13.099-35.74 15.551A377.591 377.591 0 00-81.356 383.108l-23.943 30.323 28.564 74.797 61.915-56.259 58.316-46.318 2.29-1.446a478.216 478.216 0 01110.139-51.285l22.139-5.175a135.557 135.557 0 0191.629 10.832l2.79 1.399a155.624 155.624 0 0123.002 14.163l25.454 18.905 51.759 47.787a248.978 248.978 0 0067.944 41.212l4.127 1.672a208.637 208.637 0 0028.101 9.128l3.425.85a178.672 178.672 0 0093.31-1.955l27.808-8.151 3.372-1.074a168.305 168.305 0 0053.218-28.279l2.358-1.862a150.192 150.192 0 0055.295-94.635l2.574-16.45a228.622 228.622 0 002.678-41.09l-.813-32.36 1.855-47.275 2.063-29.607a44.239 44.239 0 0114.032-29.344 44.25 44.25 0 0132.638-11.742 44.27 44.27 0 0124.358 9.032l11.41 8.726a91.088 91.088 0 0118.856 19.511l12.855 18.053 7.211 13.127a258.927 258.927 0 0024.058 36.21l7.138 9.001a133.327 133.327 0 0016.765 17.578l14.467 12.633a71.33 71.33 0 0068.576 14.239z" fill="#C03B5E"/><path d="M-122.132 345.723l36.643-44.82a313.83 313.83 0 0168.849-62.459l5.968-3.98a411.33 411.33 0 0157.085-31.824l28.652-13.106 53.439-17.024 24.838-4.414a285.06 285.06 0 0166.045-3.936l5.566.317a242.164 242.164 0 01112.078 34.862l32.245 19.607 49.83 39.606 34.805 34.92 28.094 23.707a110.11 110.11 0 0017.114 11.864l9.272 5.204a70.03 70.03 0 0034.802 8.96l.942-.007a66.82 66.82 0 0063.214-46.675l4.67-14.767a110.184 110.184 0 005-27.932l2.418-50.298 2.135-43.488a145.774 145.774 0 013.824-26.764l1.268-5.302a115.59 115.59 0 0148.059-69.126l1.606-1.076a106.904 106.904 0 0192.741-12.81l.864.282a110.408 110.408 0 0142.485 25.617l7.658 7.414a156.61 156.61 0 0127.21 35.108l16.599 29.186 19.813 43.079 24.644 43.709a100.181 100.181 0 0020.137 25.161l7.447 6.723a64.861 64.861 0 0031.794 15.657l9.232 1.688c5.392.986 5.307 8.745-.106 9.612a48.765 48.765 0 01-34.841-7.628l-11.569-7.745a84.214 84.214 0 01-16.942-15l-8.704-10.099a182.466 182.466 0 01-20.609-29.3l-19.025-33.637-28.972-44.22-21.743-25.489a88.93 88.93 0 00-22.254-18.748l-6.808-4.042c-13.294-7.893-29.105-10.9-44.387-8.562-8.479 1.298-16.723 4.268-24.059 8.712a65.29 65.29 0 00-27.418 33.222l-4.637 12.554a103.563 103.563 0 00-5.639 23.229l-6.075 49.324-3.917 55.399a206.105 206.105 0 01-8.19 44.725l-4.134 13.77a124.894 124.894 0 01-19.602 38.889l-1.103 1.475a114.553 114.553 0 01-67.541 43.361l-2.571.556a128.867 128.867 0 01-46.426 1.467l-4.287-.646a152.54 152.54 0 01-43.612-13.48l-.565-.273a156.697 156.697 0 01-43.163-30.817l-27.937-28.2-53.601-47.199-22.438-15.596a188.122 188.122 0 00-124.024-32.906l-6.33.563a220.034 220.034 0 00-47.301 9.518l-44.441 14.157-55.012 25.35a322.832 322.832 0 00-111.297 84.621l-35.106 41.473-22.699-71.253z" fill="#FF4878"/><ellipse cx="-7.359" cy="361.703" rx="42.147" ry="20.475" transform="rotate(156.105 -7.36 361.703)" fill="#EE6D8F"/><ellipse cx="65.985" cy="314.885" rx="35.412" ry="18.187" transform="rotate(156.105 65.985 314.885)" fill="#EE6D8F"/><ellipse cx="141.17" cy="284.61" rx="35.412" ry="18.187" transform="rotate(167.07 141.17 284.61)" fill="#EE6D8F"/><ellipse cx="234.768" cy="273.239" rx="35.412" ry="18.187" transform="rotate(-176.816 234.768 273.239)" fill="#EE6D8F"/><ellipse cx="156.085" cy="326.716" rx="35.412" ry="16.412" transform="rotate(167.07 156.085 326.716)" fill="#EE6D8F"/><ellipse cx="231.688" cy="318.65" rx="32.803" ry="17.459" transform="rotate(-170.049 231.688 318.65)" fill="#EE6D8F"/><ellipse cx="301.622" cy="349.282" rx="32.803" ry="17.459" transform="rotate(-150.277 301.622 349.282)" fill="#EE6D8F"/><ellipse cx="319.765" cy="308.147" rx="35.097" ry="20.438" transform="rotate(-150.277 319.765 308.147)" fill="#EE6D8F"/><ellipse cx="386.712" cy="372.837" rx="35.097" ry="20.438" transform="rotate(-143.778 386.712 372.837)" fill="#EE6D8F"/><ellipse cx="449.972" cy="418.498" rx="35.097" ry="20.438" transform="rotate(-155.831 449.972 418.498)" fill="#EE6D8F"/><ellipse cx="521.178" cy="434.29" rx="27.705" ry="17.891" transform="rotate(-177.612 521.178 434.29)" fill="#EE6D8F"/><ellipse cx="588.168" cy="426.185" rx="29.619" ry="15.585" transform="rotate(159.554 588.168 426.185)" fill="#EE6D8F"/><ellipse cx="648.807" cy="383.789" rx="29.619" ry="15.585" transform="rotate(127.078 648.807 383.789)" fill="#EE6D8F"/><ellipse cx="678.443" cy="312.766" rx="27.478" ry="13.703" transform="rotate(106.14 678.443 312.766)" fill="#EE6D8F"/><ellipse cx="688.137" cy="245.152" rx="23.567" ry="13.367" transform="rotate(96.922 688.137 245.152)" fill="#EE6D8F"/><ellipse cx="693.985" cy="174.28" rx="23.567" ry="13.367" transform="rotate(88.951 693.985 174.28)" fill="#EE6D8F"/><ellipse cx="720.84" cy="114.852" rx="23.567" ry="13.367" transform="rotate(148.848 720.84 114.852)" fill="#EE6D8F"/><ellipse cx="771.321" cy="109.042" rx="23.567" ry="13.367" transform="rotate(-155.688 771.321 109.042)" fill="#EE6D8F"/><ellipse cx="820.093" cy="138.807" rx="19.054" ry="9.242" transform="rotate(-131.242 820.093 138.807)" fill="#EE6D8F"/><ellipse cx="854.762" cy="188.92" rx="18.387" ry="8.287" transform="rotate(-116.345 854.762 188.92)" fill="#EE6D8F"/><ellipse cx="874.037" cy="236.343" rx="21.672" ry="8.984" transform="rotate(-132.83 874.037 236.343)" fill="#EE6D8F"/><ellipse cx="910.777" cy="274.684" rx="21.672" ry="6.735" transform="rotate(-150.612 910.777 274.684)" fill="#EE6D8F"/><ellipse cx="835.977" cy="187.656" rx="17.554" ry="6.769" transform="rotate(-116.345 835.977 187.656)" fill="#EE6D8F"/><ellipse cx="802.204" cy="150.129" rx="15.715" ry="7.726" transform="rotate(-131.242 802.204 150.129)" fill="#EE6D8F"/><ellipse cx="720.693" cy="193.866" rx="21.653" ry="8.186" transform="rotate(92.94 720.693 193.866)" fill="#EE6D8F"/><ellipse cx="741.92" cy="140.109" rx="21.653" ry="10.108" transform="rotate(142.946 741.92 140.109)" fill="#EE6D8F"/><ellipse cx="710.877" cy="331.206" rx="27.478" ry="13.91" transform="rotate(100.152 710.877 331.206)" fill="#EE6D8F"/><ellipse cx="716.346" cy="257.753" rx="27.478" ry="10.9" transform="rotate(90.64 716.346 257.753)" fill="#EE6D8F"/><ellipse cx="576.65" cy="465.856" rx="26.272" ry="12.607" transform="rotate(162.294 576.65 465.856)" fill="#EE6D8F"/><ellipse cx="643.843" cy="438.584" rx="26.272" ry="15.409" transform="rotate(141.347 643.843 438.584)" fill="#EE6D8F"/><ellipse cx="688.496" cy="391.68" rx="26.272" ry="15.409" transform="rotate(121.94 688.496 391.68)" fill="#EE6D8F"/><ellipse cx="506.591" cy="475.156" rx="24.707" ry="16.124" transform="rotate(-171.922 506.591 475.156)" fill="#EE6D8F"/><ellipse cx="435.297" cy="460.492" rx="32.239" ry="17.977" transform="rotate(-155.831 435.297 460.492)" fill="#EE6D8F"/><ellipse cx="361.415" cy="407.103" rx="31.541" ry="16.866" transform="rotate(-143.778 361.415 407.103)" fill="#EE6D8F"/><ellipse cx="82.783" cy="361.563" rx="32.961" ry="16.412" transform="rotate(156.053 82.783 361.563)" fill="#EE6D8F"/><ellipse cx="15.777" cy="401.854" rx="32.961" ry="16.412" transform="rotate(146.611 15.777 401.854)" fill="#EE6D8F"/><path d="M73.793 522.597L56 382.403h31.987l15.594 123.971H86.788l66.173-123.971h29.988l14.994 123.971H181.95l65.774-123.971h32.187L205.94 522.597h-34.586L157.36 413.646h9.796l-58.577 108.951H73.793zM316.384 438.881h67.373l-4.998 25.235h-67.373l4.998-25.235zm-9.197 57.68h76.37l-5.398 26.036H269.802l27.989-140.194h105.758l-5.398 26.036H324.78l-17.593 88.122zM403.929 522.597l27.988-140.194h67.574c15.193 0 26.789 2.737 34.786 8.212 8.13 5.474 12.195 13.418 12.195 23.833 0 8.812-2.333 16.222-6.997 22.23-4.532 6.008-10.596 10.548-18.193 13.619-7.597 3.071-15.861 4.606-24.79 4.606l5.198-8.011c11.728 0 21.058 2.737 27.988 8.212 7.064 5.34 10.596 13.084 10.596 23.232 0 9.88-2.732 18.158-8.196 24.834-5.332 6.542-12.729 11.416-22.192 14.62-9.463 3.204-20.325 4.807-32.587 4.807h-73.37zm37.185-24.434h38.185c8.929 0 15.927-1.669 20.991-5.007 5.198-3.471 7.797-8.545 7.797-15.221 0-5.207-1.932-8.879-5.798-11.015-3.731-2.27-8.796-3.405-15.194-3.405h-42.783l4.799-23.632h36.385c5.598 0 10.396-.735 14.394-2.203 4.132-1.469 7.264-3.672 9.397-6.61 2.132-3.07 3.198-6.742 3.198-11.015 0-4.673-1.799-8.011-5.398-10.014-3.598-2.136-8.663-3.204-15.193-3.204h-32.787l-17.993 91.326zM652 525c-10.263 0-19.859-1.402-28.788-4.206-8.93-2.804-16.394-6.809-22.392-12.016l15.594-23.833c4.532 4.005 10.063 7.143 16.594 9.413 6.664 2.27 13.727 3.404 21.191 3.404 6.398 0 11.796-.801 16.194-2.403 4.531-1.602 7.93-3.939 10.196-7.01 2.399-3.07 3.598-6.675 3.598-10.814 0-5.074-1.932-8.813-5.797-11.216-3.732-2.537-9.463-3.805-17.194-3.805h-14.794l4.199-21.43 47.181-44.261 2.199 11.616H626.21l5.398-26.036h97.961l-3.998 21.029-47.181 44.261-15.194-9.212h7.197c9.729 0 18.059 1.535 24.99 4.606 6.93 2.937 12.262 7.21 15.993 12.818 3.732 5.474 5.598 12.016 5.598 19.627 0 9.48-2.799 17.958-8.396 25.435-5.465 7.477-13.129 13.352-22.991 17.624C675.857 522.864 664.662 525 652 525zM743.923 524.199c-5.331 0-9.73-1.669-13.195-5.007-3.465-3.471-5.198-7.811-5.198-13.018 0-6.275 1.999-11.282 5.998-15.021 4.131-3.872 9.063-5.808 14.794-5.808 5.331 0 9.663 1.669 12.995 5.007 3.465 3.338 5.198 7.677 5.198 13.018 0 4.139-1 7.811-2.999 11.015-1.866 3.071-4.332 5.475-7.397 7.21-3.066 1.736-6.464 2.604-10.196 2.604zM838.029 525c-10.396 0-19.392-2.07-26.989-6.209-7.464-4.272-13.262-10.347-17.393-18.225-4.132-8.011-6.198-17.557-6.198-28.639 0-12.684 1.733-24.567 5.198-35.649 3.599-11.082 8.597-20.829 14.994-29.241 6.398-8.545 14.061-15.154 22.991-19.827 9.063-4.807 18.992-7.21 29.788-7.21 10.396 0 19.326 2.136 26.79 6.409 7.596 4.139 13.461 10.147 17.592 18.025 4.132 7.877 6.198 17.424 6.198 28.639 0 12.684-1.799 24.567-5.398 35.649-3.465 11.082-8.396 20.896-14.794 29.441-6.397 8.412-14.061 15.021-22.991 19.827-8.93 4.673-18.859 7.01-29.788 7.01zm2.999-27.438c6.131 0 11.529-2.003 16.193-6.008 4.665-4.139 8.53-9.48 11.596-16.022 3.199-6.543 5.598-13.486 7.197-20.829 1.599-7.343 2.399-14.286 2.399-20.829 0-9.212-1.866-15.888-5.598-20.027-3.732-4.273-8.863-6.409-15.394-6.409-6.131 0-11.528 2.069-16.193 6.208-4.665 4.006-8.597 9.28-11.796 15.822-3.065 6.543-5.397 13.485-6.997 20.829-1.599 7.343-2.399 14.286-2.399 20.829 0 9.079 1.866 15.755 5.598 20.027 3.865 4.273 8.996 6.409 15.394 6.409zM52 292V152h26v140H52zM115.87 292V152h21.4l87.804 107.8h-10.601V152h25.801v140h-21.401L131.07 184.2h10.6V292h-25.8zM306.191 292V174h-46.402v-22h118.804v22h-46.402v118h-26zM422.107 210.2h69.603v21.4h-69.603v-21.4zm2 60h79.003V292H398.106V152H500.31v21.8h-76.203v96.4zM597.498 294c-10.934 0-21.001-1.733-30.201-5.2-9.067-3.6-17.001-8.6-23.801-15-6.8-6.533-12.067-14.2-15.801-23-3.733-8.8-5.6-18.4-5.6-28.8 0-10.4 1.867-20 5.6-28.8 3.734-8.8 9.001-16.4 15.801-22.8 6.934-6.533 15.001-11.533 24.201-15 9.2-3.6 19.267-5.4 30.201-5.4 11.867 0 22.534 1.933 32.001 5.8 9.601 3.867 17.668 9.533 24.201 17l-16.4 16c-5.467-5.467-11.401-9.467-17.801-12-6.267-2.667-13.201-4-20.801-4-7.334 0-14.134 1.2-20.401 3.6-6.267 2.4-11.667 5.8-16.2 10.2-4.534 4.4-8.067 9.6-10.601 15.6-2.4 6-3.6 12.6-3.6 19.8 0 7.067 1.2 13.6 3.6 19.6 2.534 6 6.067 11.267 10.601 15.8 4.533 4.4 9.867 7.8 16 10.2 6.134 2.4 12.934 3.6 20.401 3.6 6.934 0 13.601-1.067 20.001-3.2 6.533-2.267 12.734-6 18.601-11.2l14.8 19.4c-7.334 5.867-15.867 10.333-25.601 13.4-9.6 2.933-19.334 4.4-29.201 4.4zm30.201-21.2v-52.4H652.3v55.8l-24.601-3.4zM686.593 292V152h57.603c12.4 0 23 2 31.801 6 8.933 4 15.8 9.733 20.6 17.2 4.801 7.467 7.201 16.333 7.201 26.6 0 10.267-2.4 19.133-7.201 26.6-4.8 7.333-11.667 13-20.6 17-8.801 3.867-19.401 5.8-31.801 5.8h-43.202l11.6-11.8V292h-26.001zm91.604 0l-35.401-50.8h27.801l35.601 50.8h-28.001zm-65.603-49.8l-11.6-12.4h42.002c11.467 0 20.067-2.467 25.8-7.4 5.867-4.933 8.801-11.8 8.801-20.6 0-8.933-2.934-15.8-8.801-20.6-5.733-4.8-14.333-7.2-25.8-7.2h-42.002l11.6-12.8v81zM1262.4 292V152h57.6c12.4 0 23 2 31.8 6 8.93 4 15.8 9.733 20.6 17.2 4.8 7.467 7.2 16.333 7.2 26.6 0 10.267-2.4 19.133-7.2 26.6-4.8 7.333-11.67 13-20.6 17-8.8 3.867-19.4 5.8-31.8 5.8h-43.2l11.6-11.8V292h-26zm91.6 0l-35.4-50.8h27.8L1382 292h-28zm-65.6-49.8l-11.6-12.4h42c11.46 0 20.07-2.467 25.8-7.4 5.87-4.933 8.8-11.8 8.8-20.6 0-8.933-2.93-15.8-8.8-20.6-5.73-4.8-14.34-7.2-25.8-7.2h-42l11.6-12.8v81z" fill="#fff"/></g><defs><clipPath id="azclip0_2530_4889"><path fill="#fff" transform="translate(-261)" d="M0 0h1643v591H0z"/></clipPath></defs></svg>