<?xml version="1.0" encoding="utf-8"?><svg width="278" height="342" fill="none" xmlns="http://www.w3.org/2000/svg" viewBox="0 0 278 342"><path d="M232.541 152v13.897a95.155 95.155 0 01-7.191 36.293 94.856 94.856 0 01-20.479 30.767 94.451 94.451 0 01-30.649 20.559 94.155 94.155 0 01-36.153 7.219 94.159 94.159 0 01-36.153-7.219 94.461 94.461 0 01-30.648-20.559 94.859 94.859 0 01-20.48-30.767 95.16 95.16 0 01-7.19-36.293V152H0v93.722L139 342l139-96.278V152h-45.459z" fill="#2E3D6A"/><path d="M203 163.513a64.504 64.504 0 00-77.08-63.274 64.499 64.499 0 1058.188 108.869A64.496 64.496 0 00203 163.513zm-95.614 0a31.153 31.153 0 1162.307-.001 31.153 31.153 0 01-62.307.001zM43.74 127H17V96.936l57.531-61.532H99.26V0H126v62.337H86.09l-42.35 45.278V127zM259 127h-26.74v-19.385l-42.336-45.278H150V0h26.74v35.404h24.729L259 96.936V127z" fill="#2E3D6A"/></svg>