<?xml version="1.0" encoding="utf-8"?><svg width="1920" height="1440" fill="none" xmlns="http://www.w3.org/2000/svg" viewBox="0 0 1920 1440"><g clip-path="url(#kclip0)"><mask id="ka" maskUnits="userSpaceOnUse" x="-720" y="-206" width="3043" height="1864"><path transform="matrix(-1 0 0 1 2322 -206)" fill="#C4C4C4" d="M0 0h3041v1864H0z"/></mask><g mask="url(#ka)"><path d="M-111.836 1427.99V919.992c0-.321-.125-.42.135-.608 8.8-6.355 446.896-321.617 842.365-391.74 794.946-140.955 1400.496 137 1400.496 137v158.5S1118.5 593.5 847.5 957c-343.374 460.58-937.657 471.74-958.758 471.99-.555.01-.578-.44-.578-1z" fill="#404040"/><path d="M1078.16 3.981c528.83-27.574 1073.25 92.745 1089.7 96.415.46.101.38.417.38.885v608.596c0 .74-.38 1.418-1.04 1.097C2137.11 696.475 1463.42 377.409 889.5 591 302.666 809.396 360.435 1018.76-177.895 952.593c-.501-.061-.909-.491-.909-.996V317.231c0-.306-.093-.413.149-.601 8.079-6.273 346.668-265.192 1256.815-312.649z" fill="#4F4F4F"/><ellipse rx="145.282" ry="40.797" transform="scale(1 -1) rotate(.707 61025.276 117278.706)" fill="#EE6D8F"/><ellipse rx="155.878" ry="47.635" transform="scale(1 -1) rotate(18.613 2983.56 2932.25)" fill="#EE6D8F"/><ellipse rx="155.878" ry="62.743" transform="scale(1 -1) rotate(41.866 1725.255 492.228)" fill="#EE6D8F"/><ellipse rx="146.065" ry="77.74" transform="scale(1 -1) rotate(29.106 1874.95 1115.37)" fill="#EE6D8F"/><ellipse rx="107.8" ry="57.374" transform="scale(1 -1) rotate(14.17 3081.717 4022.776)" fill="#EE6D8F"/><ellipse rx="107.8" ry="41.968" transform="scale(1 -1) rotate(-3.284 -9711.951 -24361.19)" fill="#EE6D8F"/><ellipse rx="94.367" ry="34" transform="scale(1 -1) rotate(-7.177 -4207.803 -13732.383)" fill="#EE6D8F"/><ellipse rx="190.377" ry="101.324" transform="scale(1 -1) rotate(29.152 2114.92 323.775)" fill="#EE6D8F"/><ellipse rx="215.546" ry="114.719" transform="scale(1 -1) rotate(18.212 3503.006 -621.847)" fill="#EE6D8F"/><ellipse rx="155.878" ry="75.965" transform="scale(1 -1) rotate(29.503 2605.194 260.41)" fill="#EE6D8F"/><ellipse rx="155.878" ry="70.943" transform="scale(1 -1) rotate(9.014 8687.342 -374.25)" fill="#EE6D8F"/><ellipse rx="138.105" ry="80.422" transform="scale(1 -1) rotate(24.036 2568.984 -851.881)" fill="#EE6D8F"/><ellipse rx="156.63" ry="44.813" transform="scale(1 -1) rotate(-6.464 -5884.564 -16754.448)" fill="#EE6D8F"/></g></g><defs><clipPath id="kclip0"><path fill="#fff" d="M0 0h1920v1440H0z"/></clipPath></defs></svg>