<?xml version="1.0" encoding="utf-8"?><svg width="1366" height="266" fill="none" xmlns="http://www.w3.org/2000/svg" viewBox="0 0 1366 266"><mask id="bja" maskUnits="userSpaceOnUse" x="0" y="0" width="1366" height="266" fill="#000"><path fill="#fff" d="M0 0h1366v266H0z"/><path d="M121.716 265c33.434 0 64.757-7.734 83.058-15.467V133.879h-92.209v37.262h41.177v48.511c-7.742 2.813-20.412 5.273-32.73 5.273-51.735 0-63.35-32.34-63.35-81.203v-10.898c0-43.59 15.838-77.337 71.093-77.337 31.674 0 50.679 7.031 65.109 12.304V27.013c-14.43-7.03-37.306-14.06-70.037-14.06C59.07 12.952 1 43.182 1 135.987v7.382C1 230.901 47.808 265 121.716 265zM293.584 264.297c23.228 0 40.473-7.734 56.311-19.686h1.759l3.872 16.171h42.936V76.228h-49.271v139.909c-9.855 4.922-21.469 9.491-35.546 9.491-20.413 0-27.1-7.03-27.1-24.958V76.228h-49.272v134.285c0 36.91 20.765 53.784 56.311 53.784zM481.394 264.297c23.58 0 39.417-7.382 47.512-18.28h2.112l3.871 14.765h40.825V128.606c0-39.723-26.395-55.542-70.036-55.542-26.396 0-47.864 3.515-66.165 10.194v33.396c12.318-2.812 28.859-5.273 47.16-5.273 29.211 0 39.77 4.921 39.77 27.771v11.6l-39.77 5.273c-38.009 4.922-62.645 19.686-62.645 55.894 0 35.504 23.932 52.378 57.366 52.378zm16.189-33.044c-14.781 0-25.339-6.679-25.339-23.553 0-16.17 8.094-22.849 24.987-24.607l29.212-2.812v41.832c-5.632 5.273-17.246 9.14-28.86 9.14zM609.853 260.782h49.623V128.606c11.262-6.328 26.748-10.546 43.289-10.546 4.223 0 10.91.703 15.133 1.406v-43.59c-2.111-1.054-6.334-1.406-11.262-1.406-19.356 0-37.305 9.843-47.16 23.553h-1.759V76.228h-47.864v184.554zM802.832 264.297c23.58 0 40.473-6.679 52.439-17.928h1.76l3.871 14.413h42.233V1h-49.272v81.204c-7.742-4.219-21.468-9.492-41.881-9.492-48.568 0-83.41 28.123-83.41 96.671v4.57c0 66.088 36.954 90.344 74.26 90.344zm18.301-37.262c-24.988 0-41.529-11.952-41.529-55.191v-6.679c0-42.887 15.837-56.245 41.881-56.245 14.077 0 26.395 3.515 32.378 8.085v99.484c-6.687 4.921-17.597 10.546-32.73 10.546zM939.127 49.511h50.327V8.382h-50.327v41.13zm.351 211.271h49.624V76.228h-49.624v184.554zM1072.89 264.297c23.58 0 39.42-7.382 47.51-18.28h2.11l3.87 14.765h40.83V128.606c0-39.723-26.4-55.542-70.04-55.542-26.39 0-47.86 3.515-66.16 10.194v33.396c12.32-2.812 28.86-5.273 47.16-5.273 29.21 0 39.77 4.921 39.77 27.771v11.6l-39.77 5.273c-38.01 4.922-62.65 19.686-62.65 55.894 0 35.504 23.93 52.378 57.37 52.378zm16.19-33.044c-14.78 0-25.34-6.679-25.34-23.553 0-16.17 8.09-22.849 24.99-24.607l29.21-2.812v41.832c-5.63 5.273-17.25 9.14-28.86 9.14zM1201.35 260.782h49.62v-139.91c9.86-4.218 23.93-8.437 36.25-8.437 21.82 0 28.16 6.68 28.16 23.905v124.442H1365V123.684c0-36.207-19.01-50.972-54.2-50.972-23.23 0-44.34 7.734-59.83 19.686h-1.76v-16.17h-47.86v184.554z"/></mask><path d="M121.716 265c33.434 0 64.757-7.734 83.058-15.467V133.879h-92.209v37.262h41.177v48.511c-7.742 2.813-20.412 5.273-32.73 5.273-51.735 0-63.35-32.34-63.35-81.203v-10.898c0-43.59 15.838-77.337 71.093-77.337 31.674 0 50.679 7.031 65.109 12.304V27.013c-14.43-7.03-37.306-14.06-70.037-14.06C59.07 12.952 1 43.182 1 135.987v7.382C1 230.901 47.808 265 121.716 265zM293.584 264.297c23.228 0 40.473-7.734 56.311-19.686h1.759l3.872 16.171h42.936V76.228h-49.271v139.909c-9.855 4.922-21.469 9.491-35.546 9.491-20.413 0-27.1-7.03-27.1-24.958V76.228h-49.272v134.285c0 36.91 20.765 53.784 56.311 53.784zM481.394 264.297c23.58 0 39.417-7.382 47.512-18.28h2.112l3.871 14.765h40.825V128.606c0-39.723-26.395-55.542-70.036-55.542-26.396 0-47.864 3.515-66.165 10.194v33.396c12.318-2.812 28.859-5.273 47.16-5.273 29.211 0 39.77 4.921 39.77 27.771v11.6l-39.77 5.273c-38.009 4.922-62.645 19.686-62.645 55.894 0 35.504 23.932 52.378 57.366 52.378zm16.189-33.044c-14.781 0-25.339-6.679-25.339-23.553 0-16.17 8.094-22.849 24.987-24.607l29.212-2.812v41.832c-5.632 5.273-17.246 9.14-28.86 9.14zM609.853 260.782h49.623V128.606c11.262-6.328 26.748-10.546 43.289-10.546 4.223 0 10.91.703 15.133 1.406v-43.59c-2.111-1.054-6.334-1.406-11.262-1.406-19.356 0-37.305 9.843-47.16 23.553h-1.759V76.228h-47.864v184.554zM802.832 264.297c23.58 0 40.473-6.679 52.439-17.928h1.76l3.871 14.413h42.233V1h-49.272v81.204c-7.742-4.219-21.468-9.492-41.881-9.492-48.568 0-83.41 28.123-83.41 96.671v4.57c0 66.088 36.954 90.344 74.26 90.344zm18.301-37.262c-24.988 0-41.529-11.952-41.529-55.191v-6.679c0-42.887 15.837-56.245 41.881-56.245 14.077 0 26.395 3.515 32.378 8.085v99.484c-6.687 4.921-17.597 10.546-32.73 10.546zM939.127 49.511h50.327V8.382h-50.327v41.13zm.351 211.271h49.624V76.228h-49.624v184.554zM1072.89 264.297c23.58 0 39.42-7.382 47.51-18.28h2.11l3.87 14.765h40.83V128.606c0-39.723-26.4-55.542-70.04-55.542-26.39 0-47.86 3.515-66.16 10.194v33.396c12.32-2.812 28.86-5.273 47.16-5.273 29.21 0 39.77 4.921 39.77 27.771v11.6l-39.77 5.273c-38.01 4.922-62.65 19.686-62.65 55.894 0 35.504 23.93 52.378 57.37 52.378zm16.19-33.044c-14.78 0-25.34-6.679-25.34-23.553 0-16.17 8.09-22.849 24.99-24.607l29.21-2.812v41.832c-5.63 5.273-17.25 9.14-28.86 9.14zM1201.35 260.782h49.62v-139.91c9.86-4.218 23.93-8.437 36.25-8.437 21.82 0 28.16 6.68 28.16 23.905v124.442H1365V123.684c0-36.207-19.01-50.972-54.2-50.972-23.23 0-44.34 7.734-59.83 19.686h-1.76v-16.17h-47.86v184.554z" stroke="#fff" stroke-opacity=".2" stroke-width="2" mask="url(#bja)"/></svg>