<?xml version="1.0" encoding="utf-8"?><svg width="63" height="63" fill="none" xmlns="http://www.w3.org/2000/svg" viewBox="0 0 63 63"><g clip-path="url(#bkclip0_3_321)"><path d="M31.468 63C14.124 62.979 0 48.834 0 31.458.042 14.082 14.187-.021 31.553 0 48.918.032 63.042 14.166 63 31.542 62.99 48.908 48.844 63.01 31.468 63z" fill="#DD2F44"/><path d="M53.39 34.815c.022-5.304-4.304-9.63-9.598-9.64a9.59 9.59 0 00-4.378 1.052l-.168.095-.021-5.862c0-1.4-1.126-2.537-2.526-2.547-1.379 0-2.547 1.136-2.526 2.536l-.021 14.356c.01 5.304 4.325 9.62 9.62 9.63l-.011.126.01-.126c5.294-.01 9.61-4.315 9.62-9.62h-.001zm-9.64 4.505c-2.473 0-4.525-2.032-4.504-4.526a4.497 4.497 0 014.515-4.504 4.479 4.479 0 014.515 4.504c0 2.505-2.02 4.547-4.526 4.526zm-12.187-4.705a9.51 9.51 0 00-9.556-9.293 9.78 9.78 0 00-4.337 1.042l-.168.105v-6.05a2.558 2.558 0 00-2.526-2.548 2.563 2.563 0 00-2.547 2.547l-.01 21.112a2.5 2.5 0 002.494 2.526c.484.02.958-.137 1.39-.4a2.607 2.607 0 001.178-2.116v-6.62a4.543 4.543 0 014.536-4.536 4.54 4.54 0 014.505 4.41l-.01 6.746a2.537 2.537 0 002.557 2.537c1.347.01 2.515-1.126 2.526-2.526l-.011-6.788c0-.02-.01-.053-.01-.085-.011-.02.01-.03-.011-.063z" fill="#fff"/></g><defs><clipPath id="bkclip0_3_321"><path fill="#fff" d="M0 0h63v63H0z"/></clipPath></defs></svg>