<?xml version="1.0" encoding="utf-8"?><svg width="312" height="339" fill="none" xmlns="http://www.w3.org/2000/svg" viewBox="0 0 312 339"><path fill-rule="evenodd" clip-rule="evenodd" d="M119.953 7.18c6.884 2.566 17.282 8.312 23.109 12.77 5.828 4.457 11.644 8.104 12.923 8.104 1.278 0 7.094-3.647 12.922-8.103 17.007-13.008 34.71-18.716 58.149-18.75 17.807-.023 22.003.854 35.975 7.536 17.736 8.483 29.657 20.72 38.38 39.397 18.746 40.13 12.534 81.929-18.094 121.78-14.014 18.232-31.021 33.045-77.604 67.599-22.792 16.904-43.28 33.015-45.532 35.801-6.15 7.614-5.335 21.141 1.788 29.623 11.169 13.302 23.433 12.073 45.409-4.548l12.32-9.318-1.349-11.422c-2.087-17.666 6.737-32.659 24.542-41.692 26.775-13.586 60.034 13.517 54.246 44.202-4.52 23.977-30.033 38.754-52.274 30.281-5.415-2.062-8.155-.883-22.882 9.852-17.862 13.017-29.688 18.329-41.132 18.476-45.419.582-68.462-57.102-35.146-87.979 3.701-3.431 23.779-18.856 44.618-34.282 40.76-30.172 72.437-59.765 82.409-76.993 22.984-39.701 12.955-90.34-21.315-107.635-4.923-2.485-13.637-3.818-24.864-3.802-21.037.029-35.231 5.947-53.154 22.167-6.742 6.1-14.523 11.028-17.412 11.028-2.889 0-10.671-4.928-17.412-11.028-17.924-16.22-32.118-22.138-53.155-22.166-26.593-.036-43.775 11.375-52.56 34.9-7.687 20.584-8.452 35.736-2.76 54.519 8.457 27.897 26.52 50.587 66.757 83.868 8.835 7.308 9.948 9.253 8.532 14.912-2.029 8.103-11.378 12.272-18.82 8.395-11.093-5.775-38.528-30.075-51.846-45.917C-.956 136.311-9.374 90.806 10.558 48.135 22.024 23.583 44.266 6.022 69.396 1.677c13.692-2.365 35.953.055 50.557 5.503zm129.625 276.282c-5.904-4.328-5.823-17.139.14-21.659 6.313-4.786 12.008-4.413 17.563 1.153 5.691 5.702 6.01 11.356 1.049 18.453-4.165 5.961-12.214 6.841-18.752 2.053z" fill="#fff"/></svg>