<?xml version="1.0" encoding="utf-8"?><svg width="102" height="102" fill="none" xmlns="http://www.w3.org/2000/svg" viewBox="0 0 102 102"><path d="M41.273 31.062c-6.353 0-11.505 5.152-11.505 11.505v18.407c0 6.353 5.152 11.505 11.505 11.505H59.68c6.353 0 11.505-5.152 11.505-11.505V42.567c0-6.353-5.152-11.505-11.505-11.505H41.273zm23.01 4.602a2.302 2.302 0 11-.002 4.604 2.302 2.302 0 01.001-4.604zm-13.806 4.602c6.353 0 11.504 5.152 11.504 11.505 0 6.353-5.151 11.504-11.504 11.504s-11.505-5.151-11.505-11.504 5.152-11.505 11.505-11.505zm0 4.602a6.903 6.903 0 100 13.805 6.903 6.903 0 000-13.805z" fill="#FF4978"/></svg>