<?xml version="1.0" encoding="utf-8"?><svg width="754" height="144" fill="none" xmlns="http://www.w3.org/2000/svg" viewBox="0 0 754 144"><path d="M0 142V2h25.994v140H0zM63.853 142V2h21.395l87.78 107.8h-10.597V2h25.794v140H166.83L79.05 34.2h10.597V142H63.853zM254.124 142V24h-46.39V2h118.774v22h-46.39v118h-25.994zM370.01 60.2h69.584v21.4H370.01V60.2zm2 60h78.982V142H346.016V2h102.177v21.8H372.01v96.4zM545.355 144c-10.931 0-20.995-1.733-30.193-5.2-9.065-3.6-16.996-8.6-23.795-15-6.798-6.533-12.064-14.2-15.796-23-3.733-8.8-5.599-18.4-5.599-28.8 0-10.4 1.866-20 5.599-28.8 3.732-8.8 8.998-16.4 15.796-22.8 6.932-6.533 14.997-11.533 24.195-15C524.76 1.8 534.824 0 545.755 0c11.864 0 22.528 1.933 31.993 5.8 9.597 3.867 17.662 9.533 24.194 17l-16.396 16c-5.466-5.467-11.398-9.467-17.796-12-6.265-2.667-13.197-4-20.795-4-7.332 0-14.131 1.2-20.396 3.6-6.265 2.4-11.664 5.8-16.196 10.2-4.532 4.4-8.065 9.6-10.598 15.6-2.399 6-3.599 12.6-3.599 19.8 0 7.067 1.2 13.6 3.599 19.6 2.533 6 6.066 11.267 10.598 15.8 4.532 4.4 9.864 7.8 15.996 10.2 6.132 2.4 12.931 3.6 20.396 3.6 6.931 0 13.597-1.067 19.995-3.2 6.532-2.267 12.731-6 18.596-11.2l14.797 19.4c-7.332 5.867-15.864 10.333-25.595 13.4-9.598 2.933-19.329 4.4-29.193 4.4zm30.193-21.2V70.4h24.595v55.8l-24.595-3.4zM634.427 142V2h57.587c12.397 0 22.995 2 31.793 6 8.931 4 15.796 9.733 20.595 17.2 4.799 7.467 7.199 16.333 7.199 26.6 0 10.267-2.4 19.133-7.199 26.6-4.799 7.333-11.664 13-20.595 17-8.798 3.867-19.396 5.8-31.793 5.8h-43.19l11.597-11.8V142h-25.994zm91.579 0l-35.392-50.8h27.794L754 142h-27.994zm-65.585-49.8l-11.597-12.4h41.99c11.464 0 20.062-2.467 25.794-7.4 5.866-4.933 8.799-11.8 8.799-20.6 0-8.933-2.933-15.8-8.799-20.6-5.732-4.8-14.33-7.2-25.794-7.2h-41.99l11.597-12.8v81z" fill="#fff"/></svg>