<?xml version="1.0" encoding="utf-8"?><svg width="167" height="155" fill="none" xmlns="http://www.w3.org/2000/svg" viewBox="0 0 167 155"><g clip-path="url(#biclip0_2156_654)" fill="#000"><path d="M71.353.07a13.72 13.72 0 00-4.468 1.286c-1.524.75-2.628 1.552-3.817 2.793-4.08 4.244-5.19 8.708-3.468 13.954.394 1.194 1.169 2.806 1.839 3.814.999 1.505 1.78 2.354 4.159 4.536 6.819 6.261 14.269 12.695 18.605 16.07.052.04 1.452-.974 4.336-3.143 5.019-3.787 6.517-4.908 9.513-7.117 2.555-1.89 4.901-3.654 5.617-4.238 1.701-1.373 3.849-3.395 4.907-4.616 1.866-2.142 2.924-4.875 3.167-8.191a12.098 12.098 0 00-.565-4.61c-.5-1.525-1.774-3.78-2.917-5.146-1.235-1.486-3.87-3.27-6.235-4.225-1.852-.75-3.278-1.041-5.091-1.041-2.135 0-3.791.404-5.847 1.426-1.537.762-2.943 1.75-4.54 3.196l-.663.604-.65-.524C80.78 1.29 75.898-.408 71.352.07zm3.672 2.546c1.826.266 3.856.942 5.518 1.838 1.761.955 2.924 1.996 3.93 3.535 1.09 1.678 1.26 1.71 2.279.424.71-.895 2.115-2.275 2.838-2.799 2.089-1.505 4.355-2.348 6.655-2.474 1.76-.1 4.244.398 6.083 1.214 2.628 1.16 4.967 3.43 6.202 6.022.894 1.877 1.078 3.973.565 6.434-.506 2.394-1.655 4.33-3.915 6.6-1.748 1.757-2.917 2.672-6.202 4.867-3.607 2.421-5.965 4.152-11.786 8.662-1.53 1.188-2.851 2.202-2.937 2.255-.144.087-.17.08-.308-.04-.086-.08-3.804-3.402-8.265-7.388-4.46-3.993-8.659-7.753-9.329-8.363-1.99-1.811-3.035-3.131-3.843-4.855a11.226 11.226 0 01-.913-6.66c.111-.67.597-1.956 1.143-3.07 1.859-3.748 4.894-5.91 8.83-6.301.794-.08 2.594-.027 3.455.1z"/><path d="M115.304 21.286c-.723.152-1.183.557-1.636 1.445-.315.61-.506 1.267-.874 2.998-.447 2.116-.847 3.27-1.445 4.159-.697 1.034-2.497 3.03-4.146 4.61-3.482 3.309-9.4 8.137-16.378 13.357-2.923 2.189-6.891 5.087-7.233 5.286-.04.02-.985-.889-2.102-2.016-4.297-4.358-7.358-7.07-10.67-9.458-4.795-3.455-8.33-4.795-12.672-4.795-2.004 0-3.292.351-4.448 1.214-1.025.762-1.491 1.877-1.485 3.528.007 1.93.822 3.601 2.773 5.704 1.274 1.373 2.694 3.23 3.909 5.107 2.996 4.61 4.828 9.444 5.663 14.89.335 2.241-.105 6.798-1.032 10.545-1.425 5.75-4.276 10.612-8.356 14.24-.894.79-1.005.968-1.005 1.579.006.344.04.537.144.736.375.716 1.248 1.068 1.886.762.335-.165 1.859-1.717 2.989-3.05 4.145-4.875 6.583-10.453 7.358-16.84.302-2.448.348-6.095.112-8.171-.664-5.724-2.766-11.5-5.999-16.482-1.195-1.837-2.266-3.223-4.27-5.525-.998-1.14-1.287-1.545-1.616-2.261-.38-.816-.243-1.579.407-2.255.42-.438.809-.644 1.557-.843 2.635-.696 6.59.272 10.144 2.48 2.109 1.314 4.415 2.966 6.083 4.358 1.722 1.44 2.55 2.222 7.457 7.057 1.53 1.506 2.851 2.773 2.923 2.806.125.06.454-.146 2.497-1.579 3.797-2.64 4.257-2.965 7.056-4.881 4.704-3.224 6.215-4.358 9.342-7.024 1.944-1.658 5.078-4.517 6.911-6.294 1.971-1.917 3.548-3.953 4.402-5.678.505-1.02.788-1.89 1.097-3.395.348-1.712.808-2.919 1.241-3.283.552-.471 1.682-.233 2.333.497.749.842 1.662 2.951 1.997 4.61.335 1.658.453 4.675.243 6.24-.407 3.065-1.485 5.87-3.246 8.47-1.3 1.917-2.627 3.356-5.669 6.149-1.564 1.432-1.708 1.624-1.754 2.32-.059.85.453 1.447 1.235 1.447.447 0 .657-.12 1.675-.949 3.64-2.951 6.412-6.506 8.37-10.744.532-1.148.565-1.207.65-1.148.204.126.775 2.023 1.012 3.336.19 1.102.21 3.363.033 4.457-.283 1.758-.815 3.363-1.721 5.214-1.768 3.608-4.428 6.858-8.883 10.863-1.162 1.042-1.353 1.327-1.359 2.004 0 .762.545 1.425 1.169 1.425.348 0 .847-.285 1.885-1.074 3.272-2.474 5.696-5.153 7.647-8.443.316-.53.598-.975.625-.995.243-.152.321 3.051.111 4.41-.722 4.663-3.107 8.702-7.568 12.801-1.012.929-1.15 1.134-1.15 1.698 0 .776.585 1.373 1.235 1.254.539-.1 1.006-.445 2.313-1.705.703-.676 1.577-1.539 1.938-1.903.361-.372.683-.67.716-.67.105 0-.013 1.479-.19 2.368-.552 2.759-1.847 5.067-4.139 7.348-1.281 1.287-2.76 2.401-4.514 3.423-.446.258-2.017 1.074-3.501 1.817-3.423 1.711-4.461 2.4-5.545 3.688-.703.842-.887 1.187-.913 1.757-.027.405 0 .524.118.743.204.358.545.544 1.012.544.479 0 .657-.093 1.386-.756 1.728-1.579 2.674-2.216 9.033-6.076 2.142-1.3 2.24-1.366 3.219-2.235 3.193-2.825 5.315-6.267 6.235-10.134.315-1.34.46-2.454.532-4.112.099-2.176.125-2.288.913-3.9.913-1.877 1.34-3.19 1.629-5.087.158-1.041.158-3.88 0-4.928a19.302 19.302 0 00-.742-3.15c-.158-.485-.289-.995-.289-1.135 0-.145.125-.583.289-1.014 1.649-4.311 1.912-8.483.762-11.892-.355-1.042-.939-2.229-1.511-3.051-.249-.365-.532-.816-.624-1.008l-.171-.339.119-1.22c.151-1.638.151-4.165 0-5.293-.526-3.846-1.853-6.334-4.238-7.972-1.143-.782-2.418-1.16-3.291-.981zM50.093 111.502c-.02.046-.026 2.222-.02 4.828l.02 4.742 5.276.02 5.269.013-.014-4.821-.02-4.829-.15-.02c-.355-.053-.342-.225-.342 4.636v4.504H55.645v-4.497c0-3.409-.02-4.517-.08-4.576-.117-.12-.367-.093-.446.046-.04.086-.066 1.638-.066 4.577v4.45H50.586v-4.497c0-3.409-.02-4.517-.079-4.576-.105-.106-.374-.1-.414 0zM67.338 111.594c-.045.112-.059 1.85-.052 4.815.02 4.032.033 4.643.118 4.696.145.092.237.079.355-.04.092-.086.105-.392.105-2.335v-2.235l2.32 2.341c1.274 1.28 2.338 2.335 2.364 2.335.145 0 .309-.153.309-.285 0-.1-.657-.803-2.2-2.368l-2.202-2.222 2.168-2.189c1.196-1.207 2.188-2.255 2.208-2.341.046-.166-.073-.345-.23-.345-.06 0-1.15 1.055-2.418 2.335l-2.319 2.341v-2.262c0-1.664-.02-2.275-.079-2.334a.267.267 0 00-.447.093zM82.02 111.515a4.39 4.39 0 00-1.7.71 4.904 4.904 0 00-1.92 2.48c-.236.697-.295 1.95-.13 2.706.38 1.718 1.859 3.217 3.554 3.595.762.173 2.069.113 2.713-.119.729-.259 1.17-.551 1.82-1.207.656-.657 1.038-1.3 1.254-2.09.165-.597.165-1.996.007-2.58-.44-1.625-1.787-2.991-3.364-3.415-.552-.153-1.668-.193-2.233-.08zm2.037.617c.217.053.585.199.821.325 1.709.902 2.609 2.726 2.273 4.603-.262 1.485-1.445 2.852-2.87 3.323-.684.225-1.906.232-2.589.013-1.287-.411-2.404-1.539-2.812-2.839-.197-.623-.203-1.936-.02-2.487.336-1.008.94-1.811 1.781-2.381.992-.67 2.194-.869 3.416-.557zM97.67 111.541c-.104.112-4.25 8.456-4.473 8.993-.06.14-.105.325-.105.412 0 .139.033.159.223.159h.224l2.154-4.345c1.19-2.387 2.175-4.344 2.195-4.344.02 0 1.005 1.957 2.187 4.351l2.155 4.344.21-.02c.191-.019.211-.039.204-.225-.007-.186-4.12-8.635-4.487-9.232-.151-.239-.328-.272-.486-.093zM112.583 111.534c-.203.239-4.579 9.186-4.579 9.378 0 .173.02.193.23.193h.23l.769-1.546.775-1.538h5.604l.762 1.545.769 1.545.21-.02c.19-.019.21-.039.203-.225-.013-.192-4.119-8.649-4.487-9.232-.151-.239-.328-.272-.486-.1zm1.518 3.436l1.261 2.553h-5.124l1.261-2.553c.697-1.406 1.281-2.554 1.301-2.554.02 0 .604 1.148 1.301 2.554zM.078 115.084c-.098.1-.098.405 0 .504.06.06 4.934.08 21.542.08 19.427 0 21.476-.007 21.568-.106.125-.12.138-.365.026-.478-.111-.112-43.024-.112-43.136 0zM123.889 115.171c-.059.126-.052.192.04.331l.105.166h21.403c16.562 0 21.424-.02 21.483-.08.118-.119.099-.497-.026-.543-.059-.02-9.736-.04-21.516-.04h-21.41l-.079.166zM54.593 133.622c-1.537.146-2.39.319-3.475.697-3.547 1.233-5.88 3.933-6.55 7.581-.19 1.034-.177 3.508.026 4.536.447 2.242 1.34 3.999 2.773 5.445 1.623 1.645 3.738 2.64 6.372 2.992.795.106 3.062.106 3.876 0 2.655-.339 4.921-1.32 6.439-2.773l.538-.517-.466-.425-.473-.417-.296.258c-.597.504-1.51 1.148-2.063 1.433-1.931 1.021-4.152 1.366-6.47 1.008-2.8-.438-5.21-2.202-6.432-4.709-.98-2.003-1.301-4.331-.92-6.599.519-3.084 2.47-5.552 5.23-6.633.8-.318 1.622-.471 2.68-.51 1.603-.06 2.674.145 3.935.742 1.13.544 1.945 1.267 2.372 2.123l.216.431h1.104c.611 0 1.11-.013 1.11-.033 0-.073-.348-.737-.578-1.095-1.274-2.036-3.43-3.216-6.412-3.508-.663-.067-1.99-.08-2.536-.027zM76.667 133.621c-3.462.258-6.497 2.102-8.278 5.027-1.136 1.857-1.747 4.537-1.517 6.599.44 3.874 2.542 6.945 5.959 8.676 2.404 1.22 6.083 1.399 8.954.437 2.726-.922 4.947-2.838 6.208-5.365 1.117-2.242 1.452-4.404 1.019-6.553-.684-3.396-2.766-6.115-5.9-7.707-1.807-.909-4.034-1.3-6.445-1.114zm2.576 1.446c3.39.603 6.03 3.329 6.825 7.057.197.921.243 2.712.099 3.707-.5 3.436-2.575 6.155-5.558 7.289-1.459.557-3.37.63-4.901.179-2.345-.683-4.264-2.514-5.223-4.987-.565-1.466-.749-2.62-.696-4.424.04-1.42.157-2.103.545-3.224 1.038-3.004 3.311-5.073 6.169-5.597.644-.12 2.05-.12 2.74 0zM133.172 133.65c-2.759.265-5.499 1.664-7.253 3.687-1.136 1.32-2.043 3.144-2.378 4.795-.053.272-.112.564-.132.644l-.032.152h-3.482v-9.02h-2.76V154.601h2.76v-10.28H123.364l.045.544c.178 2.308.631 3.754 1.663 5.359 1.787 2.792 4.723 4.411 8.54 4.716 3.429.265 6.727-.929 8.994-3.27 1.327-1.373 2.372-3.336 2.746-5.18.467-2.321.145-4.828-.907-7.011-1.189-2.473-3.547-4.523-6.155-5.359-1.459-.47-3.364-.643-5.118-.47zm2.569 1.419a8.174 8.174 0 013.528 1.559c1.596 1.246 2.733 3.203 3.146 5.398.165.896.158 3.535-.013 4.451-.236 1.28-.716 2.454-1.452 3.588-1.346 2.043-3.646 3.382-6.083 3.522-1.636.092-3.613-.538-4.993-1.586-1.629-1.24-2.825-3.183-3.285-5.345-.171-.836-.243-2.918-.131-3.927.381-3.283 2.371-6.048 5.157-7.163.493-.192 1.557-.49 1.977-.55.48-.066 1.643-.04 2.149.053zM11.057 134.154c-.053.139-1.958 4.682-4.225 10.101a9840.621 9840.621 0 01-4.23 10.101l-.099.252.723-.02.722-.02 1.262-2.984 1.261-2.985h10.046l1.379 2.998 1.386 3.004h2.923l-.157-.351c-.171-.378-9.08-19.692-9.277-20.096l-.118-.246h-1.492l-.104.246zm2.51 8.045c1.215 2.646 2.226 4.848 2.246 4.888.026.066-.867.086-4.349.086-3.955 0-4.382-.013-4.343-.106.375-.982 4.146-9.763 4.179-9.73.026.027 1.044 2.215 2.266 4.862zM26.474 144.25v10.346h4.028c4.25 0 4.796-.033 5.939-.325 1.957-.504 3.449-1.698 4.033-3.223.31-.816.408-1.473.368-2.554-.052-1.558-.407-2.527-1.274-3.455-.966-1.028-2.497-1.731-4.323-1.99-.29-.04-1.76-.086-3.265-.106l-2.746-.033V135.627h9.789v-1.724H26.474v10.347zm7.634.159c1.117.219 1.873.623 2.576 1.373.749.802 1.123 1.698 1.202 2.878.131 2.01-.999 3.675-2.95 4.351-.788.272-1.412.325-3.679.325h-2.023v-9.02h2.194c1.623 0 2.32.026 2.68.093zM99.103 142.176c-3.272 8.45-3.653 9.418-3.981 10.002-.355.63-.782.902-1.426.908-.296.007-.447-.046-.88-.272-.29-.152-.539-.272-.546-.258-.078.079-.801 2.016-.768 2.056.17.172 1.925.424 2.47.351.966-.132 1.702-.816 2.391-2.208.171-.359 1.61-3.98 3.2-8.052 1.59-4.073 2.904-7.395 2.923-7.382.02.013 1.689 3.906 3.712 8.649l3.673 8.628h2.989l-.638-1.479c-.348-.809-2.351-5.465-4.447-10.346l-3.811-8.868H102.309l-3.206 8.271zM147.816 134.765v.862h7.818v18.969h2.759v-18.969h7.818v-1.724h-18.395v.862z"/></g><defs><clipPath id="biclip0_2156_654"><path fill="#fff" d="M0 0h167v155H0z"/></clipPath></defs></svg>