<?xml version="1.0" encoding="utf-8"?><svg width="338" height="90" fill="none" xmlns="http://www.w3.org/2000/svg" viewBox="0 0 338 90"><g clip-path="url(#buclip0_133_11167)" fill="#fff"><path d="M252.995 42.574l-.164-.061-.108.14c-.944 1.243-2.22 1.983-3.405 1.983h-14.017c-2.22 0-3.374-1.304-3.715-4.223h29.097l.037-.191c.281-1.31.429-2.645.443-3.985 0-3.605-1.209-6.849-3.405-9.136-2.383-2.482-5.812-3.793-9.928-3.793h-12.683c-8.416 0-13.438 5.343-13.438 14.295S226.731 51.9 235.147 51.9h14.344c5.227 0 9.129-2.124 11.28-6.146l.13-.242-.256-.096-7.65-2.84zm-21.286-8.535c.452-2.36 1.596-3.459 3.588-3.459h12.652c2.237 0 3.745 1.366 3.895 3.459h-20.135zM299.223 23.302H262.578V30.646h13.547v21.261h9.789V30.646H299.461V23.3h-.238zM217.77 23.302H208.22V33.82h-17.252v-10.52H181.18V51.908H190.968v-11.33h17.252v11.33H218.008V23.3h-.238zM175.83 23.32h-9.941a9.987 9.987 0 00-7.906 3.84l-12.039 15.307a3.926 3.926 0 01-2.751 1.481V23.32h-9.789v28.605h9.789c4.668-.068 6.632-1.526 8.995-4.53l12.036-15.324a2.105 2.105 0 011.665-.806h.391v20.67h9.792V23.32h-.242zM122.833 37.215c3.612-1.024 5.447-3.138 5.447-6.334 0-2.137-.681-3.85-2.043-5.09-1.804-1.643-4.807-2.476-8.927-2.476H92.507v28.591h24.854c7.76 0 11.529-2.584 11.529-7.897 0-3.5-2.043-5.78-6.04-6.794h-.017zm-6.234-2.851h-14.236v-4.008h14.215c.811 0 1.233 1.007 1.233 2.004 0 .997-.385 2.004-1.233 2.004h.021zm1.974 8.389c0 .97-.47 2-1.341 2h-14.869v-4.059h14.869c.882 0 1.341 1.024 1.341 2.049M334.698 26.667c-2.339-2.23-5.767-3.36-10.187-3.36h-11.617c-5.226 0-9.128 2.124-11.279 6.146l-.133.246.262.092 7.528 2.68.194.072.095-.184a4.243 4.243 0 013.497-2.049h11.293c2.802 0 3.8 1.963 3.8 3.647v.416h-15.417c-3.847 0-6.785.796-8.74 2.37-1.852 1.475-2.795 3.646-2.795 6.378 0 4.001 2.002 8.77 11.529 8.77h6.874c3.639 0 6.51-1.099 8.542-3.27v3.27h9.857V35.299c0-3.588-1.144-6.575-3.306-8.638l.003.007zm-6.554 13.685v.908c0 2.629-1.406 4.138-3.854 4.138h-11.576c-1.267 0-1.832-1.257-1.832-2.496 0-1.24.565-2.55 1.832-2.55h15.43zM61.254 40.004v3.657c0 3.277-.643 6.522-1.894 9.55a24.958 24.958 0 01-5.394 8.095 24.88 24.88 0 01-8.074 5.41 24.825 24.825 0 01-19.046 0 24.88 24.88 0 01-8.073-5.41 24.958 24.958 0 01-5.395-8.096 25.016 25.016 0 01-1.894-9.55v-3.656H0v24.661L36.614 90 73.23 64.665V40.004H61.254z"/><path d="M53.376 43.122c0-3.355-.99-6.636-2.85-9.427a16.928 16.928 0 00-7.592-6.25 16.874 16.874 0 00-9.776-.966 16.904 16.904 0 00-8.663 4.643 16.98 16.98 0 00-4.63 8.688 17.01 17.01 0 00.963 9.803c1.281 3.1 3.45 5.75 6.233 7.614a16.884 16.884 0 0021.36-2.112 16.99 16.99 0 004.955-11.993zm-25.079 0c0-1.62.48-3.205 1.377-4.552a8.176 8.176 0 013.667-3.018 8.15 8.15 0 018.905 1.776 8.215 8.215 0 011.771 8.93 8.19 8.19 0 01-3.009 3.677 8.155 8.155 0 01-10.318-1.019 8.206 8.206 0 01-2.393-5.794zM11.53 33.374H4.474v-7.9l15.185-16.17h6.526V0h7.058v16.382H22.709L11.531 28.28v5.094zM68.248 33.374H61.19V28.28L50.016 16.382H39.478V0h7.058v9.304h6.527l15.185 16.17v7.9zM93.353 64.155h1.373l2.376 6.354 2.387-6.354h1.372v7.56h-.95v-6.29h-.02l-2.357 6.29h-.854l-2.356-6.29h-.02v6.29h-.95v-7.56zM104.681 64.155h1.11l2.945 7.563h-1.106l-.824-2.277h-3.19l-.845 2.277h-1.021l2.931-7.563zm1.808 4.439l-1.256-3.527h-.024l-1.277 3.527h2.557zM109.584 64.155h1.001v6.713h3.01v-6.713h1.004v6.713h3.01v-6.713h1.001v7.56h-9.026v-7.56zM120.363 64.155h1.005v6.405l3.789-6.405h1.267v7.56h-1.001v-6.426l-3.803 6.425h-1.257v-7.559zM128.178 64.155h1.004v3.25h3.97v-3.25h1.004v7.56h-1.004v-3.463h-3.97v3.463h-1.004v-7.56zM139.097 71.884a3.633 3.633 0 01-1.577-.32 3.264 3.264 0 01-1.127-.875 3.76 3.76 0 01-.68-1.26 4.97 4.97 0 010-2.98 3.73 3.73 0 01.68-1.267c.308-.371.693-.67 1.127-.878a3.946 3.946 0 013.15 0c.435.207.819.507 1.127.878a3.8 3.8 0 01.681 1.266c.299.971.299 2.01 0 2.981-.146.46-.377.887-.681 1.26-.307.371-.692.67-1.127.874a3.63 3.63 0 01-1.573.321zm0-.837c.41.012.816-.08 1.181-.27.323-.17.602-.415.814-.713.213-.302.37-.641.463-1 .2-.74.2-1.518 0-2.257a3.085 3.085 0 00-.463-1 2.35 2.35 0 00-.814-.714 2.713 2.713 0 00-2.383 0 2.35 2.35 0 00-.814.714c-.213.302-.37.641-.463 1a4.426 4.426 0 000 2.257c.093.359.25.698.463 1 .212.298.491.543.814.714.366.189.774.281 1.185.27M147.152 71.884a3.621 3.621 0 01-1.532-.3 3 3 0 01-1.086-.834 3.507 3.507 0 01-.65-1.25 5.337 5.337 0 01-.215-1.543 4.991 4.991 0 01.232-1.553c.142-.462.374-.89.681-1.263a3.173 3.173 0 011.113-.854 3.587 3.587 0 011.542-.31c.379-.003.757.05 1.12.157.338.1.656.258.94.467.275.208.506.468.681.765.19.327.313.69.361 1.065h-.991a1.872 1.872 0 00-.745-1.208 2.33 2.33 0 00-1.362-.4 2.47 2.47 0 00-1.158.253 2.29 2.29 0 00-.793.683 2.966 2.966 0 00-.456.98c-.1.373-.151.757-.15 1.143-.002.412.048.823.15 1.223.086.361.241.703.456 1.007.21.287.484.52.8.683.361.176.759.263 1.161.252.3.005.597-.05.875-.163.256-.102.488-.257.681-.455.189-.197.338-.428.439-.682a2.99 2.99 0 00.191-.871h1.001a3.422 3.422 0 01-.977 2.23 3.18 3.18 0 01-2.285.788M153.479 65.002h-2.513v-.847h6.03v.847h-2.516v6.713h-1.001v-6.713zM157.931 64.154h3.306a2.347 2.347 0 011.733.587 2.636 2.636 0 010 3.295 2.337 2.337 0 01-1.733.587h-2.302v3.093h-1.004v-7.562zm2.969 3.622a1.84 1.84 0 001.249-.341 1.54 1.54 0 000-2.049 1.84 1.84 0 00-1.249-.341h-1.965v2.776l1.965-.045zM168.074 71.884a3.61 3.61 0 01-1.573-.321 3.275 3.275 0 01-1.13-.874 3.764 3.764 0 01-.681-1.26 4.985 4.985 0 010-2.98c.143-.463.374-.894.681-1.267a3.33 3.33 0 011.13-.878 3.944 3.944 0 013.146 0c.436.208.821.507 1.131.878.304.375.535.805.681 1.266.299.971.299 2.01 0 2.981a3.884 3.884 0 01-.681 1.26c-.309.37-.695.669-1.131.874a3.627 3.627 0 01-1.573.32zm0-.837c.411.012.817-.08 1.182-.27.323-.17.601-.415.814-.713.213-.303.37-.641.463-1a4.34 4.34 0 000-2.257 3.084 3.084 0 00-.463-1 2.358 2.358 0 00-.814-.714 2.718 2.718 0 00-2.383 0 2.34 2.34 0 00-.811.713 3.037 3.037 0 00-.466 1 4.426 4.426 0 000 2.258c.093.36.251.698.466 1 .211.298.489.543.811.714.365.188.773.281 1.184.27M173.011 64.155h1.004v6.405l3.79-6.405h1.27v7.56h-1.005v-6.426l-3.803 6.425h-1.256v-7.559zM182.538 65.002h-2.513v-.847h6.03v.847h-2.516v6.713h-1.001v-6.713zM186.99 64.155h5.206v.847h-4.201v2.404h3.918v.846h-3.918v2.616h4.235v.847h-5.24v-7.56zM193.442 71.824a2.35 2.35 0 01-.341-.028.99.99 0 01-.279-.078v-.912c.141.042.286.063.433.062a.824.824 0 00.745-.492c.211-.428.345-.89.395-1.366a18.18 18.18 0 00.16-2.123c.021-.824.031-1.735.031-2.732h4.732v7.563h-1.021v-6.716h-2.744c0 .6-.021 1.185-.038 1.755-.017.57-.051 1.103-.095 1.608-.041.468-.111.933-.208 1.393-.077.38-.2.747-.367 1.096a1.927 1.927 0 01-.583.714 1.385 1.385 0 01-.844.256M201.076 64.155h1.022v3.073h2.356a2.38 2.38 0 011.702.577 2.618 2.618 0 010 3.326 2.38 2.38 0 01-1.702.577h-3.361l-.017-7.553zm3.02 6.713c1.101 0 1.65-.462 1.648-1.386-.002-.925-.552-1.394-1.648-1.407h-2.015v2.793h2.015zM208.08 64.155h1.005v3.25h3.969v-3.25h1.001v7.56h-1.001v-3.463h-3.969v3.463h-1.005v-7.56zM218.995 71.884a3.627 3.627 0 01-1.573-.321 3.308 3.308 0 01-1.131-.874 3.812 3.812 0 01-.68-1.26c-.3-.97-.3-2.01 0-2.98.144-.463.375-.893.68-1.267.31-.37.696-.67 1.131-.878a3.94 3.94 0 013.146 0 3.32 3.32 0 011.13.878c.307.373.538.804.681 1.266.304.97.304 2.01 0 2.981-.144.46-.375.888-.681 1.26-.308.371-.694.67-1.13.874a3.607 3.607 0 01-1.573.32zm0-.837c.407.01.809-.083 1.171-.27.322-.171.601-.416.814-.713.213-.303.37-.641.463-1a4.426 4.426 0 000-2.257 3.084 3.084 0 00-.463-1 2.387 2.387 0 00-.814-.714 2.718 2.718 0 00-2.383 0 2.35 2.35 0 00-.814.713c-.213.303-.37.642-.463 1a4.32 4.32 0 000 2.258c.093.359.25.697.463 1 .212.298.491.543.814.714.365.188.771.28 1.181.27M223.939 64.155h5.206v.847h-4.201v2.404h3.915v.846h-3.915v2.616h4.232v.847h-5.237v-7.56zM93.333 76.862h5.87v7.56h-1.005v-6.713h-3.864v6.712h-1.001v-7.559zM100.956 76.862h3.303a2.33 2.33 0 011.733.588 2.624 2.624 0 010 3.294 2.348 2.348 0 01-1.733.588h-2.302v3.103h-1.001v-7.573zm2.966 3.623c.445.041.889-.08 1.253-.342a1.55 1.55 0 000-2.048 1.853 1.853 0 00-1.253-.342h-1.965v2.776l1.965-.044zM107.905 76.862h5.206v.847h-4.205v2.404h3.919v.846h-3.919v2.616h4.236v.846h-5.237v-7.559zM113.73 83.575h.739c.164-.303.295-.623.392-.953.127-.411.232-.83.313-1.253a16.544 16.544 0 00.279-3.005v-1.502h4.855v6.713h.835v2.731h-.961v-1.87h-5.491v1.874h-.961v-2.735zm5.577 0v-5.866h-2.883v1.09c0 .467-.024.935-.069 1.402a13.661 13.661 0 01-.466 2.496c-.083.301-.19.594-.32.878h3.738zM122.264 76.862h5.873v7.56h-1.005v-6.713h-3.864v6.712h-1.004v-7.559zM129.887 76.861h3.306a2.334 2.334 0 011.733.587 2.636 2.636 0 010 3.295 2.36 2.36 0 01-1.733.588h-2.302v3.103h-1.004v-7.573zm2.969 3.623a1.84 1.84 0 001.249-.342 1.54 1.54 0 000-2.048 1.84 1.84 0 00-1.249-.342h-1.965v2.776l1.965-.044zM136.836 76.862h1.004v6.406l3.79-6.406h1.266v7.56h-1.001v-6.43l-3.803 6.43h-1.256v-7.56zM146.284 81.245a2.1 2.1 0 01-1.297-.683 2.185 2.185 0 01-.507-1.522 2.047 2.047 0 01.63-1.632 2.568 2.568 0 011.746-.55h3.231v7.576h-.994V81.32h-1.678l-2.343 3.114h-1.246l2.458-3.189zm2.809-.785v-2.752h-1.9a2.157 2.157 0 00-1.266.318 1.157 1.157 0 00-.443 1.024 1.308 1.308 0 00.436 1.059c.371.262.821.389 1.273.358l1.9-.007zM153.553 77.709h-2.513v-.847h6.026v.847h-2.512v6.712h-1.001V77.71zM158.007 76.862h1.004v6.406l3.793-6.406h1.267v7.56h-1.005v-6.43l-3.799 6.43h-1.26v-7.56zM165.819 76.862h5.206v.847h-4.201v2.404h3.919v.846h-3.919v2.616h4.235v.846h-5.24v-7.559z"/></g><defs><clipPath id="buclip0_133_11167"><path fill="#fff" d="M0 0h338v90H0z"/></clipPath></defs></svg>