<?xml version="1.0" encoding="utf-8"?><svg width="141" height="37" fill="none" xmlns="http://www.w3.org/2000/svg" viewBox="0 0 141 37"><g clip-path="url(#bwclip0_133_11208)" fill="#fff"><path d="M41.96 20.085c-2.912 0-5.269-2.348-5.269-5.77 0-3.573 2.02-6.123 5.522-6.123 2.795 0 5.27 2.13 5.27 5.77 0 3.49-2.004 6.123-5.522 6.123zm.034-9.863c-1.7 0-2.929 1.392-2.929 3.74 0 2.768 1.01 4.127 3.115 4.127 1.784 0 2.929-1.275 2.929-3.808 0-2.7-1.162-4.072-3.115-4.072v.013zM56.152 13.745c-.303-.52-1.161-.94-2.458-.94a2.47 2.47 0 00-1.729.696 2.452 2.452 0 00-.745 1.703c0 1.644.976 2.768 2.508 2.768 1.297 0 2.07-.42 2.39-.839h.085v1.04c0 1.09-1.06 1.879-2.694 1.879a4.59 4.59 0 01-3.264-1.294 4.557 4.557 0 01-1.382-3.219c0-2.583 1.801-4.797 4.899-4.797 1.448 0 2.475.872 2.475 1.946v1.057h-.085zM61.674 20.069c-1.801 0-3.889-.57-3.889-3.053v-6.19h.388c1.313 0 1.868.553 1.868 1.61v1.594a4.028 4.028 0 011.768-.503c2.172 0 3.636 1.425 3.636 3.304 0 1.879-1.414 3.238-3.77 3.238zm-.219-4.828c-.499.033-.983.182-1.414.436v1.392c0 .873.91 1.208 1.65 1.208.892 0 1.465-.537 1.465-1.51s-.744-1.526-1.7-1.526zM76.943 19.884c-.825 0-1.363-.436-1.363-1.342 0-.906-.152-3.456-.303-4.848-.135.336-.303.772-.488 1.309-.32.973-1.179 3.656-1.819 4.864h-.488c-.757 0-1.296-.587-1.936-2.466-.286-.855-.825-2.75-1.262-3.74-.22 1.878-.388 4.596-.388 6.206h-.858a1.31 1.31 0 01-1.256-.822 1.297 1.297 0 01-.091-.52c.076-2.594.386-5.177.926-7.716h.825c2.172 0 2.828 2.835 3.4 4.496.186.52.27 1.056.489 1.56.42-1.242.976-2.835 1.43-3.976a6.752 6.752 0 011.263-2.08h.472c1.195 0 1.734.721 1.885 1.93.236 1.962.522 4.73.556 7.128l-.994.017zM84.216 20.001c-3.064 0-4.461-1.409-4.461-4.227v-4.948h.387c1.313 0 1.869.553 1.869 1.61v3.422c0 1.577.724 2.231 2.087 2.231.466 0 .929-.057 1.38-.168v-7.095h.388c1.313 0 1.869.553 1.869 1.61v7.045a12.8 12.8 0 01-3.519.52zM97.364 19.884c-1.077 0-1.7-.554-1.7-1.61v-2.231h-3.485v3.84h-.555c-1.078 0-1.7-.553-1.7-1.61v-7.447h.386c1.314 0 1.869.553 1.869 1.61v1.862h3.485v-3.472h.387c1.313 0 1.869.553 1.869 1.61v7.448h-.556zM103.98 20.085c-2.727 0-4.293-2.164-4.293-4.562 0-2.718 1.566-4.898 4.495-4.898 2.727 0 4.293 2.18 4.293 4.579 0 2.72-1.566 4.881-4.495 4.881zm0-7.448c-1.296 0-1.953 1.074-1.953 2.567 0 1.795.657 2.868 2.155 2.868 1.313 0 1.953-1.073 1.953-2.55 0-1.81-.673-2.885-2.155-2.885zM119.401 14.986a27.773 27.773 0 002.054 2.75c.74.806 1.043.957 1.633 1.091-.118.705-.489 1.124-1.448 1.124a1.899 1.899 0 01-1.381-.57c-1.111-1.191-2.003-2.567-2.963-3.875v4.361h-.555c-1.077 0-1.7-.553-1.7-1.61v-2.768c-.977 1.308-1.852 2.684-2.963 3.875a1.966 1.966 0 01-1.398.57c-.959 0-1.33-.42-1.447-1.124.589-.134.892-.285 1.633-1.09a25.326 25.326 0 002.053-2.75 44.744 44.744 0 00-3.707-4.06v-.084h1.583c.774 0 1.145.184 1.414.47a34.355 34.355 0 012.845 3.472v-3.942h.387c1.313 0 1.869.553 1.869 1.61v2.349a34.437 34.437 0 012.828-3.473c.286-.285.657-.47 1.414-.47h1.6v.085a46.69 46.69 0 00-3.751 4.059zM131.202 19.938a2.215 2.215 0 01-1.481-.621 38.444 38.444 0 01-3.165-3.858v4.428h-.724c-1.044 0-1.549-.537-1.549-1.593v-7.468h.724c1.094 0 1.549.62 1.549 1.493V14.7a27.376 27.376 0 012.777-3.288c.539-.503 1.078-.587 1.802-.587h1.309v.084a47.77 47.77 0 00-3.703 4.11c.724.889 1.431 1.811 2.239 2.633.808.822 1.195 1.006 1.751 1.174-.233.721-.603 1.11-1.529 1.11zM137.566 20.035h-.455c-2.155 0-3.636-1.208-3.636-2.869 0-1.61 1.178-2.834 4.512-2.834h.791v-.118c0-1.274-.606-1.677-1.953-1.677-1.633 0-2.542.62-2.879 1.04h-.084v-.705c0-1.006.909-2.214 3.3-2.214 2.02 0 3.838.94 3.838 4.06v2.08c0 1.912-1.414 3.237-3.434 3.237zm1.229-4.093h-.808c-1.718 0-2.206.403-2.206 1.14 0 .739.573 1.124 1.566 1.124.993 0 1.448-.47 1.448-1.392v-.872zM36.953 28.634V24.31h.462v4.325h-.462zM40.415 25.36c.266 0 .5.051.7.154.203.1.361.252.473.457.117.206.175.466.175.779v1.884h-.443v-1.84c0-.343-.087-.6-.262-.773-.17-.177-.412-.266-.724-.266-.233 0-.437.047-.612.142a.959.959 0 00-.399.402 1.333 1.333 0 00-.137.63v1.706h-.443V25.39h.424v.89l-.069-.168c.104-.234.27-.418.5-.55.228-.135.5-.203.817-.203zM43.996 28.665c-.308 0-.545-.082-.712-.247-.166-.165-.25-.397-.25-.698v-3.046h.444v3.021c0 .19.048.336.143.439.1.103.242.154.425.154a.719.719 0 00.486-.166l.157.315a.82.82 0 01-.319.173c-.12.037-.245.055-.374.055zm-1.548-2.91v-.364h2.028v.364h-2.028zM46.771 28.665c-.341 0-.64-.07-.899-.21a1.586 1.586 0 01-.605-.587 1.681 1.681 0 01-.218-.858c0-.322.068-.606.206-.853.141-.247.332-.441.574-.581.245-.144.52-.216.823-.216.308 0 .58.07.818.21.241.136.43.33.568.58.137.248.206.534.206.86 0 .02-.002.043-.007.067v.068h-2.851v-.327H48l-.174.13a1.23 1.23 0 00-.156-.624c-.1-.186-.238-.33-.412-.433a1.17 1.17 0 00-.606-.154c-.224 0-.426.051-.605.154a1.079 1.079 0 00-.418.433c-.1.185-.15.397-.15.636v.068c0 .247.054.466.163.655.112.185.266.332.461.439.2.103.427.154.68.154.2 0 .385-.035.556-.105.175-.07.324-.177.45-.321l.249.284a1.401 1.401 0 01-.55.395 1.84 1.84 0 01-.717.136zM50.544 29.864c-.3 0-.587-.043-.862-.13a1.702 1.702 0 01-.667-.37l.224-.334c.154.136.344.243.568.321.229.083.47.124.724.124.416 0 .722-.097.917-.29.196-.19.294-.487.294-.89v-.81l.062-.556-.044-.556v-.982h.425v2.848c0 .56-.14.97-.418 1.23-.275.263-.683.395-1.224.395zm-.082-1.353c-.312 0-.593-.066-.842-.198a1.548 1.548 0 01-.593-.562 1.582 1.582 0 01-.212-.822c0-.309.07-.58.212-.816.146-.238.343-.424.593-.556.25-.131.53-.197.842-.197.292 0 .554.06.787.179.233.12.418.296.555.531.137.235.206.521.206.86 0 .337-.069.623-.206.858a1.387 1.387 0 01-.555.538 1.653 1.653 0 01-.787.185zm.044-.39c.241 0 .456-.049.643-.148.187-.103.335-.243.443-.42.108-.181.162-.39.162-.624 0-.235-.054-.44-.162-.618a1.122 1.122 0 00-.443-.414 1.312 1.312 0 00-.643-.154c-.237 0-.451.051-.643.154a1.123 1.123 0 00-.443.414 1.197 1.197 0 00-.156.618c0 .235.052.443.156.624.108.177.256.317.443.42.192.1.406.149.643.149zM53.418 28.634v-3.243h.424v.883l-.044-.154c.092-.247.246-.435.462-.563.217-.131.485-.197.805-.197v.426h-.05a.202.202 0 00-.05-.006c-.345 0-.615.105-.81.315-.196.206-.294.5-.294.884v1.655h-.443zM57.683 28.634v-.716l-.019-.118v-1.198c0-.276-.079-.489-.237-.637-.154-.148-.385-.222-.692-.222-.213 0-.414.035-.606.105-.191.07-.353.163-.486.278l-.2-.328c.166-.14.366-.247.599-.32.233-.08.478-.118.736-.118.425 0 .751.105.98.315.233.206.35.52.35.945v2.014h-.425zm-1.13.031c-.245 0-.46-.039-.642-.117a.98.98 0 01-.412-.334.873.873 0 01-.144-.494c0-.169.04-.321.119-.457a.851.851 0 01.4-.334c.187-.086.436-.13.748-.13h1.13v.328h-1.117c-.316 0-.537.056-.662.167a.54.54 0 00-.18.414c0 .185.072.333.218.445.145.11.35.166.611.166.25 0 .464-.055.643-.166a.99.99 0 00.4-.495l.1.303a1.03 1.03 0 01-.438.513c-.203.128-.461.191-.773.191zM60.347 28.665c-.308 0-.545-.082-.712-.247-.166-.165-.25-.397-.25-.698v-3.046h.444v3.021c0 .19.048.336.143.439.1.103.242.154.425.154a.72.72 0 00.487-.166l.156.315a.82.82 0 01-.319.173c-.12.037-.245.055-.374.055zm-1.548-2.91v-.364h2.028v.364H58.8zM63.066 28.665a1.74 1.74 0 01-.855-.21 1.612 1.612 0 01-.593-.587 1.68 1.68 0 01-.218-.858c0-.326.072-.612.218-.86.146-.246.343-.44.593-.58.25-.14.535-.21.855-.21.324 0 .611.07.861.21.254.14.452.334.593.58.145.248.218.534.218.86 0 .32-.073.607-.218.858a1.552 1.552 0 01-.593.587c-.254.14-.54.21-.861.21zm0-.389c.237 0 .447-.051.63-.154.183-.107.327-.256.43-.445.109-.194.163-.416.163-.668 0-.255-.054-.477-.162-.667a1.098 1.098 0 00-.43-.438 1.213 1.213 0 00-.625-.161c-.233 0-.44.053-.624.16a1.14 1.14 0 00-.437.44c-.108.189-.162.411-.162.666 0 .252.054.474.162.668.108.19.254.338.437.445.183.103.389.154.618.154zM65.643 28.634v-3.243h.424v.883l-.043-.154c.091-.247.245-.435.461-.563.217-.131.485-.197.805-.197v.426h-.05a.203.203 0 00-.05-.006c-.345 0-.615.105-.81.315-.196.206-.294.5-.294.884v1.655h-.443zM70.449 28.634l-1.236-3.243h.424l1.124 3.009h-.194l1.155-3.01h.38l1.142 3.01h-.193l1.142-3.01h.406l-1.242 3.244h-.418l-1.099-2.83h.131l-1.104 2.83h-.418zM76.566 28.665c-.341 0-.64-.07-.899-.21a1.586 1.586 0 01-.605-.587 1.681 1.681 0 01-.218-.858c0-.322.068-.606.206-.853.141-.247.332-.441.574-.581.245-.144.52-.216.824-.216.307 0 .58.07.817.21.241.136.43.33.568.58.137.248.206.534.206.86 0 .02-.002.043-.006.067v.068H75.18v-.327h2.615l-.175.13c0-.235-.052-.443-.156-.624-.1-.186-.237-.33-.412-.433a1.17 1.17 0 00-.605-.154 1.19 1.19 0 00-.606.154 1.079 1.079 0 00-.418.433c-.1.185-.15.397-.15.636v.068c0 .247.054.466.162.655.113.185.267.332.462.439.2.103.427.154.68.154.2 0 .385-.035.556-.105.175-.07.325-.177.45-.321l.249.284a1.402 1.402 0 01-.55.395 1.84 1.84 0 01-.717.136zM80.632 28.665c-.287 0-.545-.063-.774-.191a1.412 1.412 0 01-.543-.569c-.133-.247-.2-.545-.2-.896 0-.354.067-.652.2-.896a1.41 1.41 0 01.55-.562c.228-.127.484-.191.767-.191.312 0 .59.07.836.21.25.136.445.327.587.574.141.248.212.536.212.866 0 .325-.07.613-.212.864a1.52 1.52 0 01-.587.581c-.245.14-.524.21-.836.21zm-1.691-.03V24.05h.443v2.298l-.063.655.044.655v.976h-.424zm1.66-.359c.233 0 .44-.051.624-.154.183-.107.328-.256.437-.445.108-.194.162-.416.162-.668 0-.255-.054-.477-.162-.667a1.14 1.14 0 00-.437-.438 1.213 1.213 0 00-.624-.161c-.233 0-.443.053-.63.16a1.14 1.14 0 00-.437.44c-.104.189-.156.411-.156.666 0 .252.052.474.156.668.108.19.253.338.436.445.188.103.398.154.63.154zM85.814 28.672c-.316 0-.615-.05-.898-.149a1.856 1.856 0 01-.674-.407l.218-.353c.142.144.331.264.568.359.241.094.503.142.786.142.362 0 .639-.078.83-.235a.766.766 0 00.294-.63.772.772 0 00-.287-.63c-.188-.157-.485-.235-.893-.235h-.312v-.328l1.348-1.674.063.173h-2.434v-.396h2.808v.315L85.883 26.3l-.218-.142h.168c.524 0 .915.115 1.173.346.263.23.394.527.394.89 0 .243-.059.46-.175.654a1.182 1.182 0 01-.53.458c-.234.111-.527.167-.88.167zM88.37 28.665a.326.326 0 01-.238-.098.337.337 0 01-.093-.241c0-.1.031-.18.093-.241a.337.337 0 01.238-.093c.091 0 .168.03.23.093.067.061.1.142.1.24a.326.326 0 01-.1.242.305.305 0 01-.23.098zM91.03 28.672c-.338 0-.637-.087-.9-.26a1.783 1.783 0 01-.617-.754c-.15-.33-.225-.725-.225-1.186 0-.461.075-.855.225-1.18.15-.33.355-.581.617-.754.263-.177.562-.266.9-.266.336 0 .636.089.898.266.262.173.468.424.618.754.154.325.23.719.23 1.18 0 .461-.076.857-.23 1.186-.15.326-.356.577-.618.754-.262.173-.562.26-.899.26zm0-.408c.257 0 .482-.068.673-.204.191-.14.341-.342.45-.606.108-.267.162-.595.162-.982s-.054-.713-.162-.976a1.328 1.328 0 00-.45-.606 1.11 1.11 0 00-.674-.21c-.25 0-.472.07-.668.21a1.31 1.31 0 00-.455.606c-.108.263-.162.589-.162.976s.054.715.162.982c.108.264.26.466.455.606.196.136.419.204.668.204z"/><path fill-rule="evenodd" clip-rule="evenodd" d="M28.134 15.847a.416.416 0 01.49-.001.428.428 0 01.16.47.428.428 0 01-.387.307.417.417 0 01-.41-.273.386.386 0 01.147-.504zm-.713-2.17a.758.758 0 01.332-.323.742.742 0 01.865.148.769.769 0 01.14.879.759.759 0 01-.32.335.742.742 0 01-.87-.117.69.69 0 01-.147-.921zm-1.171.218c-.261-.024-.455-.21-.435-.415a.431.431 0 01.188-.264.42.42 0 01.317-.055c.258.023.455.21.435.414a.435.435 0 01-.189.264.422.422 0 01-.316.056zm2.785 3.96a.237.237 0 01.253.008.243.243 0 01.107.234.246.246 0 01-.16.201.238.238 0 01-.247-.055.286.286 0 01.047-.387zm.408-2.556a.483.483 0 01.567.046.497.497 0 01.14.56.495.495 0 01-.477.316.484.484 0 01-.448-.357.445.445 0 01.218-.565zm-8.29-9.907c.569.68.826 1.833.398 3.668-.084-.49-.358-2.063-.696-2.72l.298-.941v-.007zm-1.48-.727c-1.382-1.462-3.618-2.49-6.958-1.49 0 0 2.115-1.475 4.625-1.02a5.069 5.069 0 012.953 1.83l-.62.68zm-2.54 7.714c1.453-.197 3.347-1.976 3.347-1.976-.034 3.217-2.761 3.376-3.347 1.976zm-.063 23.377a.272.272 0 01-.16-.133.28.28 0 01-.021-.207.248.248 0 01.078-.2.24.24 0 01.373.064.246.246 0 01.01.214c-.026.17-.153.289-.28.265v-.003zm-1.413-2.33a.37.37 0 01-.54-.134.386.386 0 01.025-.401.377.377 0 01.366-.155c.069.011.133.042.186.09a.432.432 0 01-.037.6zm.422 1.425a.311.311 0 01-.3-.213.324.324 0 01.101-.357.311.311 0 01.488.134c.024.062.028.13.012.195a.28.28 0 01-.102.183.271.271 0 01-.2.058zm-1.316-2.988a.746.746 0 01-.43-.165.766.766 0 01-.24-.856c.052-.15.15-.28.28-.371a.744.744 0 01.875.012.765.765 0 01.272.846.681.681 0 01-.274.42c-.14.1-.313.14-.482.114zm.02-2.842a.383.383 0 01.349-.2.374.374 0 01.33.23.39.39 0 01-.057.402.378.378 0 01-.38.125.439.439 0 01-.23-.23.449.449 0 01-.011-.327zm-3.032-18.76s1.878 1.904 3.33 2.1c-.585 1.401-3.115 1.517-3.33-2.1zm10.342 8.557a.504.504 0 01.365.395.52.52 0 01-.186.507.501.501 0 01-.737-.132.519.519 0 01-.078-.27.59.59 0 01.219-.38.573.573 0 01.417-.12zm.77 2.563a.53.53 0 01.311.103.544.544 0 01.199.601.544.544 0 01-.188.273.53.53 0 01-.826-.243.552.552 0 01-.015-.332.477.477 0 01.18-.308.464.464 0 01.339-.094zm.482-1.52a.529.529 0 01.614.238.55.55 0 01-.075.664.528.528 0 01-.614-.238.551.551 0 01.075-.663zM9.726 31.004a.313.313 0 01-.498-.081.324.324 0 01.05-.368.313.313 0 01.36-.07c.06.027.11.073.142.131a.286.286 0 01-.054.388zm-.696-3.27a.287.287 0 01.134-.368.245.245 0 01.202-.08.24.24 0 01.186.114.25.25 0 01-.137.37.275.275 0 01-.385-.037zm-.174 1.774a.613.613 0 01-.71.106.634.634 0 01-.16-.991.613.613 0 01.98.13.554.554 0 01-.11.755zM7.8 27.569a.481.481 0 01-.542-.192.502.502 0 01.26-.759.481.481 0 01.542.192c.059.086.09.189.088.293a.443.443 0 01-.087.316.43.43 0 01-.278.167l.017-.017zm1.094-2.6a.239.239 0 01.34.108.249.249 0 01-.031.256.24.24 0 01-.24.086.24.24 0 01-.116-.063.285.285 0 01.047-.388zM4.7 22.002a.337.337 0 01-.306.167.33.33 0 01-.287-.2.345.345 0 01.043-.35.334.334 0 01.326-.123.394.394 0 01.214.207.404.404 0 01.01.3zm-1.968.34c-.384.089-.786-.251-.896-.754-.11-.503.107-.986.488-1.075.382-.088.787.252.897.755.11.503-.107.986-.489 1.075zm-.669-3.4a.485.485 0 01.449-.246.477.477 0 01.415.301.497.497 0 01-.084.512.481.481 0 01-.489.148.554.554 0 01-.287-.298.566.566 0 01-.004-.416zm28.388 2.82c.449.223.137 2.308-1.436 2.161-1.626-.156-.81-1.485.54-3.542 3.306-5.032-1.145-9.115-4.793-7.891a10.904 10.904 0 00-3.424 2.21C25.955 7.07 22.762-.02 16.045 0h-.11C15.1.017 8.779.605 8.599 7.82c-.077 2.777 1.188 4.531 2.265 6.976 1.296 2.951 1.031 6.194-3.075 5.667 1.09-.207 1.794-.622 2.229-1.135-.516-.048-1.091-.401-1.624-1.125-.726-.99-.806-1.388-1.593-1.84-3.246-1.863-6.573 1.428-5.74 5.022.92 3.957 3.836 4.27 2.775 6.46-1.061 2.189-4.548.56-2.855-2.421-1.44 1.217-1.05 3.233-.378 4.256 1.004 1.527 4.277 1.952 5.69-.092-.944-2.257-1.962-6.2 2.008-7.047 4.722-1.003 3.31-.82 4.26-1.748-.589 2.489-3.835 1.302-5.177 3.009-1.517 1.924-.482 4.563-.429 4.695.519 1.18 1.526 2.465 3.123 3.74.485.575.907 1.258.77 2.111-.201 1.251-2.186 1.282-2.243-.377-.174.68-.09 1.958 1.339 2.254 1.43.296 3.46-1.795 2.928-3.92s-.753-2.34-.689-3.594c.12-2.38 2.678-3.654 3.524-3.688-4.16 2.4-2.65 11.977 3.776 11.977 5.354 0 5.02-6.283 1.837-5.817-2.008.289-1.975 1.7-1.975 1.7a3.142 3.142 0 011.674-.105c1.181.367 1.362 1.988.083 2.689-1.576.863-4.136-.68-2.165-4.335.184-.285.41-.54.67-.755-.744-.156-1.805-.714-2.096-2.587-.368-2.38 1.068-4.297.158-4.355.639-1.421 2.597-1.727 1.747.112-.305.653-3.37 4.505.508 6.49 3.053.854 7.745-2.502 8.013.204-.204 1.132-1.403 1.619-1.985 1.36.378.197 1.606.728 2.634-.187 2.202-1.962.823-5.27-2.647-4.709-4.14.68-4.512-1.108-2.638-2.784 1.55-1.387 1.965-2.818 1.694-4.022a.413.413 0 01-.067-.116c-.425-1.513-2.972-4.08-6.8-.601.521-.605 1.837-1.877 3.62-2.146 1.128-.166 2.608.116 3.434 1.02.583-1.108 1.316-.68 1.476-.054.184.72-2.343 4.692-.83 6.347 1.513 1.656 4.26 1.068 5.114-.037 1.121-1.428.124-2.309-.495-2.547l.003-.003z"/></g><defs><clipPath id="bwclip0_133_11208"><path fill="#fff" d="M0 0h141v37H0z"/></clipPath></defs></svg>