<?xml version="1.0" encoding="utf-8"?><svg width="271" height="252" fill="none" xmlns="http://www.w3.org/2000/svg" viewBox="0 0 271 252"><g clip-path="url(#bvclip0_2564_69)"><path d="M179.265 52.117l.204.175-.204-.175zM191.932 44.702l.277-.154-.277.154zM203.134 79.68a24.145 24.145 0 00-.183-7.264 20.802 20.802 0 00-4.029-9.157 1.86 1.86 0 01-.519-1.374c0-1.007.183-2.045.275-3.052.343-3.543.053-7.12-.855-10.561a15.259 15.259 0 00-7.264-9.829 8.424 8.424 0 00-3.053-.946 3.694 3.694 0 00-3.723 1.679c-.431.689-.78 1.427-1.038 2.197h.305-.275c-.397 1.374-.671 2.748-.977 4.152a14.797 14.797 0 01-2.655 6.562c-.763.916-1.496 1.801-2.289 2.656A110.84 110.84 0 01165.56 65.15c-9.676 8.059-19.779 15.506-30.005 22.862h-.641a176.533 176.533 0 00-15.139-14.224 75.317 75.317 0 00-10.806-7.539 29.057 29.057 0 00-15.872-3.846 11.079 11.079 0 00-5.311 1.496 5.921 5.921 0 00-2.747 3.357 9.157 9.157 0 00-.153 5.22 15.262 15.262 0 003.633 6.349c.732.824 1.465 1.556 2.106 2.35a59.95 59.95 0 0113.155 26.586c.628 2.586.895 5.247.794 7.906a81.654 81.654 0 01-1.282 9.828 47.218 47.218 0 01-7.814 18.315l.244.183h-.214a37.686 37.686 0 01-6.745 7.203c-.4.315-.715.724-.916 1.191a2.564 2.564 0 000 1.526 2.87 2.87 0 001.892 2.137c.448.134.926.134 1.374 0a2.601 2.601 0 001.099-.733l1.22-1.252 1.222-1.251-.03-.397.213.214a50.882 50.882 0 0010.286-15.903h-.274.213a53.042 53.042 0 003.663-18.161 49.134 49.134 0 00-.733-11.416 61.366 61.366 0 00-10.713-25.03 86.075 86.075 0 00-6.105-7.508 9.953 9.953 0 01-1.648-2.412 3.236 3.236 0 01-.305-2.075 3.327 3.327 0 011.19-1.74c.335-.31.73-.55 1.16-.702.998-.278 2.02-.462 3.052-.55 3.325.011 6.611.718 9.646 2.076a42.716 42.716 0 016.959 3.999 83.294 83.294 0 0112.026 9.645c3.053 3.052 6.288 6.105 9.463 9.157l1.098 1.038 1.13 1.038.183.183.214-.153.824-.58 5.799-3.968 5.8-3.998c4.212-2.9 8.546-5.708 12.606-8.852 5.372-4.151 10.439-8.73 15.414-13.4a50.808 50.808 0 005.647-6.105 20.272 20.272 0 003.999-8.363c.244-1.069.397-2.137.702-3.053.288-.857.635-1.693 1.038-2.503a1.31 1.31 0 011.282-.671 3.05 3.05 0 012.625 1.099c.331.343.609.734.824 1.16a21.164 21.164 0 012.442 7.112c0 .976.183 1.953.274 3.052a27.707 27.707 0 01-1.617 12.21 34.48 34.48 0 01-7.936 12.209c-2.076 2.106-4.274 4.029-6.472 6.105a3.602 3.602 0 00-1.281 2.136 2.436 2.436 0 00.213 1.465c.195.447.527.82.946 1.069a2.32 2.32 0 001.282.274 2.833 2.833 0 001.221-.519 50.259 50.259 0 008.364-7.936l-.092-.55.214.215a48.376 48.376 0 007.051-11.569l.183-.366a22.523 22.523 0 011.709 8.974 25.016 25.016 0 01-1.434 7.6 39.32 39.32 0 01-7.234 12.21 84.647 84.647 0 01-9.371 9.34 4.6 4.6 0 00-1.252 1.526 2.689 2.689 0 00.733 3.235c.18.152.39.265.615.334.226.068.463.089.697.063a3.05 3.05 0 001.466-.641 46.55 46.55 0 0014.529-15.72v-.152a24.792 24.792 0 01-.672 9.462h.275-.305a30.527 30.527 0 01-5.708 11.141l.214.184-.184-.153a48.277 48.277 0 01-6.593 6.868 5.6 5.6 0 00-.793.885 2.536 2.536 0 00.366 3.052c.314.327.739.523 1.19.55.497.008.986-.13 1.404-.397.499-.265.96-.593 1.374-.977l2.442-2.411a89.892 89.892 0 012.442-2.381l-.214-.183.214.214.366-.397v.305c.015.152.015.306 0 .458a20.414 20.414 0 01-3.296 9.92 31.958 31.958 0 01-12.21 10.5c-1.251.672-2.503 1.282-3.754 1.893-1.252.61-2.503 1.22-3.724 1.861a18.016 18.016 0 00-6.624 5.312 3.385 3.385 0 00-.854 2.258c.027.431.18.843.441 1.187a2.192 2.192 0 002.287.805c.418-.105.796-.33 1.087-.649a41.567 41.567 0 016.105-4.853l9.828-6.105a32.673 32.673 0 003.053-1.923 31.372 31.372 0 0012.209-25.639 7.141 7.141 0 01.946-3.602 24.842 24.842 0 003.236-10.47 28.347 28.347 0 00-1.679-12.545 1.864 1.864 0 010-1.404 35.878 35.878 0 002.534-9.584l.579-.062z" fill="#595959"/><path d="M37.33 249.605L22.07 216.762l-.245-.519h-3.51l-.244.55-13.919 32.843-.519 1.19h4.09l.245-.58 3.907-9.157H26.89l4.243 9.157.244.55h6.532l-.58-1.191zm-23.747-12.209l5.464-12.85 6.104 12.85H13.583zM66.938 237.121a7.688 7.688 0 00-2.167-3.327 11.52 11.52 0 00-4.03-2.289 19.087 19.087 0 00-6.318-.885h-5.585v-9.921h15.75v-4.426H42.733v34.553h11.69a19.264 19.264 0 006.38-.885 11.384 11.384 0 003.999-2.167l-.703-.794.641.641a8.58 8.58 0 002.107-3.327 11.385 11.385 0 000-7.173h.091zm-6.47 1.252c.346.831.523 1.724.518 2.625a5.797 5.797 0 01-.58 2.594 5.5 5.5 0 01-1.465 1.893 6.303 6.303 0 01-2.137 1.159 6.71 6.71 0 01-2.045.397h-5.921v-12.606h5.25a7.242 7.242 0 013.052.519 6.618 6.618 0 012.167 1.343 5.83 5.83 0 011.343 2.045l-.183.031zM105.245 244.508l-1.465-1.251-.61-.519-.611.549a15.906 15.906 0 01-16.849 3.052 12.452 12.452 0 01-4.395-3.052 14.13 14.13 0 01-2.564-4.67 16.667 16.667 0 010-10.989 12.22 12.22 0 012.625-4.273 11.753 11.753 0 014.09-2.808 12.215 12.215 0 015.097-1.038 13.13 13.13 0 013.45.458c.959.275 1.881.664 2.747 1.16.706.356 1.33.855 1.831 1.465.425.485.756 1.043.977 1.648l.213.611h5.556l-.58-1.282a14.472 14.472 0 00-1.923-3.053 10.772 10.772 0 00-3.053-2.533 15.676 15.676 0 00-4.06-1.618 19.98 19.98 0 00-5.25-.61 23.166 23.166 0 00-7.752 1.221 17.607 17.607 0 00-6.105 3.54 16.147 16.147 0 00-3.937 5.556 18.31 18.31 0 00-1.374 7.234c0 2.273.371 4.531 1.099 6.684a16.27 16.27 0 003.449 5.861 16.812 16.812 0 005.922 4.09 20.231 20.231 0 008.485 1.587c1.88.029 3.757-.176 5.586-.61a22.61 22.61 0 004.273-1.404 15.017 15.017 0 003.053-1.893 15.454 15.454 0 001.892-1.77l.55-.671-.367-.672zM144.163 227.659a17.492 17.492 0 00-3.541-5.799 18.95 18.95 0 00-14.529-6.105 18.685 18.685 0 00-8.394 1.74 17.364 17.364 0 00-5.769 4.365 17.004 17.004 0 00-3.357 5.769 15.627 15.627 0 00-.977 6.105 19.066 19.066 0 001.068 5.86 16.95 16.95 0 003.358 5.8 18.304 18.304 0 005.769 4.395 18.49 18.49 0 008.394 1.77c2.014.022 4.02-.256 5.952-.824a19.008 19.008 0 004.792-2.167l-.458-.794.519.763a19.55 19.55 0 003.693-3.052 19.87 19.87 0 002.595-3.785 17.8 17.8 0 001.526-4.059c.331-1.256.506-2.548.519-3.846a17.85 17.85 0 00-1.16-6.136zm-6.379 11.599a14.743 14.743 0 01-2.778 4.426 12.607 12.607 0 01-4.029 2.869 11.262 11.262 0 01-4.853 1.038 10.802 10.802 0 01-4.793-1.038 11.054 11.054 0 01-3.846-2.869 12.216 12.216 0 01-2.594-4.395 17.246 17.246 0 010-11.446 14.483 14.483 0 012.594-4.487 11.575 11.575 0 013.846-2.839 10.717 10.717 0 014.793-1.007c1.672-.03 3.33.314 4.853 1.007a12.607 12.607 0 014.029 2.869 13.65 13.65 0 012.778 4.426 14.96 14.96 0 011.037 5.708 15.521 15.521 0 01-1.037 5.738zM183.142 249.636l-14.224-32.843-.245-.55h-3.845l-.214.58-10.134 25.884a22.812 22.812 0 01-1.496 3.266 1.62 1.62 0 01-1.495.824 1.281 1.281 0 01-.733-.213l-1.007-.55-.916-.519-.397.977-1.251 3.052-.366.855.854.336a7.208 7.208 0 001.923.519c.661.044 1.324.044 1.984 0a4.587 4.587 0 003.358-1.557 11.758 11.758 0 002.289-3.938l8.425-21.366 11.11 25.762.275.671h6.654l-.549-1.19zM234.818 227.506a19.23 19.23 0 00-3.327-5.769 18.329 18.329 0 00-5.8-4.487 19.321 19.321 0 00-8.424-1.709 19.64 19.64 0 00-7.204 1.251 18.926 18.926 0 00-5.555 3.51 17.372 17.372 0 00-5.738 10.256h-4.243v-14.346h-6.105v34.614h6.105v-16.33h3.998c.09 2.491.704 4.935 1.801 7.173a16.29 16.29 0 004.396 5.555 17.091 17.091 0 006.104 3.053 21.396 21.396 0 006.563 1.007 18.822 18.822 0 007.448-1.435 19.564 19.564 0 005.891-3.876l-.641-.641.641.671a18.312 18.312 0 003.846-5.708 17.153 17.153 0 001.404-6.928 17.918 17.918 0 00-1.16-5.861zm-25.426-4.853a10.936 10.936 0 013.937-2.351 14.923 14.923 0 013.999-.793c1.313.031 2.613.279 3.846.732a10.783 10.783 0 013.876 2.381 12.852 12.852 0 013.053 4.274 17.917 17.917 0 010 13.155 13.628 13.628 0 01-3.053 4.365 12.2 12.2 0 01-7.814 3.052 12.202 12.202 0 01-3.968-.763 11.158 11.158 0 01-3.937-2.411 12.865 12.865 0 01-3.053-4.365 15.532 15.532 0 01-1.251-6.562 15.264 15.264 0 011.251-6.532 12.454 12.454 0 013.053-4.274l-.611-.671.672.763zM268.15 216.243h-30.371v4.426h12.606v30.249h6.105v-30.249h12.575v-4.426h-.915z" fill="#DE780D"/><path d="M99.446 180.286a1.861 1.861 0 00-1.374-.549 1.898 1.898 0 00-1.369.554 1.89 1.89 0 00-.554 1.369v12.698h-4.273V181.66c-.005-.51-.201-1-.55-1.374a1.921 1.921 0 00-1.374-.549 1.986 1.986 0 00-1.403.549 1.987 1.987 0 00-.519 1.374v12.698h-4.304V181.66a1.892 1.892 0 00-1.923-1.923 1.856 1.856 0 00-1.373.549 1.939 1.939 0 00-.55 1.374v14.621a1.926 1.926 0 00.55 1.373 1.856 1.856 0 001.374.55H97.98c.259.008.517-.037.758-.132a1.91 1.91 0 00.646-.418v-.305a1.38 1.38 0 00.458-1.068V181.66a1.925 1.925 0 00-.397-1.374zM112.937 188.955l6.105-5.952c.176-.176.316-.386.412-.616a1.912 1.912 0 000-1.454 1.915 1.915 0 00-1.028-1.028 1.912 1.912 0 00-1.454 0c-.23.096-.44.236-.616.412l-4.853 4.823v-3.48a1.924 1.924 0 00-.55-1.374 1.851 1.851 0 00-.63-.416 1.853 1.853 0 00-.743-.133 1.898 1.898 0 00-1.785 1.182 1.898 1.898 0 00-.138.741v14.621a1.9 1.9 0 00.554 1.369 1.893 1.893 0 001.369.554 1.853 1.853 0 001.373-.55 1.914 1.914 0 00.55-1.373v-3.449l4.853 4.853a1.899 1.899 0 002.686-2.686l-6.105-6.044zM140.866 182.484a9.157 9.157 0 10-13.123 12.773 9.157 9.157 0 0013.123-12.773zm-6.562 1.191a5.43 5.43 0 015.402 5.372 5.372 5.372 0 01-9.157 3.815 5.037 5.037 0 01-1.587-3.815 5.431 5.431 0 015.342-5.372zM167.452 195.883a4.186 4.186 0 00-.183-.397c0-.305-.335-.763-.641-1.343a263.746 263.746 0 00-2.503-5.128c-2.228-4.456-3.54-7.112-3.968-7.844v-.183a2.056 2.056 0 00-.705-.632 2.055 2.055 0 00-.912-.253 2.007 2.007 0 00-1.74 1.129c0 .336-.58 1.16-1.252 2.472l-2.93 4.976c-1.129 2.258-1.984 3.968-2.533 5.128l-.672 1.343v.366a2.355 2.355 0 000 .336 1.826 1.826 0 00.58 1.373c.371.324.85.498 1.343.489.312-.008.618-.093.89-.247.271-.155.5-.374.667-.639l5.616-11.202 5.403 11.477a1.857 1.857 0 001.679 1.069 1.866 1.866 0 001.922-1.862.607.607 0 00-.061-.428zM191.474 195.883a1.506 1.506 0 00-.183-.397c0-.305-.335-.763-.641-1.343-.549-1.16-1.404-2.869-2.564-5.128-2.228-4.456-3.51-7.112-3.937-7.844v-.183a2.02 2.02 0 00-1.618-.885 1.952 1.952 0 00-1.709 1.129l-1.252 2.472c-.641 1.282-1.556 3.053-2.655 5.311l-2.931 4.793-.641 1.343c-.048.128-.11.25-.183.366a.619.619 0 000 .336 1.87 1.87 0 00.611 1.373 1.92 1.92 0 003.052-.397l1.923-3.846h7.387l1.923 3.846a1.885 1.885 0 001.357 1.124 1.894 1.894 0 001.695-.483 1.764 1.764 0 00.672-1.434 2.426 2.426 0 00-.306-.153zm-7.417-6.41h-3.541l1.771-3.571 1.77 3.571zM269.035 186.024h-68.373a1.404 1.404 0 000 2.809h68.342c.364-.007.712-.148.977-.397a1.316 1.316 0 00.458-1.008 1.436 1.436 0 00-1.404-1.404zM69.96 186.024H1.404A1.402 1.402 0 000 187.428a1.403 1.403 0 001.404 1.405h68.587a1.406 1.406 0 001.373-1.405 1.437 1.437 0 00-1.404-1.404z" fill="#000"/><path d="M181.158 28.157a20.21 20.21 0 00-3.358-12.728 19.922 19.922 0 00-3.816-4.915 33.565 33.565 0 00-8.424-5.189 20.997 20.997 0 00-16.574-.274 29.93 29.93 0 00-9.371 6.104l-.397.336-.427-.336-.397.489.366-.458a38.253 38.253 0 00-6.929-4.548 28.019 28.019 0 00-16.238-3.327 21.365 21.365 0 00-10.042 3.632l.335.488-.305-.488a27.467 27.467 0 00-6.684 6.654 19.689 19.689 0 00-3.389 16.575 26.863 26.863 0 008.516 14.254c8.303 7.6 16.819 15.079 25.488 22.252 2.136 1.77 4.334 3.51 6.532 5.25l.366.305.366-.275c.43-.285.838-.601 1.221-.946l7.509-5.616 7.539-5.586c4.304-3.053 8.7-6.319 12.973-9.554a73.724 73.724 0 009.401-8.333 22.068 22.068 0 005.708-13.736l.031-.03zm-67.58 18.162l.397-.458a625.418 625.418 0 01-6.868-6.105 20.782 20.782 0 01-5.463-7.326 17.42 17.42 0 01-1.16-9.828c.234-.924.53-1.832.885-2.717a20.137 20.137 0 015.464-7.875 15.93 15.93 0 019.157-3.693v-.58.61a25.15 25.15 0 0114.651 3.205 15.022 15.022 0 015.891 5.494c.315.527.672 1.027 1.068 1.496a1.555 1.555 0 001.13.61 1.68 1.68 0 001.16-.549l.519-.488c0-.183.244-.305.366-.458a20.602 20.602 0 0113.217-8.18 19.532 19.532 0 018.485.702v-.55.58a19.476 19.476 0 0112.057 9.37 15.078 15.078 0 011.282 11.142 19.287 19.287 0 01-5.8 9.493 48.54 48.54 0 01-8.607 6.96c-8.516 5.432-16.483 11.75-24.419 17.855l-.519.367h-.214l-11.11-9.615-11.05-9.798-.397.458-.122-.123zM130.916 11.002l-.275.55.275-.55z" fill="#DE780D"/></g><defs><clipPath id="bvclip0_2564_69"><path fill="#fff" d="M0 0h270.439v252H0z"/></clipPath></defs></svg>