<?xml version="1.0" encoding="utf-8"?><svg width="125" height="124" fill="none" xmlns="http://www.w3.org/2000/svg" viewBox="0 0 125 124"><circle cx="62.642" cy="62" r="62" fill="#F16B84"/><path fill-rule="evenodd" clip-rule="evenodd" d="M50.264 31.051c-1.226.392-2.305 1.24-2.927 2.3-.59 1.007-.692 1.769-.692 5.231v3.21l-4.856.003c-5.433.002-5.957.06-7.568.824-1.237.588-2.717 2.041-3.295 3.236-.833 1.725-.785.402-.783 21.578.001 16.698.027 19.347.193 20.052.481 2.04 1.989 3.91 3.884 4.815.584.279 1.365.57 1.735.645.95.196 52.425.196 53.374 0 2.64-.543 5-2.837 5.62-5.46.165-.705.19-3.354.192-20.052.002-16.81-.022-19.334-.19-19.996-.52-2.035-1.98-3.867-3.794-4.761-1.67-.823-2.151-.879-7.662-.881l-4.856-.002v-3.211c0-3.462-.101-4.224-.692-5.232-.461-.785-1.322-1.561-2.225-2.007l-.823-.405-12.064-.025c-9.5-.019-12.171.01-12.571.138zm23.717 4.032c.153.08.32.209.371.286.051.077.094 1.553.095 3.282l.002 3.142H50.835l.002-3.142c.001-1.729.044-3.205.095-3.28a1.25 1.25 0 01.347-.282c.365-.207 22.31-.213 22.702-.006zm14.971 11.098c.681.232 1.379.866 1.78 1.618l.285.532.034 18.727c.024 13.175-.007 18.924-.105 19.395-.182.878-.778 1.646-1.647 2.124l-.694.38H36.68l-.694-.38c-.87-.478-1.465-1.246-1.647-2.124-.098-.47-.129-6.22-.105-19.395l.034-18.727.285-.532c.388-.727 1.095-1.386 1.728-1.61.456-.162 3.965-.188 26.308-.197 23.072-.009 25.843.011 26.364.189zm-31.96 6.707c-.467.21-.89.658-1.07 1.133-.083.217-.136 1.568-.136 3.453v3.097l-3.291.037c-3.665.042-3.647.038-4.294.989-.286.42-.286.428-.286 5.841v5.422l.289.428c.158.236.481.559.717.717.417.282.51.29 3.647.29h3.218v3.218c0 3.137.008 3.23.29 3.647.158.235.483.56.722.72l.434.293 5.553-.035 5.554-.036.4-.38c.747-.711.759-.777.759-4.248v-3.18h3.218c3.138 0 3.23-.007 3.648-.289a3.17 3.17 0 00.717-.717l.288-.428v-5.422c0-5.413 0-5.422-.285-5.841-.647-.95-.63-.947-4.288-.989l-3.286-.037-.038-3.286c-.041-3.618-.036-3.595-.912-4.248-.34-.254-.517-.263-5.768-.291-4.324-.023-5.496.006-5.8.142zm8.443 7.273c.06 3.127.08 3.345.33 3.682.148.197.462.472.7.612.394.232.7.257 3.636.293l3.206.04v5.443h-3.189c-2.99 0-3.217.017-3.65.263-.966.55-.965.546-1.007 4.276l-.038 3.333H59.85v-3.219c0-3.137-.007-3.23-.289-3.647a3.172 3.172 0 00-.717-.717c-.417-.281-.51-.289-3.647-.289h-3.218v-5.443l3.205-.04c3.593-.044 3.746-.078 4.345-.959l.321-.472V60.13c0-1.753.04-3.226.087-3.274.048-.048 1.29-.072 2.761-.053l2.675.034.063 3.324z" fill="#fff"/></svg>