<?xml version="1.0" encoding="utf-8"?><svg width="39" height="30" fill="none" xmlns="http://www.w3.org/2000/svg" viewBox="0 0 39 30"><path d="M20.501 15.02c0 2.34-.192 4.436-.575 6.286-.356 1.85-.945 3.429-1.767 4.735a7.988 7.988 0 01-3.163 2.939C13.709 29.66 12.12 30 10.23 30c-2.355 0-4.286-.599-5.793-1.796-1.506-1.197-2.63-2.912-3.369-5.143C.356 20.83 0 18.15 0 15.021c0-3.157.329-5.85.986-8.082.657-2.232 1.74-3.946 3.246-5.143C5.738.599 7.738 0 10.23 0c2.355 0 4.287.599 5.793 1.796 1.506 1.17 2.63 2.884 3.369 5.143.74 2.231 1.11 4.925 1.11 8.081zm-14.338 0c0 2.204.123 4.055.37 5.551.246 1.47.657 2.585 1.232 3.347.603.735 1.424 1.102 2.465 1.102 1.04 0 1.849-.367 2.424-1.102.603-.734 1.027-1.836 1.274-3.306.273-1.496.41-3.36.41-5.592 0-2.23-.136-4.081-.41-5.55-.247-1.497-.671-2.613-1.274-3.348-.575-.761-1.383-1.142-2.424-1.142-1.04 0-1.862.38-2.465 1.142-.575.735-.986 1.85-1.233 3.347-.246 1.47-.37 3.32-.37 5.551zM39 29.592h-6.204V12.735 11.02c.028-.68.055-1.387.082-2.122.028-.735.055-1.388.083-1.96-.137.164-.439.463-.904.899-.439.408-.85.775-1.233 1.102l-3.369 2.694-2.999-3.715L33.906.45H39v29.143z" fill="#2B3A64" fill-opacity=".5"/></svg>