<?xml version="1.0" encoding="utf-8"?><svg width="28" height="28" fill="none" xmlns="http://www.w3.org/2000/svg" viewBox="0 0 28 28"><path fill-rule="evenodd" clip-rule="evenodd" d="M23.676 2.878c.59.004 1.063.484 1.058 1.071l-.078 9.567a1.065 1.065 0 01-1.075 1.054 1.065 1.065 0 01-1.058-1.072l.057-7-11.32 11.1a1.07 1.07 0 01-1.51-.013 1.06 1.06 0 01.013-1.503l11.32-11.1-7.024-.056a1.065 1.065 0 01-1.058-1.072A1.065 1.065 0 0114.076 2.8l9.6.078zM6 5.329c-.59 0-1.067.476-1.067 1.063v15.619c0 .587.478 1.063 1.067 1.063h16c.589 0 1.067-.476 1.067-1.063v-3.086c0-.587.477-1.063 1.066-1.063.59 0 1.067.476 1.067 1.063v3.086A3.194 3.194 0 0122 25.2H6a3.194 3.194 0 01-3.2-3.19V6.393A3.194 3.194 0 016 3.203h3.182c.59 0 1.067.476 1.067 1.063S9.771 5.33 9.182 5.33H6z" fill="#fff"/></svg>