<?xml version="1.0" encoding="utf-8"?><svg width="317" height="317" fill="none" xmlns="http://www.w3.org/2000/svg" viewBox="0 0 317 317"><mask id="bna" fill="#fff"><path fill-rule="evenodd" clip-rule="evenodd" d="M143.337.561C89.344 6.093 41.863 38.428 17.554 86.22.606 119.54-4.18 156.384 3.676 193.046c3.47 16.197 12.89 38.452 22.25 52.565 16.033 24.176 37.032 42.663 62.903 55.376 22.681 11.145 43.224 15.886 69.375 16.01 19.366.092 31.722-1.769 49.23-7.413 7.019-2.262 8.881-3.116 10.186-4.668 2.395-2.849 1.962-6.276-1.109-8.766-1.937-1.571-4.427-1.348-11.29 1.008-7.598 2.609-17.203 4.984-25.338 6.265-8.855 1.395-27.092 1.894-35.686.976-27.002-2.883-51.876-12.534-72.897-28.285-.179-.134 4.609-25.636 5.189-27.637.159-.549 2.316-2.001 4.794-3.227 6.564-3.247 10.364-8.516 11.264-15.618.301-2.377.017-4.386-1.218-8.607-1.468-5.013-1.577-6.122-1.215-12.401.462-8.017-.308-10.819-4.285-15.581-3.223-3.86-7.053-5.61-16.657-7.609l-8.217-1.712-14.087-10.685c-11.55-8.759-14.452-10.685-16.105-10.685-1.11 0-5.493 1.102-9.74 2.449-4.247 1.347-7.826 2.345-7.953 2.218-.52-.52-.874-10.289-.47-12.982l.434-2.901 2.148 1.887c1.718 1.511 2.71 1.888 4.959 1.888 4.092 0 20.646-2.49 23.028-3.464 2.305-.942 4.153-4.442 3.516-6.658-.213-.743-2.237-4.087-4.497-7.432-2.48-3.671-3.855-6.251-3.47-6.511 5.578-3.745 10.971-7.962 11.883-9.291.635-.923 4.74-7.958 9.125-15.631 6.39-11.184 8.864-14.91 12.47-18.779 7.301-7.836 9.872-14.792 8.793-23.791-.828-6.91-5.402-14.541-11.053-18.44l-1.548-1.068 1.858-1.555c4.568-3.821 15.63-10.601 24.157-14.804 16.532-8.15 35.105-13.209 53.254-14.507 4.761-.34 8.723-.552 8.806-.469.083.084-2.315 3.226-5.33 6.985l-5.481 6.833-16.642 5.797c-23.92 8.331-26.01 9.168-27.117 10.86-1.642 2.508-12.755 30.012-12.755 31.567 0 1.618 1.81 4.446 11.319 17.682l6.425 8.943-5 6.513c-2.75 3.582-6.673 8.482-8.717 10.889-9.167 10.796-12.261 18.09-12.255 28.89.006 10.646 3.56 18.97 11.126 26.055 9.065 8.488 19.675 10.97 34.215 8.001 8.309-1.697 8.996-1.341 9.522 4.942.431 5.148 1.854 8.638 5.082 12.469 2.693 3.195 4.031 6.021 4.031 8.511 0 .951-.693 4.239-1.541 7.306-2.601 9.415-2.053 13.446 3.654 26.863 1.838 4.322 4.357 10.508 5.597 13.748 3.876 10.13 8.015 15.064 13.436 16.02 6.013 1.06 13.217-1.917 20.297-8.385 4.942-4.516 6.882-7.483 8.407-12.862.634-2.241 2.085-5.035 3.712-7.152 1.47-1.911 3.525-5.359 4.569-7.664 1.043-2.304 3.308-5.773 5.032-7.71 6.161-6.92 7.329-11.933 4.928-21.147-2.123-8.143-1.932-8.56 9.264-20.165 10.084-10.452 12.461-14.08 12.461-19.017 0-5.6-3.504-8.579-12.002-10.206-2.616-.502-5.572-1.334-6.569-1.85-2.908-1.505-5.436-5.893-11.492-19.946-3.468-8.047-6.66-14.487-8.178-16.501-3.224-4.274-7.322-6.441-18.236-9.641-7.301-2.14-8.83-2.403-11.06-1.901-3.426.77-5.791 2.04-7.194 3.864l-1.148 1.493-3.562-2.123c-3.409-2.032-3.561-2.232-3.561-4.657 0-3.709-1.904-6.339-6.072-8.388-3.5-1.72-3.619-1.734-14.276-1.583l-10.746.153 1.524-2.633c1.696-2.931 6.162-6.297 9.639-7.263 1.252-.348 3.875-.635 5.829-.636 3.043-.004 3.84-.262 5.566-1.806 1.7-1.52 2.003-2.206 1.946-4.404-.108-4.103-2.198-5.782-7.582-6.086-8.562-.485-15.473 2.241-21.926 8.648l-4.197 4.168-2.33-3.208c-5.626-7.742-6.309-8.758-6.314-9.375-.003-.36 1.976-5.433 4.398-11.276l4.404-10.623 19.913-6.977c10.953-3.838 20.401-7.23 20.997-7.536.596-.308 5.026-5.503 9.844-11.545 4.818-6.041 9.07-11.312 9.447-11.713.525-.557 2.069-.524 6.571.138 49.4 7.268 90.305 37.033 111.556 81.175 2.306 4.79 5.488 12.602 7.072 17.361l2.879 8.651-1.611 1.175c-2.432 1.773-5.213 6.179-6.106 9.674l-.797 3.117-2.056-5.854c-2.433-6.928-3.957-9.423-9.982-16.342-6.257-7.187-8.374-8.129-18.273-8.137-8.464-.007-10.876.8-12.947 4.329-1.485 2.533-1.539 6.81-.113 8.989 1.368 2.09 1.067 2.464-5.523 6.853-4.773 3.179-13.168 7.452-13.665 6.955-.123-.124-3.02-5.551-6.437-12.062-5.633-10.732-6.213-12.149-6.213-15.169 0-4.424-.945-5.892-8.362-12.987-5.806-5.554-6.543-6.05-11.769-7.937-3.066-1.107-6.272-2.15-7.123-2.321-3.636-.728-7.062 2.402-7.062 6.45 0 2.982 2.671 5.243 8.356 7.076 3.795 1.224 5.186 2.1 9.029 5.693 4.484 4.193 4.543 4.287 4.543 7.379 0 2.814.825 4.713 8.107 18.648 9.736 18.63 9.446 18.172 12.002 19.017 2.599.858 7.153-.589 16.543-5.257 7.735-3.845 13.386-7.745 18.966-13.09l4.016-3.845-.304-3.163c-.297-3.088-.264-3.163 1.345-3.163 2.01 0 2.584.46 7.03 5.64 3.932 4.58 4.018 4.76 9.179 19.067 2.041 5.658 4.044 10.689 4.45 11.179.407.491 1.644 1.271 2.752 1.734 1.7.712 2.326.71 4.026-.011 2.677-1.136 8.869-7.741 10.38-11.073.663-1.464 1.226-2.383 1.249-2.042 1.542 22.383.702 35.336-3.377 52.087-7.233 29.706-23.499 56.179-46.924 76.368-4.811 4.148-6.108 5.62-6.422 7.291-1.004 5.363 5.075 9.163 9.736 6.085 3.839-2.534 14.381-12.375 19.782-18.466 34.82-39.267 48.165-90.833 36.739-141.968-3.582-16.029-12.558-37.125-21.768-51.157C264.477 31.043 222.353 5.696 172.76.523c-6.846-.713-22.279-.694-29.423.038zM60.603 53.815c3.015 1.54 6.675 5.781 7.474 8.662 1.776 6.401.363 10.3-6.45 17.792-3.251 3.575-6.31 8.236-12.698 19.344l-8.415 14.634-7.109 5.086c-3.91 2.797-7.743 5.823-8.517 6.724-2.26 2.63-1.863 5.139 1.638 10.36 1.675 2.497 2.968 4.62 2.872 4.715-.096.096-1.775.435-3.732.754l-3.56.58-3.875-3.47-3.876-3.47 1.394-6.588c5.064-23.936 15.117-44.96 30.277-63.32 4.238-5.133 11.48-13.022 11.954-13.022.13 0 1.31.548 2.623 1.22zm101.245 20.226c-5.926 2.926-3.3 11.42 3.53 11.42 4.293 0 6.988-4.214 5.293-8.277-.914-2.191-3.651-4.138-5.778-4.11-.613.007-1.984.443-3.045.967zm-24.577 35.838c-.032 1.152.39 2.781.938 3.619 1.273 1.945 14.104 9.986 18.003 11.283 5.556 1.848 9.935.787 13.176-3.189l1.274-1.564 5.812 1.674c3.197.921 6.597 2.08 7.556 2.576 2.491 1.291 4.354 4.423 8.273 13.915 5.349 12.955 8.771 19.409 12.445 23.473 3.747 4.145 6.855 5.891 12.537 7.042l3.903.791-8.632 8.712c-12.852 12.97-14.871 18.065-11.961 30.193 1.646 6.861 1.555 7.19-3.621 13.106-2.354 2.689-4.268 5.638-5.153 7.936-.774 2.012-2.596 5.109-4.05 6.883-2.482 3.029-5.1 8.558-5.1 10.77 0 2.555-5.848 8.573-10.954 11.272-3.317 1.752-4.747.06-8.592-10.168-.809-2.149-2.991-7.526-4.851-11.948-4.338-10.315-4.655-12.383-2.788-18.228 2.126-6.661 2.075-15.028-.121-19.71-.88-1.876-2.736-4.724-4.126-6.33-2.342-2.707-2.558-3.269-2.97-7.751-.705-7.681-3.161-11.476-9.577-14.8-2.825-1.462-9.12-1.457-16.105.013-12.183 2.565-21.476-1.255-26.673-10.961-1.856-3.466-2.107-4.525-2.323-9.778-.371-9.009 1.263-12.807 9.897-22.995 2.158-2.546 5.596-6.922 7.64-9.724 2.212-3.032 4.52-5.48 5.702-6.047 1.682-.807 7.665-1.464 18.858-2.071 1.481-.08 1.637.117 1.583 2.006zm-94.613 75.61l13.371 10.115 8.657 1.729c4.762.951 9.215 2.012 9.896 2.359 3.32 1.69 4.032 4.603 2.72 11.142-.598 2.982-.507 4.093.708 8.63 3.22 12.029 2.784 12.927-8.241 16.952-1.938.708-3.243 1.647-3.79 2.729-.458.906-1.882 7.229-3.163 14.05-1.281 6.821-2.528 12.622-2.77 12.891-.576.64-11.043-10.296-16.274-17.002-9.464-12.134-18.427-28.591-23.258-42.706-2.753-8.044-5.58-19.413-5.84-23.496l-.175-2.723 6.813-2.344c3.748-1.289 7.075-2.366 7.394-2.392.32-.027 6.597 4.503 13.952 10.066zm198.368 13.744c-1.003.845-2.453 3.007-3.222 4.806-2.121 4.96-3.503 6.552-7.402 8.522-8.07 4.078-10.2 7.412-10.316 16.141-.059 4.455-.429 6.873-1.521 9.921-1.939 5.413-2.005 11.727-.159 15.192 2.453 4.607 7.548 8.371 11.329 8.371 6.337 0 11.56-5.56 15.256-16.24 3.118-9.012 8.913-29.251 8.912-31.132-.001-3.655-3.11-13.607-4.814-15.412-2.14-2.264-5.492-2.335-8.063-.169zm-2.218 24.353c-4.435 15.381-6.569 21.671-8.085 23.839-1.789 2.556-1.625-.962.317-6.797 1.714-5.149 1.901-6.364 1.541-10.014-.448-4.548-.194-5.038 3.669-7.081 2.419-1.279 2.939-1.269 2.558.053zm-7.22 61.944c-2.418 1.612-3.081 2.762-3.081 5.347 0 3.14 2.679 6.034 5.587 6.034 2.463 0 5.25-1.61 6.13-3.541 2.515-5.527-3.677-11.146-8.636-7.84z"/></mask><path fill-rule="evenodd" clip-rule="evenodd" d="M143.337.561C89.344 6.093 41.863 38.428 17.554 86.22.606 119.54-4.18 156.384 3.676 193.046c3.47 16.197 12.89 38.452 22.25 52.565 16.033 24.176 37.032 42.663 62.903 55.376 22.681 11.145 43.224 15.886 69.375 16.01 19.366.092 31.722-1.769 49.23-7.413 7.019-2.262 8.881-3.116 10.186-4.668 2.395-2.849 1.962-6.276-1.109-8.766-1.937-1.571-4.427-1.348-11.29 1.008-7.598 2.609-17.203 4.984-25.338 6.265-8.855 1.395-27.092 1.894-35.686.976-27.002-2.883-51.876-12.534-72.897-28.285-.179-.134 4.609-25.636 5.189-27.637.159-.549 2.316-2.001 4.794-3.227 6.564-3.247 10.364-8.516 11.264-15.618.301-2.377.017-4.386-1.218-8.607-1.468-5.013-1.577-6.122-1.215-12.401.462-8.017-.308-10.819-4.285-15.581-3.223-3.86-7.053-5.61-16.657-7.609l-8.217-1.712-14.087-10.685c-11.55-8.759-14.452-10.685-16.105-10.685-1.11 0-5.493 1.102-9.74 2.449-4.247 1.347-7.826 2.345-7.953 2.218-.52-.52-.874-10.289-.47-12.982l.434-2.901 2.148 1.887c1.718 1.511 2.71 1.888 4.959 1.888 4.092 0 20.646-2.49 23.028-3.464 2.305-.942 4.153-4.442 3.516-6.658-.213-.743-2.237-4.087-4.497-7.432-2.48-3.671-3.855-6.251-3.47-6.511 5.578-3.745 10.971-7.962 11.883-9.291.635-.923 4.74-7.958 9.125-15.631 6.39-11.184 8.864-14.91 12.47-18.779 7.301-7.836 9.872-14.792 8.793-23.791-.828-6.91-5.402-14.541-11.053-18.44l-1.548-1.068 1.858-1.555c4.568-3.821 15.63-10.601 24.157-14.804 16.532-8.15 35.105-13.209 53.254-14.507 4.761-.34 8.723-.552 8.806-.469.083.084-2.315 3.226-5.33 6.985l-5.481 6.833-16.642 5.797c-23.92 8.331-26.01 9.168-27.117 10.86-1.642 2.508-12.755 30.012-12.755 31.567 0 1.618 1.81 4.446 11.319 17.682l6.425 8.943-5 6.513c-2.75 3.582-6.673 8.482-8.717 10.889-9.167 10.796-12.261 18.09-12.255 28.89.006 10.646 3.56 18.97 11.126 26.055 9.065 8.488 19.675 10.97 34.215 8.001 8.309-1.697 8.996-1.341 9.522 4.942.431 5.148 1.854 8.638 5.082 12.469 2.693 3.195 4.031 6.021 4.031 8.511 0 .951-.693 4.239-1.541 7.306-2.601 9.415-2.053 13.446 3.654 26.863 1.838 4.322 4.357 10.508 5.597 13.748 3.876 10.13 8.015 15.064 13.436 16.02 6.013 1.06 13.217-1.917 20.297-8.385 4.942-4.516 6.882-7.483 8.407-12.862.634-2.241 2.085-5.035 3.712-7.152 1.47-1.911 3.525-5.359 4.569-7.664 1.043-2.304 3.308-5.773 5.032-7.71 6.161-6.92 7.329-11.933 4.928-21.147-2.123-8.143-1.932-8.56 9.264-20.165 10.084-10.452 12.461-14.08 12.461-19.017 0-5.6-3.504-8.579-12.002-10.206-2.616-.502-5.572-1.334-6.569-1.85-2.908-1.505-5.436-5.893-11.492-19.946-3.468-8.047-6.66-14.487-8.178-16.501-3.224-4.274-7.322-6.441-18.236-9.641-7.301-2.14-8.83-2.403-11.06-1.901-3.426.77-5.791 2.04-7.194 3.864l-1.148 1.493-3.562-2.123c-3.409-2.032-3.561-2.232-3.561-4.657 0-3.709-1.904-6.339-6.072-8.388-3.5-1.72-3.619-1.734-14.276-1.583l-10.746.153 1.524-2.633c1.696-2.931 6.162-6.297 9.639-7.263 1.252-.348 3.875-.635 5.829-.636 3.043-.004 3.84-.262 5.566-1.806 1.7-1.52 2.003-2.206 1.946-4.404-.108-4.103-2.198-5.782-7.582-6.086-8.562-.485-15.473 2.241-21.926 8.648l-4.197 4.168-2.33-3.208c-5.626-7.742-6.309-8.758-6.314-9.375-.003-.36 1.976-5.433 4.398-11.276l4.404-10.623 19.913-6.977c10.953-3.838 20.401-7.23 20.997-7.536.596-.308 5.026-5.503 9.844-11.545 4.818-6.041 9.07-11.312 9.447-11.713.525-.557 2.069-.524 6.571.138 49.4 7.268 90.305 37.033 111.556 81.175 2.306 4.79 5.488 12.602 7.072 17.361l2.879 8.651-1.611 1.175c-2.432 1.773-5.213 6.179-6.106 9.674l-.797 3.117-2.056-5.854c-2.433-6.928-3.957-9.423-9.982-16.342-6.257-7.187-8.374-8.129-18.273-8.137-8.464-.007-10.876.8-12.947 4.329-1.485 2.533-1.539 6.81-.113 8.989 1.368 2.09 1.067 2.464-5.523 6.853-4.773 3.179-13.168 7.452-13.665 6.955-.123-.124-3.02-5.551-6.437-12.062-5.633-10.732-6.213-12.149-6.213-15.169 0-4.424-.945-5.892-8.362-12.987-5.806-5.554-6.543-6.05-11.769-7.937-3.066-1.107-6.272-2.15-7.123-2.321-3.636-.728-7.062 2.402-7.062 6.45 0 2.982 2.671 5.243 8.356 7.076 3.795 1.224 5.186 2.1 9.029 5.693 4.484 4.193 4.543 4.287 4.543 7.379 0 2.814.825 4.713 8.107 18.648 9.736 18.63 9.446 18.172 12.002 19.017 2.599.858 7.153-.589 16.543-5.257 7.735-3.845 13.386-7.745 18.966-13.09l4.016-3.845-.304-3.163c-.297-3.088-.264-3.163 1.345-3.163 2.01 0 2.584.46 7.03 5.64 3.932 4.58 4.018 4.76 9.179 19.067 2.041 5.658 4.044 10.689 4.45 11.179.407.491 1.644 1.271 2.752 1.734 1.7.712 2.326.71 4.026-.011 2.677-1.136 8.869-7.741 10.38-11.073.663-1.464 1.226-2.383 1.249-2.042 1.542 22.383.702 35.336-3.377 52.087-7.233 29.706-23.499 56.179-46.924 76.368-4.811 4.148-6.108 5.62-6.422 7.291-1.004 5.363 5.075 9.163 9.736 6.085 3.839-2.534 14.381-12.375 19.782-18.466 34.82-39.267 48.165-90.833 36.739-141.968-3.582-16.029-12.558-37.125-21.768-51.157C264.477 31.043 222.353 5.696 172.76.523c-6.846-.713-22.279-.694-29.423.038zM60.603 53.815c3.015 1.54 6.675 5.781 7.474 8.662 1.776 6.401.363 10.3-6.45 17.792-3.251 3.575-6.31 8.236-12.698 19.344l-8.415 14.634-7.109 5.086c-3.91 2.797-7.743 5.823-8.517 6.724-2.26 2.63-1.863 5.139 1.638 10.36 1.675 2.497 2.968 4.62 2.872 4.715-.096.096-1.775.435-3.732.754l-3.56.58-3.875-3.47-3.876-3.47 1.394-6.588c5.064-23.936 15.117-44.96 30.277-63.32 4.238-5.133 11.48-13.022 11.954-13.022.13 0 1.31.548 2.623 1.22zm101.245 20.226c-5.926 2.926-3.3 11.42 3.53 11.42 4.293 0 6.988-4.214 5.293-8.277-.914-2.191-3.651-4.138-5.778-4.11-.613.007-1.984.443-3.045.967zm-24.577 35.838c-.032 1.152.39 2.781.938 3.619 1.273 1.945 14.104 9.986 18.003 11.283 5.556 1.848 9.935.787 13.176-3.189l1.274-1.564 5.812 1.674c3.197.921 6.597 2.08 7.556 2.576 2.491 1.291 4.354 4.423 8.273 13.915 5.349 12.955 8.771 19.409 12.445 23.473 3.747 4.145 6.855 5.891 12.537 7.042l3.903.791-8.632 8.712c-12.852 12.97-14.871 18.065-11.961 30.193 1.646 6.861 1.555 7.19-3.621 13.106-2.354 2.689-4.268 5.638-5.153 7.936-.774 2.012-2.596 5.109-4.05 6.883-2.482 3.029-5.1 8.558-5.1 10.77 0 2.555-5.848 8.573-10.954 11.272-3.317 1.752-4.747.06-8.592-10.168-.809-2.149-2.991-7.526-4.851-11.948-4.338-10.315-4.655-12.383-2.788-18.228 2.126-6.661 2.075-15.028-.121-19.71-.88-1.876-2.736-4.724-4.126-6.33-2.342-2.707-2.558-3.269-2.97-7.751-.705-7.681-3.161-11.476-9.577-14.8-2.825-1.462-9.12-1.457-16.105.013-12.183 2.565-21.476-1.255-26.673-10.961-1.856-3.466-2.107-4.525-2.323-9.778-.371-9.009 1.263-12.807 9.897-22.995 2.158-2.546 5.596-6.922 7.64-9.724 2.212-3.032 4.52-5.48 5.702-6.047 1.682-.807 7.665-1.464 18.858-2.071 1.481-.08 1.637.117 1.583 2.006zm-94.613 75.61l13.371 10.115 8.657 1.729c4.762.951 9.215 2.012 9.896 2.359 3.32 1.69 4.032 4.603 2.72 11.142-.598 2.982-.507 4.093.708 8.63 3.22 12.029 2.784 12.927-8.241 16.952-1.938.708-3.243 1.647-3.79 2.729-.458.906-1.882 7.229-3.163 14.05-1.281 6.821-2.528 12.622-2.77 12.891-.576.64-11.043-10.296-16.274-17.002-9.464-12.134-18.427-28.591-23.258-42.706-2.753-8.044-5.58-19.413-5.84-23.496l-.175-2.723 6.813-2.344c3.748-1.289 7.075-2.366 7.394-2.392.32-.027 6.597 4.503 13.952 10.066zm198.368 13.744c-1.003.845-2.453 3.007-3.222 4.806-2.121 4.96-3.503 6.552-7.402 8.522-8.07 4.078-10.2 7.412-10.316 16.141-.059 4.455-.429 6.873-1.521 9.921-1.939 5.413-2.005 11.727-.159 15.192 2.453 4.607 7.548 8.371 11.329 8.371 6.337 0 11.56-5.56 15.256-16.24 3.118-9.012 8.913-29.251 8.912-31.132-.001-3.655-3.11-13.607-4.814-15.412-2.14-2.264-5.492-2.335-8.063-.169zm-2.218 24.353c-4.435 15.381-6.569 21.671-8.085 23.839-1.789 2.556-1.625-.962.317-6.797 1.714-5.149 1.901-6.364 1.541-10.014-.448-4.548-.194-5.038 3.669-7.081 2.419-1.279 2.939-1.269 2.558.053zm-7.22 61.944c-2.418 1.612-3.081 2.762-3.081 5.347 0 3.14 2.679 6.034 5.587 6.034 2.463 0 5.25-1.61 6.13-3.541 2.515-5.527-3.677-11.146-8.636-7.84z" fill="#fff" stroke="#009F3C" stroke-width="6" mask="url(#bna)"/></svg>