<?xml version="1.0" encoding="utf-8"?><svg xmlns="http://www.w3.org/2000/svg" viewBox="0 0 233 250" fill="none" width="233" height="250"><circle r="0" fill-rule="evenodd" clip-rule="evenodd" fill="#E73D6D"><animateMotion xmlns="http://www.w3.org/2000/svg" dur="5s" begin="0" repeatCount="indefinite"><mpath xmlns:xlink="http://www.w3.org/1999/xlink" xlink:href="#aya"/></animateMotion><animate attributeName="r" begin="0" dur="5s" repeatCount="indefinite" values="0; 15;"/></circle><circle r="0" fill-rule="evenodd" clip-rule="evenodd" fill="#E73D6D"><animateMotion xmlns="http://www.w3.org/2000/svg" dur="5s" begin=".7" repeatCount="indefinite"><mpath xmlns:xlink="http://www.w3.org/1999/xlink" xlink:href="#aya"/></animateMotion><animate attributeName="r" begin=".7" dur="5s" repeatCount="indefinite" values="0; 15;"/></circle><circle r="0" fill-rule="evenodd" clip-rule="evenodd" fill="#E73D6D"><animateMotion xmlns="http://www.w3.org/2000/svg" dur="5s" begin="1.4" repeatCount="indefinite"><mpath xmlns:xlink="http://www.w3.org/1999/xlink" xlink:href="#aya"/></animateMotion><animate attributeName="r" begin="1.4" dur="5s" repeatCount="indefinite" values="0; 15;"/></circle><circle r="0" fill-rule="evenodd" clip-rule="evenodd" fill="#E73D6D"><animateMotion xmlns="http://www.w3.org/2000/svg" dur="5s" begin="2.1" repeatCount="indefinite"><mpath xmlns:xlink="http://www.w3.org/1999/xlink" xlink:href="#aya"/></animateMotion><animate attributeName="r" begin="2.1" dur="5s" repeatCount="indefinite" values="0; 15;"/></circle><circle r="0" fill-rule="evenodd" clip-rule="evenodd" fill="#E73D6D"><animateMotion xmlns="http://www.w3.org/2000/svg" dur="5s" begin="2.8" repeatCount="indefinite"><mpath xmlns:xlink="http://www.w3.org/1999/xlink" xlink:href="#aya"/></animateMotion><animate attributeName="r" begin="2.8" dur="5s" repeatCount="indefinite" values="0; 15;"/></circle><circle r="0" fill-rule="evenodd" clip-rule="evenodd" fill="#E73D6D"><animateMotion xmlns="http://www.w3.org/2000/svg" dur="5s" begin="3.5" repeatCount="indefinite"><mpath xmlns:xlink="http://www.w3.org/1999/xlink" xlink:href="#aya"/></animateMotion><animate attributeName="r" begin="3.5" dur="5s" repeatCount="indefinite" values="0; 15;"/></circle><circle r="0" fill-rule="evenodd" clip-rule="evenodd" fill="#E73D6D"><animateMotion xmlns="http://www.w3.org/2000/svg" dur="5s" begin="4.2" repeatCount="indefinite"><mpath xmlns:xlink="http://www.w3.org/1999/xlink" xlink:href="#aya"/></animateMotion><animate attributeName="r" begin="4.2" dur="5s" repeatCount="indefinite" values="0; 15;"/></circle><path fill-rule="evenodd" clip-rule="evenodd" d="M175.068 38.003c.416-.163.915.163 1.081.654.166.49 0 1.062-.333 1.226-.415.163-.914-.164-1.08-.654-.25-.49-.083-1.063.332-1.226zm-1.746-5.23c.499-.573 1.58-.49 2.245.245.748.653.914 1.634.333 2.206-.499.572-1.58.49-2.245-.245-.748-.654-.914-1.635-.333-2.206zm-2.909.571c-.665-.081-1.164-.49-1.081-.98.083-.49.582-.817 1.247-.736.665.082 1.164.49 1.081.981-.083.409-.665.735-1.247.735zm6.9 9.48c.332-.326.748-.326.914-.163.25.245.167.654-.083.9-.332.326-.748.326-.914.163-.25-.164-.25-.572.083-.9zm.997-6.129c.499-.163.998.245 1.164.9.167.571-.083 1.225-.582 1.389-.498.163-.997-.245-1.164-.9-.166-.653.084-1.225.582-1.389zm-20.617-23.782c1.414 1.634 2.079 4.413.998 8.826-.166-1.144-.914-4.985-1.746-6.538l.748-2.288zm-3.657-1.798c-3.409-3.514-8.979-5.966-17.292-3.596 0 0 5.237-3.514 11.472-2.452 2.827.49 5.404 2.125 7.316 4.414l-1.496 1.634zm-6.318 18.552c3.574-.49 8.313-4.74 8.313-4.74-.083 7.682-6.817 8.09-8.313 4.74zm-.167 56.146c-.332-.082-.499-.409-.415-.818.083-.408.415-.653.665-.653.332.081.498.408.415.817 0 .408-.332.735-.665.654zm-3.491-5.558c-.416.49-1.081.572-1.414.246-.415-.327-.332-.981.084-1.472.415-.49 1.08-.572 1.413-.245.415.327.332.98-.083 1.471zm1.08 3.433c-.332-.082-.498-.49-.415-.9.083-.408.415-.653.748-.571.332.082.499.49.416.899a.798.798 0 01-.749.572zm-3.242-7.192c-.748-.245-1.081-1.144-.748-2.125.333-.899 1.164-1.553 1.912-1.308.748.246 1.081 1.145.748 2.125-.415.981-1.247 1.553-1.912 1.308zm0-6.865c.166-.654.665-1.063 1.164-.9.499.083.748.737.582 1.309-.166.653-.665 1.062-1.164.898-.499-.081-.748-.653-.582-1.307zM134.416 24.6s4.656 4.576 8.314 5.067c-1.58 3.35-7.815 3.596-8.314-5.067zm25.605 20.513c.915 0 1.58.572 1.58 1.226s-.748 1.226-1.58 1.226c-.914 0-1.579-.572-1.579-1.226s.748-1.226 1.579-1.226zm1.995 6.211c.499.164.832.818.582 1.471-.166.654-.748 1.145-1.33.981-.499-.163-.831-.817-.582-1.471.167-.736.748-1.144 1.33-.98zm1.164-3.677c.499-.246 1.164 0 1.497.572.332.572.332 1.307-.167 1.553-.498.245-1.164 0-1.496-.573-.416-.572-.333-1.225.166-1.552zm-33.835 26.806c-.249.163-.665 0-.914-.327-.167-.327-.167-.736.166-.9.249-.163.665 0 .914.328.167.327.084.735-.166.899zm-1.746-7.846c-.166-.245 0-.654.333-.899.332-.245.748-.163.914.082.167.245 0 .654-.332.899-.333.163-.748.163-.915-.082zm-.498 4.25c-.582.327-1.331 0-1.746-.736-.416-.735-.25-1.47.249-1.798.582-.327 1.33 0 1.746.736.499.654.332 1.47-.249 1.798zm-2.578-4.659c-.498 0-.914-.49-.914-1.144 0-.654.416-1.144.914-1.144.499 0 .915.49.915 1.144 0 .572-.416 1.144-.915 1.144zm2.744-6.292c.332-.327.748-.327.914-.164.25.245.167.654-.083.899-.332.327-.748.327-.914.163-.333-.163-.25-.572.083-.898zm-10.392-7.11c-.166.571-.582.98-1.081.817-.415-.082-.665-.654-.581-1.226.166-.572.581-.981 1.08-.818.416.082.665.654.582 1.226zm-4.905.817c-.914.245-1.912-.572-2.244-1.798-.25-1.226.249-2.37 1.247-2.616.914-.245 1.912.573 2.244 1.798.25 1.226-.332 2.37-1.247 2.616zm-1.662-8.173c.249-.817.914-1.308 1.496-1.144.582.163.915.899.748 1.716-.249.817-.914 1.308-1.496 1.144-.665-.163-.998-.899-.748-1.716zm70.496 6.783c1.081.572.333 5.558-3.574 5.23-4.074-.408-1.995-3.595 1.33-8.499 8.23-12.095-2.827-21.902-11.888-18.96-2.577.817-6.069 3.105-8.48 5.312C169.665 16.999 161.767-.081 145.057 0h-.332c-2.079.082-17.791 1.471-18.206 18.797-.167 6.702 2.992 10.87 5.653 16.754 3.242 7.11 2.577 14.874-7.649 13.648 2.744-.49 4.49-1.47 5.57-2.697-1.247-.081-2.743-.98-4.073-2.697-1.829-2.37-1.995-3.35-3.991-4.413-8.063-4.495-16.294 3.433-14.215 12.096 2.244 9.48 9.56 10.297 6.9 15.61-2.661 5.312-11.306 1.389-7.067-5.803-3.574 2.942-2.577 7.764-.914 10.216 2.494 3.677 10.641 4.658 14.133-.246-2.328-5.394-4.905-14.874 4.988-16.917 11.721-2.37 8.23-1.961 10.557-4.168-1.496 5.966-9.56 3.106-12.885 7.192-3.741 4.658-1.164 10.951-1.081 11.278 1.33 2.86 3.824 5.966 7.731 8.99 1.164 1.39 2.245 3.024 1.913 5.067-.499 3.024-5.404 3.106-5.57-.899-.416 1.635-.25 4.74 3.325 5.394 3.575.736 8.563-4.331 7.232-9.398-1.33-5.15-1.912-5.64-1.745-8.663.332-5.721 6.733-8.827 8.729-8.909C133.751 66.035 137.492 89 153.454 89c13.301 0 12.47-15.12 4.572-13.975-4.988.735-4.905 4.086-4.905 4.086s2.328-.817 4.157-.245c2.909.899 3.408 4.822.166 6.456-3.907 2.043-10.308-1.634-5.404-10.46.416-.736.998-1.227 1.58-1.799-1.829-.408-4.489-1.716-5.237-6.21-.915-5.722 2.66-10.298.415-10.462 1.58-3.432 6.485-4.168 4.323.245-.748 1.553-8.396 10.788 1.247 15.61 7.565 2.043 19.204-6.048 19.869.49-.499 2.697-3.492 3.923-4.905 3.27.915.49 3.99 1.716 6.568-.41 5.486-4.74 2.078-12.667-6.568-11.277-10.308 1.634-11.223-2.697-6.567-6.702 3.824-3.35 4.904-6.783 4.239-9.643-.083-.082-.166-.164-.166-.246-1.081-3.596-7.399-9.807-16.876-1.47 1.33-1.472 4.572-4.496 8.978-5.15 2.827-.408 6.485.246 8.563 2.452 1.413-2.697 3.242-1.634 3.658-.163.416 1.716-5.819 11.278-2.078 15.283 3.824 4.004 10.558 2.533 12.719-.082 2.993-3.678.582-5.803-.998-6.375z" fill="#E73D6D"/><path id="aya" d="M142.22 46.777c43.201 14.481 66.483 61.242 52.003 104.443-14.481 43.201-61.242 66.483-104.443 52.003C46.573 188.74 22.771 143.549 37.777 98.78 52.784 54.01 99.013 32.294 142.22 46.777z" stroke="none"/></svg>