<?xml version="1.0" encoding="utf-8"?><svg viewBox="0 0 94 109" fill="none" xmlns="http://www.w3.org/2000/svg" width="94" height="109"><mask id="axa" style="mask-type:alpha" maskUnits="userSpaceOnUse" x="0" y="0" width="94" height="109"><path fill-rule="evenodd" clip-rule="evenodd" d="M84.013 46.5c.5-.2 1.1.2 1.3.8.2.6 0 1.3-.4 1.5-.5.2-1.1-.2-1.3-.8-.3-.6-.1-1.3.4-1.5zm-2.1-6.4c.6-.7 1.9-.6 2.7.3.9.8 1.1 2 .4 2.7-.6.7-1.9.6-2.7-.3-.9-.8-1.1-2-.4-2.7zm-3.5.7c-.8-.1-1.4-.6-1.3-1.2.1-.6.7-1 1.5-.9.8.1 1.4.6 1.3 1.2-.1.5-.8.9-1.5.9zm8.3 11.6c.4-.4.9-.4 1.1-.2.3.3.2.8-.1 1.1-.4.4-.9.4-1.1.2-.3-.2-.3-.7.1-1.1zm1.2-7.5c.6-.2 1.2.3 1.4 1.1.2.7-.1 1.5-.7 1.7-.6.2-1.2-.3-1.4-1.1-.2-.8.1-1.5.7-1.7zm-24.8-29.1c1.7 2 2.5 5.4 1.2 10.8-.2-1.4-1.1-6.1-2.1-8l.9-2.8zm-4.4-2.2c-4.1-4.3-10.8-7.3-20.8-4.4 0 0 6.3-4.3 13.8-3 3.4.6 6.5 2.6 8.8 5.4l-1.8 2zm-7.6 22.7c4.3-.6 10-5.8 10-5.8-.1 9.4-8.2 9.9-10 5.8zm-.2 68.7c-.4-.1-.6-.5-.5-1 .1-.5.5-.8.8-.8.4.1.6.5.5 1 0 .5-.4.9-.8.8zm-4.2-6.8c-.5.6-1.3.7-1.7.3-.5-.4-.4-1.2.1-1.8.5-.6 1.3-.7 1.7-.3.5.4.4 1.2-.1 1.8zm1.3 4.2c-.4-.1-.6-.6-.5-1.1.1-.5.5-.8.9-.7.4.1.6.6.5 1.1-.1.4-.5.7-.9.7zm-3.9-8.8c-.9-.3-1.3-1.4-.9-2.6.4-1.1 1.4-1.9 2.3-1.6.9.3 1.3 1.4.9 2.6-.5 1.2-1.5 1.9-2.3 1.6zm0-8.4c.2-.8.8-1.3 1.4-1.1.6.1.9.9.7 1.6-.2.8-.8 1.3-1.4 1.1-.6-.1-.9-.8-.7-1.6zm-9-55.1s5.6 5.6 10 6.2c-1.9 4.1-9.4 4.4-10-6.2zm30.8 25.1c1.1 0 1.9.7 1.9 1.5s-.9 1.5-1.9 1.5c-1.1 0-1.9-.7-1.9-1.5s.9-1.5 1.9-1.5zm2.4 7.6c.6.2 1 1 .7 1.8-.2.8-.9 1.4-1.6 1.2-.6-.2-1-1-.7-1.8.2-.9.9-1.4 1.6-1.2zm1.4-4.5c.6-.3 1.4 0 1.8.7.4.7.4 1.6-.2 1.9-.6.3-1.4 0-1.8-.7-.5-.7-.4-1.5.2-1.9zm-40.7 32.8c-.3.2-.8 0-1.1-.4-.2-.4-.2-.9.2-1.1.3-.2.8 0 1.1.4.2.4.1.9-.2 1.1zm-2.1-9.6c-.2-.3 0-.8.4-1.1.4-.3.9-.2 1.1.1.2.3 0 .8-.4 1.1-.4.2-.9.2-1.1-.1zm-.6 5.2c-.7.4-1.6 0-2.1-.9s-.3-1.8.3-2.2c.7-.4 1.6 0 2.1.9.6.8.4 1.8-.3 2.2zm-3.1-5.7c-.6 0-1.1-.6-1.1-1.4 0-.8.5-1.4 1.1-1.4.6 0 1.1.6 1.1 1.4 0 .7-.5 1.4-1.1 1.4zm3.3-7.7c.4-.4.9-.4 1.1-.2.3.3.2.8-.1 1.1-.4.4-.9.4-1.1.2-.4-.2-.3-.7.1-1.1zm-12.5-8.7c-.2.7-.7 1.2-1.3 1-.5-.1-.8-.8-.7-1.5.2-.7.7-1.2 1.3-1 .5.1.8.8.7 1.5zm-5.9 1c-1.1.3-2.3-.7-2.7-2.2-.3-1.5.3-2.9 1.5-3.2 1.1-.3 2.3.7 2.7 2.2.3 1.5-.4 2.9-1.5 3.2zm-2-10c.3-1 1.1-1.6 1.8-1.4.7.2 1.1 1.1.9 2.1-.3 1-1.1 1.6-1.8 1.4-.8-.2-1.2-1.1-.9-2.1zm84.8 8.3c1.3.7.4 6.8-4.3 6.4-4.9-.5-2.4-4.4 1.6-10.4 9.9-14.8-3.4-26.8-14.3-23.2-3.1 1-7.3 3.8-10.2 6.5 13.8-22.4 4.3-43.3-15.8-43.2h-.4c-2.5.1-21.4 1.8-21.9 23-.2 8.2 3.6 13.3 6.8 20.5 3.9 8.7 3.1 18.2-9.2 16.7 3.3-.6 5.4-1.8 6.7-3.3-1.5-.1-3.3-1.2-4.9-3.3-2.2-2.9-2.4-4.1-4.8-5.4-9.7-5.5-19.6 4.2-17.1 14.8 2.7 11.6 11.5 12.6 8.3 19.1-3.2 6.5-13.6 1.7-8.5-7.1-4.3 3.6-3.1 9.5-1.1 12.5 3 4.5 12.8 5.7 17-.3-2.8-6.6-5.9-18.2 6-20.7 14.1-2.9 9.9-2.4 12.7-5.1-1.8 7.3-11.5 3.8-15.5 8.8-4.5 5.7-1.4 13.4-1.3 13.8 1.6 3.5 4.6 7.3 9.3 11 1.4 1.7 2.7 3.7 2.3 6.2-.6 3.7-6.5 3.8-6.7-1.1-.5 2-.3 5.8 4 6.6 4.3.9 10.3-5.3 8.7-11.5-1.6-6.3-2.3-6.9-2.1-10.6.4-7 8.1-10.8 10.5-10.9-12.4 7.1-7.9 35.2 11.3 35.2 16 0 15-18.5 5.5-17.1-6 .9-5.9 5-5.9 5s2.8-1 5-.3c3.5 1.1 4.1 5.9.2 7.9-4.7 2.5-12.4-2-6.5-12.8.5-.9 1.2-1.5 1.9-2.2-2.2-.5-5.4-2.1-6.3-7.6-1.1-7 3.2-12.6.5-12.8 1.9-4.2 7.8-5.1 5.2.3-.9 1.9-10.1 13.2 1.5 19.1 9.1 2.5 23.1-7.4 23.9.6-.6 3.3-4.2 4.8-5.9 4 1.1.6 4.8 2.1 7.9-.5 6.6-5.8 2.5-15.5-7.9-13.8-12.4 2-13.5-3.3-7.9-8.2 4.6-4.1 5.9-8.3 5.1-11.8-.1-.1-.2-.2-.2-.3-1.3-4.4-8.9-12-20.3-1.8 1.6-1.8 5.5-5.5 10.8-6.3 3.4-.5 7.8.3 10.3 3 1.7-3.3 3.9-2 4.4-.2.5 2.1-7 13.8-2.5 18.7 4.6 4.9 12.7 3.1 15.3-.1 3.6-4.5.7-7.1-1.2-7.8z" fill="#E73D6D"/></mask><g mask="url(#axa)"><path d="M-133.918 103.251l-7.679 3.291a13.594 13.594 0 01-13.082-1.311c-9.017-6.23-21.321.224-21.321 11.184V271.5h334l-2.58-146.209c-.126-7.136-9.428-9.779-13.287-3.775-2.581 4.014-8.277 4.463-11.455.904l-10.599-11.871c-4.215-4.721-11.67-4.491-15.586.48a10.179 10.179 0 01-13.147 2.478l-5.807-3.408a16.135 16.135 0 00-18.2 1.279 16.133 16.133 0 01-17.706 1.559l-1.087-.588a18.008 18.008 0 00-16.304-.417l-2.908 1.385a15.422 15.422 0 01-17.535-3.018 15.422 15.422 0 00-13.849-4.234l-3.377.657c-4.24.824-8.634.095-12.38-2.056l-7.586-4.355C-32.143 96.436-42.217 102-50 102c-.686 0-19.683-.735-33.595-7.566-3.45-1.695-7.938-.581-9.536 2.915-2.025 4.43-8.222 4.69-10.61.444l-2.473-4.395c-2.698-4.796-9.165-5.817-13.209-2.085l-9.244 8.534a18.472 18.472 0 01-5.251 3.404z" fill="#E73D6D"><animateTransform attributeName="transform" type="translate" dur="2s" repeatCount="indefinite" values="0, 0; 10, -10; -15, -20; 0, -30; 20, -40; 0, -70; -10, -120;"/></path><animateTransform attributeName="transform" type="rotate" dur="2s" repeatCount="indefinite" values="0; 2; -3; -4; 0; 5; -6; 0;"/></g></svg>