<?xml version="1.0" encoding="utf-8"?><svg xmlns="http://www.w3.org/2000/svg" viewBox="0 0 233 280" fill="none" width="233" height="280"><path d="M192.07 103.158a7.21 7.21 0 105.234-13.438 7.21 7.21 0 00-5.234 13.438z" fill="#E73D6D"><animate attributeName="fill-opacity" dur="10s" repeatCount="indefinite" values="1; 1; 0; 0; 0; 0;0; 0;0; 0;0;1; 1; 1; 1; 1; 1; 1; 1;"/></path><path d="M199.565 162.352c4.947 1.927 10.52-.521 12.448-5.469 1.927-4.947-.522-10.52-5.469-12.447-4.948-1.928-10.521.52-12.448 5.468-1.927 4.947.521 10.52 5.469 12.448z" fill="#E73D6D"><animate attributeName="fill-opacity" dur="10s" begin="0.4s" repeatCount="indefinite" values="1; 1; 0; 0; 0; 0;0; 0;0; 0;0;1; 1; 1; 1; 1; 1; 1; 1;"/></path><path d="M159.438 213.77c6.189 2.411 13.16-.651 15.57-6.84 2.411-6.188-.652-13.159-6.84-15.569-6.189-2.411-13.16.651-15.57 6.84-2.411 6.188.652 13.159 6.84 15.569z" fill="#E73D6D"><animate attributeName="fill-opacity" dur="10s" begin="1s" repeatCount="indefinite" values="1; 1; 0; 0; 0; 0;0; 0;0; 0;0;1; 1; 1; 1; 1; 1; 1; 1;"/></path><path d="M79.468 212.155c7.426 2.893 15.79-.781 18.682-8.207 2.893-7.425-.782-15.789-8.207-18.681-7.426-2.893-15.79.781-18.682 8.207-2.893 7.425.782 15.789 8.207 18.681z" fill="#E73D6D"><animate attributeName="fill-opacity" dur="10s" begin="2.1s" repeatCount="indefinite" values="1; 1; 0; 0; 0; 0;0; 0;0; 0;0;1; 1; 1; 1; 1; 1; 1; 1;"/></path><path d="M39.891 124.552c-8.517 3.741-12.38 13.659-8.639 22.177 3.735 8.514 13.668 12.384 22.178 8.639 8.518-3.742 12.381-13.66 8.64-22.177-3.733-8.522-13.636-12.447-22.179-8.639z" fill="#E73D6D"><animate attributeName="fill-opacity" dur="10s" begin="2.6s" repeatCount="indefinite" values="1; 1; 0; 0; 0; 0;0; 0;0; 0;0;1; 1; 1; 1; 1; 1; 1; 1;"/></path><path d="M59.587 90.16c11.14 4.34 23.688-1.173 28.028-12.313S86.44 54.159 75.3 49.819s-23.689 1.173-28.028 12.313c-4.34 11.14 1.173 23.688 12.314 28.027z" fill="#E73D6D"><animate attributeName="fill-opacity" dur="10s" begin="3.2s" repeatCount="indefinite" values="1; 1; 0; 0; 0; 0;0; 0;0; 0;0;1; 1; 1; 1; 1; 1; 1; 1;"/></path><path fill-rule="evenodd" clip-rule="evenodd" d="M29.842 18.003c.416-.163.915.163 1.08.654.167.49 0 1.062-.332 1.226-.415.163-.914-.164-1.08-.654-.25-.49-.083-1.063.332-1.226zm-1.746-5.23c.5-.573 1.58-.49 2.245.245.748.653.914 1.634.333 2.206-.5.572-1.58.49-2.245-.245-.748-.654-.915-1.635-.333-2.206zm-2.91.571c-.664-.081-1.163-.49-1.08-.98.083-.49.582-.817 1.247-.736.665.082 1.164.49 1.08.981-.082.409-.664.735-1.246.735zm6.9 9.48c.333-.326.749-.326.915-.163.25.245.167.654-.083.9-.333.326-.748.326-.914.163-.25-.164-.25-.572.083-.9zm.998-6.129c.5-.163.998.245 1.164.9.167.571-.083 1.225-.582 1.389-.498.163-.997-.245-1.164-.9-.166-.653.084-1.225.582-1.389zM12.467-7.087c1.414 1.634 2.079 4.413.998 8.826-.166-1.144-.915-4.985-1.746-6.538l.748-2.288zM8.81-8.885c-3.408-3.514-8.978-5.966-17.291-3.596 0 0 5.237-3.514 11.472-2.452 2.827.49 5.404 2.125 7.316 4.414L8.81-8.885zM2.492 9.667c3.575-.49 8.314-4.74 8.314-4.74-.083 7.682-6.817 8.09-8.314 4.74zm-.166 56.146c-.332-.082-.499-.409-.415-.818.083-.408.415-.653.665-.653.332.081.498.408.415.817 0 .408-.332.735-.665.654zm-3.491-5.558c-.416.49-1.081.572-1.414.245-.415-.326-.332-.98.084-1.47.415-.49 1.08-.573 1.413-.246.415.327.332.98-.083 1.471zm1.08 3.433c-.332-.082-.498-.49-.415-.9.083-.408.415-.653.748-.571.332.082.499.49.416.899a.796.796 0 01-.749.572zm-3.242-7.192c-.748-.245-1.08-1.144-.748-2.125.333-.899 1.164-1.553 1.912-1.308.748.246 1.08 1.145.748 2.125-.415.981-1.247 1.553-1.912 1.308zm0-6.865c.166-.654.665-1.063 1.164-.9.499.083.748.736.582 1.309-.166.653-.665 1.062-1.164.899-.499-.082-.748-.654-.582-1.308zM-10.81 4.6s4.656 4.577 8.314 5.067c-1.58 3.35-7.815 3.596-8.314-5.067zm25.605 20.513c.915 0 1.58.572 1.58 1.226s-.749 1.226-1.58 1.226c-.914 0-1.58-.572-1.58-1.226s.749-1.226 1.58-1.226zm1.995 6.211c.5.164.832.817.582 1.471-.166.654-.748 1.145-1.33.981-.499-.163-.831-.817-.582-1.471.166-.736.748-1.144 1.33-.98zm1.164-3.677c.499-.246 1.164 0 1.497.572.332.572.332 1.307-.167 1.553-.498.245-1.164 0-1.496-.573-.416-.572-.333-1.226.166-1.552zM-15.88 54.453c-.25.163-.665 0-.914-.327-.167-.327-.167-.736.166-.9.25-.163.665 0 .914.328.167.327.084.735-.166.899zm-1.746-7.846c-.166-.245 0-.654.333-.899.332-.245.748-.163.914.082.166.245 0 .654-.332.899-.333.163-.748.163-.915-.082zm-.498 4.25c-.582.327-1.33 0-1.746-.736-.416-.735-.25-1.47.25-1.798.581-.327 1.33 0 1.745.736.499.654.332 1.47-.25 1.798zm-2.578-4.659c-.498 0-.914-.49-.914-1.144 0-.654.416-1.144.914-1.144.5 0 .915.49.915 1.144 0 .572-.416 1.144-.915 1.144zm2.744-6.292c.332-.327.748-.327.914-.164.25.245.167.654-.083.899-.332.327-.748.327-.914.163-.333-.163-.25-.572.083-.898zm-10.392-7.11c-.166.571-.582.98-1.08.817-.416-.082-.666-.654-.583-1.226.167-.572.582-.981 1.081-.818.416.082.665.654.582 1.226zm-4.905.817c-.914.245-1.912-.572-2.244-1.798-.25-1.226.25-2.37 1.247-2.616.914-.245 1.912.573 2.244 1.798.25 1.226-.332 2.37-1.247 2.616zm-1.662-8.173c.249-.817.914-1.308 1.496-1.144.582.163.914.899.748 1.716-.25.817-.914 1.308-1.496 1.144-.665-.163-.998-.899-.748-1.716zm70.496 6.783c1.081.572.333 5.558-3.574 5.23-4.074-.408-1.996-3.595 1.33-8.499 8.23-12.095-2.827-21.902-11.888-18.96-2.577.817-6.069 3.105-8.48 5.312C24.438-3.001 16.541-20.081-.169-20H-.5c-2.079.082-17.79 1.471-18.207 18.797-.166 6.702 2.993 10.87 5.654 16.754 3.242 7.11 2.577 14.874-7.649 13.648 2.744-.49 4.49-1.47 5.57-2.697-1.247-.081-2.743-.98-4.073-2.696-1.83-2.37-1.995-3.351-3.99-4.414-8.065-4.495-16.295 3.433-14.216 12.096 2.244 9.48 9.56 10.297 6.9 15.61-2.66 5.312-11.306 1.389-7.067-5.803-3.574 2.942-2.577 7.764-.914 10.216 2.494 3.677 10.64 4.658 14.133-.246-2.328-5.394-4.905-14.874 4.987-16.917 11.722-2.37 8.23-1.961 10.558-4.168-1.496 5.966-9.56 3.106-12.885 7.192-3.741 4.658-1.164 10.951-1.081 11.278 1.33 2.86 3.824 5.966 7.731 8.99 1.164 1.39 2.245 3.024 1.912 5.067-.498 3.024-5.403 3.106-5.57-.899-.415 1.635-.249 4.74 3.326 5.394 3.575.736 8.562-4.331 7.232-9.398-1.33-5.15-1.912-5.64-1.745-8.663.332-5.721 6.733-8.827 8.729-8.909C-11.475 46.035-7.734 69 8.228 69c13.3 0 12.47-15.12 4.572-13.975-4.988.735-4.905 4.086-4.905 4.086s2.328-.817 4.157-.245c2.91.899 3.408 4.822.166 6.456-3.907 2.043-10.309-1.634-5.404-10.46.416-.736.998-1.227 1.58-1.799-1.83-.408-4.49-1.716-5.238-6.21-.914-5.722 2.66-10.298.416-10.462 1.58-3.432 6.484-4.168 4.323.245C7.147 38.19-.5 47.424 9.142 52.246c7.565 2.043 19.204-6.048 19.869.49-.499 2.697-3.492 3.923-4.905 3.27.914.49 3.99 1.716 6.567-.41 5.487-4.74 2.079-12.667-6.567-11.277-10.309 1.634-11.223-2.697-6.568-6.702 3.825-3.35 4.905-6.783 4.24-9.643-.083-.082-.166-.164-.166-.246-1.08-3.596-7.399-9.807-16.876-1.47 1.33-1.472 4.572-4.496 8.978-5.15 2.827-.408 6.485.246 8.563 2.452 1.413-2.697 3.242-1.634 3.658-.163.416 1.716-5.82 11.278-2.078 15.283 3.824 4.004 10.558 2.533 12.719-.082 2.993-3.678.582-5.803-.998-6.375z" fill="#E73D6D"><animateMotion xmlns="http://www.w3.org/2000/svg" dur="5s" begin="0" repeatCount="indefinite"><mpath xmlns:xlink="http://www.w3.org/1999/xlink" xlink:href="#bka"/></animateMotion></path><path id="bka" d="M142.22 46.777c43.201 14.481 66.483 61.242 52.003 104.443-14.481 43.201-61.242 66.483-104.443 52.003C46.573 188.74 22.771 143.549 37.777 98.78 52.784 54.01 99.013 32.294 142.22 46.777z" stroke="none"/></svg>