<?xml version="1.0" encoding="utf-8"?><svg width="120" height="144" fill="none" xmlns="http://www.w3.org/2000/svg" viewBox="0 0 120 144"><path d="M36.62 138.616V34.291a2.478 2.478 0 00-2.472-2.484H4.473A2.478 2.478 0 002 34.291v104.325a2.478 2.478 0 002.473 2.484h29.675a2.478 2.478 0 002.472-2.484zm0 0V4.484A2.478 2.478 0 0139.093 2h29.675a2.478 2.478 0 012.473 2.484v134.132a2.478 2.478 0 01-2.473 2.484H39.093a2.478 2.478 0 01-2.473-2.484zM2 47.416h34.62M2 125.483h34.62m0-103.617h34.62m-34.62 99.357h34.62m7.42-67.058l25.343-4.075M78.66 54.165l13.528 84.895a23.625 23.625 0 019.951-4.08l4.671-.751a23.605 23.605 0 0110.722.756L104.003 50.09M78.66 54.165L92.657 142m11.346-91.91L118 137.925" stroke="#fff" stroke-width="4" stroke-linecap="round" stroke-linejoin="round"/></svg>