<?xml version="1.0" encoding="utf-8"?><svg width="143" height="141" fill="none" xmlns="http://www.w3.org/2000/svg" viewBox="0 0 143 141"><path d="M73.493 97.593l-2.753 2.766c.764-.366 1.51-.786 2.233-1.26a22.7 22.7 0 01.52-1.506zm0 0L86.395 84.63M73.493 97.593a22.718 22.718 0 00-1.514 8.16V107.65c0 11.202 6.096 21.615 15.776 27.173 9.7 5.569 21.851 5.569 31.551 0a31.446 31.446 0 0010.729-10.186 18.007 18.007 0 01-3.793-1.603l-.351-.198c-5.46-3.086-8.839-8.892-8.839-15.186 0-.21.004-.419.011-.627h-.01v-1.27c0-7.954-4.154-15.325-10.942-19.418a22.445 22.445 0 00-19.716-1.706m0 0l2.896-2.91c-.385.812-.83 1.604-1.335 2.37-.525.16-1.046.34-1.56.54zm31.019-31.194l-27.607-27.74m-20.99 21.088l-41.94-31.08a15.555 15.555 0 00-20.305 1.533C1.114 22.72.465 31.39 5.046 37.635l30.926 42.15 32.845-33.002zM110.529 4.87a9.722 9.722 0 0113.796 0l13.811 13.877c3.819 3.836 3.819 10.056 0 13.892l-95.278 95.734a19.495 19.495 0 01-11.654 5.628l-21.158 2.362c-1.593.178-2.94-1.174-2.762-2.775l2.35-21.259a19.664 19.664 0 015.602-11.71l95.293-95.75z" stroke="#fff" stroke-width="4" stroke-linecap="round" stroke-linejoin="round"/></svg>