<?xml version="1.0" encoding="utf-8"?><svg width="51" height="39" fill="none" xmlns="http://www.w3.org/2000/svg" viewBox="0 0 51 39"><path d="M51 1.751c-.847 3.714-2.013 7.747-3.495 12.098a213.245 213.245 0 01-4.608 13.053A362.042 362.042 0 0138.131 39H27.804a505.64 505.64 0 002.86-12.894c1.059-4.67 2.012-9.233 2.86-13.69C34.37 7.853 35.005 3.714 35.43 0h14.617L51 1.751zm-28.122 0c-.847 3.714-2.012 7.747-3.495 12.098a213.245 213.245 0 01-4.607 13.053A362.042 362.042 0 0110.009 39H0c.741-2.971 1.43-6.155 2.065-9.551.742-3.396 1.43-6.792 2.066-10.188A211.6 211.6 0 006.037 9.073c.53-3.29.954-6.314 1.271-9.073h14.617l.953 1.751z" fill="#E9EAEB"/></svg>