<?xml version="1.0" encoding="utf-8"?><svg width="51" height="39" fill="none" xmlns="http://www.w3.org/2000/svg" viewBox="0 0 51 39"><path d="M51 0a436.247 436.247 0 00-2.86 13.053c-.953 4.67-1.853 9.233-2.7 13.69A537.56 537.56 0 0043.532 39H28.916l-1.112-1.751c.953-3.714 2.118-7.694 3.495-11.939a213.202 213.202 0 014.608-13.053A583.691 583.691 0 0140.831 0H51zM22.878 0a436.247 436.247 0 00-2.86 13.053c-.953 4.67-1.853 9.233-2.7 13.69A537.56 537.56 0 0015.41 39H.953L0 37.249c.953-3.714 2.118-7.694 3.495-11.939a316.226 316.226 0 014.449-13.053A583.75 583.75 0 0112.869 0h10.01z" fill="#E9EAEB"/></svg>