<?xml version="1.0" encoding="utf-8"?><svg xmlns="http://www.w3.org/2000/svg" width="1227" height="459" fill="none" viewBox="0 0 1227 459"><mask id="bya" maskUnits="userSpaceOnUse" x="0" y="0" width="1227" height="459"><path d="M-85.275 97.345l48.52-31.583a313.791 313.791 0 0184.558-38.614l6.895-1.98a411.271 411.271 0 0164.051-12.995l31.278-3.791h56.086l25.006 3.334a285.016 285.016 0 0164.123 16.297l5.208 1.99a242.19 242.19 0 0196.208 67.238l24.773 28.469 35.456 52.863 22.563 43.837 19.573 31.116a110.124 110.124 0 0012.705 16.499l7.255 7.773a70.04 70.04 0 0030.44 19.101l.9.279a66.821 66.821 0 0074.4-25.285l8.932-12.653a110.249 110.249 0 0013.243-25.096l17.57-47.191 15.235-40.788a145.78 145.78 0 0111.767-24.341l2.818-4.666a115.578 115.578 0 0166.774-51.277l1.857-.538a106.896 106.896 0 0192.254 15.944l.737.532a110.4 110.4 0 0132.704 37.304l5.047 9.389a156.63 156.63 0 0115.27 41.71l6.956 32.848 5.802 47.06 10.214 49.127a100.225 100.225 0 0011.55 30.087l5.055 8.666a64.861 64.861 0 0025.542 24.569l8.283 4.411c4.839 2.576 2.402 9.943-3.018 9.126a48.765 48.765 0 01-30.881-17.843l-8.673-10.892a84.198 84.198 0 01-11.59-19.435l-5.227-12.265a182.528 182.528 0 01-10.744-34.172l-7.917-37.825-14.182-50.929-12.981-30.885a88.894 88.894 0 00-15.513-24.619l-5.26-5.918c-10.271-11.555-24.424-19.219-39.694-21.63-8.473-1.338-17.229-1.01-25.568.998a65.286 65.286 0 00-36.209 23.332l-8.229 10.554a103.631 103.631 0 00-12.424 20.421l-20.76 45.153-20.547 51.597a206.177 206.177 0 01-21.379 40.128l-8.119 11.866a124.903 124.903 0 01-30.482 31.104l-1.499 1.071a114.566 114.566 0 01-77.516 20.814l-2.618-.251a128.907 128.907 0 01-44.681-12.694l-3.888-1.917a152.552 152.552 0 01-37.463-26.082l-.456-.432a156.693 156.693 0 01-31.772-42.464l-18.059-35.349-36.746-61.243-16.645-21.67a188.098 188.098 0 00-108.184-69l-6.202-1.385a220.06 220.06 0 00-47.959-5.29h-46.642l-60.11 7.456a322.829 322.829 0 00-131.732 46.846l-46.039 28.86v-74.78z" fill="#FF4878"><animate attributeName="d" values="M0.5 40.0013V187.5C107 154.999 250 97.5002 344 259C438 420.5 517.677 414.028 585 413C716 411 753.419 205.416 760.5 185.5C776.5 140.5 826.489 127.657 857 171.5C886.267 213.556 877.329 374.14 979.819 369.508C984.477 369.298 985.774 363.291 981.943 360.632C922.219 319.186 923.471 261.483 906.5 154.001C888.5 40.0013 716 -2.9987 672.5 154.001C629 311.001 544.5 356.501 460.5 175.001C376.5 -6.49886 172 -37.4987 0.5 40.0013Z; M0.5 40.0013V187.5C107 154.999 250 97.5002 344 259C438 420.5 517.677 414.028 585 413C716 411 738.919 260.916 746 241C762 196 806.489 197.157 837 241C865.616 282.121 904.33 366.622 977.094 333.229C981.63 331.147 979.961 325.28 974.974 325.481C935.249 327.085 898.767 327.356 883 227.5C865 113.5 739.5 82.5 673.5 198C607.5 313.5 528 353 460.5 175.001C393 -2.99756 172 -37.4987 0.5 40.0013Z; M0.5 40.0013V187.5C107 154.999 266.006 125 344 259C421.994 393 463.5 419 541.5 419C619.5 419 660.5 393 687.5 361.5C714.5 330 787.5 309.5 824 338.5C858.302 365.754 903.645 376.669 977.459 333.892C981.777 331.389 979.966 325.414 974.994 325.845C933.527 329.437 888.249 340.837 839.5 285.5C784 222.5 716 246.5 660.5 295.5C605 344.5 528 353 460.5 175.001C393 -2.99751 172 -37.4987 0.5 40.0013Z; M0.5 40.0013V187.5C107 154.999 250 97.5002 344 259C438 420.5 517.677 414.028 585 413C716 411 738.919 260.916 746 241C762 196 806.489 197.157 837 241C865.616 282.121 904.33 366.622 977.094 333.229C981.63 331.147 979.961 325.28 974.974 325.481C935.249 327.085 898.767 327.356 883 227.5C865 113.5 739.5 82.5 673.5 198C607.5 313.5 528 353 460.5 175.001C393 -2.99756 172 -37.4987 0.5 40.0013Z; M0.5 40.0013V187.5C107 154.999 266.006 125 344 259C421.994 393 463.5 419 541.5 419C619.5 419 660.5 393 687.5 361.5C714.5 330 787.5 309.5 824 338.5C858.302 365.754 903.645 376.669 977.459 333.892C981.777 331.389 979.966 325.414 974.994 325.845C933.527 329.437 888.249 340.837 839.5 285.5C784 222.5 716 246.5 660.5 295.5C605 344.5 528 353 460.5 175.001C393 -2.99751 172 -37.4987 0.5 40.0013Z; M0.5 40.0013V187.5C107 154.999 250 97.5002 344 259C438 420.5 517.677 414.028 585 413C716 411 738.919 260.916 746 241C762 196 806.489 197.157 837 241C865.616 282.121 904.33 366.622 977.094 333.229C981.63 331.147 979.961 325.28 974.974 325.481C935.249 327.085 898.767 327.356 883 227.5C865 113.5 739.5 82.5 673.5 198C607.5 313.5 528 353 460.5 175.001C393 -2.99756 172 -37.4987 0.5 40.0013Z; M0.5 40.0013V187.5C107 154.999 250 97.5002 344 259C438 420.5 517.677 414.028 585 413C716 411 753.419 205.416 760.5 185.5C776.5 140.5 826.489 127.657 857 171.5C886.267 213.556 877.329 374.14 979.819 369.508C984.477 369.298 985.774 363.291 981.943 360.632C922.219 319.186 923.471 261.483 906.5 154.001C888.5 40.0013 716 -2.9987 672.5 154.001C629 311.001 544.5 356.501 460.5 175.001C376.5 -6.49886 172 -37.4987 0.5 40.0013Z;" dur="30s" repeatCount="indefinite"/></path></mask><g mask="url(#bya)" style="transform-box:fill-box;transform-origin:50% 50%"><animateTransform xmlns="http://www.w3.org/2000/svg" attributeType="xml" attributeName="transform" type="skewY" dur="12s" begin="0" values="0; -3; 0; -8; 0; -1; 0;" repeatCount="indefinite"/><path d="M-85.275 97.345l48.52-31.583a313.791 313.791 0 0184.558-38.614l6.895-1.98a411.271 411.271 0 0164.051-12.995l31.278-3.791h56.086l25.006 3.334a285.016 285.016 0 0164.123 16.297l5.208 1.99a242.19 242.19 0 0196.208 67.238l24.773 28.469 35.456 52.863 22.563 43.837 19.573 31.116a110.124 110.124 0 0012.705 16.499l7.255 7.773a70.04 70.04 0 0030.44 19.101l.9.279a66.821 66.821 0 0074.4-25.285l8.932-12.653a110.249 110.249 0 0013.243-25.096l17.57-47.191 15.235-40.788a145.78 145.78 0 0111.767-24.341l2.818-4.666a115.578 115.578 0 0166.774-51.277l1.857-.538a106.896 106.896 0 0192.254 15.944l.737.532a110.4 110.4 0 0132.704 37.304l5.047 9.389a156.63 156.63 0 0115.27 41.71l6.956 32.848 5.802 47.06 10.214 49.127a100.225 100.225 0 0011.55 30.087l5.055 8.666a64.861 64.861 0 0025.542 24.569l8.283 4.411c4.839 2.576 2.402 9.943-3.018 9.126a48.765 48.765 0 01-30.881-17.843l-8.673-10.892a84.198 84.198 0 01-11.59-19.435l-5.227-12.265a182.528 182.528 0 01-10.744-34.172l-7.917-37.825-14.182-50.929-12.981-30.885a88.894 88.894 0 00-15.513-24.619l-5.26-5.918c-10.271-11.555-24.424-19.219-39.694-21.63-8.473-1.338-17.229-1.01-25.568.998a65.286 65.286 0 00-36.209 23.332l-8.229 10.554a103.631 103.631 0 00-12.424 20.421l-20.76 45.153-20.547 51.597a206.177 206.177 0 01-21.379 40.128l-8.119 11.866a124.903 124.903 0 01-30.482 31.104l-1.499 1.071a114.566 114.566 0 01-77.516 20.814l-2.618-.251a128.907 128.907 0 01-44.681-12.694l-3.888-1.917a152.552 152.552 0 01-37.463-26.082l-.456-.432a156.693 156.693 0 01-31.772-42.464l-18.059-35.349-36.746-61.243-16.645-21.67a188.098 188.098 0 00-108.184-69l-6.202-1.385a220.06 220.06 0 00-47.959-5.29h-46.642l-60.11 7.456a322.829 322.829 0 00-131.732 46.846l-46.039 28.86v-74.78z" fill="#FF4878"><animate attributeName="d" values="M0.5 40.0013V187.5C107 154.999 250 97.5002 344 259C438 420.5 517.677 414.028 585 413C716 411 753.419 205.416 760.5 185.5C776.5 140.5 826.489 127.657 857 171.5C886.267 213.556 877.329 374.14 979.819 369.508C984.477 369.298 985.774 363.291 981.943 360.632C922.219 319.186 923.471 261.483 906.5 154.001C888.5 40.0013 716 -2.9987 672.5 154.001C629 311.001 544.5 356.501 460.5 175.001C376.5 -6.49886 172 -37.4987 0.5 40.0013Z; M0.5 40.0013V187.5C107 154.999 250 97.5002 344 259C438 420.5 517.677 414.028 585 413C716 411 738.919 260.916 746 241C762 196 806.489 197.157 837 241C865.616 282.121 904.33 366.622 977.094 333.229C981.63 331.147 979.961 325.28 974.974 325.481C935.249 327.085 898.767 327.356 883 227.5C865 113.5 739.5 82.5 673.5 198C607.5 313.5 528 353 460.5 175.001C393 -2.99756 172 -37.4987 0.5 40.0013Z; M0.5 40.0013V187.5C107 154.999 266.006 125 344 259C421.994 393 463.5 419 541.5 419C619.5 419 660.5 393 687.5 361.5C714.5 330 787.5 309.5 824 338.5C858.302 365.754 903.645 376.669 977.459 333.892C981.777 331.389 979.966 325.414 974.994 325.845C933.527 329.437 888.249 340.837 839.5 285.5C784 222.5 716 246.5 660.5 295.5C605 344.5 528 353 460.5 175.001C393 -2.99751 172 -37.4987 0.5 40.0013Z; M0.5 40.0013V187.5C107 154.999 250 97.5002 344 259C438 420.5 517.677 414.028 585 413C716 411 738.919 260.916 746 241C762 196 806.489 197.157 837 241C865.616 282.121 904.33 366.622 977.094 333.229C981.63 331.147 979.961 325.28 974.974 325.481C935.249 327.085 898.767 327.356 883 227.5C865 113.5 739.5 82.5 673.5 198C607.5 313.5 528 353 460.5 175.001C393 -2.99756 172 -37.4987 0.5 40.0013Z; M0.5 40.0013V187.5C107 154.999 266.006 125 344 259C421.994 393 463.5 419 541.5 419C619.5 419 660.5 393 687.5 361.5C714.5 330 787.5 309.5 824 338.5C858.302 365.754 903.645 376.669 977.459 333.892C981.777 331.389 979.966 325.414 974.994 325.845C933.527 329.437 888.249 340.837 839.5 285.5C784 222.5 716 246.5 660.5 295.5C605 344.5 528 353 460.5 175.001C393 -2.99751 172 -37.4987 0.5 40.0013Z; M0.5 40.0013V187.5C107 154.999 250 97.5002 344 259C438 420.5 517.677 414.028 585 413C716 411 738.919 260.916 746 241C762 196 806.489 197.157 837 241C865.616 282.121 904.33 366.622 977.094 333.229C981.63 331.147 979.961 325.28 974.974 325.481C935.249 327.085 898.767 327.356 883 227.5C865 113.5 739.5 82.5 673.5 198C607.5 313.5 528 353 460.5 175.001C393 -2.99756 172 -37.4987 0.5 40.0013Z; M0.5 40.0013V187.5C107 154.999 250 97.5002 344 259C438 420.5 517.677 414.028 585 413C716 411 753.419 205.416 760.5 185.5C776.5 140.5 826.489 127.657 857 171.5C886.267 213.556 877.329 374.14 979.819 369.508C984.477 369.298 985.774 363.291 981.943 360.632C922.219 319.186 923.471 261.483 906.5 154.001C888.5 40.0013 716 -2.9987 672.5 154.001C629 311.001 544.5 356.501 460.5 175.001C376.5 -6.49886 172 -37.4987 0.5 40.0013Z;" dur="30s" repeatCount="indefinite"/></path><path d="M975.123 374.55h2.652l-2.701-2.7a59.577 59.577 0 00-9.592-7.783 59.643 59.643 0 01-16.23-15.683l-7.213-10.274a124.789 124.789 0 01-12.569-22.548l-1.291-3.013a156.246 156.246 0 01-10.273-34.486l-9.11-51.785-7.128-25.994a170.39 170.39 0 00-9.969-27.103l-6.17-13.197a108.773 108.773 0 00-31.092-39.272l-7.368-5.823a68.254 68.254 0 00-72.415-7.713l-2.981 1.465a77.788 77.788 0 00-22.003 16.14l-3.777 3.962a108.515 108.515 0 00-20.747 31.084l-11.683 26.482-16.117 43.192-9.6 23.632a194.009 194.009 0 01-17.61 33.527l-5.312 8.084a140.344 140.344 0 01-34.294 36.102l-3.566 2.615a112.957 112.957 0 01-32.075 16.399l-1.38.446a106.616 106.616 0 01-64.484.34l-1.118-.348a120.74 120.74 0 01-51.315-31.789l-8.821-9.216a170.165 170.165 0 01-22.451-29.229l-28.402-46.695-12.823-24.454a256.169 256.169 0 00-36.339-52.266l-2.933-3.264a225.294 225.294 0 00-48.577-40.712 225.536 225.536 0 00-54.699-24.616 226.058 226.058 0 00-64.497-9.407h-43.155l-38.774 3.969A377.567 377.567 0 00-57.77 145.343l-32.017 21.626 4.513 79.938 76.07-34.812 69.623-26.431 2.622-.683a478.208 478.208 0 01120.509-15.434l22.666 1.79a135.55 135.55 0 0184.017 38.133l2.234 2.18a155.637 155.637 0 0117.618 20.476l18.514 25.74 34.812 61.243A248.968 248.968 0 00415.641 379l3.424 2.846a208.773 208.773 0 0024.005 17.228l3.005 1.849a178.723 178.723 0 0037.874 17.58 178.742 178.742 0 0051.627 8.881l28.97.673h3.539c20.252 0 40.338-3.655 59.291-10.791l2.812-1.058a150.183 150.183 0 0081.411-73.386l7.446-14.893a228.646 228.646 0 0015.024-38.338l9.048-31.08 16.117-44.482 10.952-27.583a44.23 44.23 0 0122.278-23.7 44.246 44.246 0 0134.662-1.282 44.273 44.273 0 0120.467 15.999l8.223 11.779a91.07 91.07 0 0112.044 24.313l6.769 21.103 2.886 14.697a258.93 258.93 0 0011.932 41.804l4.069 10.743a133.218 133.218 0 0010.639 21.837l9.949 16.429a71.336 71.336 0 0061.019 34.382z" fill="#C03B5E"><animate attributeName="d" values="M280.5 93.5C172 54.9999 1.5 110 1.5 110L0.5 199.5C0.5 199.5 133 156 179 160.5C225 165 278.5 167.5 351.5 294.5C424.5 421.5 529.805 416.636 565 421.5C626.5 430 721.5 385 748.5 244.5C775.5 104 856.301 145.848 868 210.5C896.5 368 941 369.5 980 369.5C963 367 933.318 360 913 288.5C892.682 217 882.259 138.011 843 112C787.024 74.9138 738.274 133.112 718 190.5C667.658 333 606 391 508 345C410 299 389 132 280.5 93.5Z; M280.5 93.4999C126 38.6773 1.5 110 1.5 110L0.5 199.5C0.5 199.5 133 156 179 160.5C225 165 278.5 167.5 351.5 294.5C424.5 421.5 529.805 416.636 565 421.5C626.5 430 714.359 385.5 733 288.5C751.641 191.5 825.5 230 850.5 272.5C875.5 315 919.5 353 958 339.5C914.5 347 880 303.5 860 270C840 236.5 832 224.5 802 209.5C772 194.5 725.825 197 693.5 288.5C661.175 380 554.167 409 461.5 339.5C368.833 270 435 148.323 280.5 93.4999Z; M245.5 95C91 40.1774 1.5 110 1.5 110L0.5 199.5C0.5 199.5 133 156 179 160.5C225 165 278.5 167.5 351.5 294.5C424.5 421.5 500.805 422.136 536 427C597.5 435.5 681.5 381.5 709.5 357.5C737.5 333.5 798.5 314 827.5 349.5C856.5 385 979 353.5 980 329.5C906 375 860.5 360 837.5 334.5C814.5 309 785.5 305.238 747.5 309C709.5 312.762 698 334 657 366C616 398 519.5 384.5 461.5 339.5C403.5 294.5 400 149.823 245.5 95Z; M280.5 93.4999C126 38.6773 1.5 110 1.5 110L0.5 199.5C0.5 199.5 133 156 179 160.5C225 165 278.5 167.5 351.5 294.5C424.5 421.5 529.805 416.636 565 421.5C626.5 430 714.359 385.5 733 288.5C751.641 191.5 825.5 230 850.5 272.5C875.5 315 919.5 353 958 339.5C914.5 347 880 303.5 860 270C840 236.5 832 224.5 802 209.5C772 194.5 725.825 197 693.5 288.5C661.175 380 554.167 409 461.5 339.5C368.833 270 435 148.323 280.5 93.4999Z; M245.5 95C91 40.1774 1.5 110 1.5 110L0.5 199.5C0.5 199.5 133 156 179 160.5C225 165 278.5 167.5 351.5 294.5C424.5 421.5 500.805 422.136 536 427C597.5 435.5 681.5 381.5 709.5 357.5C737.5 333.5 798.5 314 827.5 349.5C856.5 385 979 353.5 980 329.5C906 375 860.5 360 837.5 334.5C814.5 309 785.5 305.238 747.5 309C709.5 312.762 698 334 657 366C616 398 519.5 384.5 461.5 339.5C403.5 294.5 400 149.823 245.5 95Z; M280.5 93.4999C126 38.6773 1.5 110 1.5 110L0.5 199.5C0.5 199.5 133 156 179 160.5C225 165 278.5 167.5 351.5 294.5C424.5 421.5 529.805 416.636 565 421.5C626.5 430 714.359 385.5 733 288.5C751.641 191.5 825.5 230 850.5 272.5C875.5 315 919.5 353 958 339.5C914.5 347 880 303.5 860 270C840 236.5 832 224.5 802 209.5C772 194.5 725.825 197 693.5 288.5C661.175 380 554.167 409 461.5 339.5C368.833 270 435 148.323 280.5 93.4999Z; M280.5 93.5C172 54.9999 1.5 110 1.5 110L0.5 199.5C0.5 199.5 133 156 179 160.5C225 165 278.5 167.5 351.5 294.5C424.5 421.5 529.805 416.636 565 421.5C626.5 430 721.5 385 748.5 244.5C775.5 104 856.301 145.848 868 210.5C896.5 368 941 369.5 980 369.5C963 367 933.318 360 913 288.5C892.682 217 882.259 138.011 843 112C787.024 74.9138 738.274 133.112 718 190.5C667.658 333 606 391 508 345C410 299 389 132 280.5 93.5Z;" dur="30s" repeatCount="indefinite"/></path><g transform="translate(20 -20)" fill="#EE6D8F"><ellipse cx="19.227" cy="147.412" rx="42.147" ry="20.475" transform="rotate(173.775 19.227 147.412)"/><ellipse cx="103.323" cy="125.066" rx="35.412" ry="18.187" transform="rotate(173.775 103.323 125.066)"/><ellipse cx="184.151" cy="119.041" rx="35.412" ry="18.187" transform="rotate(-175.26 184.151 119.041)"/><ellipse cx="276.784" cy="136.617" rx="35.412" ry="18.187" transform="rotate(-159.146 276.784 136.617)"/><ellipse cx="347.174" cy="195.677" rx="35.097" ry="20.438" transform="rotate(-132.607 347.174 195.677)"/></g><g transform="translate(5 10)" fill="#EE6D8F"><ellipse cx="19.227" cy="147.412" rx="42.147" ry="20.475" transform="rotate(173.775 19.227 147.412)"/><ellipse cx="103.323" cy="125.066" rx="35.412" ry="18.187" transform="rotate(173.775 103.323 125.066)"/><ellipse cx="184.151" cy="119.041" rx="35.412" ry="18.187" transform="rotate(-175.26 184.151 119.041)"/><ellipse cx="276.784" cy="136.617" rx="35.412" ry="18.187" transform="rotate(-159.146 276.784 136.617)"/><ellipse cx="347.174" cy="195.677" rx="35.097" ry="20.438" transform="rotate(-132.607 347.174 195.677)"/><ellipse cx="391.328" cy="277.636" rx="35.097" ry="20.438" transform="rotate(-126.108 391.328 277.636)"/><ellipse cx="437.743" cy="340.345" rx="35.097" ry="20.438" transform="rotate(-138.161 437.743 340.345)"/><ellipse cx="500.795" cy="377.005" rx="27.705" ry="17.891" transform="rotate(-159.941 500.795 377.005)"/><ellipse cx="567.085" cy="389.617" rx="29.619" ry="15.585" transform="rotate(177.224 567.085 389.617)"/></g></g></svg>