<?xml version="1.0" encoding="utf-8"?><svg width="981" height="453" fill="none" xmlns="http://www.w3.org/2000/svg" viewBox="0 0 981 453"><path d="M972.378 248.979l2.526-.805-3.393-1.753a59.65 59.65 0 00-11.502-4.504 59.627 59.627 0 01-20.224-10.017l-9.991-7.599a124.79 124.79 0 01-18.821-17.669l-2.144-2.479a156.323 156.323 0 01-20.257-29.741l-24.399-46.577-14.681-22.604a170.418 170.418 0 00-17.726-22.798l-9.885-10.702a108.78 108.78 0 00-41.545-27.981l-8.788-3.312a68.252 68.252 0 00-71.34 14.632l-2.395 2.3a77.8 77.8 0 00-16.066 22.058l-2.396 4.921a108.49 108.49 0 00-10.333 35.915l-3.094 28.779-2.246 46.046-1.974 25.431a194.011 194.011 0 01-6.602 37.29l-2.608 9.316a140.355 140.355 0 01-21.717 44.808l-2.604 3.574a112.978 112.978 0 01-25.585 25.362l-1.179.843a106.617 106.617 0 01-61.339 19.897l-1.171.008a120.736 120.736 0 01-58.543-14.713l-11.202-6.104a170.096 170.096 0 01-30.263-21.035l-41.236-35.871-19.641-19.408a256.188 256.188 0 00-50.49-38.77l-3.785-2.219A225.268 225.268 0 00205.506 192.6a226.066 226.066 0 00-64.309 10.614l-41.118 13.099-35.74 15.551A377.591 377.591 0 00-81.357 344.108l-23.943 30.324 28.564 74.797 61.915-56.26 58.316-46.317 2.29-1.446a478.132 478.132 0 01110.139-51.285l22.14-5.175a135.551 135.551 0 0191.628 10.831l2.79 1.4a155.566 155.566 0 0123.002 14.162l25.454 18.906 51.759 47.787a248.975 248.975 0 0067.944 41.211l4.127 1.672a208.641 208.641 0 0028.101 9.129l3.426.85a178.71 178.71 0 0093.309-1.955l27.808-8.152 3.372-1.074a168.265 168.265 0 0053.218-28.279l2.358-1.862a150.173 150.173 0 0055.295-94.635l2.574-16.45a228.605 228.605 0 002.678-41.089l-.812-32.361 1.854-47.275 2.063-29.606a44.234 44.234 0 0146.67-41.087 44.278 44.278 0 0124.358 9.032l11.41 8.727a91.065 91.065 0 0118.856 19.511l12.855 18.052 7.211 13.127a258.927 258.927 0 0024.058 36.21l7.138 9.001a133.33 133.33 0 0016.765 17.578l14.467 12.634a71.338 71.338 0 0068.577 14.238z" fill="#C03B5E"/><path d="M-122.133 306.723l36.643-44.82a313.73 313.73 0 0168.849-62.459l5.968-3.98a411.33 411.33 0 0157.085-31.823l28.652-13.107 53.439-17.024 24.838-4.413a285.006 285.006 0 0166.045-3.936l5.566.316a242.223 242.223 0 0161.427 11.572 242.208 242.208 0 0150.651 23.29l32.246 19.607 49.829 39.606 34.805 34.92 28.094 23.707a110.042 110.042 0 0017.114 11.864l9.272 5.204a70.034 70.034 0 0034.802 8.961l.942-.007a66.828 66.828 0 0063.215-46.676l4.669-14.767a110.176 110.176 0 005-27.932l2.418-50.297 2.135-43.489c.443-9.02 1.723-17.98 3.824-26.764l1.268-5.301a115.593 115.593 0 0148.06-69.126l1.605-1.077a106.905 106.905 0 0192.741-12.81l.865.283a110.412 110.412 0 0142.484 25.616l7.658 7.415a156.652 156.652 0 0127.211 35.107l16.598 29.187 19.813 43.079 24.644 43.708a100.186 100.186 0 0020.137 25.161l7.447 6.723a64.853 64.853 0 0031.794 15.657l9.232 1.689c5.392.986 5.307 8.745-.106 9.612a48.765 48.765 0 01-34.841-7.628l-11.569-7.745a84.188 84.188 0 01-16.942-15.001l-8.703-10.099a182.4 182.4 0 01-20.61-29.299l-19.025-33.637-28.972-44.221-21.743-25.488a88.916 88.916 0 00-22.254-18.749l-6.808-4.042c-13.294-7.892-29.105-10.899-44.387-8.561-8.479 1.297-16.723 4.268-24.059 8.712a65.292 65.292 0 00-27.418 33.222l-4.637 12.553a103.579 103.579 0 00-5.639 23.229l-6.075 49.325-3.917 55.399a206.036 206.036 0 01-8.19 44.724l-4.134 13.771a124.878 124.878 0 01-19.602 38.888l-1.103 1.476a114.566 114.566 0 01-67.541 43.361l-2.571.555a128.89 128.89 0 01-46.426 1.468l-4.287-.646a152.542 152.542 0 01-43.612-13.481l-.565-.273a156.676 156.676 0 01-43.163-30.817l-27.937-28.199-53.601-47.2-22.437-15.595a188.113 188.113 0 00-124.025-32.906l-6.329.563a220.03 220.03 0 00-47.302 9.517l-44.441 14.158-55.012 25.349a322.84 322.84 0 00-111.297 84.621l-35.106 41.473-22.699-71.253z" fill="#FF4878"/><path d="M-45.894 339.776c-4.58-10.339 8.958-26.364 30.24-35.792 21.282-9.429 42.248-8.691 46.828 1.648 4.58 10.339-8.959 26.364-30.24 35.792-21.282 9.429-42.248 8.691-46.828-1.648zM-111.17 428.229c-8.187-7.801-1.805-27.786 14.253-44.637s35.712-24.187 43.898-16.386c8.186 7.801 1.805 27.786-14.253 44.637s-35.712 24.187-43.898 16.386zM33.607 290.23c-4.069-9.184 7.129-23.05 25.01-30.973 17.881-7.922 35.675-6.899 39.744 2.284 4.068 9.184-7.129 23.051-25.01 30.973-17.882 7.922-35.675 6.899-39.744-2.284zM106.655 253.534c-2.247-9.789 11.383-21.273 30.445-25.649 19.061-4.376 36.336.012 38.584 9.802 2.247 9.789-11.384 21.273-30.445 25.649-19.062 4.377-36.336-.012-38.584-9.802zM199.41 232.273c.558-10.029 16.84-17.278 36.367-16.192 19.528 1.086 34.905 10.097 34.348 20.126-.558 10.029-16.841 17.278-36.368 16.192-19.527-1.087-34.905-10.097-34.347-20.126zM121.57 295.641c-2.028-8.835 11.78-19.544 30.842-23.92 19.062-4.376 36.158-.762 38.186 8.072 2.028 8.834-11.78 19.543-30.842 23.919-19.061 4.376-36.158.763-38.186-8.071zM199.378 273.982c1.666-9.497 17.482-14.658 35.326-11.527 17.844 3.13 30.959 13.367 29.293 22.864-1.667 9.497-17.483 14.658-35.327 11.527-17.844-3.13-30.959-13.367-29.292-22.864zM273.134 294.019c4.781-8.374 21.41-7.88 37.143 1.102 15.733 8.983 24.612 23.052 19.831 31.426-4.78 8.373-21.41 7.88-37.143-1.103-15.733-8.982-24.611-23.052-19.831-31.425zM289.285 251.746c5.596-9.803 23.779-9.958 40.613-.348 16.833 9.611 25.942 25.349 20.346 35.151-5.597 9.803-23.78 9.958-40.613.348-16.834-9.611-25.943-25.348-20.346-35.151zM358.397 313.098c6.67-9.107 24.754-7.203 40.392 4.251 15.637 11.454 22.907 28.122 16.237 37.228-6.671 9.106-24.754 7.202-40.392-4.252-15.637-11.454-22.907-28.121-16.237-37.227zM417.951 365.129c4.621-10.299 22.704-12.213 40.388-4.277 17.685 7.936 28.275 22.718 23.653 33.016-4.621 10.299-22.704 12.213-40.389 4.277-17.684-7.936-28.274-22.718-23.652-33.016zM493.496 394.136c.411-9.872 13.138-17.358 28.426-16.72 15.288.637 27.348 9.157 26.936 19.03-.412 9.872-13.139 17.358-28.427 16.72-15.288-.638-27.347-9.157-26.935-19.03zM560.415 397.532c-3.007-8.065 6.981-19.235 22.308-24.949 15.328-5.714 30.19-3.809 33.197 4.256 3.007 8.065-6.981 19.235-22.308 24.949-15.328 5.715-30.19 3.809-33.197-4.256zM630.949 368.42c-6.867-5.189-4.439-19.976 5.423-33.026 9.863-13.051 23.424-19.424 30.291-14.235 6.867 5.189 4.439 19.976-5.423 33.026-9.862 13.051-23.424 19.424-30.291 14.235zM670.803 300.161c-7.269-2.104-9.742-15.627-5.523-30.204 4.218-14.578 13.531-24.69 20.801-22.586 7.269 2.104 9.742 15.627 5.524 30.204-4.219 14.578-13.532 24.69-20.802 22.586zM685.295 229.548c-7.328-.89-11.997-12.086-10.428-25.007 1.568-12.921 8.781-22.674 16.109-21.784 7.328.889 11.997 12.085 10.429 25.006-1.569 12.921-8.781 22.674-16.11 21.785zM694.415 158.843c-7.38.135-13.557-10.305-13.795-23.318-.238-13.014 5.552-23.673 12.933-23.808 7.381-.135 13.557 10.305 13.795 23.318.239 13.014-5.552 23.673-12.933 23.808zM700.671 88.044c-3.819-6.317 2.115-16.897 13.254-23.63 11.139-6.733 23.264-7.07 27.083-.753 3.819 6.318-2.115 16.897-13.254 23.63-11.139 6.734-23.264 7.07-27.083.753zM749.843 60.34c3.039-6.728 15.119-7.837 26.98-2.479 11.862 5.359 19.013 15.157 15.974 21.884-3.039 6.728-15.119 7.837-26.98 2.478-11.862-5.358-19.014-15.156-15.974-21.883zM807.531 85.48c3.838-3.365 12.574.322 19.511 8.235 6.938 7.913 9.45 17.055 5.612 20.42-3.838 3.365-12.574-.322-19.511-8.235-6.938-7.913-9.45-17.055-5.612-20.42zM846.602 133.443c4.101-2.031 11.079 3.7 15.586 12.8 4.506 9.1 4.835 18.123.733 20.154-4.101 2.031-11.079-3.699-15.586-12.799-4.506-9.1-4.835-18.124-.733-20.155zM859.303 181.45c3.639-3.373 13.185 1.009 21.322 9.787 8.137 8.777 11.783 18.628 8.144 22.001-3.638 3.373-13.185-1.009-21.321-9.787-8.137-8.778-11.784-18.628-8.145-22.001zM891.893 225.05c1.825-3.241 11.759-1.107 22.188 4.766 10.429 5.874 17.404 13.263 15.579 16.504-1.826 3.241-11.76 1.106-22.189-4.767-10.429-5.874-17.403-13.262-15.578-16.503zM828.186 132.926c3.35-1.659 9.554 4.039 13.856 12.727 4.302 8.687 5.074 17.075 1.724 18.734-3.35 1.659-9.554-4.039-13.856-12.727-4.302-8.687-5.074-17.075-1.724-18.734zM791.843 99.313c3.209-2.813 10.448.197 16.169 6.723 5.722 6.526 7.759 14.096 4.55 16.909-3.208 2.813-10.447-.197-16.169-6.723-5.721-6.526-7.758-14.096-4.55-16.91zM719.581 176.491c-4.515-.232-7.678-10.102-7.065-22.045.613-11.942 4.771-21.436 9.286-21.204 4.515.232 7.678 10.101 7.065 22.044-.613 11.943-4.77 21.436-9.286 21.205zM724.638 114.157c-3.364-4.455 1.646-13.909 11.19-21.115 9.543-7.205 20.007-9.435 23.371-4.98 3.364 4.456-1.646 13.909-11.189 21.115-9.544 7.206-20.008 9.435-23.372 4.98zM706.033 319.254c-7.562-1.354-11.524-14.561-8.849-29.5 2.675-14.938 10.973-25.95 18.535-24.596 7.562 1.354 11.524 14.562 8.849 29.5-2.675 14.938-10.973 25.95-18.535 24.596zM716.039 246.23c-6.02-.067-10.762-12.423-10.593-27.598.17-15.175 5.187-27.422 11.206-27.355 6.02.067 10.762 12.424 10.593 27.598-.169 15.175-5.187 27.422-11.206 27.355zM551.622 434.846c-2.117-6.632 7.371-15.587 21.193-19.999 13.822-4.413 26.744-2.613 28.862 4.02 2.117 6.632-7.371 15.587-21.193 19.999-13.823 4.413-26.744 2.613-28.862-4.02zM623.325 415.994c-5.315-6.646-.439-19.38 10.892-28.443 11.331-9.063 24.826-11.022 30.142-4.376 5.315 6.647.439 19.381-10.892 28.444-11.331 9.062-24.826 11.021-30.142 4.375zM674.596 374.975c-7.222-4.503-6.854-18.134.822-30.447 7.676-12.312 19.753-18.644 26.975-14.142 7.222 4.503 6.854 18.134-.822 30.447-7.676 12.312-19.753 18.644-26.975 14.142zM482.128 432.684c1.252-8.817 13.218-14.41 26.728-12.492 13.51 1.917 23.447 10.619 22.196 19.436-1.251 8.817-13.218 14.41-26.728 12.493-13.51-1.918-23.447-10.62-22.196-19.437zM405.882 408.292c4.065-9.058 20.529-10.491 36.774-3.201 16.245 7.29 26.118 20.543 22.053 29.601-4.065 9.058-20.529 10.491-36.774 3.201-16.244-7.29-26.118-20.542-22.053-29.601zM335.969 349.465c5.504-7.514 21.358-5.261 35.412 5.033 14.053 10.293 20.983 24.73 15.479 32.244-5.504 7.514-21.359 5.261-35.412-5.032-14.053-10.294-20.983-24.73-15.479-32.245zM52.658 335.942c-3.678-8.284 6.826-20.989 23.463-28.378 16.637-7.389 33.106-6.664 36.785 1.62 3.679 8.284-6.825 20.989-23.462 28.378-16.637 7.389-33.107 6.664-36.786-1.62zM-11.744 380.994c-4.989-7.568 3.29-21.824 18.489-31.842 15.2-10.018 31.564-12.005 36.552-4.437 4.989 7.568-3.29 21.825-18.489 31.843-15.2 10.018-31.564 12.004-36.552 4.436zM-73.058 446.644c-4.85-5.024 1.836-19.346 14.933-31.989s27.646-18.819 32.497-13.795c4.85 5.024-1.836 19.347-14.933 31.99-13.098 12.642-27.647 18.819-32.497 13.794z" fill="#EE6D8F"/></svg>