<?xml version="1.0" encoding="utf-8"?><svg xmlns="http://www.w3.org/2000/svg" width="1227" height="600" fill="none" style="transform-box:fill-box;transform-origin:0 50%" viewBox="0 0 1227 600"><g><g><path d="M-85.275 97.345l48.52-31.583a313.791 313.791 0 0184.558-38.614l6.895-1.98a411.271 411.271 0 0164.051-12.995l31.278-3.791h56.086l25.006 3.334a285.016 285.016 0 0164.123 16.297l5.208 1.99a242.19 242.19 0 0196.208 67.238l24.773 28.469 35.456 52.863 22.563 43.837 19.573 31.116a110.124 110.124 0 0012.705 16.499l7.255 7.773a70.04 70.04 0 0030.44 19.101l.9.279a66.821 66.821 0 0074.4-25.285l8.932-12.653a110.249 110.249 0 0013.243-25.096l17.57-47.191 15.235-40.788a145.78 145.78 0 0111.767-24.341l2.818-4.666a115.578 115.578 0 0166.774-51.277l1.857-.538a106.896 106.896 0 0192.254 15.944l.737.532a110.4 110.4 0 0132.704 37.304l5.047 9.389a156.63 156.63 0 0115.27 41.71l6.956 32.848 5.802 47.06 10.214 49.127a100.225 100.225 0 0011.55 30.087l5.055 8.666a64.861 64.861 0 0025.542 24.569l8.283 4.411c4.839 2.576 2.402 9.943-3.018 9.126a48.765 48.765 0 01-30.881-17.843l-8.673-10.892a84.198 84.198 0 01-11.59-19.435l-5.227-12.265a182.528 182.528 0 01-10.744-34.172l-7.917-37.825-14.182-50.929-12.981-30.885a88.894 88.894 0 00-15.513-24.619l-5.26-5.918c-10.271-11.555-24.424-19.219-39.694-21.63-8.473-1.338-17.229-1.01-25.568.998a65.286 65.286 0 00-36.209 23.332l-8.229 10.554a103.631 103.631 0 00-12.424 20.421l-20.76 45.153-20.547 51.597a206.177 206.177 0 01-21.379 40.128l-8.119 11.866a124.903 124.903 0 01-30.482 31.104l-1.499 1.071a114.566 114.566 0 01-77.516 20.814l-2.618-.251a128.907 128.907 0 01-44.681-12.694l-3.888-1.917a152.552 152.552 0 01-37.463-26.082l-.456-.432a156.693 156.693 0 01-31.772-42.464l-18.059-35.349-36.746-61.243-16.645-21.67a188.098 188.098 0 00-108.184-69l-6.202-1.385a220.06 220.06 0 00-47.959-5.29h-46.642l-60.11 7.456a322.829 322.829 0 00-131.732 46.846l-46.039 28.86v-74.78z" fill="#FF4878"/><path d="M975.123 374.55h2.652l-2.701-2.7a59.577 59.577 0 00-9.592-7.783 59.643 59.643 0 01-16.23-15.683l-7.213-10.274a124.789 124.789 0 01-12.569-22.548l-1.291-3.013a156.246 156.246 0 01-10.273-34.486l-9.11-51.785-7.128-25.994a170.39 170.39 0 00-9.969-27.103l-6.17-13.197a108.773 108.773 0 00-31.092-39.272l-7.368-5.823a68.254 68.254 0 00-72.415-7.713l-2.981 1.465a77.788 77.788 0 00-22.003 16.14l-3.777 3.962a108.515 108.515 0 00-20.747 31.084l-11.683 26.482-16.117 43.192-9.6 23.632a194.009 194.009 0 01-17.61 33.527l-5.312 8.084a140.344 140.344 0 01-34.294 36.102l-3.566 2.615a112.957 112.957 0 01-32.075 16.399l-1.38.446a106.616 106.616 0 01-64.484.34l-1.118-.348a120.74 120.74 0 01-51.315-31.789l-8.821-9.216a170.165 170.165 0 01-22.451-29.229l-28.402-46.695-12.823-24.454a256.169 256.169 0 00-36.339-52.266l-2.933-3.264a225.294 225.294 0 00-48.577-40.712 225.536 225.536 0 00-54.699-24.616 226.058 226.058 0 00-64.497-9.407h-43.155l-38.774 3.969A377.567 377.567 0 00-57.77 145.343l-32.017 21.626 4.513 79.938 76.07-34.812 69.623-26.431 2.622-.683a478.208 478.208 0 01120.509-15.434l22.666 1.79a135.55 135.55 0 0184.017 38.133l2.234 2.18a155.637 155.637 0 0117.618 20.476l18.514 25.74 34.812 61.243A248.968 248.968 0 00415.641 379l3.424 2.846a208.773 208.773 0 0024.005 17.228l3.005 1.849a178.723 178.723 0 0037.874 17.58 178.742 178.742 0 0051.627 8.881l28.97.673h3.539c20.252 0 40.338-3.655 59.291-10.791l2.812-1.058a150.183 150.183 0 0081.411-73.386l7.446-14.893a228.646 228.646 0 0015.024-38.338l9.048-31.08 16.117-44.482 10.952-27.583a44.23 44.23 0 0122.278-23.7 44.246 44.246 0 0134.662-1.282 44.273 44.273 0 0120.467 15.999l8.223 11.779a91.07 91.07 0 0112.044 24.313l6.769 21.103 2.886 14.697a258.93 258.93 0 0011.932 41.804l4.069 10.743a133.218 133.218 0 0010.639 21.837l9.949 16.429a71.336 71.336 0 0061.019 34.382z" fill="#C03B5E"/><ellipse cx="19.227" cy="147.412" rx="42.147" ry="20.475" transform="rotate(173.775 19.227 147.412)" fill="#EE6D8F"/><ellipse cx="103.323" cy="125.066" rx="35.412" ry="18.187" transform="rotate(173.775 103.323 125.066)" fill="#EE6D8F"/><ellipse cx="184.151" cy="119.041" rx="35.412" ry="18.187" transform="rotate(-175.26 184.151 119.041)" fill="#EE6D8F"/><ellipse cx="276.784" cy="136.617" rx="35.412" ry="18.187" transform="rotate(-159.146 276.784 136.617)" fill="#EE6D8F"/><ellipse cx="347.174" cy="195.677" rx="35.097" ry="20.438" transform="rotate(-132.607 347.174 195.677)" fill="#EE6D8F"/><ellipse cx="391.328" cy="277.636" rx="35.097" ry="20.438" transform="rotate(-126.108 391.328 277.636)" fill="#EE6D8F"/><ellipse cx="437.743" cy="340.345" rx="35.097" ry="20.438" transform="rotate(-138.161 437.743 340.345)" fill="#EE6D8F"/><ellipse cx="500.795" cy="377.005" rx="27.705" ry="17.891" transform="rotate(-159.941 500.795 377.005)" fill="#EE6D8F"/><ellipse cx="567.085" cy="389.617" rx="29.619" ry="15.585" transform="rotate(177.224 567.085 389.617)" fill="#EE6D8F"/><ellipse cx="637.733" cy="367.627" rx="29.619" ry="15.585" transform="rotate(144.748 637.733 367.627)" fill="#EE6D8F"/><ellipse cx="687.528" cy="308.95" rx="27.478" ry="13.703" transform="rotate(123.811 687.528 308.95)" fill="#EE6D8F"/><ellipse cx="717.288" cy="247.468" rx="23.567" ry="13.367" transform="rotate(114.592 717.288 247.468)" fill="#EE6D8F"/><ellipse cx="744.372" cy="181.715" rx="23.567" ry="13.367" transform="rotate(106.622 744.372 181.715)" fill="#EE6D8F"/><ellipse cx="185.58" cy="163.687" rx="35.412" ry="16.412" transform="rotate(-175.26 185.58 163.687)" fill="#EE6D8F"/><ellipse cx="260.065" cy="178.95" rx="32.803" ry="17.459" transform="rotate(-152.379 260.065 178.95)" fill="#EE6D8F"/><ellipse cx="317.402" cy="229.365" rx="32.803" ry="17.459" transform="rotate(-132.607 317.402 229.365)" fill="#EE6D8F"/><ellipse cx="787.999" cy="133.244" rx="23.567" ry="13.367" transform="rotate(166.518 787.999 133.244)" fill="#EE6D8F"/><ellipse cx="837.862" cy="143.03" rx="23.567" ry="13.367" transform="rotate(-138.018 837.862 143.03)" fill="#EE6D8F"/><ellipse cx="875.299" cy="186.196" rx="19.054" ry="9.242" transform="rotate(-113.571 875.299 186.196)" fill="#EE6D8F"/><ellipse cx="893.12" cy="244.467" rx="18.387" ry="8.287" transform="rotate(-98.675 893.12 244.467)" fill="#EE6D8F"/><ellipse cx="897.091" cy="295.503" rx="21.672" ry="8.984" transform="rotate(-115.159 897.091 295.503)" fill="#EE6D8F"/><ellipse cx="920.6" cy="343.188" rx="21.672" ry="6.735" transform="rotate(-132.942 920.459 343.188)" fill="#EE6D8F"/><ellipse cx="875.605" cy="237.561" rx="17.554" ry="6.769" transform="rotate(-98.675 875.605 237.561)" fill="#EE6D8F"/><ellipse cx="854.817" cy="191.553" rx="15.715" ry="7.726" transform="rotate(-113.571 854.817 191.553)" fill="#EE6D8F"/><ellipse xmlns="http://www.w3.org/2000/svg" cx="758.875" cy="212.485" rx="21.653" ry="8.186" transform="rotate(108.61 763.875 208.485)" fill="#EE6D8F"/><ellipse cx="800.417" cy="163.707" rx="21.653" ry="10.108" transform="rotate(160.616 800.417 163.707)" fill="#EE6D8F"/><ellipse cx="712.833" cy="336.365" rx="27.478" ry="13.91" transform="rotate(117.822 712.833 336.365)" fill="#EE6D8F"/><ellipse cx="740.341" cy="268.039" rx="27.478" ry="10.9" transform="rotate(108.31 740.341 268.039)" fill="#EE6D8F"/><ellipse cx="544.068" cy="423.92" rx="26.272" ry="12.607" transform="rotate(179.964 544.068 423.92)" fill="#EE6D8F"/><ellipse cx="616.37" cy="418.33" rx="26.272" ry="15.409" transform="rotate(159.017 616.37 418.33)" fill="#EE6D8F"/><ellipse cx="673.153" cy="387.193" rx="26.272" ry="15.409" transform="rotate(139.61 673.153 387.193)" fill="#EE6D8F"/><ellipse cx="474.493" cy="411.516" rx="24.707" ry="16.124" transform="rotate(-154.252 474.493 411.516)" fill="#EE6D8F"/><ellipse cx="411.013" cy="375.902" rx="32.239" ry="17.977" transform="rotate(-138.161 411.013 375.902)" fill="#EE6D8F"/><ellipse cx="356.822" cy="302.607" rx="31.541" ry="16.866" transform="rotate(-126.108 356.822 302.607)" fill="#EE6D8F"/><ellipse cx="105.16" cy="174.639" rx="32.961" ry="16.412" transform="rotate(173.723 105.16 174.639)" fill="#EE6D8F"/><ellipse cx="29.085" cy="192.691" rx="32.961" ry="16.412" transform="rotate(164.281 29.085 192.691)" fill="#EE6D8F"/><animateTransform xmlns="http://www.w3.org/2000/svg" attributeType="xml" attributeName="transform" type="skewY" dur="40s" begin="0" values="0; 3; 9; 0; 7; 0; 3; 0;" repeatCount="indefinite"/></g><animateTransform xmlns="http://www.w3.org/2000/svg" attributeType="xml" attributeName="transform" type="skewX" dur="40s" begin="0" values="0; 3; 0; -5; 0; 7; 0;" repeatCount="indefinite"/></g></svg>