<?xml version="1.0" encoding="utf-8"?><svg width="44" height="30" fill="none" xmlns="http://www.w3.org/2000/svg" viewBox="0 0 44 30"><path d="M20.553 15.02c0 2.34-.192 4.436-.577 6.286-.357 1.85-.947 3.429-1.77 4.735a8 8 0 01-3.172 2.939c-1.29.68-2.884 1.02-4.778 1.02-2.362 0-4.297-.599-5.808-1.796-1.51-1.197-2.636-2.912-3.377-5.143C.357 20.83 0 18.15 0 15.021c0-3.157.33-5.85.989-8.082.659-2.232 1.743-3.946 3.253-5.143C5.752.599 7.757 0 10.256 0c2.361 0 4.297.599 5.807 1.796 1.51 1.17 2.637 2.884 3.378 5.143.741 2.231 1.112 4.925 1.112 8.081zm-14.375 0c0 2.204.124 4.055.37 5.551.248 1.47.66 2.585 1.237 3.347.604.735 1.427 1.102 2.47 1.102 1.044 0 1.854-.367 2.431-1.102.604-.734 1.03-1.836 1.277-3.306.274-1.496.412-3.36.412-5.592 0-2.23-.138-4.081-.412-5.55-.247-1.497-.673-2.613-1.277-3.348-.577-.761-1.387-1.142-2.43-1.142-1.044 0-1.867.38-2.471 1.142-.577.735-.989 1.85-1.236 3.347-.247 1.47-.37 3.32-.37 5.551zM43.135 6.98c0 1.333-.288 2.49-.865 3.469a6.819 6.819 0 01-2.265 2.408c-.934.626-2.005 1.089-3.213 1.388v.122c2.361.272 4.146.98 5.355 2.123C43.382 17.633 44 19.17 44 21.102c0 1.687-.426 3.21-1.277 4.572-.824 1.333-2.114 2.394-3.871 3.183-1.73.762-3.968 1.143-6.714 1.143-1.62 0-3.13-.136-4.53-.408a20.194 20.194 0 01-3.955-1.184v-5.224a18.54 18.54 0 003.954 1.428c1.4.327 2.691.49 3.872.49 2.224 0 3.775-.38 4.654-1.143.906-.762 1.36-1.837 1.36-3.224 0-.817-.207-1.497-.619-2.041-.411-.572-1.14-.993-2.183-1.265-1.016-.3-2.443-.45-4.283-.45h-2.224v-4.734h2.265c1.812 0 3.185-.163 4.119-.49.96-.354 1.606-.816 1.936-1.388.357-.598.535-1.279.535-2.04 0-1.034-.33-1.837-.988-2.409-.632-.598-1.703-.898-3.213-.898-.934 0-1.785.123-2.554.368a11.22 11.22 0 00-2.1.816c-.604.327-1.14.64-1.607.939l-2.883-4.245a16.416 16.416 0 012.554-1.47 15.435 15.435 0 013.171-1.02c1.154-.245 2.444-.367 3.872-.367 3.02 0 5.41.612 7.167 1.837 1.785 1.197 2.677 2.898 2.677 5.102z" fill="#2B3A64"/></svg>