<?xml version="1.0" encoding="utf-8"?><svg width="44" height="30" fill="none" xmlns="http://www.w3.org/2000/svg" viewBox="0 0 44 30"><path d="M20.42 15.02c0 2.34-.192 4.436-.574 6.286-.354 1.85-.94 3.429-1.76 4.735a7.968 7.968 0 01-3.15 2.939c-1.282.68-2.865 1.02-4.747 1.02-2.346 0-4.27-.599-5.77-1.796S1.8 25.292 1.064 23.061C.354 20.83 0 18.15 0 15.021c0-3.157.327-5.85.982-8.082.655-2.232 1.732-3.946 3.233-5.143C5.715.599 7.707 0 10.189 0c2.346 0 4.27.599 5.77 1.796 1.5 1.17 2.619 2.884 3.355 5.143.737 2.231 1.105 4.925 1.105 8.081zm-14.282 0c0 2.204.123 4.055.368 5.551.246 1.47.655 2.585 1.228 3.347.6.735 1.418 1.102 2.455 1.102 1.037 0 1.841-.367 2.414-1.102.6-.734 1.023-1.836 1.269-3.306.273-1.496.41-3.36.41-5.592 0-2.23-.137-4.081-.41-5.55-.246-1.497-.668-2.613-1.269-3.348-.572-.761-1.377-1.142-2.414-1.142-1.037 0-1.855.38-2.455 1.142-.573.735-.982 1.85-1.228 3.347-.245 1.47-.368 3.32-.368 5.551zM44 29.592H23.58v-4.286l7.326-7.388c1.473-1.523 2.66-2.789 3.56-3.796.9-1.034 1.555-1.959 1.964-2.775.409-.844.614-1.742.614-2.694 0-1.17-.328-2.04-.982-2.612-.628-.572-1.487-.857-2.578-.857-1.119 0-2.21.258-3.274.775s-2.183 1.252-3.355 2.204l-3.356-3.959a27.544 27.544 0 012.66-2.04c.955-.627 2.046-1.13 3.273-1.51C30.687.243 32.188.04 33.934.04c1.91 0 3.546.354 4.91 1.061 1.391.68 2.455 1.62 3.192 2.816.764 1.17 1.146 2.504 1.146 4 0 1.225-.191 2.354-.573 3.388-.355 1.034-.887 2.04-1.596 3.02-.682.953-1.528 1.946-2.537 2.98a145.75 145.75 0 01-3.438 3.306l-3.764 3.51v.286H44v5.184z" fill="#2B3A64"/></svg>