<?xml version="1.0" encoding="utf-8"?><svg width="102" height="103" fill="none" xmlns="http://www.w3.org/2000/svg" viewBox="0 0 102 103"><path d="M67.04 62.16c-.57-1.76 1.58-4.97-2.66-5.45-1.04-.12-1.01-1.73-.45-2.55 1.15-1.71 3.03-.76 4.59-.92 1.58-.16 2.48.54 2.46 2.28-.04 2.99-.14 5.99.05 8.96.14 2.24-1.21 5.08 2.21 6.32.78.28.81 1.6.32 2.22-1.23 1.58-3.54 1.41-4.49.6-1.8-1.53-2.78-.9-4.49-.04-4.97 2.48-9.87-.34-10.49-5.92-.27-2.46-.02-4.98-.13-7.46-.04-1.06.56-2.59-.93-3-1.56-.44-2.51-1.15-1.91-2.73.82-2.17 2.84-1.06 4.35-1.22 1.62-.17 2.43.68 2.41 2.37-.03 3.15 0 6.31.01 9.46.01 2.79.24 5.78 3.86 5.76 3.52-.02 5.27-2.39 5.29-5.93.01-.83 0-1.66 0-2.75zM41.52 41.32c1.23-3.38 2.69-6.65 3.57-10.06.88-3.4 3.21-3.47 5.75-3.06 2.26.36 2.02 2.99 1 3.22-5.07 1.14-4.26 5.79-5.88 8.93-1.06 2.05-1.79 4.29-2.55 6.48-.49 1.4-1.16 2.28-2.82 2.22-1.52-.06-1.93-1.11-2.33-2.2-1.42-3.9-2.81-7.81-4.2-11.73-.39-1.09-.54-2.44-1.7-2.9-1.45-.57-3.61-.19-3.02-2.82.28-1.27 1.4-1.28 2.38-1.25 1.89.06 4.09-.69 4.92 2.08.81 2.7 1.7 5.39 2.73 8.02.4.97.31 2.33 2.15 3.07zM38.43 73.93c-1.16 0-2.33.12-3.47-.03-1.34-.17-3.18.83-3.84-1.19-.56-1.71.86-2.04 2.02-2.77 1.35-.86 1.68-11.82.33-12.7-1.41-.92-3.56-1.41-1.97-3.38 1.16-1.42 4.43-1.28 4.99-.33 1.83 3.12 3.33 1.05 5.07.35 4.23-1.72 5.93-.68 5.54 3.34-.09.94.16 2.1-1.13 2.44-1.03.28-1.97.14-2.4-1.05-1.03-2.87-2.55-1.37-3.65-.22-3.05 3.17-2.13 7.21-1.58 10.85.28 1.87 2.87.79 4.4 1.08 1.46.27 3.8-.83 3.89 1.75.1 2.68-2.27 1.71-3.73 1.85-1.48.12-2.98.01-4.47.01zM63.87 27.7c5.15-.06 8.37 2.31 8.01 5.86-.1 1.01-.09 2.07-1.39 2.26-1.04.15-2.13.01-2.27-1.28-.43-3.99-3.19-3.74-5.86-3.08-3.48.86-5.25 3.4-5.3 6.92-.05 3.27 1.4 5.77 4.69 6.81 2.15.68 4.36.51 6.17-.85 1.45-1.1 2.74-1.49 3.64.26.84 1.63-.88 2.3-1.84 3.02-3.41 2.53-8.92 2.31-12.52-.62-3.67-2.98-5.07-6.88-3.69-11.51 1.42-4.76 5.47-7.73 10.36-7.79z" fill="#FE5A84"/></svg>