<?xml version="1.0" encoding="utf-8"?><svg width="221" height="272" fill="none" xmlns="http://www.w3.org/2000/svg" viewBox="0 0 221 272"><g clip-path="url(#diclip0_3583_6904)"><circle cx="110" cy="130" r="36" fill="#2E5599"/><path d="M185.117 120.902v11.052a75.591 75.591 0 01-5.725 28.861 75.423 75.423 0 01-16.302 24.468 75.196 75.196 0 01-24.399 16.349 75.018 75.018 0 01-57.56 0 75.194 75.194 0 01-24.398-16.349 75.423 75.423 0 01-16.302-24.468 75.602 75.602 0 01-5.725-28.861v-11.052H0v74.532l110.652 76.565 110.653-76.565v-74.532h-36.188z" fill="#fff"/><path d="M161.307 130.323a51.378 51.378 0 00-8.612-28.49 51.168 51.168 0 00-22.945-18.889 50.995 50.995 0 00-29.543-2.92 51.084 51.084 0 00-26.181 14.033 51.319 51.319 0 00-13.993 26.255 51.41 51.41 0 002.912 29.627 51.242 51.242 0 0018.835 23.01 51.027 51.027 0 0028.409 8.637 51.057 51.057 0 0036.143-15.018 51.347 51.347 0 0014.975-36.245zm-75.792 0c0-4.898 1.448-9.686 4.162-13.759a24.715 24.715 0 0111.083-9.121 24.626 24.626 0 0114.267-1.409 24.673 24.673 0 0112.645 6.777 24.798 24.798 0 016.758 12.68 24.831 24.831 0 01-1.405 14.309 24.75 24.75 0 01-9.096 11.114 24.645 24.645 0 01-13.719 4.174c-6.55 0-12.83-2.609-17.462-7.254a24.8 24.8 0 01-7.233-17.511zM34.847 100.865h-21.33V76.988l45.891-48.87h19.725V0h21.33v49.509H68.628l-33.78 35.96v15.396zM206.254 100.865h-21.33V85.47l-33.77-35.961h-31.845V0h21.33v28.118h19.724l45.891 48.87v23.877z" fill="#fff"/></g><defs><clipPath id="diclip0_3583_6904"><path fill="#fff" d="M0 0h221v272H0z"/></clipPath></defs></svg>