<?xml version="1.0" encoding="utf-8"?><svg width="855" height="145" fill="none" xmlns="http://www.w3.org/2000/svg" viewBox="0 0 855 145"><path d="M17.793 142.597L0 2.403h31.987l15.594 123.971H30.788L96.96 2.404h29.988l14.994 123.97H125.95l65.774-123.97h32.187L149.94 142.596h-34.586L101.36 33.647h9.796l-58.577 108.95H17.793zM260.384 58.881h67.373l-4.998 25.235h-67.373l4.998-25.235zm-9.197 57.68h76.37l-5.398 26.036H213.802L241.791 2.403h105.758l-5.398 26.036H268.78l-17.593 88.122zM347.929 142.597L375.917 2.403h67.574c15.193 0 26.789 2.737 34.786 8.212 8.13 5.474 12.195 13.418 12.195 23.832 0 8.813-2.333 16.223-6.997 22.231-4.532 6.009-10.596 10.548-18.193 13.619-7.597 3.07-15.861 4.606-24.79 4.606l5.198-8.01c11.728 0 21.058 2.736 27.988 8.21 7.064 5.341 10.596 13.085 10.596 23.233 0 9.88-2.732 18.158-8.196 24.834-5.332 6.542-12.729 11.416-22.192 14.62-9.463 3.204-20.325 4.807-32.587 4.807h-73.37zm37.185-24.434h38.185c8.929 0 15.927-1.669 20.991-5.007 5.198-3.471 7.797-8.545 7.797-15.22 0-5.208-1.932-8.88-5.798-11.016-3.731-2.27-8.796-3.405-15.194-3.405h-42.783l4.799-23.632h36.385c5.598 0 10.396-.735 14.394-2.203 4.132-1.47 7.264-3.672 9.397-6.61 2.132-3.07 3.198-6.742 3.198-11.015 0-4.673-1.799-8.01-5.398-10.014-3.598-2.136-8.663-3.204-15.193-3.204h-32.787l-17.993 91.326zM596 145c-10.263 0-19.859-1.402-28.788-4.206-8.93-2.804-16.394-6.809-22.392-12.016l15.594-23.833c4.532 4.005 10.063 7.143 16.594 9.413 6.664 2.27 13.727 3.404 21.191 3.404 6.398 0 11.796-.801 16.194-2.403 4.531-1.602 7.93-3.939 10.196-7.01 2.399-3.07 3.598-6.675 3.598-10.815 0-5.073-1.932-8.812-5.797-11.215-3.732-2.537-9.463-3.805-17.194-3.805h-14.794l4.199-21.43 47.181-44.26 2.199 11.615H570.21l5.398-26.036h97.961l-3.998 21.03-47.181 44.26-15.194-9.212h7.197c9.729 0 18.059 1.535 24.99 4.606 6.93 2.937 12.262 7.21 15.993 12.818 3.732 5.474 5.598 12.016 5.598 19.627 0 9.48-2.799 17.958-8.396 25.435-5.465 7.477-13.129 13.352-22.991 17.624C619.857 142.864 608.662 145 596 145zM687.923 144.199c-5.331 0-9.73-1.669-13.195-5.007-3.465-3.471-5.198-7.811-5.198-13.018 0-6.275 1.999-11.282 5.998-15.021 4.131-3.872 9.063-5.808 14.794-5.808 5.331 0 9.663 1.669 12.995 5.007 3.465 3.338 5.198 7.677 5.198 13.018 0 4.139-1 7.811-2.999 11.015-1.866 3.071-4.332 5.475-7.397 7.21-3.066 1.736-6.464 2.604-10.196 2.604zM782.029 145c-10.396 0-19.392-2.07-26.989-6.209-7.464-4.272-13.262-10.347-17.393-18.225-4.132-8.011-6.198-17.557-6.198-28.64 0-12.683 1.733-24.566 5.198-35.648 3.599-11.082 8.597-20.83 14.994-29.24 6.398-8.546 14.061-15.155 22.991-19.828C783.695 2.403 793.624 0 804.42 0c10.396 0 19.326 2.136 26.79 6.409 7.596 4.139 13.461 10.147 17.592 18.025C852.934 32.31 855 41.858 855 53.074c0 12.683-1.799 24.566-5.398 35.648-3.465 11.082-8.396 20.896-14.794 29.441-6.397 8.412-14.061 15.021-22.991 19.827-8.93 4.673-18.859 7.01-29.788 7.01zm2.999-27.438c6.131 0 11.529-2.003 16.193-6.008 4.665-4.139 8.53-9.48 11.596-16.022 3.199-6.543 5.598-13.486 7.197-20.829 1.599-7.343 2.399-14.286 2.399-20.829 0-9.212-1.866-15.888-5.598-20.027-3.732-4.273-8.863-6.41-15.394-6.41-6.131 0-11.528 2.07-16.193 6.21-4.665 4.005-8.597 9.279-11.796 15.821-3.065 6.543-5.397 13.485-6.997 20.829-1.599 7.343-2.399 14.286-2.399 20.829 0 9.079 1.866 15.755 5.598 20.027 3.865 4.273 8.996 6.409 15.394 6.409z" fill="#fff"/></svg>