<svg width="39" height="31" viewBox="0 0 39 31" fill="none" xmlns="http://www.w3.org/2000/svg">
<path d="M12.5584 30.5267C10.2286 30.5267 8.12332 29.9373 6.24262 28.7583C4.38999 27.5794 2.93034 25.8671 1.86367 23.6215C0.797005 21.3478 0.263672 18.5969 0.263672 15.3688C0.263672 12.1408 0.797005 9.40392 1.86367 7.15831C2.93034 4.88462 4.38999 3.15831 6.24262 1.97936C8.12332 0.800411 10.2286 0.210938 12.5584 0.210938C14.9163 0.210938 17.0216 0.800411 18.8742 1.97936C20.7268 3.15831 22.1865 4.88462 23.2531 7.15831C24.3479 9.40392 24.8953 12.1408 24.8953 15.3688C24.8953 18.5969 24.3479 21.3478 23.2531 23.6215C22.1865 25.8671 20.7268 27.5794 18.8742 28.7583C17.0216 29.9373 14.9163 30.5267 12.5584 30.5267ZM12.5584 25.7688C13.9338 25.7688 15.1268 25.4039 16.1374 24.6741C17.1479 23.9162 17.9338 22.7653 18.4953 21.2215C19.0847 19.6776 19.3795 17.7267 19.3795 15.3688C19.3795 12.9829 19.0847 11.032 18.4953 9.5162C17.9338 7.97234 17.1479 6.8355 16.1374 6.10567C15.1268 5.34778 13.9338 4.96883 12.5584 4.96883C11.2391 4.96883 10.0602 5.34778 9.02157 6.10567C8.01104 6.8355 7.21104 7.97234 6.62157 9.5162C6.06016 11.032 5.77946 12.9829 5.77946 15.3688C5.77946 17.7267 6.06016 19.6776 6.62157 21.2215C7.21104 22.7653 8.01104 23.9162 9.02157 24.6741C10.0602 25.4039 11.2391 25.7688 12.5584 25.7688Z" fill="white" fill-opacity="0.1"/>
<path d="M33.2689 30.1057V2.73725L35.6689 5.22146H27.0374V0.63199H38.7426V30.1057H33.2689Z" fill="white" fill-opacity="0.1"/>
</svg>
