<svg width="49" height="31" viewBox="0 0 49 31" fill="none" xmlns="http://www.w3.org/2000/svg">
<path d="M12.2947 30.5267C9.96491 30.5267 7.85965 29.9373 5.97895 28.7583C4.12632 27.5794 2.66667 25.8671 1.6 23.6215C0.533333 21.3478 0 18.5969 0 15.3688C0 12.1408 0.533333 9.40392 1.6 7.15831C2.66667 4.88462 4.12632 3.15831 5.97895 1.97936C7.85965 0.800411 9.96491 0.210938 12.2947 0.210938C14.6526 0.210938 16.7579 0.800411 18.6105 1.97936C20.4632 3.15831 21.9228 4.88462 22.9895 7.15831C24.0842 9.40392 24.6316 12.1408 24.6316 15.3688C24.6316 18.5969 24.0842 21.3478 22.9895 23.6215C21.9228 25.8671 20.4632 27.5794 18.6105 28.7583C16.7579 29.9373 14.6526 30.5267 12.2947 30.5267ZM12.2947 25.7688C13.6702 25.7688 14.8632 25.4039 15.8737 24.6741C16.8842 23.9162 17.6702 22.7653 18.2316 21.2215C18.8211 19.6776 19.1158 17.7267 19.1158 15.3688C19.1158 12.9829 18.8211 11.032 18.2316 9.5162C17.6702 7.97234 16.8842 6.8355 15.8737 6.10567C14.8632 5.34778 13.6702 4.96883 12.2947 4.96883C10.9754 4.96883 9.79649 5.34778 8.75789 6.10567C7.74737 6.8355 6.94737 7.97234 6.35789 9.5162C5.79649 11.032 5.51579 12.9829 5.51579 15.3688C5.51579 17.7267 5.79649 19.6776 6.35789 21.2215C6.94737 22.7653 7.74737 23.9162 8.75789 24.6741C9.79649 25.4039 10.9754 25.7688 12.2947 25.7688Z" fill="white" fill-opacity="0.1"/>
<path d="M37.1826 30.5267C35.1054 30.5267 33.0703 30.232 31.0773 29.6425C29.1124 29.025 27.4563 28.1829 26.1089 27.1162L28.4668 22.8636C29.5334 23.7337 30.8247 24.4355 32.3405 24.9688C33.8563 25.5022 35.4422 25.7688 37.0984 25.7688C39.0633 25.7688 40.5931 25.3758 41.6878 24.5899C42.7826 23.7759 43.3299 22.6811 43.3299 21.3057C43.3299 19.9583 42.8247 18.8916 41.8141 18.1057C40.8036 17.3197 39.1755 16.9267 36.9299 16.9267H34.2352V13.1794L42.6562 3.15831L43.372 5.22146H27.5405V0.63199H47.6247V4.29515L39.2036 14.3162L36.3405 12.632H37.9826C41.6036 12.632 44.3124 13.446 46.1089 15.0741C47.9334 16.6741 48.8457 18.7373 48.8457 21.2636C48.8457 22.9197 48.4247 24.4495 47.5826 25.853C46.7405 27.2566 45.4492 28.3934 43.7089 29.2636C41.9966 30.1057 39.8212 30.5267 37.1826 30.5267Z" fill="white" fill-opacity="0.1"/>
</svg>
