<svg width="565" height="144" viewBox="0 0 565 144" fill="none" xmlns="http://www.w3.org/2000/svg">
<path d="M342.886 144C331.967 144 321.913 142.2 312.725 138.6C303.537 135 295.547 130 288.756 123.6C281.965 117.067 276.705 109.467 272.976 100.8C269.248 92 267.383 82.4 267.383 72C267.383 61.6 269.248 52.0667 272.976 43.4C276.705 34.6 281.965 27 288.756 20.6C295.547 14.0667 303.537 9 312.725 5.4C321.913 1.8 331.9 0 342.686 0C353.605 0 363.593 1.8 372.648 5.4C381.836 9 389.825 14.0667 396.617 20.6C403.408 27 408.668 34.6 412.396 43.4C416.125 52.0667 417.989 61.6 417.989 72C417.989 82.4 416.125 92 412.396 100.8C408.668 109.6 403.408 117.2 396.617 123.6C389.825 130 381.836 135 372.648 138.6C363.593 142.2 353.672 144 342.886 144ZM342.686 121.2C349.744 121.2 356.269 120 362.261 117.6C368.253 115.2 373.446 111.8 377.841 107.4C382.235 102.867 385.631 97.6667 388.028 91.8C390.558 85.8 391.823 79.2 391.823 72C391.823 64.8 390.558 58.2667 388.028 52.4C385.631 46.4 382.235 41.2 377.841 36.8C373.446 32.2667 368.253 28.8 362.261 26.4C356.269 24 349.744 22.8 342.686 22.8C335.629 22.8 329.104 24 323.112 26.4C317.252 28.8 312.059 32.2667 307.532 36.8C303.137 41.2 299.675 46.4 297.145 52.4C294.748 58.2667 293.55 64.8 293.55 72C293.55 79.0667 294.748 85.6 297.145 91.6C299.675 97.6 303.137 102.867 307.532 107.4C311.926 111.8 317.119 115.2 323.112 117.6C329.104 120 335.629 121.2 342.686 121.2Z" fill="white"/>
<path d="M183.031 141.668V23.668H136.691V1.66797H255.338V23.668H208.997V141.668H183.031Z" fill="white"/>
<path d="M0 141.668L62.9188 1.66797H88.4858L151.604 141.668H124.439L70.3092 15.468H80.6958L26.7654 141.668H0ZM28.9626 109.268L35.9536 88.868H111.456L118.447 109.268H28.9626Z" fill="white"/>
<path d="M445.55 142V2H503.078C515.462 2 526.049 4 534.838 8.00001C543.76 12 550.618 17.7333 555.412 25.2C560.206 32.6667 562.603 41.5333 562.603 51.8C562.603 62.0667 560.206 70.9333 555.412 78.4C550.618 85.7333 543.76 91.4 534.838 95.4C526.049 99.2667 515.462 101.2 503.078 101.2H459.932L471.517 89.4V142H445.55ZM537.035 142L501.679 91.2H529.445L565 142H537.035ZM471.517 92.2L459.932 79.8H501.879C513.332 79.8 521.921 77.3333 527.647 72.4C533.506 67.4667 536.436 60.6 536.436 51.8C536.436 42.8667 533.506 36 527.647 31.2C521.921 26.4 513.332 24 501.879 24H459.932L471.517 11.2V92.2Z" fill="white"/>
<path d="M445.55 142V2H503.078C515.462 2 526.049 4 534.838 8.00001C543.76 12 550.618 17.7333 555.412 25.2C560.206 32.6667 562.603 41.5333 562.603 51.8C562.603 62.0667 560.206 70.9333 555.412 78.4C550.618 85.7333 543.76 91.4 534.838 95.4C526.049 99.2667 515.462 101.2 503.078 101.2H459.932L471.517 89.4V142H445.55ZM537.035 142L501.679 91.2H529.445L565 142H537.035ZM471.517 92.2L459.932 79.8H501.879C513.332 79.8 521.921 77.3333 527.647 72.4C533.506 67.4667 536.436 60.6 536.436 51.8C536.436 42.8667 533.506 36 527.647 31.2C521.921 26.4 513.332 24 501.879 24H459.932L471.517 11.2V92.2Z" fill="white"/>
</svg>
