<svg width="222" height="207" viewBox="0 0 222 207" fill="none" xmlns="http://www.w3.org/2000/svg">
<g clip-path="url(#clip0_3339_6808)">
<path d="M10.8486 54.8632L10.0826 53.958L11.7849 54.0997C13.6251 54.253 15.4444 54.597 17.2136 55.1261C20.4668 56.099 23.8759 56.4418 27.2577 56.1361L32.8493 55.6307C36.6928 55.2833 40.4898 54.5381 44.1795 53.4072L45.5813 52.9776C50.7278 51.4002 55.6749 49.2337 60.3242 46.5211L80.6376 34.6694L91.572 29.5926C95.4841 27.7762 99.5435 26.2952 103.706 25.1657L109.995 23.4593C117.301 21.477 124.968 21.2267 132.387 22.7282L136.504 23.5614C141.066 24.4847 145.357 26.4391 149.048 29.2751C154.506 33.4682 158.386 39.3824 160.06 46.058L160.421 47.4988C161.419 51.4759 161.705 55.598 161.268 59.6748L161.006 62.1091C160.407 67.6908 158.845 73.1263 156.388 78.1738L150.722 89.8142L140.631 107.796L135.336 117.902C132.709 122.915 130.58 128.174 128.977 133.602L127.751 137.751C125.632 144.928 124.813 152.426 125.333 159.891L125.471 161.864C125.847 167.257 127.085 172.554 129.139 177.554L129.386 178.154C132.109 184.782 136.29 190.711 141.62 195.501C143.579 197.261 145.679 198.856 147.901 200.269L148.343 200.55C156.059 205.458 164.895 208.327 174.023 208.886L179.718 209.235C185.219 209.572 190.74 209.311 196.185 208.455L220.334 204.661L232.388 201.974C241.688 199.901 251.21 198.996 260.733 199.28L262.695 199.339C272.188 199.622 281.592 201.246 290.631 204.162C299.175 206.918 307.325 210.813 314.839 215.725C323.012 221.068 330.379 227.576 336.686 235.029L349.155 249.763L359.003 264.149C366.276 274.774 372.311 286.195 376.989 298.191C382.387 312.035 385.935 326.53 387.54 341.302L389.407 358.482L360.81 380.038L350.717 344.007L339.625 312.598L339.1 311.506C331.23 295.11 321.3 279.784 309.552 265.901L302.392 258.679C296.899 253.139 290.388 248.71 283.217 245.637C277.453 243.167 271.34 241.606 265.097 241.011L263.707 240.878C259.69 240.495 255.648 240.461 251.625 240.779L237.488 241.894L206.519 247.703C194.721 249.431 182.722 249.252 170.98 247.175L169.019 246.828C164.676 246.059 160.392 244.983 156.201 243.609L154.701 243.117C148.765 241.171 143.078 238.536 137.756 235.265C131.066 231.154 125.018 226.079 119.807 220.204L111.207 210.507L110.185 209.299C104.333 202.384 99.7779 194.47 96.738 185.937L96.2871 184.671C93.8104 177.719 92.4962 170.407 92.3975 163.027C92.2719 153.63 94.1197 144.31 97.8215 135.672L100.755 128.826C103.178 123.172 106.106 117.748 109.504 112.62L117.501 100.55L128.032 82.1957L134.286 70.4867C136.653 66.0538 137.245 60.8861 135.941 56.0328C134.544 50.8313 131.084 46.4228 126.364 43.8276C122.894 41.9197 118.93 41.095 114.988 41.4621L108.59 42.0577C104.54 42.4348 100.569 43.4166 96.809 44.9705L87.6481 48.7566L81.7962 52.0171C76.1242 55.1775 70.1963 57.8551 64.0754 60.0218L59.2318 61.7363C55.8106 62.9473 52.2861 63.8434 48.702 64.4136L40.2179 65.7631C33.8568 66.775 27.3384 65.8379 21.5198 63.0752C17.4191 61.1282 13.781 58.3285 10.8486 54.8632Z" fill="#C03B5E"/>
<path d="M411.875 336.825L408.64 311.134C407.76 304.149 406.357 297.24 404.44 290.466C402.569 283.849 400.213 277.378 397.393 271.106L396.077 268.18C392.074 259.279 387.369 250.711 382.007 242.556L374.265 230.781L358.06 211.632L349.696 204.057C342.36 197.413 334.276 191.646 325.605 186.872L323.421 185.67C315.223 181.156 306.475 177.724 297.394 175.458C289.303 173.44 281.005 172.362 272.667 172.248L255.789 172.015L227.495 175.183L206.009 180.145L189.729 182.452C186.649 182.889 183.533 183.032 180.425 182.881L175.675 182.65C170.233 182.385 164.953 180.705 160.358 177.776L160.003 177.549C155.173 174.47 151.329 170.067 148.93 164.865C146.039 158.597 145.407 151.522 147.14 144.841L148.88 138.136C149.946 134.023 151.54 130.066 153.622 126.363L164.658 106.729L174.183 89.7424C176.158 86.2191 177.802 82.5197 179.093 78.6921L179.873 76.3817C181.847 70.5283 182.756 64.3685 182.557 58.1944C182.342 51.4901 180.823 44.8918 178.087 38.7675L177.734 37.978C175.125 32.1381 171.371 26.8811 166.693 22.5182C160.758 16.9821 153.511 13.0479 145.636 11.0864L145.241 10.9882C137.971 9.17751 130.384 9.04479 123.055 10.6L118.391 11.5898C111.88 12.9714 105.599 15.2738 99.7379 18.4275L86.5129 25.5431L68.7686 37.1592L49.0439 47.8658C44.7934 50.1729 40.1974 51.7768 35.4344 52.6152L31.0149 53.393C25.7101 54.3267 20.2502 53.7651 15.2465 51.7712L11.3471 50.2172C9.0695 49.3096 7.25824 52.2699 9.10326 53.8847C13.2482 57.5123 18.6123 59.4374 24.1181 59.2731L30.3426 59.0875C33.7302 58.9864 37.0886 58.4286 40.327 57.429L46.0247 55.6703C51.1403 54.0913 56.0881 52.0129 60.7967 49.4652L75.9987 41.2395L97.4851 31.3673L111.781 26.8756C115.948 25.5664 120.302 24.9526 124.669 25.0589L128.209 25.1451C135.122 25.3135 141.828 27.9312 147.063 32.4484C149.968 34.9547 152.386 38.0393 154.11 41.4666C157.079 47.369 157.958 54.1037 156.605 60.5706L155.379 66.4295C154.647 69.9294 153.512 73.3328 151.997 76.5717L142.578 96.7062L130.898 118.629C127.701 124.63 125.177 130.967 123.374 137.523L121.668 143.724C119.933 150.032 119.319 156.597 119.855 163.118L119.923 163.939C120.418 169.957 121.972 175.84 124.515 181.316C127.135 186.958 130.76 192.076 135.213 196.419L136.055 197.24C141.053 202.116 146.896 206.042 153.298 208.828L155.077 209.602C161.352 212.334 168.003 214.105 174.806 214.857L175.085 214.888C183.001 215.763 191.009 215.283 198.764 213.467L216.051 209.42L247.578 204.271L259.786 203.693C268.304 203.29 276.834 204.184 285.083 206.345C295.77 209.144 305.8 214.02 314.602 220.695L316.867 222.412C322.616 226.772 327.869 231.751 332.53 237.259L346.006 253.184L360.828 275.862C364.612 281.652 367.976 287.706 370.892 293.978C376.847 306.784 380.891 320.394 382.894 334.374L386.342 358.432L411.875 336.825Z" fill="#FF4878"/>
<ellipse rx="12.3919" ry="8.00212" transform="matrix(0.868609 0.495498 0.495498 -0.868609 147.056 217.522)" fill="#EE6D8F"/>
<ellipse rx="13.2477" ry="6.97062" transform="matrix(0.608246 0.793749 0.793749 -0.608246 123.597 198.532)" fill="#EE6D8F"/>
<ellipse rx="13.2477" ry="6.97062" transform="matrix(0.086921 0.996215 0.996215 -0.086921 110.693 168.057)" fill="#EE6D8F"/>
<ellipse rx="12.2903" ry="6.12884" transform="matrix(-0.274811 0.961498 0.961498 0.274811 116.34 134.102)" fill="#EE6D8F"/>
<ellipse rx="10.541" ry="5.9785" transform="matrix(-0.425287 0.905059 0.905059 0.425287 128.733 106.178)" fill="#EE6D8F"/>
<ellipse rx="10.5411" ry="5.9785" transform="matrix(-0.546682 0.837341 0.837341 0.546682 143.358 77.9322)" fill="#EE6D8F"/>
<ellipse rx="10.5411" ry="5.9785" transform="matrix(0.450204 0.892926 0.892926 -0.450204 147.303 49.0314)" fill="#EE6D8F"/>
<ellipse rx="10.5411" ry="5.9785" transform="matrix(0.990798 0.135349 0.135349 -0.990798 129.555 34.8343)" fill="#EE6D8F"/>
<ellipse rx="8.52254" ry="4.13387" transform="matrix(0.957987 -0.286813 -0.286813 -0.957987 104 34.5241)" fill="#EE6D8F"/>
<ellipse rx="8.22399" ry="3.70648" transform="matrix(0.852061 -0.523443 -0.523443 -0.852061 78.9549 45.2753)" fill="#EE6D8F"/>
<ellipse rx="9.69345" ry="4.01825" transform="matrix(0.965566 -0.260157 -0.260157 -0.965566 60.3822 58.6657)" fill="#EE6D8F"/>
<ellipse rx="9.69345" ry="3.01241" transform="matrix(0.998888 0.0471572 0.0471572 -0.998888 37.3496 64.4637)" fill="#EE6D8F"/>
<ellipse rx="7.85141" ry="3.0276" transform="matrix(0.852061 -0.523443 -0.523443 -0.852061 86.3737 49.2602)" fill="#EE6D8F"/>
<ellipse rx="7.02874" ry="3.45561" transform="matrix(0.957987 -0.286813 -0.286813 -0.957987 108.089 43.0652)" fill="#EE6D8F"/>
<ellipse rx="9.68482" ry="3.66152" transform="matrix(-0.487123 0.873334 0.873334 0.487123 128.584 79.0073)" fill="#EE6D8F"/>
<ellipse rx="9.68482" ry="4.52126" transform="matrix(0.355998 0.934487 0.934487 -0.355998 133.313 53.5931)" fill="#EE6D8F"/>
<ellipse rx="12.2903" ry="6.22153" transform="matrix(-0.373623 0.927581 0.927581 0.373623 99.6678 133.382)" fill="#EE6D8F"/>
<ellipse rx="12.2903" ry="4.87539" transform="matrix(-0.521776 0.853083 0.853083 0.521776 115.049 104.249)" fill="#EE6D8F"/>
<ellipse rx="11.7507" ry="5.63886" transform="matrix(0.6455 0.76376 0.76376 -0.6455 118.535 216.302)" fill="#EE6D8F"/>
<ellipse rx="11.7507" ry="6.89231" transform="matrix(0.329789 0.944055 0.944055 -0.329789 99.5538 190.001)" fill="#EE6D8F"/>
<ellipse rx="11.7507" ry="6.89231" transform="matrix(-0.00263226 0.999997 0.999997 0.00263226 93.7788 161.617)" fill="#EE6D8F"/>
</g>
<defs>
<clipPath id="clip0_3339_6808">
<rect width="222" height="278" fill="white"/>
</clipPath>
</defs>
</svg>
