<svg width="278" height="342" viewBox="0 0 278 342" fill="none" xmlns="http://www.w3.org/2000/svg">
<path d="M232.541 152V165.897C232.541 178.351 230.098 190.683 225.35 202.19C220.602 213.696 213.644 224.151 204.871 232.957C196.099 241.764 185.684 248.749 174.222 253.516C162.76 258.282 150.476 260.735 138.069 260.735C125.663 260.735 113.378 258.282 101.916 253.516C90.4546 248.749 80.0402 241.764 71.2676 232.957C62.4951 224.151 55.5364 213.696 50.7887 202.19C46.041 190.683 43.5974 178.351 43.5974 165.897V152H0V245.722L139 342L278 245.722V152H232.541Z" fill="#2E3D6A"/>
<path d="M203 163.513C203.003 150.755 199.222 138.283 192.135 127.674C185.049 117.065 174.975 108.796 163.189 103.912C151.403 99.0288 138.433 97.7504 125.92 100.239C113.407 102.727 101.913 108.87 92.8917 117.892C83.8704 126.913 77.7271 138.407 75.2387 150.92C72.7504 163.433 74.0289 176.403 78.9123 188.189C83.7958 199.975 92.0649 210.049 102.674 217.135C113.283 224.222 125.755 228.003 138.513 228C155.615 227.997 172.016 221.201 184.108 209.108C196.201 197.016 202.997 180.615 203 163.513ZM107.386 163.513C107.386 157.351 109.213 151.328 112.636 146.205C116.059 141.082 120.925 137.089 126.617 134.731C132.31 132.373 138.574 131.756 144.617 132.958C150.66 134.161 156.211 137.128 160.568 141.484C164.924 145.841 167.891 151.392 169.093 157.435C170.296 163.478 169.679 169.742 167.321 175.435C164.963 181.127 160.97 185.993 155.847 189.416C150.724 192.839 144.701 194.666 138.539 194.666C130.277 194.666 122.353 191.384 116.51 185.542C110.668 179.699 107.386 171.775 107.386 163.513Z" fill="#2E3D6A"/>
<path d="M43.7404 127H17V96.9358L74.5313 35.4041H99.2596V0H126V62.3372H86.0892L43.7404 107.615V127Z" fill="#2E3D6A"/>
<path d="M259 127H232.26V107.615L189.924 62.3372H150V0H176.74V35.4041H201.469L259 96.9358V127Z" fill="#2E3D6A"/>
</svg>
