<svg width="754" height="144" viewBox="0 0 754 144" fill="none" xmlns="http://www.w3.org/2000/svg">
<path d="M0 142V2H25.9941V142H0Z" fill="white"/>
<path d="M63.8528 142V2H85.2479L173.028 109.8H162.431V2H188.225V142H166.83L79.0493 34.2H89.6469V142H63.8528Z" fill="white"/>
<path d="M254.124 142V24H207.734V2H326.508V24H280.118V142H254.124Z" fill="white"/>
<path d="M370.01 60.2H439.594V81.6H370.01V60.2ZM372.01 120.2H450.992V142H346.016V2H448.193V23.8H372.01V120.2Z" fill="white"/>
<path d="M545.355 144C534.424 144 524.36 142.267 515.162 138.8C506.097 135.2 498.166 130.2 491.367 123.8C484.569 117.267 479.303 109.6 475.571 100.8C471.838 92 469.972 82.4 469.972 72C469.972 61.6 471.838 52 475.571 43.2C479.303 34.4 484.569 26.8 491.367 20.4C498.299 13.8667 506.364 8.86667 515.562 5.4C524.76 1.8 534.824 0 545.755 0C557.619 0 568.283 1.93333 577.748 5.8C587.345 9.66667 595.41 15.3333 601.942 22.8L585.546 38.8C580.08 33.3333 574.148 29.3333 567.75 26.8C561.485 24.1333 554.553 22.8 546.955 22.8C539.623 22.8 532.824 24 526.559 26.4C520.294 28.8 514.895 32.2 510.363 36.6C505.831 41 502.298 46.2 499.765 52.2C497.366 58.2 496.166 64.8 496.166 72C496.166 79.0667 497.366 85.6 499.765 91.6C502.298 97.6 505.831 102.867 510.363 107.4C514.895 111.8 520.227 115.2 526.359 117.6C532.491 120 539.29 121.2 546.755 121.2C553.686 121.2 560.352 120.133 566.75 118C573.282 115.733 579.481 112 585.346 106.8L600.143 126.2C592.811 132.067 584.279 136.533 574.548 139.6C564.95 142.533 555.219 144 545.355 144ZM575.548 122.8V70.4H600.143V126.2L575.548 122.8Z" fill="white"/>
<path d="M634.427 142V2H692.014C704.411 2 715.009 4 723.807 8C732.738 12 739.603 17.7333 744.402 25.2C749.201 32.6667 751.601 41.5333 751.601 51.8C751.601 62.0667 749.201 70.9333 744.402 78.4C739.603 85.7333 732.738 91.4 723.807 95.4C715.009 99.2667 704.411 101.2 692.014 101.2H648.824L660.421 89.4V142H634.427ZM726.006 142L690.614 91.2H718.408L754 142H726.006ZM660.421 92.2L648.824 79.8H690.814C702.278 79.8 710.876 77.3333 716.608 72.4C722.474 67.4667 725.407 60.6 725.407 51.8C725.407 42.8667 722.474 36 716.608 31.2C710.876 26.4 702.278 24 690.814 24H648.824L660.421 11.2V92.2Z" fill="white"/>
</svg>
