<svg width="271" height="252" viewBox="0 0 271 252" fill="none" xmlns="http://www.w3.org/2000/svg">
<g clip-path="url(#clip0_2564_69)">
<path d="M179.265 52.1172L179.469 52.2923L179.265 52.1172Z" fill="#595959"/>
<path d="M191.932 44.7015L192.209 44.5479L191.932 44.7015Z" fill="#595959"/>
<path d="M203.134 79.6805C203.44 77.2635 203.378 74.8143 202.951 72.4158C202.373 69.0814 200.99 65.9382 198.922 63.2588C198.747 63.0769 198.611 62.8614 198.522 62.6253C198.432 62.3892 198.392 62.1374 198.403 61.8852C198.403 60.8779 198.586 59.8401 198.678 58.8328C199.021 55.2896 198.731 51.7137 197.823 48.2717C197.355 46.2213 196.468 44.2898 195.218 42.5984C193.968 40.9071 192.382 39.4924 190.559 38.4431C189.611 37.9358 188.575 37.6146 187.506 37.4969C186.789 37.3794 186.054 37.476 185.391 37.7746C184.729 38.0732 184.169 38.5606 183.783 39.1757C183.352 39.865 183.003 40.6027 182.745 41.3734H183.05H182.775C182.378 42.7469 182.104 44.1205 181.798 45.5246C181.457 47.8947 180.546 50.1466 179.143 52.0871C178.38 53.0028 177.647 53.888 176.854 54.7427C173.334 58.4693 169.561 61.9472 165.56 65.1512C155.884 73.2095 145.781 80.6572 135.555 88.0134H135.281H134.914C130.151 82.9788 125.096 78.2293 119.775 73.7894C116.4 70.9653 112.784 68.4425 108.969 66.2501C104.155 63.4771 98.6466 62.1424 93.097 62.4041C91.2288 62.4468 89.4018 62.9613 87.7859 63.8998C86.4784 64.6312 85.4968 65.831 85.0388 67.2574C84.4824 68.9455 84.4294 70.7591 84.8862 72.4769C85.5644 74.8563 86.811 77.0352 88.5185 78.8258C89.251 79.6499 89.9836 80.3825 90.6246 81.1761C97.1677 88.7962 101.691 97.938 103.78 107.762C104.408 110.348 104.675 113.009 104.574 115.668C104.346 118.967 103.918 122.249 103.292 125.496C102.019 132.087 99.3546 138.331 95.4778 143.811L95.722 143.994H95.5084C93.5854 146.68 91.3174 149.102 88.7626 151.197C88.363 151.512 88.0483 151.921 87.8469 152.388C87.692 152.885 87.692 153.417 87.8469 153.914C87.9485 154.404 88.1766 154.859 88.5086 155.234C88.8406 155.609 89.2649 155.89 89.7394 156.051C90.1873 156.185 90.6651 156.185 91.113 156.051C91.5363 155.905 91.9148 155.653 92.2118 155.318L93.4328 154.066L94.6537 152.815L94.6232 152.418L94.8368 152.632C99.2307 148.021 102.72 142.627 105.123 136.729H104.849H105.062C107.339 130.937 108.579 124.789 108.725 118.568C108.926 114.747 108.68 110.916 107.992 107.152C106.34 98.1118 102.679 89.5583 97.2787 82.1224C95.3862 79.5069 93.3481 77 91.174 74.6135C90.509 73.8952 89.9536 73.0827 89.5257 72.2022C89.1963 71.5634 89.0889 70.8331 89.2205 70.1266C89.4182 69.4329 89.836 68.8223 90.4109 68.3867C90.7458 68.0763 91.1405 67.8374 91.5708 67.6847C92.569 67.4072 93.5909 67.2233 94.6232 67.1353C97.948 67.1461 101.234 67.8531 104.269 69.2109C106.709 70.3224 109.039 71.6612 111.228 73.2095C115.526 76.0458 119.552 79.2748 123.254 82.8549C126.307 85.9073 129.542 88.9596 132.717 92.012L133.815 93.0498L134.945 94.0876L135.128 94.2707L135.342 94.1181L136.166 93.5382L141.965 89.5701L147.765 85.5715C151.977 82.6718 156.311 79.8636 160.371 76.7197C165.743 72.5685 170.81 67.9899 175.785 63.3198C177.831 61.4424 179.72 59.4007 181.432 57.2151C183.393 54.7736 184.762 51.9109 185.431 48.8516C185.675 47.7833 185.828 46.715 186.133 45.7993C186.421 44.9421 186.768 44.1058 187.171 43.2963C187.295 43.0711 187.483 42.8873 187.711 42.7679C187.939 42.6485 188.197 42.5988 188.453 42.6248C188.947 42.581 189.444 42.6581 189.901 42.8496C190.358 43.0411 190.762 43.3411 191.078 43.7237C191.409 44.0668 191.687 44.4578 191.902 44.8836C193.134 47.0894 193.961 49.4981 194.344 51.9956C194.344 52.9723 194.527 53.9491 194.618 55.0479C195.002 59.1876 194.449 63.3604 193.001 67.2574C191.255 71.846 188.549 76.0088 185.065 79.4668C182.989 81.5729 180.791 83.4959 178.593 85.5715C177.926 86.1085 177.471 86.8661 177.312 87.7082C177.229 88.2069 177.304 88.7188 177.525 89.1733C177.72 89.62 178.052 89.9938 178.471 90.2416C178.863 90.4546 179.309 90.5499 179.753 90.5163C180.196 90.4422 180.614 90.2644 180.974 89.9974C184.057 87.6816 186.864 85.0187 189.338 82.0613L189.246 81.5119L189.46 81.7255C192.341 78.2194 194.715 74.3251 196.511 70.1571L196.694 69.7908C197.871 72.634 198.452 75.6881 198.403 78.7648C198.322 81.3573 197.838 83.9214 196.969 86.3651C195.318 90.8401 192.867 94.9773 189.735 98.5746C186.86 101.928 183.726 105.051 180.364 107.915C179.841 108.327 179.414 108.848 179.112 109.441C178.855 109.984 178.787 110.599 178.92 111.185C179.052 111.772 179.378 112.297 179.845 112.676C180.025 112.828 180.235 112.941 180.46 113.01C180.686 113.078 180.923 113.099 181.157 113.073C181.694 112.994 182.2 112.772 182.623 112.432C188.621 108.392 193.596 103.01 197.152 96.7126C197.152 96.7126 197.152 96.7126 197.152 96.56C197.539 99.7279 197.311 102.941 196.48 106.022H196.755H196.45C195.337 110.09 193.394 113.884 190.742 117.163L190.956 117.347L190.772 117.194C188.806 119.695 186.598 121.995 184.179 124.062C183.884 124.328 183.618 124.625 183.386 124.947C183.104 125.426 182.987 125.984 183.053 126.535C183.119 127.087 183.365 127.601 183.752 127.999C184.066 128.326 184.491 128.522 184.942 128.549C185.439 128.557 185.928 128.419 186.346 128.152C186.845 127.887 187.306 127.559 187.72 127.175L190.162 124.764C190.956 123.97 191.78 123.146 192.604 122.383L192.39 122.2L192.604 122.414L192.97 122.017V122.322C192.985 122.474 192.985 122.628 192.97 122.78C192.751 126.317 191.615 129.735 189.674 132.7C186.567 137.185 182.363 140.8 177.464 143.2C176.213 143.872 174.961 144.482 173.71 145.093C172.458 145.703 171.207 146.313 169.986 146.954C167.386 148.172 165.115 149.993 163.362 152.266C162.81 152.888 162.505 153.692 162.508 154.524C162.535 154.955 162.688 155.367 162.949 155.711C163.209 156.055 163.564 156.315 163.971 156.458C164.378 156.601 164.818 156.621 165.236 156.516C165.654 156.411 166.032 156.186 166.323 155.867C168.201 154.062 170.245 152.437 172.428 151.014L182.256 144.909C183.308 144.325 184.327 143.683 185.309 142.986C189.216 139.974 192.359 136.082 194.48 131.627C196.601 127.172 197.642 122.279 197.518 117.347C197.509 116.083 197.836 114.841 198.464 113.745C200.309 110.539 201.414 106.962 201.7 103.275C202.093 99.0204 201.519 94.7318 200.021 90.73C199.838 90.2799 199.838 89.776 200.021 89.3259C201.305 86.2638 202.158 83.0382 202.555 79.7415L203.134 79.6805Z" fill="#595959"/>
<path d="M37.3303 249.605L22.0686 216.762L21.8244 216.243H18.3142L18.07 216.793L4.15122 249.636L3.63232 250.826H7.72248L7.96667 250.246L11.8737 241.089H26.8913L31.1341 250.246L31.3783 250.796H37.9103L37.3303 249.605ZM13.583 237.396L19.0467 224.546L25.1514 237.396H13.583Z" fill="#DE780D"/>
<path d="M66.9381 237.121C66.5193 235.841 65.772 234.694 64.7709 233.794C63.5965 232.766 62.2259 231.987 60.7418 231.505C58.7002 230.858 56.5643 230.558 54.4234 230.62H48.8376V220.699H64.5878V216.273H42.7329V250.826H54.4234C56.5845 250.891 58.7411 250.592 60.8029 249.941C62.2679 249.495 63.6279 248.758 64.8015 247.774L64.0994 246.98L64.7404 247.621C65.691 246.69 66.412 245.551 66.8465 244.294C67.6194 241.966 67.6194 239.45 66.8465 237.121H66.9381ZM60.4671 238.373C60.8144 239.204 60.9909 240.097 60.986 240.998C60.9962 241.896 60.7977 242.784 60.4061 243.592C60.0627 244.323 59.5624 244.969 58.9409 245.485C58.3109 246.006 57.5852 246.4 56.8043 246.644C56.1472 246.882 55.4573 247.016 54.7592 247.041H48.8376V234.435H54.0877C55.1307 234.386 56.172 234.563 57.14 234.954C57.9426 235.257 58.6786 235.713 59.3072 236.297C59.8945 236.876 60.3523 237.573 60.6503 238.342L60.4671 238.373Z" fill="#DE780D"/>
<path d="M105.245 244.508L103.78 243.257L103.17 242.738L102.559 243.287C100.334 245.35 97.566 246.734 94.5806 247.275C91.5951 247.815 88.5172 247.491 85.7101 246.339C84.0411 245.652 82.5414 244.611 81.3148 243.287C80.1717 241.907 79.3016 240.322 78.7508 238.617C77.5085 235.059 77.5085 231.186 78.7508 227.628C79.3207 226.038 80.2145 224.583 81.3758 223.355C82.5238 222.139 83.9183 221.181 85.466 220.547C87.0708 219.839 88.8094 219.485 90.5634 219.509C91.7284 219.508 92.8883 219.662 94.0126 219.967C94.9716 220.242 95.894 220.631 96.7597 221.127C97.4655 221.483 98.0893 221.982 98.5911 222.592C99.0156 223.077 99.3468 223.635 99.5679 224.24L99.7815 224.851H105.337L104.757 223.569C104.246 222.475 103.6 221.45 102.834 220.516C101.982 219.49 100.947 218.631 99.7815 217.983C98.5106 217.257 97.1441 216.712 95.7219 216.365C94.0066 215.93 92.2411 215.725 90.4718 215.755C87.8369 215.718 85.2151 216.131 82.7188 216.976C80.4659 217.732 78.3893 218.936 76.6141 220.516C74.9216 222.067 73.5793 223.961 72.6766 226.072C71.7337 228.365 71.2664 230.826 71.303 233.306C71.303 235.579 71.6741 237.837 72.4019 239.99C73.1259 242.165 74.3013 244.162 75.851 245.851C77.5066 247.626 79.5268 249.021 81.7726 249.941C84.454 251.074 87.3484 251.616 90.2582 251.528C92.1382 251.557 94.0145 251.352 95.844 250.918C97.3115 250.593 98.743 250.123 100.117 249.514C101.207 249.007 102.232 248.372 103.17 247.621C103.849 247.085 104.482 246.493 105.062 245.851L105.612 245.18L105.245 244.508Z" fill="#DE780D"/>
<path d="M144.163 227.659C143.373 225.513 142.17 223.543 140.622 221.86C138.78 219.86 136.529 218.279 134.022 217.226C131.515 216.173 128.811 215.671 126.093 215.755C123.198 215.677 120.324 216.272 117.699 217.495C115.491 218.529 113.525 220.016 111.93 221.86C110.441 223.542 109.3 225.503 108.573 227.629C107.844 229.578 107.512 231.654 107.596 233.734C107.643 235.731 108.003 237.709 108.664 239.594C109.386 241.732 110.528 243.703 112.022 245.394C113.632 247.229 115.594 248.723 117.791 249.789C120.411 251.029 123.287 251.635 126.185 251.559C128.199 251.581 130.205 251.303 132.137 250.735C133.827 250.238 135.44 249.509 136.929 248.568L136.471 247.774L136.99 248.537C138.341 247.675 139.582 246.65 140.683 245.485C141.691 244.328 142.562 243.058 143.278 241.7C143.95 240.414 144.463 239.051 144.804 237.641C145.135 236.385 145.31 235.093 145.323 233.795C145.3 231.697 144.907 229.62 144.163 227.659ZM137.784 239.258C137.129 240.887 136.188 242.386 135.006 243.684C133.866 244.897 132.496 245.872 130.977 246.553C129.456 247.256 127.798 247.61 126.124 247.591C124.468 247.617 122.828 247.262 121.331 246.553C119.855 245.89 118.542 244.911 117.485 243.684C116.321 242.418 115.436 240.92 114.891 239.289C113.588 235.585 113.588 231.547 114.891 227.843C115.479 226.203 116.358 224.683 117.485 223.356C118.556 222.152 119.866 221.185 121.331 220.517C122.83 219.816 124.47 219.471 126.124 219.51C127.796 219.48 129.454 219.824 130.977 220.517C132.496 221.198 133.866 222.173 135.006 223.386C136.208 224.669 137.152 226.171 137.784 227.812C138.499 229.629 138.851 231.568 138.821 233.52C138.841 235.481 138.489 237.428 137.784 239.258Z" fill="#DE780D"/>
<path d="M183.142 249.636L168.918 216.793L168.673 216.243H164.828L164.614 216.823L154.48 242.707C154.068 243.833 153.568 244.925 152.984 245.973C152.837 246.236 152.618 246.453 152.354 246.599C152.09 246.744 151.79 246.813 151.489 246.797C151.229 246.802 150.973 246.728 150.756 246.584L149.749 246.034L148.833 245.515L148.436 246.492L147.185 249.544L146.819 250.399L147.673 250.735C148.287 250.996 148.934 251.171 149.596 251.254C150.257 251.298 150.92 251.298 151.58 251.254C152.217 251.242 152.845 251.098 153.423 250.83C154.002 250.562 154.517 250.176 154.938 249.697C155.95 248.546 156.728 247.209 157.227 245.759L165.652 224.393L176.762 250.155L177.037 250.826H183.691L183.142 249.636Z" fill="#DE780D"/>
<path d="M234.818 227.506C234.053 225.404 232.927 223.452 231.491 221.737C229.88 219.866 227.907 218.34 225.691 217.25C223.047 216.055 220.168 215.471 217.267 215.541C214.809 215.503 212.365 215.928 210.063 216.792C208.021 217.629 206.141 218.817 204.508 220.302C201.462 222.95 199.433 226.577 198.77 230.558H194.527V216.212H188.422V250.826H194.527V234.496H198.525C198.615 236.987 199.229 239.431 200.326 241.669C201.366 243.821 202.867 245.717 204.722 247.224C206.531 248.642 208.607 249.68 210.826 250.277C212.948 250.952 215.162 251.292 217.389 251.284C219.943 251.316 222.477 250.828 224.837 249.849C227.019 248.925 229.015 247.611 230.728 245.973L230.087 245.332L230.728 246.003C232.359 244.361 233.664 242.424 234.574 240.295C235.518 238.108 235.996 235.749 235.978 233.367C235.922 231.362 235.53 229.381 234.818 227.506ZM209.392 222.653C210.523 221.6 211.865 220.799 213.329 220.302C214.62 219.856 215.965 219.589 217.328 219.509C218.641 219.54 219.941 219.788 221.174 220.241C222.621 220.75 223.942 221.562 225.05 222.622C226.351 223.821 227.39 225.276 228.103 226.896C229.771 231.122 229.771 235.825 228.103 240.051C227.382 241.693 226.345 243.176 225.05 244.416C222.888 246.325 220.12 247.406 217.236 247.468C215.88 247.436 214.539 247.178 213.268 246.705C211.802 246.185 210.461 245.363 209.331 244.294C208.02 243.068 206.98 241.581 206.278 239.929C205.39 237.858 204.963 235.619 205.027 233.367C204.959 231.124 205.386 228.893 206.278 226.835C206.981 225.209 208.021 223.752 209.331 222.561L208.72 221.89L209.392 222.653Z" fill="#DE780D"/>
<path d="M268.15 216.243H238.695H237.779V217.159V219.753V220.669H238.695H250.385V250.002V250.918H251.301H255.574H256.49V250.002V220.669H268.15H269.065V219.753V217.159V216.243H268.15Z" fill="#DE780D"/>
<path d="M99.446 180.286C99.2667 180.106 99.0523 179.964 98.8161 179.87C98.5798 179.775 98.3267 179.73 98.0724 179.737C97.8187 179.733 97.5668 179.78 97.3316 179.875C97.0965 179.97 96.8828 180.112 96.7034 180.291C96.524 180.47 96.3826 180.684 96.2874 180.919C96.1922 181.154 96.1453 181.406 96.1494 181.66V194.358H91.8761V181.66C91.8708 181.15 91.6748 180.66 91.3267 180.286C91.1453 180.109 90.9306 179.969 90.6948 179.874C90.4591 179.78 90.207 179.733 89.9531 179.737C89.431 179.728 88.9265 179.926 88.549 180.286C88.2068 180.661 88.0211 181.153 88.0301 181.66V194.358H83.7263V181.66C83.7304 181.406 83.6835 181.154 83.5883 180.919C83.4931 180.684 83.3516 180.47 83.1723 180.291C82.9929 180.112 82.7792 179.97 82.5441 179.875C82.3089 179.78 82.057 179.733 81.8033 179.737C81.549 179.73 81.2959 179.775 81.0596 179.87C80.8234 179.964 80.609 180.106 80.4297 180.286C80.252 180.468 80.112 180.683 80.0177 180.918C79.9234 181.154 79.8767 181.406 79.8803 181.66V196.281C79.8767 196.535 79.9234 196.787 80.0177 197.023C80.112 197.258 80.252 197.473 80.4297 197.654C80.609 197.835 80.8234 197.977 81.0596 198.071C81.2959 198.166 81.549 198.211 81.8033 198.204H97.9808C98.2398 198.212 98.4977 198.167 98.739 198.072C98.9802 197.978 99.1999 197.836 99.3849 197.654C99.3849 197.654 99.3849 197.471 99.3849 197.349C99.5347 197.215 99.6533 197.05 99.7324 196.866C99.8115 196.681 99.8492 196.482 99.8428 196.281V181.66C99.8919 181.168 99.7498 180.676 99.446 180.286Z" fill="black"/>
<path d="M112.937 188.955L119.042 183.003C119.218 182.827 119.358 182.617 119.454 182.387C119.549 182.156 119.598 181.909 119.598 181.66C119.598 181.411 119.549 181.164 119.454 180.933C119.358 180.703 119.218 180.493 119.042 180.317C118.866 180.141 118.656 180.001 118.426 179.905C118.195 179.81 117.948 179.761 117.699 179.761C117.45 179.761 117.203 179.81 116.972 179.905C116.742 180.001 116.532 180.141 116.356 180.317L111.503 185.14V181.66C111.506 181.406 111.46 181.154 111.365 180.918C111.271 180.683 111.131 180.468 110.953 180.286C110.774 180.106 110.56 179.964 110.323 179.87C110.087 179.775 109.834 179.73 109.58 179.737C109.326 179.733 109.074 179.78 108.839 179.875C108.604 179.97 108.39 180.112 108.211 180.291C108.031 180.47 107.89 180.684 107.795 180.919C107.7 181.154 107.653 181.406 107.657 181.66V196.281C107.653 196.535 107.7 196.786 107.795 197.022C107.89 197.257 108.031 197.47 108.211 197.65C108.39 197.829 108.604 197.971 108.839 198.066C109.074 198.161 109.326 198.208 109.58 198.204C109.834 198.211 110.087 198.166 110.323 198.071C110.56 197.977 110.774 197.835 110.953 197.654C111.131 197.473 111.271 197.258 111.365 197.023C111.46 196.787 111.506 196.535 111.503 196.281V192.832L116.356 197.685C116.712 198.041 117.195 198.241 117.699 198.241C118.203 198.241 118.686 198.041 119.042 197.685C119.398 197.329 119.598 196.846 119.598 196.342C119.598 195.838 119.398 195.355 119.042 194.999L112.937 188.955Z" fill="black"/>
<path d="M140.866 182.484C139.387 180.965 137.427 180.006 135.32 179.77C133.213 179.535 131.089 180.038 129.312 181.194C127.534 182.35 126.213 184.087 125.574 186.109C124.934 188.13 125.016 190.311 125.805 192.279C126.594 194.247 128.041 195.88 129.9 196.9C131.759 197.919 133.914 198.262 135.998 197.87C138.082 197.478 139.965 196.375 141.326 194.749C142.687 193.123 143.441 191.075 143.461 188.955C143.483 186.541 142.55 184.215 140.866 182.484ZM134.304 183.675C135.729 183.683 137.094 184.25 138.104 185.255C139.115 186.26 139.69 187.622 139.706 189.047C139.707 190.108 139.393 191.146 138.805 192.029C138.217 192.912 137.38 193.601 136.4 194.009C135.421 194.417 134.342 194.526 133.301 194.322C132.26 194.118 131.302 193.61 130.549 192.862C130.03 192.375 129.62 191.783 129.346 191.125C129.073 190.467 128.942 189.759 128.962 189.047C128.978 187.632 129.545 186.279 130.542 185.276C131.54 184.273 132.889 183.698 134.304 183.675Z" fill="black"/>
<path d="M167.452 195.883C167.398 195.748 167.337 195.615 167.269 195.486C167.269 195.181 166.934 194.723 166.628 194.143C166.079 192.983 165.255 191.274 164.125 189.015C161.897 184.559 160.585 181.903 160.157 181.171V180.988C159.974 180.725 159.733 180.509 159.452 180.356C159.172 180.202 158.859 180.115 158.54 180.103C158.174 180.115 157.82 180.227 157.513 180.426C157.207 180.625 156.96 180.904 156.8 181.232C156.8 181.568 156.22 182.392 155.548 183.704L152.618 188.68C151.489 190.938 150.634 192.648 150.085 193.808L149.413 195.151V195.517C149.405 195.629 149.405 195.741 149.413 195.853C149.408 196.11 149.457 196.365 149.557 196.601C149.657 196.838 149.805 197.051 149.993 197.226C150.364 197.55 150.843 197.724 151.336 197.715C151.648 197.707 151.954 197.622 152.226 197.468C152.497 197.313 152.726 197.094 152.893 196.829L158.509 185.627L163.912 197.104C164.062 197.423 164.299 197.692 164.596 197.881C164.894 198.071 165.238 198.171 165.591 198.173C166.046 198.191 166.493 198.039 166.842 197.745C167.052 197.57 167.222 197.351 167.338 197.103C167.454 196.855 167.514 196.584 167.513 196.311C167.546 196.165 167.524 196.013 167.452 195.883Z" fill="black"/>
<path d="M191.474 195.883C191.433 195.743 191.371 195.609 191.291 195.486C191.291 195.181 190.956 194.723 190.65 194.143C190.101 192.983 189.246 191.274 188.086 189.015C185.858 184.559 184.576 181.903 184.149 181.171V180.988C183.969 180.722 183.728 180.503 183.447 180.349C183.166 180.195 182.852 180.111 182.531 180.103C182.169 180.114 181.818 180.226 181.516 180.425C181.215 180.625 180.974 180.904 180.822 181.232L179.57 183.704C178.929 184.986 178.014 186.757 176.915 189.015L173.984 193.808L173.343 195.151C173.295 195.279 173.233 195.401 173.16 195.517C173.129 195.627 173.129 195.743 173.16 195.853C173.161 196.112 173.216 196.367 173.321 196.604C173.426 196.84 173.579 197.052 173.771 197.226C173.979 197.44 174.235 197.603 174.517 197.701C174.799 197.799 175.1 197.83 175.396 197.791C175.692 197.753 175.976 197.646 176.223 197.479C176.471 197.312 176.676 197.09 176.823 196.829L178.746 192.983H186.133L188.056 196.829C188.174 197.113 188.359 197.363 188.596 197.559C188.832 197.754 189.113 197.89 189.413 197.953C189.714 198.016 190.025 198.005 190.32 197.921C190.616 197.837 190.886 197.682 191.108 197.47C191.324 197.3 191.497 197.081 191.613 196.832C191.73 196.583 191.787 196.311 191.78 196.036C191.682 195.978 191.58 195.927 191.474 195.883ZM184.057 189.473H180.516L182.287 185.902L184.057 189.473Z" fill="black"/>
<path d="M269.035 186.024H200.662C200.29 186.024 199.933 186.172 199.669 186.436C199.406 186.699 199.258 187.056 199.258 187.428C199.258 187.801 199.406 188.158 199.669 188.421C199.933 188.685 200.29 188.833 200.662 188.833H269.004C269.368 188.826 269.716 188.685 269.981 188.436C270.126 188.311 270.242 188.157 270.321 187.983C270.401 187.809 270.441 187.62 270.439 187.428C270.431 187.059 270.281 186.706 270.019 186.444C269.758 186.183 269.405 186.032 269.035 186.024Z" fill="black"/>
<path d="M69.96 186.024H1.40408C1.0317 186.024 0.674564 186.172 0.411247 186.436C0.14793 186.699 0 187.056 0 187.428C0 187.801 0.14793 188.158 0.411247 188.421C0.674564 188.685 1.0317 188.833 1.40408 188.833H69.9906C70.3576 188.825 70.707 188.673 70.9637 188.411C71.2205 188.148 71.3642 187.796 71.3641 187.428C71.3563 187.059 71.2059 186.706 70.9443 186.444C70.6826 186.183 70.33 186.032 69.96 186.024Z" fill="black"/>
<path d="M181.158 28.1569C181.49 23.6583 180.309 19.1777 177.8 15.4286C176.793 13.6009 175.506 11.9426 173.984 10.5143C171.448 8.3781 168.609 6.62945 165.56 5.3253C162.961 4.15731 160.151 3.53062 157.301 3.48339C154.452 3.43616 151.622 3.96938 148.986 5.05059C145.506 6.47894 142.327 8.54996 139.615 11.1553L139.218 11.4911L138.791 11.1553L138.394 11.6437L138.76 11.1858C136.622 9.42351 134.299 7.89856 131.831 6.63782C126.878 3.91653 121.217 2.75674 115.593 3.31075C111.992 3.65199 108.537 4.9018 105.551 6.94305L105.886 7.43143L105.581 6.94305C102.986 8.75913 100.724 11.0104 98.8965 13.5972C97.1355 15.9344 95.9176 18.6348 95.3315 21.5019C94.7454 24.369 94.8059 27.3307 95.5084 30.1715C96.7704 35.7032 99.7516 40.6932 104.024 44.426C112.327 52.0264 120.843 59.5047 129.512 66.6777C131.648 68.4481 133.846 70.1879 136.044 71.9278L136.41 72.233L136.776 71.9583C137.206 71.6729 137.614 71.3567 137.997 71.0121L145.506 65.3957L153.045 59.8099C157.349 56.7575 161.745 53.4915 166.018 50.256C169.383 47.751 172.528 44.9632 175.419 41.9231C178.854 38.143 180.871 33.2886 181.127 28.1875L181.158 28.1569ZM113.578 46.3185L113.975 45.8606C111.686 43.8461 109.397 41.8315 107.107 39.7559C104.765 37.7496 102.899 35.2472 101.644 32.4302C100.315 29.335 99.9125 25.9211 100.484 22.6017C100.718 21.6776 101.014 20.77 101.369 19.8851C102.53 16.8587 104.404 14.1572 106.833 12.01C109.417 9.84028 112.623 8.54704 115.99 8.31662V7.73667V8.34714C121.086 7.90063 126.197 9.01867 130.641 11.5521C133.068 12.8129 135.105 14.7126 136.532 17.0464C136.847 17.573 137.204 18.0732 137.6 18.542C137.734 18.7182 137.904 18.8638 138.099 18.9691C138.294 19.0744 138.509 19.1369 138.73 19.1525C139.174 19.1302 139.591 18.9326 139.89 18.6031L140.409 18.1147C140.409 17.9315 140.653 17.8095 140.775 17.6568C143.943 13.3091 148.687 10.3732 153.992 9.47651C156.837 9.08376 159.735 9.32347 162.477 10.1786V9.62913V10.2091C165.014 10.8781 167.39 12.0531 169.462 13.6634C171.534 15.2737 173.259 17.2861 174.534 19.5798C176.378 22.9906 176.837 26.9805 175.816 30.7209C174.857 34.386 172.84 37.6876 170.016 40.2138C167.422 42.854 164.534 45.189 161.409 47.1731C152.893 52.6063 144.926 58.9247 136.99 65.0294L136.471 65.3957H136.257L125.147 55.7808L114.097 45.9827L113.7 46.4406L113.578 46.3185Z" fill="#DE780D"/>
<path d="M130.916 11.002L130.641 11.5514L130.916 11.002Z" fill="#DE780D"/>
</g>
<defs>
<clipPath id="clip0_2564_69">
<rect width="270.439" height="252" fill="white"/>
</clipPath>
</defs>
</svg>
