<svg width="167" height="155" viewBox="0 0 167 155" fill="none" xmlns="http://www.w3.org/2000/svg">
<g clip-path="url(#clip0_2156_654)">
<path d="M71.3526 0.0695648C69.8284 0.235374 68.2714 0.679749 66.8852 1.35625C65.3611 2.10572 64.2574 2.90825 63.0683 4.14851C58.9885 8.39327 57.8783 12.8569 59.5995 18.1032C59.9937 19.297 60.7689 20.9087 61.439 21.9168C62.4376 23.4224 63.2194 24.2713 65.5976 26.4534C72.4169 32.7144 79.8668 39.1479 84.2028 42.5238C84.2553 42.5636 85.6547 41.5488 88.5387 39.38C93.5579 35.5929 95.0558 34.472 98.0516 32.2634C100.607 30.3732 102.953 28.6089 103.669 28.0253C105.37 26.6524 107.518 24.6295 108.576 23.4091C110.442 21.2668 111.5 18.5343 111.743 15.218C111.861 13.6926 111.657 12.0743 111.178 10.6085C110.678 9.08304 109.404 6.82801 108.261 5.46173C107.026 3.97607 104.391 2.19194 102.026 1.23687C100.174 0.487408 98.7479 0.19558 96.9347 0.19558C94.7996 0.19558 93.144 0.600159 91.0878 1.62156C89.5505 2.38428 88.1446 3.37252 86.5481 4.81839L85.8846 5.42194L85.2342 4.89798C80.78 1.28993 75.8988 -0.40797 71.3526 0.0695648ZM75.025 2.61642C76.8514 2.88172 78.8814 3.55822 80.5435 4.4536C82.3042 5.40867 83.467 6.44997 84.4721 7.98869C85.5627 9.66669 85.7335 9.69986 86.7518 8.41317C87.4613 7.51779 88.8672 6.13824 89.5899 5.61428C91.679 4.10872 93.9455 3.2664 96.2449 3.14038C98.0056 3.04089 100.489 3.53833 102.328 4.35412C104.956 5.51479 107.295 7.78308 108.53 10.3764C109.424 12.2533 109.608 14.3492 109.095 16.8098C108.589 19.2041 107.44 21.1408 105.18 23.4091C103.432 25.1667 102.263 26.082 98.9779 28.2773C95.3712 30.6981 93.0127 32.4292 87.192 36.9393C85.6612 38.1265 84.3407 39.1412 84.2553 39.1943C84.1108 39.2805 84.0845 39.2739 83.9466 39.1545C83.8612 39.0749 80.1427 35.7521 75.682 31.766C71.2212 27.7732 67.0232 24.0127 66.3531 23.4025C64.3625 21.5918 63.3179 20.272 62.5099 18.5475C61.531 16.4517 61.2091 14.1237 61.5967 11.8886C61.7084 11.2187 62.1945 9.932 62.7398 8.81775C64.599 5.07042 67.6342 2.90825 71.5694 2.51693C72.3643 2.43734 74.1644 2.4904 75.025 2.61642Z" fill="black"/>
<path d="M115.304 21.2856C114.581 21.4381 114.121 21.8427 113.668 22.7315C113.353 23.3416 113.162 23.9983 112.794 25.7293C112.347 27.8451 111.947 28.9991 111.349 29.8879C110.652 30.9225 108.852 32.9189 107.203 34.4974C103.721 37.807 97.8022 42.6354 90.8253 47.8551C87.9018 50.0438 83.9337 52.9422 83.5921 53.1412C83.5527 53.1611 82.6066 52.2524 81.4898 51.1249C77.1933 46.7674 74.1318 44.0547 70.8207 41.6671C66.0249 38.2116 62.4904 36.8718 58.1479 36.8718C56.1442 36.8718 54.8565 37.2233 53.7003 38.0855C52.6754 38.8483 52.209 39.9625 52.2155 41.614C52.2221 43.544 53.0367 45.2154 54.9879 47.3179C56.2624 48.6908 57.6815 50.5479 58.8968 52.4249C61.8926 57.0344 63.7255 61.8694 64.5599 67.3147C64.8949 69.5564 64.4547 74.1129 63.5284 77.8602C62.1028 83.6106 59.2516 88.4721 55.1719 92.1001C54.2784 92.8893 54.1667 93.0684 54.1667 93.6786C54.1733 94.0235 54.2061 94.2158 54.3112 94.4148C54.6857 95.1311 55.5595 95.4826 56.1967 95.1775C56.5318 95.0117 58.0559 93.4597 59.1859 92.1266C63.3313 87.2518 65.7687 81.6739 66.5439 75.2869C66.8461 72.8395 66.8921 69.1917 66.6556 67.1157C65.992 61.3919 63.8898 55.6151 60.6575 50.6341C59.4618 48.7969 58.391 47.4107 56.3872 45.1093C55.3887 43.9685 55.0996 43.5639 54.7711 42.8476C54.3901 42.0318 54.528 41.2691 55.1784 40.5926C55.5989 40.1549 55.9865 39.9493 56.7354 39.7503C59.3699 39.0539 63.3248 40.0222 66.8789 42.2308C68.9878 43.544 71.2937 45.1955 72.9624 46.5883C74.6837 48.0276 75.5114 48.8102 80.419 53.6452C81.9497 55.1508 83.2702 56.4176 83.3424 56.4508C83.4673 56.5104 83.7957 56.3048 85.8389 54.8722C89.6361 52.2325 90.096 51.9075 92.8947 49.9908C97.5985 46.7674 99.1096 45.6333 102.237 42.967C104.181 41.3089 107.315 38.4503 109.148 36.6728C111.119 34.7561 112.696 32.7199 113.55 30.9955C114.055 29.9741 114.338 29.1052 114.647 27.5997C114.995 25.8885 115.455 24.6814 115.888 24.3166C116.44 23.8457 117.57 24.0845 118.221 24.814C118.97 25.6564 119.883 27.7655 120.218 29.4236C120.553 31.0817 120.671 34.0994 120.461 35.6647C120.054 38.7289 118.976 41.5344 117.215 44.1343C115.915 46.0511 114.588 47.4903 111.546 50.2826C109.982 51.7152 109.838 51.9075 109.792 52.6039C109.733 53.4529 110.245 54.0498 111.027 54.0498C111.474 54.0498 111.684 53.9304 112.702 53.1014C116.342 50.1499 119.114 46.595 121.072 42.3568C121.604 41.2094 121.637 41.1497 121.722 41.2094C121.926 41.3354 122.497 43.2323 122.734 44.5455C122.924 45.6465 122.944 47.9082 122.767 49.0025C122.484 50.7601 121.952 52.3652 121.046 54.2156C119.278 57.8237 116.618 61.0736 112.163 65.0795C111.001 66.1208 110.81 66.406 110.804 67.0825C110.804 67.8453 111.349 68.5085 111.973 68.5085C112.321 68.5085 112.82 68.2233 113.858 67.4341C117.13 64.9602 119.554 62.2807 121.505 58.991C121.821 58.4604 122.103 58.016 122.13 57.9961C122.373 57.8436 122.451 61.047 122.241 62.4067C121.519 67.0693 119.134 71.1084 114.673 75.2073C113.661 76.1358 113.523 76.3414 113.523 76.9052C113.523 77.6812 114.108 78.2781 114.758 78.1587C115.297 78.0592 115.764 77.7143 117.071 76.4542C117.774 75.7777 118.648 74.9154 119.009 74.5507C119.37 74.1792 119.692 73.8808 119.725 73.8808C119.83 73.8808 119.712 75.3598 119.535 76.2486C118.983 79.0077 117.688 81.3157 115.396 83.5973C114.115 84.884 112.636 85.9982 110.882 87.0196C110.436 87.2783 108.865 88.0941 107.381 88.8369C103.958 90.5481 102.92 91.2379 101.836 92.5246C101.133 93.3669 100.949 93.7118 100.923 94.2822C100.896 94.6867 100.923 94.8061 101.041 95.025C101.245 95.3831 101.586 95.5688 102.053 95.5688C102.532 95.5688 102.71 95.476 103.439 94.8128C105.167 93.2342 106.113 92.5975 112.472 88.7374C114.614 87.4375 114.712 87.3712 115.691 86.5023C118.884 83.6769 121.006 80.2347 121.926 76.368C122.241 75.0282 122.386 73.9139 122.458 72.2558C122.557 70.0804 122.583 69.9677 123.371 68.356C124.284 66.479 124.711 65.1658 125 63.2689C125.158 62.2276 125.158 59.3889 125 58.341C124.836 57.2466 124.58 56.1656 124.258 55.1906C124.1 54.7064 123.969 54.1957 123.969 54.0564C123.969 53.9105 124.094 53.4728 124.258 53.0417C125.907 48.7306 126.17 44.5588 125.02 41.1497C124.665 40.1084 124.081 38.9212 123.509 38.0988C123.26 37.734 122.977 37.283 122.885 37.0907L122.714 36.7524L122.833 35.5321C122.984 33.8938 122.984 31.3669 122.833 30.2394C122.307 26.3926 120.98 23.9054 118.595 22.2672C117.452 21.4846 116.177 21.1065 115.304 21.2856Z" fill="black"/>
<path d="M50.0932 111.502C50.0735 111.548 50.0669 113.724 50.0735 116.33L50.0932 121.072L55.3686 121.092L60.6375 121.105L60.6243 116.284L60.6046 111.455L60.4535 111.435C60.0988 111.382 60.1119 111.21 60.1119 116.071V120.575H57.8782H55.6446V116.078C55.6446 112.669 55.6249 111.561 55.5657 111.502C55.4475 111.382 55.1978 111.409 55.119 111.548C55.0796 111.634 55.0533 113.186 55.0533 116.125V120.575H52.8196H50.5859V116.078C50.5859 112.669 50.5662 111.561 50.5071 111.502C50.402 111.396 50.1326 111.402 50.0932 111.502Z" fill="black"/>
<path d="M67.3384 111.594C67.2925 111.706 67.2793 113.444 67.2859 116.409C67.3056 120.441 67.3187 121.052 67.4041 121.105C67.5487 121.197 67.6406 121.184 67.7589 121.065C67.8509 120.979 67.864 120.673 67.864 118.73V116.495L70.1831 118.836C71.4576 120.116 72.5219 121.171 72.5482 121.171C72.6927 121.171 72.8569 121.018 72.8569 120.886C72.8569 120.786 72.2 120.083 70.6561 118.518L68.4553 116.296L70.6233 114.107C71.8189 112.9 72.811 111.852 72.8307 111.766C72.8767 111.6 72.7584 111.421 72.6007 111.421C72.5416 111.421 71.451 112.476 70.1831 113.756L67.864 116.097V113.835C67.864 112.171 67.8443 111.56 67.7852 111.501C67.6406 111.355 67.4041 111.408 67.3384 111.594Z" fill="black"/>
<path d="M82.0206 111.515C81.3637 111.648 80.871 111.853 80.3191 112.225C79.4125 112.835 78.7424 113.704 78.4008 114.705C78.1643 115.402 78.1052 116.655 78.2694 117.411C78.6504 119.129 80.1286 120.628 81.8236 121.006C82.5856 121.179 83.893 121.119 84.5368 120.887C85.266 120.628 85.7062 120.336 86.3566 119.68C87.0135 119.023 87.3946 118.38 87.6114 117.59C87.7756 116.993 87.7756 115.594 87.618 115.01C87.1778 113.385 85.831 112.019 84.2543 111.595C83.7025 111.442 82.5856 111.402 82.0206 111.515ZM84.0572 112.132C84.274 112.185 84.6419 112.331 84.8784 112.457C86.5865 113.359 87.4866 115.183 87.1515 117.06C86.8887 118.545 85.7062 119.912 84.2806 120.383C83.5973 120.608 82.3754 120.615 81.6922 120.396C80.4045 119.985 79.2877 118.857 78.8804 117.557C78.6833 116.934 78.6767 115.621 78.8607 115.07C79.1957 114.062 79.8001 113.259 80.641 112.689C81.633 112.019 82.8353 111.82 84.0572 112.132Z" fill="black"/>
<path d="M97.6708 111.541C97.5657 111.653 93.4202 119.997 93.1969 120.534C93.1377 120.674 93.0917 120.859 93.0917 120.946C93.0917 121.085 93.1246 121.105 93.3151 121.105H93.5385L95.6933 116.76C96.8824 114.373 97.8679 112.416 97.8876 112.416C97.9073 112.416 98.8927 114.373 100.075 116.767L102.23 121.111L102.44 121.091C102.631 121.072 102.651 121.052 102.644 120.866C102.637 120.68 98.5248 112.231 98.1569 111.634C98.0058 111.395 97.8285 111.362 97.6708 111.541Z" fill="black"/>
<path d="M112.583 111.534C112.38 111.773 108.004 120.72 108.004 120.912C108.004 121.085 108.024 121.105 108.234 121.105H108.464L109.233 119.559L110.008 118.021H112.807H115.612L116.374 119.566L117.143 121.111L117.353 121.091C117.543 121.072 117.563 121.052 117.556 120.866C117.543 120.674 113.437 112.217 113.069 111.634C112.918 111.395 112.741 111.362 112.583 111.534ZM114.101 114.97L115.362 117.523H112.8H110.238L111.499 114.97C112.196 113.564 112.78 112.416 112.8 112.416C112.82 112.416 113.404 113.564 114.101 114.97Z" fill="black"/>
<path d="M0.0783029 115.084C-0.0202416 115.184 -0.0202416 115.489 0.0783029 115.588C0.13743 115.648 5.0121 115.668 21.6201 115.668C41.0465 115.668 43.0962 115.661 43.1882 115.562C43.313 115.442 43.3262 115.197 43.2145 115.084C43.1028 114.972 0.189987 114.972 0.0783029 115.084Z" fill="black"/>
<path d="M123.889 115.171C123.83 115.297 123.837 115.363 123.929 115.502L124.034 115.668H145.437C161.999 115.668 166.861 115.648 166.92 115.588C167.038 115.469 167.019 115.091 166.894 115.045C166.835 115.025 157.158 115.005 145.378 115.005H123.968L123.889 115.171Z" fill="black"/>
<path d="M54.5934 133.622C53.0561 133.768 52.2021 133.941 51.1181 134.319C47.5705 135.552 45.2383 138.252 44.5682 141.9C44.3776 142.934 44.3908 145.408 44.5944 146.436C45.0412 148.678 45.9346 150.435 47.3668 151.881C48.9895 153.526 51.1049 154.521 53.7394 154.873C54.5343 154.979 56.8008 154.979 57.6154 154.873C60.2696 154.534 62.5361 153.553 64.0537 152.1L64.5924 151.583L64.1259 151.158L63.6529 150.741L63.3573 150.999C62.7595 151.503 61.8463 152.147 61.2944 152.432C59.363 153.453 57.1424 153.798 54.8233 153.44C52.0247 153.002 49.6136 151.238 48.3917 148.731C47.4128 146.728 47.0909 144.4 47.4719 142.132C47.9909 139.048 49.9421 136.58 52.7014 135.499C53.5028 135.181 54.3241 135.028 55.3818 134.989C56.9848 134.929 58.0556 135.134 59.317 135.731C60.4469 136.275 61.2616 136.998 61.6886 137.854L61.9054 138.285H63.0091C63.6201 138.285 64.1194 138.272 64.1194 138.252C64.1194 138.179 63.7712 137.515 63.5412 137.157C62.2667 135.121 60.1119 133.941 57.1293 133.649C56.4658 133.582 55.1387 133.569 54.5934 133.622Z" fill="black"/>
<path d="M76.6672 133.621C73.205 133.879 70.1698 135.723 68.3894 138.648C67.2529 140.505 66.6419 143.185 66.8718 145.247C67.312 149.121 69.4143 152.192 72.8305 153.923C75.235 155.143 78.914 155.322 81.7849 154.36C84.5113 153.438 86.7319 151.522 87.9932 148.995C89.1101 146.753 89.4451 144.591 89.0115 142.442C88.3283 139.046 86.2457 136.327 83.112 134.735C81.3053 133.826 79.0782 133.435 76.6672 133.621ZM79.2425 135.067C82.6324 135.67 85.2734 138.396 86.0683 142.124C86.2654 143.045 86.3114 144.836 86.1669 145.831C85.6676 149.267 83.5916 151.986 80.609 153.12C79.1505 153.677 77.2387 153.75 75.708 153.299C73.3626 152.616 71.4443 150.785 70.4851 148.312C69.9202 146.846 69.7362 145.692 69.7888 143.888C69.8282 142.468 69.9464 141.785 70.334 140.664C71.372 137.66 73.6451 135.591 76.5029 135.067C77.1468 134.947 78.5527 134.947 79.2425 135.067Z" fill="black"/>
<path d="M133.172 133.65C130.413 133.915 127.673 135.314 125.919 137.337C124.783 138.657 123.876 140.481 123.541 142.132C123.488 142.404 123.429 142.696 123.409 142.776L123.377 142.928H121.636H119.895V138.418V133.908H118.515H117.135V144.255V154.601H118.515H119.895V149.461V144.321H121.629H123.364L123.409 144.865C123.587 147.173 124.04 148.619 125.072 150.224C126.859 153.016 129.795 154.635 133.612 154.94C137.041 155.205 140.339 154.011 142.606 151.67C143.933 150.297 144.978 148.334 145.352 146.49C145.819 144.169 145.497 141.662 144.445 139.479C143.256 137.006 140.898 134.956 138.29 134.12C136.831 133.65 134.926 133.477 133.172 133.65ZM135.741 135.069C137.002 135.288 138.27 135.852 139.269 136.628C140.865 137.874 142.002 139.831 142.415 142.026C142.58 142.922 142.573 145.561 142.402 146.477C142.166 147.757 141.686 148.931 140.95 150.065C139.604 152.108 137.304 153.447 134.867 153.587C133.231 153.679 131.254 153.049 129.874 152.001C128.245 150.761 127.049 148.818 126.589 146.656C126.418 145.82 126.346 143.738 126.458 142.729C126.839 139.446 128.829 136.681 131.615 135.566C132.108 135.374 133.172 135.076 133.592 135.016C134.072 134.95 135.235 134.976 135.741 135.069Z" fill="black"/>
<path d="M11.0567 134.154C11.0042 134.293 9.09896 138.836 6.83244 144.255C4.56592 149.673 2.66072 154.217 2.6016 154.356L2.50305 154.608L3.22571 154.588L3.94837 154.568L5.20974 151.584L6.47111 148.599H11.4969H16.5161L17.8957 151.597L19.2819 154.601H20.7404H22.2054L22.0477 154.25C21.8769 153.872 12.9685 134.558 12.7714 134.154L12.6531 133.908H11.9108H11.1618L11.0567 134.154ZM13.5663 142.199C14.7817 144.845 15.7934 147.047 15.8131 147.087C15.8394 147.153 14.9459 147.173 11.464 147.173C7.50911 147.173 7.08209 147.16 7.1215 147.067C7.49597 146.085 11.2669 137.304 11.2998 137.337C11.3261 137.364 12.3444 139.552 13.5663 142.199Z" fill="black"/>
<path d="M26.4745 144.25V154.596H30.5017C34.7522 154.596 35.2975 154.563 36.4406 154.271C38.3984 153.767 39.8897 152.573 40.4744 151.048C40.7832 150.232 40.8817 149.575 40.8423 148.494C40.7897 146.936 40.435 145.967 39.5678 145.039C38.602 144.011 37.0713 143.308 35.2449 143.049C34.9559 143.009 33.4843 142.963 31.9798 142.943L29.2337 142.91V139.269V135.627H34.1281H39.0225V134.765V133.903H32.7485H26.4745V144.25ZM34.1084 144.409C35.2252 144.628 35.9807 145.032 36.6837 145.782C37.4326 146.584 37.8071 147.48 37.8859 148.66C38.0173 150.67 36.8874 152.335 34.9362 153.011C34.1478 153.283 33.5237 153.336 31.2572 153.336H29.2337V148.826V144.316H31.428C33.0507 144.316 33.7471 144.342 34.1084 144.409Z" fill="black"/>
<path d="M99.1029 142.176C95.8312 150.626 95.4502 151.594 95.1217 152.178C94.7669 152.808 94.3399 153.08 93.6961 153.086C93.4004 153.093 93.2493 153.04 92.8157 152.814C92.5267 152.662 92.277 152.542 92.2705 152.556C92.1916 152.635 91.469 154.572 91.5018 154.612C91.6726 154.784 93.4267 155.036 93.972 154.963C94.9377 154.831 95.6735 154.147 96.3633 152.755C96.5342 152.396 97.9729 148.775 99.5628 144.703C101.153 140.63 102.467 137.308 102.486 137.321C102.506 137.334 104.175 141.227 106.198 145.97L109.871 154.598H111.362H112.86L112.222 153.119C111.874 152.31 109.871 147.654 107.775 142.773L103.964 133.905H103.137H102.309L99.1029 142.176Z" fill="black"/>
<path d="M147.816 134.765V135.627H151.725H155.634V145.112V154.596H157.014H158.393V145.112V135.627H162.302H166.211V134.765V133.903H157.014H147.816V134.765Z" fill="black"/>
</g>
<defs>
<clipPath id="clip0_2156_654">
<rect width="167" height="155" fill="white"/>
</clipPath>
</defs>
</svg>
