<svg width="51" height="39" viewBox="0 0 51 39" fill="none" xmlns="http://www.w3.org/2000/svg">
<path d="M51 1.75103C50.1526 5.46531 48.9875 9.49796 47.5047 13.849C46.1277 18.2 44.5919 22.551 42.8972 26.902C41.3084 31.1469 39.7196 35.1796 38.1308 39H27.8037C28.757 34.9673 29.7103 30.6694 30.6636 26.1061C31.7227 21.4367 32.676 16.8735 33.5234 12.4163C34.3707 7.85306 35.0062 3.71429 35.4299 0H50.0467L51 1.75103ZM22.8785 1.75103C22.0312 5.46531 20.866 9.49796 19.3832 13.849C18.0062 18.2 16.4704 22.551 14.7757 26.902C13.1869 31.1469 11.5981 35.1796 10.0093 39H0C0.741433 36.0286 1.42991 32.8449 2.06542 29.449C2.80685 26.0531 3.49533 22.6571 4.13084 19.2612C4.87227 15.7592 5.50779 12.3633 6.03738 9.07347C6.56698 5.78368 6.99065 2.75919 7.30841 0H21.9252L22.8785 1.75103Z" fill="#E9EAEB"/>
</svg>
