<svg width="51" height="39" viewBox="0 0 51 39" fill="none" xmlns="http://www.w3.org/2000/svg">
<path d="M51 0C50.0467 4.03265 49.0935 8.38367 48.1402 13.0531C47.1869 17.7225 46.2866 22.2857 45.4393 26.7429C44.6978 31.2 44.0623 35.2857 43.5327 39H28.9159L27.8037 37.249C28.757 33.5347 29.9221 29.5551 31.2991 25.3102C32.676 20.9592 34.2118 16.6082 35.9065 12.2571C37.6012 7.90612 39.243 3.82041 40.8318 0H51ZM22.8785 0C21.9252 4.03265 20.972 8.38367 20.0187 13.0531C19.0654 17.7225 18.1651 22.2857 17.3178 26.7429C16.5763 31.2 15.9408 35.2857 15.4112 39H0.953271L0 37.249C0.953271 33.5347 2.11838 29.5551 3.49533 25.3102C4.87227 20.9592 6.35514 16.6082 7.94392 12.2571C9.63863 7.90612 11.2804 3.82041 12.8692 0H22.8785Z" fill="#E9EAEB"/>
</svg>
