<svg width="221" height="272" viewBox="0 0 221 272" fill="none" xmlns="http://www.w3.org/2000/svg">
<g clip-path="url(#clip0_3583_6904)">
<circle cx="110" cy="130" r="36" fill="#2E5599"/>
<path d="M185.117 120.902V131.954C185.117 141.858 183.172 151.665 179.392 160.815C175.613 169.966 170.073 178.28 163.09 185.283C156.106 192.286 147.816 197.842 138.691 201.632C129.567 205.422 119.788 207.373 109.912 207.373C100.035 207.373 90.2561 205.422 81.1317 201.632C72.0074 197.842 63.7168 192.286 56.7334 185.283C49.7499 178.28 44.2103 169.966 40.4309 160.815C36.6515 151.665 34.7062 141.858 34.7062 131.954V120.902H0V195.434L110.652 271.999L221.305 195.434V120.902H185.117Z" fill="white"/>
<path d="M161.307 130.323C161.309 120.181 158.312 110.266 152.695 101.833C147.077 93.3995 139.092 86.8261 129.75 82.944C120.407 79.062 110.126 78.0457 100.207 80.0238C90.288 82.0019 81.1769 86.8854 74.0259 94.0567C66.8749 101.228 62.0052 110.365 60.0327 120.312C58.0602 130.259 59.0737 140.569 62.9447 149.939C66.8157 159.308 73.3705 167.316 81.7801 172.949C90.1897 178.582 100.076 181.588 110.189 181.586C123.746 181.583 136.746 176.181 146.332 166.568C155.918 156.955 161.304 143.918 161.307 130.323ZM85.5152 130.323C85.5152 125.425 86.9635 120.637 89.677 116.564C92.3904 112.492 96.2472 109.318 100.76 107.443C105.272 105.569 110.237 105.078 115.027 106.034C119.818 106.989 124.218 109.348 127.672 112.811C131.125 116.275 133.477 120.688 134.43 125.491C135.383 130.295 134.894 135.275 133.025 139.8C131.156 144.325 127.99 148.193 123.929 150.914C119.868 153.635 115.094 155.088 110.21 155.088C103.66 155.088 97.3792 152.479 92.7481 147.834C88.117 143.19 85.5152 136.891 85.5152 130.323Z" fill="white"/>
<path d="M34.8475 100.865H13.5176V76.9876L59.4084 28.1184H79.1332V0H100.463V49.509H68.6277L34.8475 85.4695V100.865Z" fill="white"/>
<path d="M206.254 100.865H184.924V85.4695L151.154 49.509H119.309V0H140.639V28.1184H160.363L206.254 76.9876V100.865Z" fill="white"/>
</g>
<defs>
<clipPath id="clip0_3583_6904">
<rect width="221" height="272" fill="white"/>
</clipPath>
</defs>
</svg>
