<svg width="855" height="145" viewBox="0 0 855 145" fill="none" xmlns="http://www.w3.org/2000/svg">
<path d="M17.7929 142.597L0 2.40331H31.9873L47.581 126.374H30.7877L96.9614 2.40331H126.949L141.943 126.374H125.95L191.724 2.40331H223.911L149.94 142.597H115.354L101.36 33.6464H111.156L52.5791 142.597H17.7929Z" fill="white"/>
<path d="M260.384 58.8812H327.757L322.759 84.116H255.386L260.384 58.8812ZM251.187 116.561H327.557L322.159 142.597H213.802L241.791 2.40331H347.549L342.151 28.4392H268.78L251.187 116.561Z" fill="white"/>
<path d="M347.929 142.597L375.917 2.40331H443.491C458.684 2.40331 470.28 5.14042 478.277 10.6146C486.407 16.0889 490.472 24.0331 490.472 34.4475C490.472 43.2597 488.139 50.6699 483.475 56.6782C478.943 62.6865 472.879 67.2261 465.282 70.297C457.685 73.3679 449.421 74.9033 440.492 74.9033L445.69 66.8923C457.418 66.8923 466.748 69.6294 473.678 75.1036C480.742 80.4443 484.274 88.1883 484.274 98.3356C484.274 108.216 481.542 116.494 476.078 123.17C470.746 129.712 463.349 134.586 453.886 137.79C444.423 140.994 433.561 142.597 421.299 142.597H347.929ZM385.114 118.163H423.299C432.228 118.163 439.226 116.494 444.29 113.156C449.488 109.685 452.087 104.611 452.087 97.9351C452.087 92.7279 450.155 89.0562 446.289 86.9199C442.558 84.6501 437.493 83.5152 431.095 83.5152H388.312L393.111 59.8826H429.496C435.094 59.8826 439.892 59.1482 443.89 57.6796C448.022 56.2109 451.154 54.0078 453.287 51.0704C455.419 47.9995 456.485 44.3278 456.485 40.0552C456.485 35.3821 454.686 32.0442 451.087 30.0414C447.489 27.9052 442.424 26.837 435.894 26.837H403.107L385.114 118.163Z" fill="white"/>
<path d="M596 145C585.737 145 576.141 143.598 567.212 140.794C558.282 137.99 550.818 133.985 544.82 128.778L560.414 104.945C564.946 108.95 570.477 112.088 577.008 114.358C583.672 116.628 590.735 117.762 598.199 117.762C604.597 117.762 609.995 116.961 614.393 115.359C618.924 113.757 622.323 111.42 624.589 108.349C626.988 105.279 628.187 101.674 628.187 97.5345C628.187 92.4609 626.255 88.7224 622.39 86.3191C618.658 83.7822 612.927 82.5138 605.196 82.5138H590.402L594.601 61.0843L641.782 16.8232L643.981 28.4392H570.21L575.608 2.40331H673.569L669.571 23.4323L622.39 67.6934L607.196 58.4807H614.393C624.122 58.4807 632.452 60.0161 639.383 63.087C646.313 66.0244 651.645 70.297 655.376 75.9047C659.108 81.3789 660.974 87.9213 660.974 95.5318C660.974 105.012 658.175 113.49 652.578 120.967C647.113 128.444 639.449 134.319 629.587 138.591C619.857 142.864 608.662 145 596 145Z" fill="white"/>
<path d="M687.923 144.199C682.592 144.199 678.193 142.53 674.728 139.192C671.263 135.721 669.53 131.381 669.53 126.174C669.53 119.899 671.529 114.892 675.528 111.153C679.659 107.281 684.591 105.345 690.322 105.345C695.653 105.345 699.985 107.014 703.317 110.352C706.782 113.69 708.515 118.029 708.515 123.37C708.515 127.509 707.515 131.181 705.516 134.385C703.65 137.456 701.184 139.86 698.119 141.595C695.053 143.331 691.655 144.199 687.923 144.199Z" fill="white"/>
<path d="M782.029 145C771.633 145 762.637 142.93 755.04 138.791C747.576 134.519 741.778 128.444 737.647 120.566C733.515 112.555 731.449 103.009 731.449 91.9268C731.449 79.2426 733.182 67.3596 736.647 56.2776C740.246 45.1957 745.244 35.4489 751.641 27.0373C758.039 18.4922 765.702 11.8831 774.632 7.20994C783.695 2.40331 793.624 0 804.42 0C814.816 0 823.746 2.13628 831.21 6.40884C838.806 10.5479 844.671 16.5562 848.802 24.4337C852.934 32.3112 855 41.8577 855 53.0732C855 65.7574 853.201 77.6404 849.602 88.7224C846.137 99.8043 841.206 109.618 834.808 118.163C828.411 126.575 820.747 133.184 811.817 137.99C802.887 142.663 792.958 145 782.029 145ZM785.028 117.562C791.159 117.562 796.557 115.559 801.221 111.554C805.886 107.415 809.751 102.074 812.817 95.5318C816.016 88.9894 818.415 82.0465 820.014 74.703C821.613 67.3596 822.413 60.4167 822.413 53.8743C822.413 44.6616 820.547 37.9857 816.815 33.8467C813.083 29.5741 807.952 27.4378 801.421 27.4378C795.29 27.4378 789.893 29.5074 785.228 33.6464C780.563 37.6519 776.631 42.9259 773.432 49.4682C770.367 56.0106 768.035 62.9535 766.435 70.297C764.836 77.6404 764.036 84.5833 764.036 91.1257C764.036 100.205 765.902 106.881 769.634 111.153C773.499 115.426 778.63 117.562 785.028 117.562Z" fill="white"/>
</svg>
