<svg width="536" height="123" viewBox="0 0 536 123" fill="none" xmlns="http://www.w3.org/2000/svg">
<path d="M25.12 119.2H26.02V121H0.280001V119.2H1.18C2.14 119.2 2.98 118.9 3.7 118.3C4.42 117.58 5.02 116.74 5.5 115.78C6.1 114.82 6.52 113.8 6.76 112.72C7 111.64 7.12 110.62 7.12 109.66V13.36C7.12 12.52 7 11.56 6.76 10.48C6.52 9.4 6.16 8.37999 5.68 7.41999C5.2 6.45999 4.54 5.67999 3.7 5.07999C2.98 4.35999 2.14 3.99999 1.18 3.99999H0.280001V2.2H69.4V18.94H67.6C67.6 16.18 66.64 13.78 64.72 11.74C62.92 9.58 60.04 8.5 56.08 8.5H19.18V54.04H49.06C51.82 54.04 54.1 53.2 55.9 51.52C57.82 49.84 58.78 47.86 58.78 45.58H60.58V68.08H58.78C58.78 65.92 57.88 64.06 56.08 62.5C54.28 60.94 51.94 60.16 49.06 60.16H19.18V109.66C19.18 110.62 19.3 111.64 19.54 112.72C19.78 113.8 20.14 114.82 20.62 115.78C21.22 116.74 21.88 117.58 22.6 118.3C23.32 118.9 24.16 119.2 25.12 119.2ZM134.412 0.399997C143.772 0.399997 152.172 2.08 159.612 5.44C167.052 8.68 173.352 13.12 178.512 18.76C183.792 24.28 187.812 30.76 190.572 38.2C193.452 45.52 194.892 53.2 194.892 61.24C194.892 70.24 193.212 78.52 189.852 86.08C186.612 93.64 182.112 100.12 176.352 105.52C170.592 110.92 163.872 115.18 156.192 118.3C148.632 121.3 140.532 122.8 131.892 122.8C122.652 122.8 114.312 121.12 106.872 117.76C99.5523 114.4 93.3123 109.96 88.1523 104.44C83.1123 98.92 79.2123 92.56 76.4523 85.36C73.6923 78.16 72.3123 70.66 72.3123 62.86C72.3123 55.18 73.6923 47.62 76.4523 40.18C79.2123 32.62 83.2323 25.9 88.5123 20.02C93.9123 14.14 100.452 9.4 108.132 5.79999C115.812 2.2 124.572 0.399997 134.412 0.399997ZM134.232 116.5C142.272 116.14 149.292 114.34 155.292 111.1C161.412 107.74 166.512 103.54 170.592 98.5C174.672 93.34 177.672 87.7 179.592 81.58C181.632 75.46 182.652 69.4 182.652 63.4C182.652 56.8 181.452 50.14 179.052 43.42C176.652 36.7 173.232 30.64 168.792 25.24C164.352 19.72 159.012 15.28 152.772 11.92C146.652 8.43999 139.752 6.69999 132.072 6.69999C124.632 6.69999 117.972 8.37999 112.092 11.74C106.212 14.98 101.172 19.18 96.9723 24.34C92.8923 29.5 89.7723 35.26 87.6123 41.62C85.4523 47.98 84.3723 54.22 84.3723 60.34C84.3723 66.94 85.6323 73.6 88.1523 80.32C90.6723 86.92 94.1523 92.92 98.5923 98.32C103.032 103.72 108.252 108.1 114.252 111.46C120.372 114.82 127.032 116.5 134.232 116.5ZM235.166 119.2H236.066V121H210.686V119.2H211.586C212.426 119.2 213.206 118.84 213.926 118.12C214.646 117.4 215.246 116.56 215.726 115.6C216.326 114.64 216.746 113.62 216.986 112.54C217.226 111.34 217.346 110.26 217.346 109.3V13.36C217.346 12.52 217.226 11.56 216.986 10.48C216.746 9.4 216.326 8.37999 215.726 7.41999C215.246 6.45999 214.646 5.67999 213.926 5.07999C213.206 4.35999 212.426 3.99999 211.586 3.99999H210.686V2.2H242.006C254.006 2.2 263.246 4.53999 269.726 9.21999C276.326 13.9 279.626 20.8 279.626 29.92C279.626 34.48 278.846 38.5 277.286 41.98C275.846 45.34 273.866 48.28 271.346 50.8C268.826 53.2 265.826 55.18 262.346 56.74C258.986 58.18 255.386 59.26 251.546 59.98L264.506 79.78C267.626 84.58 270.806 89.32 274.046 94C277.286 98.56 280.466 103.3 283.586 108.22C284.426 109.42 285.326 110.68 286.286 112C287.366 113.32 288.446 114.52 289.526 115.6C290.726 116.68 291.926 117.58 293.126 118.3C294.446 118.9 295.766 119.2 297.086 119.2V121H289.346C284.546 121 280.586 119.86 277.466 117.58C274.466 115.18 271.946 112.42 269.906 109.3C264.506 101.38 259.106 93.34 253.706 85.18C248.426 77.02 243.146 68.98 237.866 61.06C236.546 60.94 235.106 60.82 233.546 60.7C232.106 60.46 230.726 60.22 229.406 59.98V109.3C229.406 110.26 229.526 111.34 229.766 112.54C230.006 113.62 230.366 114.64 230.846 115.6C231.446 116.56 232.046 117.4 232.646 118.12C233.366 118.84 234.206 119.2 235.166 119.2ZM229.406 8.31999V54.04H230.306C231.266 54.16 232.766 54.28 234.806 54.4C236.966 54.4 239.606 54.4 242.726 54.4C245.246 54.4 247.886 54.04 250.646 53.32C253.526 52.48 256.166 51.16 258.566 49.36C261.086 47.44 263.126 44.98 264.686 41.98C266.366 38.98 267.206 35.2 267.206 30.64C267.206 26.08 266.306 22.36 264.506 19.48C262.826 16.6 260.426 14.32 257.306 12.64C254.306 10.96 250.646 9.81999 246.326 9.21999C242.006 8.61999 237.266 8.31999 232.106 8.31999H229.406ZM307.893 2.2H333.453V3.99999H332.553C331.593 3.99999 330.753 4.35999 330.033 5.07999C329.313 5.67999 328.653 6.45999 328.053 7.41999C327.573 8.37999 327.213 9.4 326.973 10.48C326.733 11.56 326.613 12.52 326.613 13.36V84.46C326.613 89.14 327.093 93.46 328.053 97.42C329.013 101.38 330.633 104.8 332.913 107.68C335.193 110.56 338.193 112.84 341.913 114.52C345.633 116.08 350.193 116.86 355.593 116.86C361.593 116.86 366.393 115.9 369.993 113.98C373.593 112.06 376.353 109.6 378.273 106.6C380.193 103.48 381.453 100 382.053 96.16C382.653 92.32 382.953 88.54 382.953 84.82V13.36C382.953 12.52 382.833 11.56 382.593 10.48C382.353 9.4 381.933 8.37999 381.333 7.41999C380.853 6.45999 380.253 5.67999 379.533 5.07999C378.813 4.35999 378.033 3.99999 377.193 3.99999H376.293V2.2H395.913V3.99999H395.013C394.053 3.99999 393.213 4.35999 392.493 5.07999C391.893 5.67999 391.293 6.45999 390.693 7.41999C390.213 8.37999 389.853 9.4 389.613 10.48C389.373 11.56 389.253 12.52 389.253 13.36V84.28C389.253 92.08 388.293 98.5 386.373 103.54C384.453 108.46 381.813 112.36 378.453 115.24C375.093 118.12 371.133 120.1 366.573 121.18C362.133 122.26 357.393 122.8 352.353 122.8C346.953 122.8 341.913 122.2 337.233 121C332.673 119.92 328.713 117.94 325.353 115.06C321.993 112.18 319.353 108.28 317.433 103.36C315.513 98.32 314.553 92.02 314.553 84.46V13.36C314.553 12.52 314.433 11.56 314.193 10.48C313.953 9.4 313.533 8.37999 312.933 7.41999C312.453 6.45999 311.853 5.67999 311.133 5.07999C310.413 4.35999 309.633 3.99999 308.793 3.99999H307.893V2.2ZM509.85 119.2H510.75C511.59 119.2 512.37 118.84 513.09 118.12C513.81 117.4 514.41 116.56 514.89 115.6C515.49 114.64 515.91 113.62 516.15 112.54C516.39 111.34 516.51 110.26 516.51 109.3V14.62L470.07 122.98L425.97 20.2V109.3C425.97 110.26 426.09 111.34 426.33 112.54C426.57 113.62 426.93 114.64 427.41 115.6C428.01 116.56 428.67 117.4 429.39 118.12C430.11 118.84 430.95 119.2 431.91 119.2H432.81V121H413.19V119.2H414.09C414.93 119.2 415.71 118.84 416.43 118.12C417.15 117.4 417.75 116.56 418.23 115.6C418.71 114.64 419.07 113.62 419.31 112.54C419.55 111.34 419.67 110.26 419.67 109.3V13.36C419.67 12.52 419.55 11.56 419.31 10.48C419.07 9.4 418.71 8.37999 418.23 7.41999C417.75 6.45999 417.15 5.67999 416.43 5.07999C415.71 4.35999 414.93 3.99999 414.09 3.99999H413.19V2.2H431.55L473.31 100.66L515.07 2.2H535.41V3.99999H534.51C533.55 3.99999 532.71 4.35999 531.99 5.07999C531.27 5.67999 530.61 6.45999 530.01 7.41999C529.53 8.37999 529.17 9.4 528.93 10.48C528.69 11.56 528.57 12.52 528.57 13.36V109.3C528.57 110.26 528.69 111.34 528.93 112.54C529.17 113.62 529.53 114.64 530.01 115.6C530.61 116.56 531.27 117.4 531.99 118.12C532.71 118.84 533.55 119.2 534.51 119.2H535.41V121H509.85V119.2Z" fill="white"/>
</svg>
