<svg width="318" height="56" viewBox="0 0 318 56" fill="none" xmlns="http://www.w3.org/2000/svg">
<path d="M15.76 32.52C15.76 33.4533 15.5733 34.4 15.2 35.36C14.8533 36.2933 14.32 37.1333 13.6 37.88C12.88 38.6267 11.96 39.24 10.84 39.72C9.74667 40.1733 8.46667 40.4 7 40.4C6.28 40.4 5.57333 40.32 4.88 40.16C4.18667 40 3.53333 39.84 2.92 39.68C2.46667 39.5467 2.05333 39.44 1.68 39.36C1.30667 39.2533 0.973333 39.2 0.68 39.2V36.04C1.37333 36.9733 2.28 37.7067 3.4 38.24C4.54667 38.7733 5.69333 39.04 6.84 39.04C7.88 39.04 8.78667 38.88 9.56 38.56C10.3333 38.24 10.9733 37.8133 11.48 37.28C12.0133 36.72 12.4 36.0667 12.64 35.32C12.9067 34.5467 13.04 33.72 13.04 32.84C13.04 31.7733 12.8533 30.84 12.48 30.04C12.1333 29.24 11.6667 28.5733 11.08 28.04C10.4933 27.48 9.81333 27.0667 9.04 26.8C8.29333 26.5333 7.53333 26.4 6.76 26.4C5.90667 26.4 4.97333 26.6 3.96 27C2.94667 27.3733 1.90667 27.9733 0.84 28.8L5.96 15.4H15.96L15.16 17.64H6.8C6.34667 18.84 5.85333 20.08 5.32 21.36C4.81333 22.64 4.33333 23.8933 3.88 25.12C4.52 24.8267 5.12 24.6267 5.68 24.52C6.24 24.4133 6.84 24.36 7.48 24.36C8.54667 24.36 9.57333 24.5467 10.56 24.92C11.5467 25.2933 12.4267 25.8267 13.2 26.52C13.9733 27.2133 14.5867 28.0667 15.04 29.08C15.52 30.0933 15.76 31.24 15.76 32.52ZM19.0581 27.6C19.0581 25.5467 19.3115 23.7333 19.8181 22.16C20.3515 20.5867 21.0448 19.28 21.8981 18.24C22.7515 17.1733 23.7115 16.3733 24.7781 15.84C25.8715 15.28 26.9781 15 28.0981 15C29.2181 15 30.3248 15.28 31.4181 15.84C32.5115 16.3733 33.4715 17.1733 34.2981 18.24C35.1515 19.28 35.8315 20.5867 36.3381 22.16C36.8715 23.7333 37.1381 25.5467 37.1381 27.6C37.1381 29.68 36.8715 31.52 36.3381 33.12C35.8315 34.6933 35.1515 36.0267 34.2981 37.12C33.4715 38.1867 32.5115 39 31.4181 39.56C30.3248 40.12 29.2181 40.4 28.0981 40.4C26.9781 40.4 25.8715 40.12 24.7781 39.56C23.7115 39 22.7515 38.1867 21.8981 37.12C21.0448 36.0267 20.3515 34.6933 19.8181 33.12C19.3115 31.52 19.0581 29.68 19.0581 27.6ZM34.6181 28.64C34.6181 26.72 34.4048 25.0267 33.9781 23.56C33.5515 22.0667 32.9915 20.8267 32.2981 19.84C31.6315 18.8267 30.8581 18.0667 29.9781 17.56C29.1248 17.0267 28.2448 16.76 27.3381 16.76C26.4315 16.76 25.6048 17.0267 24.8581 17.56C24.1381 18.0667 23.5248 18.7467 23.0181 19.6C22.5115 20.4533 22.1115 21.44 21.8181 22.56C21.5515 23.68 21.4181 24.8533 21.4181 26.08C21.4181 27.5467 21.5915 29.04 21.9381 30.56C22.2848 32.0533 22.7781 33.4133 23.4181 34.64C24.0581 35.84 24.8181 36.8267 25.6981 37.6C26.6048 38.3733 27.5915 38.76 28.6581 38.76C29.4315 38.76 30.1781 38.5467 30.8981 38.12C31.6181 37.6667 32.2448 37.0133 32.7781 36.16C33.3381 35.3067 33.7781 34.2533 34.0981 33C34.4448 31.7467 34.6181 30.2933 34.6181 28.64Z" fill="white"/>
<path d="M80.56 40V39.6C80.9333 39.6 81.2133 39.5467 81.4 39.44C81.6133 39.3067 81.76 39.1467 81.84 38.96C81.9467 38.7467 82 38.52 82 38.28C82.0267 38.0133 82.04 37.7467 82.04 37.48V33.56H71.12L84.64 14.4V31.56H87.08V33.56H84.64V37.48C84.64 38.0133 84.7333 38.5067 84.92 38.96C85.1333 39.3867 85.56 39.6 86.2 39.6V40H80.56ZM82.04 20.36C80.7067 22.2533 79.3733 24.12 78.04 25.96C76.7333 27.8 75.4133 29.6667 74.08 31.56H82.04V20.36ZM89.2769 27.6C89.2769 25.5467 89.5302 23.7333 90.0369 22.16C90.5702 20.5867 91.2635 19.28 92.1169 18.24C92.9702 17.1733 93.9302 16.3733 94.9969 15.84C96.0902 15.28 97.1969 15 98.3169 15C99.4369 15 100.544 15.28 101.637 15.84C102.73 16.3733 103.69 17.1733 104.517 18.24C105.37 19.28 106.05 20.5867 106.557 22.16C107.09 23.7333 107.357 25.5467 107.357 27.6C107.357 29.68 107.09 31.52 106.557 33.12C106.05 34.6933 105.37 36.0267 104.517 37.12C103.69 38.1867 102.73 39 101.637 39.56C100.544 40.12 99.4369 40.4 98.3169 40.4C97.1969 40.4 96.0902 40.12 94.9969 39.56C93.9302 39 92.9702 38.1867 92.1169 37.12C91.2635 36.0267 90.5702 34.6933 90.0369 33.12C89.5302 31.52 89.2769 29.68 89.2769 27.6ZM104.837 28.64C104.837 26.72 104.624 25.0267 104.197 23.56C103.77 22.0667 103.21 20.8267 102.517 19.84C101.85 18.8267 101.077 18.0667 100.197 17.56C99.3435 17.0267 98.4635 16.76 97.5569 16.76C96.6502 16.76 95.8235 17.0267 95.0769 17.56C94.3569 18.0667 93.7435 18.7467 93.2369 19.6C92.7302 20.4533 92.3302 21.44 92.0369 22.56C91.7702 23.68 91.6369 24.8533 91.6369 26.08C91.6369 27.5467 91.8102 29.04 92.1569 30.56C92.5035 32.0533 92.9969 33.4133 93.6369 34.64C94.2769 35.84 95.0369 36.8267 95.9169 37.6C96.8235 38.3733 97.8102 38.76 98.8769 38.76C99.6502 38.76 100.397 38.5467 101.117 38.12C101.837 37.6667 102.464 37.0133 102.997 36.16C103.557 35.3067 103.997 34.2533 104.317 33C104.664 31.7467 104.837 30.2933 104.837 28.64Z" fill="white"/>
<path d="M143.12 16.16H143.48C143.693 16.16 143.92 16.12 144.16 16.04C144.4 15.96 144.667 15.8667 144.96 15.76C145.413 15.6 145.96 15.44 146.6 15.28C147.24 15.0933 148.027 15 148.96 15C150.027 15 150.973 15.16 151.8 15.48C152.653 15.7733 153.36 16.1867 153.92 16.72C154.507 17.2267 154.947 17.8267 155.24 18.52C155.56 19.2133 155.72 19.9333 155.72 20.68C155.72 21.72 155.4 22.72 154.76 23.68C154.147 24.64 153.187 25.4133 151.88 26C153.72 26.5333 155.093 27.3867 156 28.56C156.907 29.7333 157.36 31.0667 157.36 32.56C157.36 33.68 157.147 34.72 156.72 35.68C156.32 36.6133 155.72 37.44 154.92 38.16C154.147 38.8533 153.213 39.4 152.12 39.8C151.027 40.2 149.8 40.4 148.44 40.4C147.427 40.4 146.587 40.3067 145.92 40.12C145.253 39.9333 144.693 39.76 144.24 39.6C143.947 39.4933 143.68 39.4133 143.44 39.36C143.2 39.28 142.96 39.24 142.72 39.24H142.36V36.16H142.76C143.453 37.12 144.307 37.8533 145.32 38.36C146.36 38.84 147.427 39.08 148.52 39.08C149.48 39.08 150.347 38.92 151.12 38.6C151.893 38.2533 152.547 37.8 153.08 37.24C153.64 36.68 154.053 36.04 154.32 35.32C154.613 34.6 154.76 33.8533 154.76 33.08C154.76 32.28 154.6 31.5067 154.28 30.76C153.96 29.9867 153.507 29.3067 152.92 28.72C152.333 28.1333 151.613 27.6667 150.76 27.32C149.933 26.9733 148.987 26.8 147.92 26.8H146.08V25.48H148.12C148.947 25.48 149.667 25.3467 150.28 25.08C150.92 24.8133 151.453 24.4533 151.88 24C152.307 23.5467 152.627 23.04 152.84 22.48C153.053 21.92 153.16 21.3333 153.16 20.72C153.16 20.16 153.053 19.6133 152.84 19.08C152.653 18.5467 152.36 18.08 151.96 17.68C151.56 17.2533 151.067 16.9067 150.48 16.64C149.92 16.3733 149.267 16.24 148.52 16.24C147.613 16.24 146.707 16.4933 145.8 17C144.893 17.5067 144.133 18.2667 143.52 19.28H143.12V16.16ZM160.472 27.6C160.472 25.5467 160.726 23.7333 161.232 22.16C161.766 20.5867 162.459 19.28 163.312 18.24C164.166 17.1733 165.126 16.3733 166.192 15.84C167.286 15.28 168.392 15 169.512 15C170.632 15 171.739 15.28 172.832 15.84C173.926 16.3733 174.886 17.1733 175.712 18.24C176.566 19.28 177.246 20.5867 177.752 22.16C178.286 23.7333 178.552 25.5467 178.552 27.6C178.552 29.68 178.286 31.52 177.752 33.12C177.246 34.6933 176.566 36.0267 175.712 37.12C174.886 38.1867 173.926 39 172.832 39.56C171.739 40.12 170.632 40.4 169.512 40.4C168.392 40.4 167.286 40.12 166.192 39.56C165.126 39 164.166 38.1867 163.312 37.12C162.459 36.0267 161.766 34.6933 161.232 33.12C160.726 31.52 160.472 29.68 160.472 27.6ZM176.032 28.64C176.032 26.72 175.819 25.0267 175.392 23.56C174.966 22.0667 174.406 20.8267 173.712 19.84C173.046 18.8267 172.272 18.0667 171.392 17.56C170.539 17.0267 169.659 16.76 168.752 16.76C167.846 16.76 167.019 17.0267 166.272 17.56C165.552 18.0667 164.939 18.7467 164.432 19.6C163.926 20.4533 163.526 21.44 163.232 22.56C162.966 23.68 162.832 24.8533 162.832 26.08C162.832 27.5467 163.006 29.04 163.352 30.56C163.699 32.0533 164.192 33.4133 164.832 34.64C165.472 35.84 166.232 36.8267 167.112 37.6C168.019 38.3733 169.006 38.76 170.072 38.76C170.846 38.76 171.592 38.5467 172.312 38.12C173.032 37.6667 173.659 37.0133 174.192 36.16C174.752 35.3067 175.192 34.2533 175.512 33C175.859 31.7467 176.032 30.2933 176.032 28.64Z" fill="white"/>
<path d="M213.92 17.64H214.28C214.413 17.64 214.573 17.5733 214.76 17.44C214.973 17.3067 215.2 17.16 215.44 17C215.707 16.8133 216.013 16.6 216.36 16.36C216.733 16.12 217.147 15.9067 217.6 15.72C218.08 15.5067 218.613 15.3333 219.2 15.2C219.787 15.0667 220.44 15 221.16 15C222.067 15 222.947 15.1333 223.8 15.4C224.653 15.64 225.413 16.0267 226.08 16.56C226.747 17.0667 227.28 17.72 227.68 18.52C228.08 19.32 228.28 20.28 228.28 21.4C228.28 22.3333 228.12 23.1867 227.8 23.96C227.48 24.7333 227.04 25.4533 226.48 26.12C225.947 26.7867 225.333 27.4267 224.64 28.04C223.973 28.6267 223.28 29.2133 222.56 29.8C221.867 30.36 221.187 30.9333 220.52 31.52C219.88 32.1067 219.293 32.72 218.76 33.36C218.253 34 217.827 34.6933 217.48 35.44C217.133 36.16 216.933 36.9333 216.88 37.76H225.2C226.213 37.76 227.013 37.5867 227.6 37.24C228.187 36.8667 228.493 36.2667 228.52 35.44H228.88V40H214.08C214.08 38.8 214.28 37.6933 214.68 36.68C215.08 35.64 215.6 34.6933 216.24 33.84C216.88 32.96 217.587 32.1467 218.36 31.4C219.16 30.6533 219.947 29.9333 220.72 29.24C221.36 28.68 221.973 28.12 222.56 27.56C223.173 27 223.707 26.44 224.16 25.88C224.64 25.2933 225.013 24.6933 225.28 24.08C225.573 23.44 225.72 22.7733 225.72 22.08C225.72 21.2 225.56 20.4133 225.24 19.72C224.947 19.0267 224.547 18.44 224.04 17.96C223.56 17.48 223 17.12 222.36 16.88C221.72 16.6133 221.08 16.48 220.44 16.48C219.08 16.48 217.88 16.8933 216.84 17.72C215.8 18.52 214.96 19.56 214.32 20.84H213.92V17.64ZM239.708 40V39.6C240.082 39.6 240.362 39.5467 240.548 39.44C240.762 39.3067 240.908 39.1467 240.988 38.96C241.095 38.7467 241.148 38.52 241.148 38.28C241.175 38.0133 241.188 37.7467 241.188 37.48V33.56H230.268L243.788 14.4V31.56H246.228V33.56H243.788V37.48C243.788 38.0133 243.882 38.5067 244.068 38.96C244.282 39.3867 244.708 39.6 245.348 39.6V40H239.708ZM241.188 20.36C239.855 22.2533 238.522 24.12 237.188 25.96C235.882 27.8 234.562 29.6667 233.228 31.56H241.188V20.36Z" fill="white"/>
<path d="M279.92 17.64H280.28C280.413 17.64 280.573 17.5733 280.76 17.44C280.973 17.3067 281.2 17.16 281.44 17C281.707 16.8133 282.013 16.6 282.36 16.36C282.733 16.12 283.147 15.9067 283.6 15.72C284.08 15.5067 284.613 15.3333 285.2 15.2C285.787 15.0667 286.44 15 287.16 15C288.067 15 288.947 15.1333 289.8 15.4C290.653 15.64 291.413 16.0267 292.08 16.56C292.747 17.0667 293.28 17.72 293.68 18.52C294.08 19.32 294.28 20.28 294.28 21.4C294.28 22.3333 294.12 23.1867 293.8 23.96C293.48 24.7333 293.04 25.4533 292.48 26.12C291.947 26.7867 291.333 27.4267 290.64 28.04C289.973 28.6267 289.28 29.2133 288.56 29.8C287.867 30.36 287.187 30.9333 286.52 31.52C285.88 32.1067 285.293 32.72 284.76 33.36C284.253 34 283.827 34.6933 283.48 35.44C283.133 36.16 282.933 36.9333 282.88 37.76H291.2C292.213 37.76 293.013 37.5867 293.6 37.24C294.187 36.8667 294.493 36.2667 294.52 35.44H294.88V40H280.08C280.08 38.8 280.28 37.6933 280.68 36.68C281.08 35.64 281.6 34.6933 282.24 33.84C282.88 32.96 283.587 32.1467 284.36 31.4C285.16 30.6533 285.947 29.9333 286.72 29.24C287.36 28.68 287.973 28.12 288.56 27.56C289.173 27 289.707 26.44 290.16 25.88C290.64 25.2933 291.013 24.6933 291.28 24.08C291.573 23.44 291.72 22.7733 291.72 22.08C291.72 21.2 291.56 20.4133 291.24 19.72C290.947 19.0267 290.547 18.44 290.04 17.96C289.56 17.48 289 17.12 288.36 16.88C287.72 16.6133 287.08 16.48 286.44 16.48C285.08 16.48 283.88 16.8933 282.84 17.72C281.8 18.52 280.96 19.56 280.32 20.84H279.92V17.64ZM297.628 27.6C297.628 25.5467 297.882 23.7333 298.388 22.16C298.922 20.5867 299.615 19.28 300.468 18.24C301.322 17.1733 302.282 16.3733 303.348 15.84C304.442 15.28 305.548 15 306.668 15C307.788 15 308.895 15.28 309.988 15.84C311.082 16.3733 312.042 17.1733 312.868 18.24C313.722 19.28 314.402 20.5867 314.908 22.16C315.442 23.7333 315.708 25.5467 315.708 27.6C315.708 29.68 315.442 31.52 314.908 33.12C314.402 34.6933 313.722 36.0267 312.868 37.12C312.042 38.1867 311.082 39 309.988 39.56C308.895 40.12 307.788 40.4 306.668 40.4C305.548 40.4 304.442 40.12 303.348 39.56C302.282 39 301.322 38.1867 300.468 37.12C299.615 36.0267 298.922 34.6933 298.388 33.12C297.882 31.52 297.628 29.68 297.628 27.6ZM313.188 28.64C313.188 26.72 312.975 25.0267 312.548 23.56C312.122 22.0667 311.562 20.8267 310.868 19.84C310.202 18.8267 309.428 18.0667 308.548 17.56C307.695 17.0267 306.815 16.76 305.908 16.76C305.002 16.76 304.175 17.0267 303.428 17.56C302.708 18.0667 302.095 18.7467 301.588 19.6C301.082 20.4533 300.682 21.44 300.388 22.56C300.122 23.68 299.988 24.8533 299.988 26.08C299.988 27.5467 300.162 29.04 300.508 30.56C300.855 32.0533 301.348 33.4133 301.988 34.64C302.628 35.84 303.388 36.8267 304.268 37.6C305.175 38.3733 306.162 38.76 307.228 38.76C308.002 38.76 308.748 38.5467 309.468 38.12C310.188 37.6667 310.815 37.0133 311.348 36.16C311.908 35.3067 312.348 34.2533 312.668 33C313.015 31.7467 313.188 30.2933 313.188 28.64Z" fill="white"/>
</svg>
