<svg width="184" height="184" viewBox="0 0 184 184" fill="none" xmlns="http://www.w3.org/2000/svg">
<path d="M90.7592 73.0244L91.2418 73.8378L91.6422 72.9809L123.006 5.86158L104.683 77.6457L104.449 78.5621L105.338 78.2394L174.976 52.9564L111.261 90.7592L110.447 91.2418L111.304 91.6422L178.424 123.006L106.64 104.683L105.723 104.449L106.046 105.338L131.329 174.976L93.5261 111.261L93.0435 110.447L92.6431 111.304L61.2792 178.424L79.6023 106.64L79.8362 105.723L78.9472 106.046L9.309 131.329L73.0244 93.5261L73.8378 93.0435L72.9809 92.6431L5.86161 61.2792L77.6458 79.6022L78.5622 79.8361L78.2394 78.9471L52.9565 9.30897L90.7592 73.0244Z" stroke="#9EB4DC"/>
</svg>
