<?xml version="1.0" encoding="utf-8"?><svg viewBox="0 0 1920 2000" xmlns="http://www.w3.org/2000/svg" xmlns:xlink="http://www.w3.org/1999/xlink"><style>:root>svg{display:none}:root>svg:target{display:block}</style><svg fill="none" viewBox="0 0 89 38" id="arrow" xmlns="http://www.w3.org/2000/svg"><path d="M87.768 20.768a2.5 2.5 0 000-3.536l-15.91-15.91a2.5 2.5 0 00-3.536 3.536L82.464 19 68.323 33.142a2.5 2.5 0 003.536 3.536l15.91-15.91zM0 21.5h86v-5H0v5z" fill="#4F4F4F"/></svg><svg fill="none" viewBox="0 0 1920 1794" id="big_tentacle" xmlns="http://www.w3.org/2000/svg"><mask id="ba" maskUnits="userSpaceOnUse" x="-354" y="0" width="3042" height="1794"><path fill="#C4C4C4" d="M-353.341 0h3040.7v1793.61h-3040.7z"/></mask><g mask="url(#ba)"><animateTransform attributeName="transform" type="skewY" dur="30s" begin="0" values="0; 2; 0; 1; 3; 0;" repeatCount="indefinite"/><path d="M2080 1702.44v-576.45c0-.32.12-.42-.14-.61-8.8-6.35-446.89-321.613-842.36-391.736-794.948-140.955-1400.5 137-1400.5 137v158.496S445 679.981 902 911.481c437.42 221.579 1143.22 766.099 1176.76 792.039.66.51 1.24-.25 1.24-1.08z" fill="#404040"><animate attributeName="d" values="M2080 1702.44V1125.99C2080 1125.67 2080.12 1125.57 2079.86 1125.38C2071.06 1119.03 1632.97 803.767 1237.5 733.644C442.552 592.689 -163 870.644 -163 870.644V1029.14C-163 1029.14 445 679.981 902 911.481C1339.42 1133.06 2045.22 1677.58 2078.76 1703.52C2079.42 1704.03 2080 1703.27 2080 1702.44Z; M2080 1702.44V1125.99C2080 1125.67 2080.12 1125.57 2079.86 1125.38C2071.06 1119.03 1632.97 803.767 1237.5 733.644C442.552 592.689 -163 870.644 -163 870.644V1029.14C-163 1029.14 851.5 708 1308.5 939.5C1745.92 1161.08 2235.46 1676.5 2269 1702.44C2269.66 1702.95 2080 1703.27 2080 1702.44Z; M2080 1702.44V1125.99C2080 1125.67 2080.12 1125.57 2079.86 1125.38C2071.06 1119.03 1632.97 803.767 1237.5 733.644C442.552 592.689 -163 870.644 -163 870.644V1029.14C-163 1029.14 741.5 608 1198.5 839.5C1635.92 1061.08 2045.22 1677.58 2078.76 1703.52C2079.42 1704.03 2080 1703.27 2080 1702.44Z; M2080 1702.44V1125.99C2080 1125.67 2080.12 1125.57 2079.86 1125.38C2071.06 1119.03 1632.97 803.767 1237.5 733.644C442.552 592.689 -163 870.644 -163 870.644V1029.14C-163 1029.14 445 679.981 902 911.481C1339.42 1133.06 2045.22 1677.58 2078.76 1703.52C2079.42 1704.03 2080 1703.27 2080 1702.44Z;" dur="30s" repeatCount="indefinite"/></path><path d="M890 209.981c-528.825-27.574-1073.244 92.745-1089.697 96.415-.456.101-.382.417-.382.885v608.861c0 .668.278 1.256.919 1.068 26.778-7.861 633.122-184.229 1131.66-184.229 509.38 0 737.26 190.329 1213.01 424.779.66.33 1.46-.15 1.46-.89V523.231c0-.306.09-.413-.15-.601-8.08-6.273-346.67-265.192-1256.82-312.649z" fill="#4F4F4F"><animate attributeName="d" values="M890 209.981C361.175 182.407 -183.244 302.726 -199.697 306.396C-200.153 306.497 -200.079 306.813 -200.079 307.281V916.142C-200.079 916.81 -199.801 917.398 -199.16 917.21C-172.382 909.349 433.962 732.981 932.5 732.981C1441.88 732.981 1669.76 923.31 2145.51 1157.76C2146.17 1158.09 2146.97 1157.61 2146.97 1156.87V523.231C2146.97 522.925 2147.06 522.818 2146.82 522.63C2138.74 516.357 1800.15 257.438 890 209.981Z;" dur="30s" repeatCount="indefinite"/></path><ellipse cx="525.334" cy="833.327" rx="145.282" ry="40.797" transform="rotate(178.387 525.334 833.327)" fill="#EE6D8F" style="transform-box:fill-box;transform-origin:50% 50%"><animateTransform attributeName="transform" type="rotate" dur="30s" begin="0" values="178.387; 173.327; 170.327; 178.387;" repeatCount="indefinite"/><animate attributeName="cx" values="525.334; 525.334; 500.334; 525.334;" dur="30s" repeatCount="indefinite"/><animate attributeName="cy" values="833.327; 870.327; 820.327; 833.327;" dur="30s" repeatCount="indefinite"/><animate attributeName="rx" values="145.282; 150.282; 150.282; 145.282;" dur="30s" repeatCount="indefinite"/><animate attributeName="ry" values="40.797; 60.797; 20.797; 40.797;" dur="30s" repeatCount="indefinite"/></ellipse><ellipse cx="899.832" cy="917.925" rx="155.878" ry="60.015" transform="rotate(-152.379 899.832 917.925)" fill="#EE6D8F" style="transform-box:fill-box;transform-origin:50% 50%"><animateTransform attributeName="transform" type="rotate" dur="30s" begin="0" values="-152.379; -180.379; -175.379; -152.379;" repeatCount="indefinite"/><animate attributeName="cx" values="899.832; 920.832; 930.832; 899.832;" dur="30s" repeatCount="indefinite"/><animate attributeName="cy" values="917.925; 850.925; 780.925; 917.925;" dur="30s" repeatCount="indefinite"/><animate attributeName="rx" values="155.878; 155.878; 170.878; 155.878;" dur="30s" repeatCount="indefinite"/><animate attributeName="ry" values="60.0151; 50.0151; 30.0151; 60.0151;" dur="30s" repeatCount="indefinite"/></ellipse><ellipse cx="1239.26" cy="1110.23" rx="155.878" ry="62.743" transform="rotate(-149.739 1239.26 1110.23)" fill="#EE6D8F" style="transform-box:fill-box;transform-origin:50% 50%"><animateTransform attributeName="transform" type="rotate" dur="30s" begin="0" values="-149.739; -149.739; -144.739; -149.739;" repeatCount="indefinite"/><animate attributeName="cx" values="1239.26; 1300.26; 1350.26; 1239.26;" dur="30s" repeatCount="indefinite"/><animate attributeName="cy" values="1110.23; 940.23; 930.23; 1110.23;" dur="30s" repeatCount="indefinite"/><animate attributeName="rx" values="155.878; 130.878; 100.878; 155.878;" dur="30s" repeatCount="indefinite"/><animate attributeName="ry" values="62.7427; 40.7427; 40.7427; 62.7427 ;" dur="30s" repeatCount="indefinite"/></ellipse><ellipse cx="1190.31" cy="876.657" rx="146.065" ry="77.74" transform="rotate(-154.426 1190.31 876.657)" fill="#EE6D8F" style="transform-box:fill-box;transform-origin:50% 50%"><animateTransform attributeName="transform" type="rotate" dur="30s" begin="0" values="-154.426; -160.426; -155.426; -154.426;" repeatCount="indefinite"/><animate attributeName="cx" values="1190.31; 1350.31; 1390.31; 1190.31;" dur="30s" repeatCount="indefinite"/><animate attributeName="cy" values="876.657; 876.657; 850.657; 876.657;" dur="30s" repeatCount="indefinite"/><animate attributeName="rx" values="146.065; 120.065; 100.065; 146.065;" dur="30s" repeatCount="indefinite"/><animate attributeName="ry" values="77.7396; 30.7396; 40.7396; 77.7396;" dur="30s" repeatCount="indefinite"/></ellipse><ellipse cx="1554.78" cy="1034.28" rx="154.429" ry="82.191" transform="rotate(-154.426 1554.78 1034.28)" fill="#EE6D8F" style="transform-box:fill-box;transform-origin:50% 50%"><animateTransform attributeName="transform" type="rotate" dur="30s" begin="0" values="-154.426; -154.426; -148.426; -154.426;" repeatCount="indefinite"/><animate attributeName="cx" values="1554.78; 1600.78; 1680.78; 1554.78;" dur="30s" repeatCount="indefinite"/><animate attributeName="cy" values="1034.28; 1000.28; 980.28; 1034.28;" dur="30s" repeatCount="indefinite"/><animate attributeName="rx" values="154.429; 128.065; 140.065; 154.429;" dur="30s" repeatCount="indefinite"/><animate attributeName="ry" values="82.1909; 35.7396; 60.7396; 82.1909;" dur="30s" repeatCount="indefinite"/></ellipse><ellipse cx="1618.84" cy="1333.46" rx="155.878" ry="82.963" transform="rotate(-151.034 1618.84 1333.46)" fill="#EE6D8F" style="transform-box:fill-box;transform-origin:50% 50%"><animateTransform attributeName="transform" type="rotate" dur="30s" begin="0" values="-151.034; -140.034; -136.034; -151.034;" repeatCount="indefinite"/><animate attributeName="cx" values="1618.84; 1700.84; 1650.84; 1618.84;" dur="30s" repeatCount="indefinite"/><animate attributeName="cy" values="1333.46; 1200.46; 1180.46; 1333.46;" dur="30s" repeatCount="indefinite"/><animate attributeName="rx" values="155.878; 140.878; 145.878; 155.878;" dur="30s" repeatCount="indefinite"/><animate attributeName="ry" values="82.9625; 40.9625; 60.9625; 82.9625;" dur="30s" repeatCount="indefinite"/></ellipse><ellipse cx="1918.78" cy="1212.28" rx="154.429" ry="82.191" transform="rotate(-154.426 1918.78 1212.28)" fill="#EE6D8F" style="transform-box:fill-box;transform-origin:50% 50%"><animateTransform attributeName="transform" type="rotate" dur="30s" begin="0" values="-154.426; -140.426; -150.426; -154.426;" repeatCount="indefinite"/><animate attributeName="cx" values="1918.78; 1950.78; 1980.78; 1918.78;" dur="30s" repeatCount="indefinite"/><animate attributeName="cy" values="1212.28; 1212.28; 1180.28; 1212.28;" dur="30s" repeatCount="indefinite"/><animate attributeName="rx" values="154.429; 140.429; 140.429; 154.429;" dur="30s" repeatCount="indefinite"/><animate attributeName="ry" values="82.1909; 42.1909; 70.1909; 82.1909;" dur="30s" repeatCount="indefinite"/></ellipse><ellipse cx="1989.26" cy="1540.8" rx="155.878" ry="82.963" transform="rotate(-165.26 1989.26 1540.8)" fill="#EE6D8F" style="transform-box:fill-box;transform-origin:50% 50%"><animateTransform attributeName="transform" type="rotate" dur="30s" begin="0" values="-165.26; -140.26; -130.26; -165.26;" repeatCount="indefinite"/><animate attributeName="cx" values="1989.26; 1989.26; 2000.26; 1989.26;" dur="30s" repeatCount="indefinite"/><animate attributeName="cy" values="1540.8; 1400.8; 1500.8; 1540.8;" dur="30s" repeatCount="indefinite"/><animate attributeName="rx" values="155.878; 140.878; 140.878; 155.878;" dur="30s" repeatCount="indefinite"/><animate attributeName="ry" values="82.9625; 40.9625; 90.9625; 82.9625;" dur="30s" repeatCount="indefinite"/></ellipse><ellipse cx="114.873" cy="900.507" rx="156.63" ry="44.813" transform="rotate(165.327 114.873 900.507)" fill="#EE6D8F" style="transform-box:fill-box;transform-origin:50% 50%"><animateTransform attributeName="transform" type="rotate" dur="30s" begin="0" values="165.327; 170.327; 160.327; 165.327;" repeatCount="indefinite"/><animate attributeName="cx" values="114.873; 80.873; 70.873; 114.873;" dur="30s" repeatCount="indefinite"/><animate attributeName="cy" values="900.507; 950.507; 920.507; 900.507;" dur="30s" repeatCount="indefinite"/><animate attributeName="rx" values="156.63; 156.63; 130.63; 156.63;" dur="30s" repeatCount="indefinite"/><animate attributeName="ry" values="44.8126; 60.8126; 30.8126; 44.8126;" dur="30s" repeatCount="indefinite"/></ellipse></g></svg><svg fill="none" viewBox="0 0 1920 2915" id="cases" xmlns="http://www.w3.org/2000/svg"><path d="M1923 1.936V2914c0 .55-.45 1-1 1H1c-.552 0-1-.45-1-1V312.184a.996.996 0 011.2-.984c24.415 5.135 418.782 85.924 926.753 56.008 520.817-30.672 603.287-89.196 986.757-361.322l6.67-4.739c.67-.47 1.62-.023 1.62.789z" fill="#4F4F4F"/></svg><svg fill="none" viewBox="0 0 1920 1440" id="footer_tentacle" xmlns="http://www.w3.org/2000/svg"><g clip-path="url(#dclip0)"><mask id="da" maskUnits="userSpaceOnUse" x="-720" y="-206" width="3043" height="1864"><path transform="matrix(-1 0 0 1 2322 -206)" fill="#C4C4C4" d="M0 0h3041v1864H0z"/></mask><g mask="url(#da)"><path d="M-111.836 1427.99V919.992c0-.321-.125-.42.135-.608 8.8-6.355 446.896-321.617 842.365-391.74 794.946-140.955 1400.496 137 1400.496 137v158.5S1118.5 593.5 847.5 957c-343.374 460.58-937.657 471.74-958.758 471.99-.555.01-.578-.44-.578-1z" fill="#404040"/><path d="M1078.16 3.981c528.83-27.574 1073.25 92.745 1089.7 96.415.46.101.38.417.38.885v608.596c0 .74-.38 1.418-1.04 1.097C2137.11 696.475 1463.42 377.409 889.5 591 302.666 809.396 360.435 1018.76-177.895 952.593c-.501-.061-.909-.491-.909-.996V317.231c0-.306-.093-.413.149-.601 8.079-6.273 346.668-265.192 1256.815-312.649z" fill="#4F4F4F"/><ellipse rx="145.282" ry="40.797" transform="scale(1 -1) rotate(.707 61025.276 117278.706)" fill="#EE6D8F"/><ellipse rx="155.878" ry="47.635" transform="scale(1 -1) rotate(18.613 2983.56 2932.25)" fill="#EE6D8F"/><ellipse rx="155.878" ry="62.743" transform="scale(1 -1) rotate(41.866 1725.255 492.228)" fill="#EE6D8F"/><ellipse rx="146.065" ry="77.74" transform="scale(1 -1) rotate(29.106 1874.95 1115.37)" fill="#EE6D8F"/><ellipse rx="107.8" ry="57.374" transform="scale(1 -1) rotate(14.17 3081.717 4022.776)" fill="#EE6D8F"/><ellipse rx="107.8" ry="41.968" transform="scale(1 -1) rotate(-3.284 -9711.951 -24361.19)" fill="#EE6D8F"/><ellipse rx="94.367" ry="34" transform="scale(1 -1) rotate(-7.177 -4207.803 -13732.383)" fill="#EE6D8F"/><ellipse rx="190.377" ry="101.324" transform="scale(1 -1) rotate(29.152 2114.92 323.775)" fill="#EE6D8F"/><ellipse rx="215.546" ry="114.719" transform="scale(1 -1) rotate(18.212 3503.006 -621.847)" fill="#EE6D8F"/><ellipse rx="155.878" ry="75.965" transform="scale(1 -1) rotate(29.503 2605.194 260.41)" fill="#EE6D8F"/><ellipse rx="155.878" ry="70.943" transform="scale(1 -1) rotate(9.014 8687.342 -374.25)" fill="#EE6D8F"/><ellipse rx="138.105" ry="80.422" transform="scale(1 -1) rotate(24.036 2568.984 -851.881)" fill="#EE6D8F"/><ellipse rx="156.63" ry="44.813" transform="scale(1 -1) rotate(-6.464 -5884.564 -16754.448)" fill="#EE6D8F"/></g></g><defs><clipPath id="dclip0"><path fill="#fff" d="M0 0h1920v1440H0z"/></clipPath></defs></svg><svg fill="none" viewBox="0 0 133 153" id="play" xmlns="http://www.w3.org/2000/svg"><g filter="url(#efilter0_d)"><path d="M108.122 80.753l-78.493 48.53C26.3 131.342 22 128.946 22 125.03V27.97c0-3.916 4.298-6.312 7.63-4.253l78.492 48.53c3.16 1.954 3.16 6.552 0 8.506z" fill="#fff"/></g><defs><filter id="efilter0_d" x="0" y=".962" width="132.492" height="151.076" filterUnits="userSpaceOnUse" color-interpolation-filters="sRGB"><feFlood flood-opacity="0" result="BackgroundImageFix"/><feColorMatrix in="SourceAlpha" values="0 0 0 0 0 0 0 0 0 0 0 0 0 0 0 0 0 0 127 0"/><feOffset/><feGaussianBlur stdDeviation="11"/><feColorMatrix values="0 0 0 0 0.475 0 0 0 0 0.475 0 0 0 0 0.475 0 0 0 1 0"/><feBlend in2="BackgroundImageFix" result="effect1_dropShadow"/><feBlend in="SourceGraphic" in2="effect1_dropShadow" result="shape"/></filter></defs></svg><svg fill="none" viewBox="0 0 1227 459" id="tentacle" xmlns="http://www.w3.org/2000/svg"><mask id="fa" maskUnits="userSpaceOnUse" x="0" y="0" width="1227" height="459"><path d="M-85.275 97.345l48.52-31.583a313.791 313.791 0 0184.558-38.614l6.895-1.98a411.271 411.271 0 0164.051-12.995l31.278-3.791h56.086l25.006 3.334a285.016 285.016 0 0164.123 16.297l5.208 1.99a242.19 242.19 0 0196.208 67.238l24.773 28.469 35.456 52.863 22.563 43.837 19.573 31.116a110.124 110.124 0 0012.705 16.499l7.255 7.773a70.04 70.04 0 0030.44 19.101l.9.279a66.821 66.821 0 0074.4-25.285l8.932-12.653a110.249 110.249 0 0013.243-25.096l17.57-47.191 15.235-40.788a145.78 145.78 0 0111.767-24.341l2.818-4.666a115.578 115.578 0 0166.774-51.277l1.857-.538a106.896 106.896 0 0192.254 15.944l.737.532a110.4 110.4 0 0132.704 37.304l5.047 9.389a156.63 156.63 0 0115.27 41.71l6.956 32.848 5.802 47.06 10.214 49.127a100.225 100.225 0 0011.55 30.087l5.055 8.666a64.861 64.861 0 0025.542 24.569l8.283 4.411c4.839 2.576 2.402 9.943-3.018 9.126a48.765 48.765 0 01-30.881-17.843l-8.673-10.892a84.198 84.198 0 01-11.59-19.435l-5.227-12.265a182.528 182.528 0 01-10.744-34.172l-7.917-37.825-14.182-50.929-12.981-30.885a88.894 88.894 0 00-15.513-24.619l-5.26-5.918c-10.271-11.555-24.424-19.219-39.694-21.63-8.473-1.338-17.229-1.01-25.568.998a65.286 65.286 0 00-36.209 23.332l-8.229 10.554a103.631 103.631 0 00-12.424 20.421l-20.76 45.153-20.547 51.597a206.177 206.177 0 01-21.379 40.128l-8.119 11.866a124.903 124.903 0 01-30.482 31.104l-1.499 1.071a114.566 114.566 0 01-77.516 20.814l-2.618-.251a128.907 128.907 0 01-44.681-12.694l-3.888-1.917a152.552 152.552 0 01-37.463-26.082l-.456-.432a156.693 156.693 0 01-31.772-42.464l-18.059-35.349-36.746-61.243-16.645-21.67a188.098 188.098 0 00-108.184-69l-6.202-1.385a220.06 220.06 0 00-47.959-5.29h-46.642l-60.11 7.456a322.829 322.829 0 00-131.732 46.846l-46.039 28.86v-74.78z" fill="#FF4878"><animate attributeName="d" values="M0.5 40.0013V187.5C107 154.999 250 97.5002 344 259C438 420.5 517.677 414.028 585 413C716 411 753.419 205.416 760.5 185.5C776.5 140.5 826.489 127.657 857 171.5C886.267 213.556 877.329 374.14 979.819 369.508C984.477 369.298 985.774 363.291 981.943 360.632C922.219 319.186 923.471 261.483 906.5 154.001C888.5 40.0013 716 -2.9987 672.5 154.001C629 311.001 544.5 356.501 460.5 175.001C376.5 -6.49886 172 -37.4987 0.5 40.0013Z; M0.5 40.0013V187.5C107 154.999 250 97.5002 344 259C438 420.5 517.677 414.028 585 413C716 411 738.919 260.916 746 241C762 196 806.489 197.157 837 241C865.616 282.121 904.33 366.622 977.094 333.229C981.63 331.147 979.961 325.28 974.974 325.481C935.249 327.085 898.767 327.356 883 227.5C865 113.5 739.5 82.5 673.5 198C607.5 313.5 528 353 460.5 175.001C393 -2.99756 172 -37.4987 0.5 40.0013Z; M0.5 40.0013V187.5C107 154.999 266.006 125 344 259C421.994 393 463.5 419 541.5 419C619.5 419 660.5 393 687.5 361.5C714.5 330 787.5 309.5 824 338.5C858.302 365.754 903.645 376.669 977.459 333.892C981.777 331.389 979.966 325.414 974.994 325.845C933.527 329.437 888.249 340.837 839.5 285.5C784 222.5 716 246.5 660.5 295.5C605 344.5 528 353 460.5 175.001C393 -2.99751 172 -37.4987 0.5 40.0013Z; M0.5 40.0013V187.5C107 154.999 250 97.5002 344 259C438 420.5 517.677 414.028 585 413C716 411 738.919 260.916 746 241C762 196 806.489 197.157 837 241C865.616 282.121 904.33 366.622 977.094 333.229C981.63 331.147 979.961 325.28 974.974 325.481C935.249 327.085 898.767 327.356 883 227.5C865 113.5 739.5 82.5 673.5 198C607.5 313.5 528 353 460.5 175.001C393 -2.99756 172 -37.4987 0.5 40.0013Z; M0.5 40.0013V187.5C107 154.999 266.006 125 344 259C421.994 393 463.5 419 541.5 419C619.5 419 660.5 393 687.5 361.5C714.5 330 787.5 309.5 824 338.5C858.302 365.754 903.645 376.669 977.459 333.892C981.777 331.389 979.966 325.414 974.994 325.845C933.527 329.437 888.249 340.837 839.5 285.5C784 222.5 716 246.5 660.5 295.5C605 344.5 528 353 460.5 175.001C393 -2.99751 172 -37.4987 0.5 40.0013Z; M0.5 40.0013V187.5C107 154.999 250 97.5002 344 259C438 420.5 517.677 414.028 585 413C716 411 738.919 260.916 746 241C762 196 806.489 197.157 837 241C865.616 282.121 904.33 366.622 977.094 333.229C981.63 331.147 979.961 325.28 974.974 325.481C935.249 327.085 898.767 327.356 883 227.5C865 113.5 739.5 82.5 673.5 198C607.5 313.5 528 353 460.5 175.001C393 -2.99756 172 -37.4987 0.5 40.0013Z; M0.5 40.0013V187.5C107 154.999 250 97.5002 344 259C438 420.5 517.677 414.028 585 413C716 411 753.419 205.416 760.5 185.5C776.5 140.5 826.489 127.657 857 171.5C886.267 213.556 877.329 374.14 979.819 369.508C984.477 369.298 985.774 363.291 981.943 360.632C922.219 319.186 923.471 261.483 906.5 154.001C888.5 40.0013 716 -2.9987 672.5 154.001C629 311.001 544.5 356.501 460.5 175.001C376.5 -6.49886 172 -37.4987 0.5 40.0013Z;" dur="30s" repeatCount="indefinite"/></path></mask><g mask="url(#fa)" style="transform-box:fill-box;transform-origin:50% 50%"><animateTransform xmlns="http://www.w3.org/2000/svg" attributeType="xml" attributeName="transform" type="skewY" dur="12s" begin="0" values="0; -3; 0; -8; 0; -1; 0;" repeatCount="indefinite"/><path d="M-85.275 97.345l48.52-31.583a313.791 313.791 0 0184.558-38.614l6.895-1.98a411.271 411.271 0 0164.051-12.995l31.278-3.791h56.086l25.006 3.334a285.016 285.016 0 0164.123 16.297l5.208 1.99a242.19 242.19 0 0196.208 67.238l24.773 28.469 35.456 52.863 22.563 43.837 19.573 31.116a110.124 110.124 0 0012.705 16.499l7.255 7.773a70.04 70.04 0 0030.44 19.101l.9.279a66.821 66.821 0 0074.4-25.285l8.932-12.653a110.249 110.249 0 0013.243-25.096l17.57-47.191 15.235-40.788a145.78 145.78 0 0111.767-24.341l2.818-4.666a115.578 115.578 0 0166.774-51.277l1.857-.538a106.896 106.896 0 0192.254 15.944l.737.532a110.4 110.4 0 0132.704 37.304l5.047 9.389a156.63 156.63 0 0115.27 41.71l6.956 32.848 5.802 47.06 10.214 49.127a100.225 100.225 0 0011.55 30.087l5.055 8.666a64.861 64.861 0 0025.542 24.569l8.283 4.411c4.839 2.576 2.402 9.943-3.018 9.126a48.765 48.765 0 01-30.881-17.843l-8.673-10.892a84.198 84.198 0 01-11.59-19.435l-5.227-12.265a182.528 182.528 0 01-10.744-34.172l-7.917-37.825-14.182-50.929-12.981-30.885a88.894 88.894 0 00-15.513-24.619l-5.26-5.918c-10.271-11.555-24.424-19.219-39.694-21.63-8.473-1.338-17.229-1.01-25.568.998a65.286 65.286 0 00-36.209 23.332l-8.229 10.554a103.631 103.631 0 00-12.424 20.421l-20.76 45.153-20.547 51.597a206.177 206.177 0 01-21.379 40.128l-8.119 11.866a124.903 124.903 0 01-30.482 31.104l-1.499 1.071a114.566 114.566 0 01-77.516 20.814l-2.618-.251a128.907 128.907 0 01-44.681-12.694l-3.888-1.917a152.552 152.552 0 01-37.463-26.082l-.456-.432a156.693 156.693 0 01-31.772-42.464l-18.059-35.349-36.746-61.243-16.645-21.67a188.098 188.098 0 00-108.184-69l-6.202-1.385a220.06 220.06 0 00-47.959-5.29h-46.642l-60.11 7.456a322.829 322.829 0 00-131.732 46.846l-46.039 28.86v-74.78z" fill="#FF4878"><animate attributeName="d" values="M0.5 40.0013V187.5C107 154.999 250 97.5002 344 259C438 420.5 517.677 414.028 585 413C716 411 753.419 205.416 760.5 185.5C776.5 140.5 826.489 127.657 857 171.5C886.267 213.556 877.329 374.14 979.819 369.508C984.477 369.298 985.774 363.291 981.943 360.632C922.219 319.186 923.471 261.483 906.5 154.001C888.5 40.0013 716 -2.9987 672.5 154.001C629 311.001 544.5 356.501 460.5 175.001C376.5 -6.49886 172 -37.4987 0.5 40.0013Z; M0.5 40.0013V187.5C107 154.999 250 97.5002 344 259C438 420.5 517.677 414.028 585 413C716 411 738.919 260.916 746 241C762 196 806.489 197.157 837 241C865.616 282.121 904.33 366.622 977.094 333.229C981.63 331.147 979.961 325.28 974.974 325.481C935.249 327.085 898.767 327.356 883 227.5C865 113.5 739.5 82.5 673.5 198C607.5 313.5 528 353 460.5 175.001C393 -2.99756 172 -37.4987 0.5 40.0013Z; M0.5 40.0013V187.5C107 154.999 266.006 125 344 259C421.994 393 463.5 419 541.5 419C619.5 419 660.5 393 687.5 361.5C714.5 330 787.5 309.5 824 338.5C858.302 365.754 903.645 376.669 977.459 333.892C981.777 331.389 979.966 325.414 974.994 325.845C933.527 329.437 888.249 340.837 839.5 285.5C784 222.5 716 246.5 660.5 295.5C605 344.5 528 353 460.5 175.001C393 -2.99751 172 -37.4987 0.5 40.0013Z; M0.5 40.0013V187.5C107 154.999 250 97.5002 344 259C438 420.5 517.677 414.028 585 413C716 411 738.919 260.916 746 241C762 196 806.489 197.157 837 241C865.616 282.121 904.33 366.622 977.094 333.229C981.63 331.147 979.961 325.28 974.974 325.481C935.249 327.085 898.767 327.356 883 227.5C865 113.5 739.5 82.5 673.5 198C607.5 313.5 528 353 460.5 175.001C393 -2.99756 172 -37.4987 0.5 40.0013Z; M0.5 40.0013V187.5C107 154.999 266.006 125 344 259C421.994 393 463.5 419 541.5 419C619.5 419 660.5 393 687.5 361.5C714.5 330 787.5 309.5 824 338.5C858.302 365.754 903.645 376.669 977.459 333.892C981.777 331.389 979.966 325.414 974.994 325.845C933.527 329.437 888.249 340.837 839.5 285.5C784 222.5 716 246.5 660.5 295.5C605 344.5 528 353 460.5 175.001C393 -2.99751 172 -37.4987 0.5 40.0013Z; M0.5 40.0013V187.5C107 154.999 250 97.5002 344 259C438 420.5 517.677 414.028 585 413C716 411 738.919 260.916 746 241C762 196 806.489 197.157 837 241C865.616 282.121 904.33 366.622 977.094 333.229C981.63 331.147 979.961 325.28 974.974 325.481C935.249 327.085 898.767 327.356 883 227.5C865 113.5 739.5 82.5 673.5 198C607.5 313.5 528 353 460.5 175.001C393 -2.99756 172 -37.4987 0.5 40.0013Z; M0.5 40.0013V187.5C107 154.999 250 97.5002 344 259C438 420.5 517.677 414.028 585 413C716 411 753.419 205.416 760.5 185.5C776.5 140.5 826.489 127.657 857 171.5C886.267 213.556 877.329 374.14 979.819 369.508C984.477 369.298 985.774 363.291 981.943 360.632C922.219 319.186 923.471 261.483 906.5 154.001C888.5 40.0013 716 -2.9987 672.5 154.001C629 311.001 544.5 356.501 460.5 175.001C376.5 -6.49886 172 -37.4987 0.5 40.0013Z;" dur="30s" repeatCount="indefinite"/></path><path d="M975.123 374.55h2.652l-2.701-2.7a59.577 59.577 0 00-9.592-7.783 59.643 59.643 0 01-16.23-15.683l-7.213-10.274a124.789 124.789 0 01-12.569-22.548l-1.291-3.013a156.246 156.246 0 01-10.273-34.486l-9.11-51.785-7.128-25.994a170.39 170.39 0 00-9.969-27.103l-6.17-13.197a108.773 108.773 0 00-31.092-39.272l-7.368-5.823a68.254 68.254 0 00-72.415-7.713l-2.981 1.465a77.788 77.788 0 00-22.003 16.14l-3.777 3.962a108.515 108.515 0 00-20.747 31.084l-11.683 26.482-16.117 43.192-9.6 23.632a194.009 194.009 0 01-17.61 33.527l-5.312 8.084a140.344 140.344 0 01-34.294 36.102l-3.566 2.615a112.957 112.957 0 01-32.075 16.399l-1.38.446a106.616 106.616 0 01-64.484.34l-1.118-.348a120.74 120.74 0 01-51.315-31.789l-8.821-9.216a170.165 170.165 0 01-22.451-29.229l-28.402-46.695-12.823-24.454a256.169 256.169 0 00-36.339-52.266l-2.933-3.264a225.294 225.294 0 00-48.577-40.712 225.536 225.536 0 00-54.699-24.616 226.058 226.058 0 00-64.497-9.407h-43.155l-38.774 3.969A377.567 377.567 0 00-57.77 145.343l-32.017 21.626 4.513 79.938 76.07-34.812 69.623-26.431 2.622-.683a478.208 478.208 0 01120.509-15.434l22.666 1.79a135.55 135.55 0 0184.017 38.133l2.234 2.18a155.637 155.637 0 0117.618 20.476l18.514 25.74 34.812 61.243A248.968 248.968 0 00415.641 379l3.424 2.846a208.773 208.773 0 0024.005 17.228l3.005 1.849a178.723 178.723 0 0037.874 17.58 178.742 178.742 0 0051.627 8.881l28.97.673h3.539c20.252 0 40.338-3.655 59.291-10.791l2.812-1.058a150.183 150.183 0 0081.411-73.386l7.446-14.893a228.646 228.646 0 0015.024-38.338l9.048-31.08 16.117-44.482 10.952-27.583a44.23 44.23 0 0122.278-23.7 44.246 44.246 0 0134.662-1.282 44.273 44.273 0 0120.467 15.999l8.223 11.779a91.07 91.07 0 0112.044 24.313l6.769 21.103 2.886 14.697a258.93 258.93 0 0011.932 41.804l4.069 10.743a133.218 133.218 0 0010.639 21.837l9.949 16.429a71.336 71.336 0 0061.019 34.382z" fill="#C03B5E"><animate attributeName="d" values="M280.5 93.5C172 54.9999 1.5 110 1.5 110L0.5 199.5C0.5 199.5 133 156 179 160.5C225 165 278.5 167.5 351.5 294.5C424.5 421.5 529.805 416.636 565 421.5C626.5 430 721.5 385 748.5 244.5C775.5 104 856.301 145.848 868 210.5C896.5 368 941 369.5 980 369.5C963 367 933.318 360 913 288.5C892.682 217 882.259 138.011 843 112C787.024 74.9138 738.274 133.112 718 190.5C667.658 333 606 391 508 345C410 299 389 132 280.5 93.5Z; M280.5 93.4999C126 38.6773 1.5 110 1.5 110L0.5 199.5C0.5 199.5 133 156 179 160.5C225 165 278.5 167.5 351.5 294.5C424.5 421.5 529.805 416.636 565 421.5C626.5 430 714.359 385.5 733 288.5C751.641 191.5 825.5 230 850.5 272.5C875.5 315 919.5 353 958 339.5C914.5 347 880 303.5 860 270C840 236.5 832 224.5 802 209.5C772 194.5 725.825 197 693.5 288.5C661.175 380 554.167 409 461.5 339.5C368.833 270 435 148.323 280.5 93.4999Z; M245.5 95C91 40.1774 1.5 110 1.5 110L0.5 199.5C0.5 199.5 133 156 179 160.5C225 165 278.5 167.5 351.5 294.5C424.5 421.5 500.805 422.136 536 427C597.5 435.5 681.5 381.5 709.5 357.5C737.5 333.5 798.5 314 827.5 349.5C856.5 385 979 353.5 980 329.5C906 375 860.5 360 837.5 334.5C814.5 309 785.5 305.238 747.5 309C709.5 312.762 698 334 657 366C616 398 519.5 384.5 461.5 339.5C403.5 294.5 400 149.823 245.5 95Z; M280.5 93.4999C126 38.6773 1.5 110 1.5 110L0.5 199.5C0.5 199.5 133 156 179 160.5C225 165 278.5 167.5 351.5 294.5C424.5 421.5 529.805 416.636 565 421.5C626.5 430 714.359 385.5 733 288.5C751.641 191.5 825.5 230 850.5 272.5C875.5 315 919.5 353 958 339.5C914.5 347 880 303.5 860 270C840 236.5 832 224.5 802 209.5C772 194.5 725.825 197 693.5 288.5C661.175 380 554.167 409 461.5 339.5C368.833 270 435 148.323 280.5 93.4999Z; M245.5 95C91 40.1774 1.5 110 1.5 110L0.5 199.5C0.5 199.5 133 156 179 160.5C225 165 278.5 167.5 351.5 294.5C424.5 421.5 500.805 422.136 536 427C597.5 435.5 681.5 381.5 709.5 357.5C737.5 333.5 798.5 314 827.5 349.5C856.5 385 979 353.5 980 329.5C906 375 860.5 360 837.5 334.5C814.5 309 785.5 305.238 747.5 309C709.5 312.762 698 334 657 366C616 398 519.5 384.5 461.5 339.5C403.5 294.5 400 149.823 245.5 95Z; M280.5 93.4999C126 38.6773 1.5 110 1.5 110L0.5 199.5C0.5 199.5 133 156 179 160.5C225 165 278.5 167.5 351.5 294.5C424.5 421.5 529.805 416.636 565 421.5C626.5 430 714.359 385.5 733 288.5C751.641 191.5 825.5 230 850.5 272.5C875.5 315 919.5 353 958 339.5C914.5 347 880 303.5 860 270C840 236.5 832 224.5 802 209.5C772 194.5 725.825 197 693.5 288.5C661.175 380 554.167 409 461.5 339.5C368.833 270 435 148.323 280.5 93.4999Z; M280.5 93.5C172 54.9999 1.5 110 1.5 110L0.5 199.5C0.5 199.5 133 156 179 160.5C225 165 278.5 167.5 351.5 294.5C424.5 421.5 529.805 416.636 565 421.5C626.5 430 721.5 385 748.5 244.5C775.5 104 856.301 145.848 868 210.5C896.5 368 941 369.5 980 369.5C963 367 933.318 360 913 288.5C892.682 217 882.259 138.011 843 112C787.024 74.9138 738.274 133.112 718 190.5C667.658 333 606 391 508 345C410 299 389 132 280.5 93.5Z;" dur="30s" repeatCount="indefinite"/></path></g></svg></svg>