<svg width="50" height="31" viewBox="0 0 50 31" fill="none" xmlns="http://www.w3.org/2000/svg">
<path d="M12.2947 30.5267C9.96491 30.5267 7.85965 29.9373 5.97895 28.7583C4.12632 27.5794 2.66667 25.8671 1.6 23.6215C0.533333 21.3478 0 18.5969 0 15.3688C0 12.1408 0.533333 9.40392 1.6 7.15831C2.66667 4.88462 4.12632 3.15831 5.97895 1.97936C7.85965 0.800411 9.96491 0.210938 12.2947 0.210938C14.6526 0.210938 16.7579 0.800411 18.6105 1.97936C20.4632 3.15831 21.9228 4.88462 22.9895 7.15831C24.0842 9.40392 24.6316 12.1408 24.6316 15.3688C24.6316 18.5969 24.0842 21.3478 22.9895 23.6215C21.9228 25.8671 20.4632 27.5794 18.6105 28.7583C16.7579 29.9373 14.6526 30.5267 12.2947 30.5267ZM12.2947 25.7688C13.6702 25.7688 14.8632 25.4039 15.8737 24.6741C16.8842 23.9162 17.6702 22.7653 18.2316 21.2215C18.8211 19.6776 19.1158 17.7267 19.1158 15.3688C19.1158 12.9829 18.8211 11.032 18.2316 9.5162C17.6702 7.97234 16.8842 6.8355 15.8737 6.10567C14.8632 5.34778 13.6702 4.96883 12.2947 4.96883C10.9754 4.96883 9.79649 5.34778 8.75789 6.10567C7.74737 6.8355 6.94737 7.97234 6.35789 9.5162C5.79649 11.032 5.51579 12.9829 5.51579 15.3688C5.51579 17.7267 5.79649 19.6776 6.35789 21.2215C6.94737 22.7653 7.74737 23.9162 8.75789 24.6741C9.79649 25.4039 10.9754 25.7688 12.2947 25.7688Z" fill="white" fill-opacity="0.1"/>
<path d="M27.9105 30.1057V26.4425L39.6158 15.3267C40.5982 14.4004 41.3281 13.5864 41.8053 12.8846C42.2825 12.1829 42.5912 11.5373 42.7316 10.9478C42.9 10.3302 42.9842 9.7548 42.9842 9.22146C42.9842 7.8741 42.521 6.8355 41.5947 6.10567C40.6684 5.34778 39.307 4.96883 37.5105 4.96883C36.0789 4.96883 34.7737 5.22146 33.5947 5.72673C32.4439 6.23199 31.4474 7.00392 30.6053 8.04252L26.7737 5.09515C27.9246 3.55129 29.4684 2.35831 31.4053 1.5162C33.3702 0.646025 35.5597 0.210938 37.9737 0.210938C40.107 0.210938 41.9596 0.561814 43.5316 1.26357C45.1316 1.93725 46.3526 2.90567 47.1947 4.16883C48.0649 5.43199 48.5 6.93374 48.5 8.6741C48.5 9.62848 48.3737 10.5829 48.1211 11.5373C47.8684 12.4636 47.3912 13.446 46.6895 14.4846C45.9877 15.5232 44.9632 16.6881 43.6158 17.9794L33.5526 27.5373L32.4158 25.4741H49.6368V30.1057H27.9105Z" fill="white" fill-opacity="0.1"/>
</svg>
