<svg width="22" height="29" viewBox="0 0 22 29" fill="none" xmlns="http://www.w3.org/2000/svg"><path d="M21 10.649C21 5.32 16.523 1 11 1S1 5.32 1 10.649v.581c0 2.132.69 4.211 1.975 5.946L10.98 27.99c.01.013.03.013.04 0l8.005-10.814A9.988 9.988 0 0021 11.23v-.581z" stroke="#FF4978" stroke-width="2" stroke-linecap="round" stroke-linejoin="round"/><path d="M9.045 6.79a4.653 4.653 0 013.91 0c1.235.574 2.132 1.66 2.437 2.95a4.23 4.23 0 01-.87 3.676A4.568 4.568 0 0111 15.053a4.568 4.568 0 01-3.522-1.637 4.23 4.23 0 01-.87-3.677C6.913 8.45 7.81 7.364 9.045 6.79z" stroke="#FF4978" stroke-width="2" stroke-linecap="round" stroke-linejoin="round"/></svg>