<svg width="250" height="311" viewBox="0 0 250 311" fill="none" xmlns="http://www.w3.org/2000/svg"><path d="M0 41c0-14.36 11.64-26 26-26h210c7.732 0 14 6.268 14 14v268c0 7.732-6.268 14-14 14H26c-14.36 0-26-11.641-26-26V41z" fill="#fff"/><path fill-rule="evenodd" clip-rule="evenodd" d="M236 23H26c-9.941 0-18 8.059-18 18v244c0 9.941 8.059 18 18 18h210a6 6 0 006-6V29a6 6 0 00-6-6zM26 15C11.64 15 0 26.64 0 41v244c0 14.359 11.64 26 26 26h210c7.732 0 14-6.268 14-14V29c0-7.732-6.268-14-14-14H26z" fill="#393736"/><path d="M8 40c0-7.18 5.82-13 13-13h208a7 7 0 017 7v226H8V40z" fill="#E04C34"/><path d="M0 273c0-11.046 8.954-20 20-20h230v52a6 6 0 01-6 6H20c-11.046 0-20-8.954-20-20v-18z" fill="#fff"/><path fill-rule="evenodd" clip-rule="evenodd" d="M242 261H20c-6.627 0-12 5.373-12 12v18c0 6.627 5.373 12 12 12h222v-42zm-222-8c-11.046 0-20 8.954-20 20v18c0 11.046 8.954 20 20 20h224a6 6 0 006-6v-52H20z" fill="#393736"/><path d="M236 297a4 4 0 01-4 4H17a9 9 0 01-9-9v-19c0-6.627 5.373-12 12-12h216v36z" fill="#FFD6B8"/><rect x="27" y="16" width="7" height="60" rx="3.5" fill="#393736"/><rect x="27.244" y="85.4" width="6.41" height="35.2" rx="3.205" fill="#393736"/><rect x="27.244" y="215" width="6.41" height="11.2" rx="3.205" fill="#393736"/><rect x="27.244" y="237.4" width="6.41" height="27.2" rx="3.205" fill="#393736"/></svg>