<svg width="1920" height="1794" viewBox="0 0 1920 1794" fill="none" xmlns="http://www.w3.org/2000/svg"><mask id="mask0" maskUnits="userSpaceOnUse" x="-354" y="0" width="3042" height="1794"><path fill="#C4C4C4" d="M-353.341 0h3040.7v1793.61h-3040.7z"/></mask><g mask="url(#mask0)"><path d="M2080 1702.44v-576.45c0-.32.12-.42-.14-.61-8.8-6.35-446.89-321.613-842.36-391.736-794.948-140.955-1400.5 137-1400.5 137v158.496S445 679.981 902 911.481c437.42 221.579 1143.22 766.099 1176.76 792.039.66.51 1.24-.25 1.24-1.08z" fill="#0E0F1A"/><path d="M890 209.981c-528.825-27.574-1073.244 92.745-1089.697 96.415-.456.101-.382.417-.382.885v608.861c0 .668.278 1.256.919 1.068 26.778-7.861 633.122-184.229 1131.66-184.229 509.38 0 737.26 190.329 1213.01 424.779.66.33 1.46-.15 1.46-.89V523.231c0-.306.09-.413-.15-.601-8.08-6.273-346.67-265.192-1256.82-312.649z" fill="#121423"/></g><ellipse cx="525.334" cy="833.327" rx="145.282" ry="40.797" transform="rotate(178.387 525.334 833.327)" fill="#EE6D8F"/><ellipse cx="899.832" cy="917.925" rx="155.878" ry="60.015" transform="rotate(-152.379 899.832 917.925)" fill="#EE6D8F"/><ellipse cx="1239.26" cy="1110.23" rx="155.878" ry="62.743" transform="rotate(-149.739 1239.26 1110.23)" fill="#EE6D8F"/><ellipse cx="1190.31" cy="876.657" rx="146.065" ry="77.74" transform="rotate(-154.426 1190.31 876.657)" fill="#EE6D8F"/><ellipse cx="1554.78" cy="1034.28" rx="154.429" ry="82.191" transform="rotate(-154.426 1554.78 1034.28)" fill="#EE6D8F"/><ellipse cx="1618.84" cy="1333.46" rx="155.878" ry="82.963" transform="rotate(-151.034 1618.84 1333.46)" fill="#EE6D8F"/><ellipse cx="1918.78" cy="1212.28" rx="154.429" ry="82.191" transform="rotate(-154.426 1918.78 1212.28)" fill="#EE6D8F"/><ellipse cx="1989.26" cy="1540.8" rx="155.878" ry="82.963" transform="rotate(-165.26 1989.26 1540.8)" fill="#EE6D8F"/><ellipse cx="114.873" cy="900.507" rx="156.63" ry="44.813" transform="rotate(165.327 114.873 900.507)" fill="#EE6D8F"/></svg>