<svg width="32" height="22" viewBox="0 0 32 22" fill="none" xmlns="http://www.w3.org/2000/svg"><path d="M1.43 19.838l3.223-8.704C5.166 9.75 6.526 8.826 8.05 8.826M1.43 19.838c-.21.566.226 1.162.85 1.162h22.695c.762 0 1.442-.462 1.698-1.154l3.22-8.696c.42-1.132-.45-2.324-1.698-2.324H8.05M1.43 19.838a.832.832 0 00-.019.528A1.695 1.695 0 011 19.261V2.739C1 1.78 1.807 1 2.803 1h4.974c.581 0 1.127.27 1.466.727l1.89 2.545c.096.13.25.206.416.206h12.894c.995 0 1.803.779 1.803 1.74v2.608H8.05" stroke="#FF4978" stroke-width="2" stroke-linecap="round" stroke-linejoin="round"/></svg>