<svg width="405" height="405" viewBox="0 0 405 405" fill="none" xmlns="http://www.w3.org/2000/svg"><circle cx="202.5" cy="202.5" r="202" stroke="#fff"/><path fill-rule="evenodd" clip-rule="evenodd" d="M384.155 209.249c.113.228.23.362.427.49l.271.177 6.312.015 6.312.016.13-.128.129-.129v-7.401c0-7.253-.002-7.405-.108-7.516a.625.625 0 00-.292-.149c-.079-.015-1.832-.024-4.202-.022-.659 0-1.367.002-2.099.004l-6.117.017-.231.13c-.284.16-.539.477-.624.774-.045.161-.063 2.045-.063 6.816v6.593l.155.313zm2.403-16.448c.072.24.322.495.553.562.125.037 2.358.058 6.023.059h5.826v6.586l.208-.211c.42-.425 1.058-.77 1.78-.962.054-.015.069-.764.069-3.501v-3.482l-.292-.073c-.601-.149-1.094-.449-1.575-.96-.679-.721-.98-1.481-.975-2.461.008-1.627 1.06-3.031 2.532-3.378l.31-.073v-3.619l-.136-.144c-.132-.139-.164-.144-.893-.144-.728 0-.76.005-.892.144-.127.133-.136.185-.136.732v.589l-2.906.001c-3.219.001-3.378.015-4.041.366-.201.107-1.217.799-2.257 1.539-2.059 1.464-2.531 1.881-2.85 2.522-.355.713-.366.811-.383 3.394-.008 1.291.007 2.42.035 2.514zm2.322-5.295c.265-.304 2.912-2.229 3.065-2.229.077 0 .197.058.268.128l.129.127v2.832c0 2.753-.003 2.835-.111 2.948-.106.112-.186.118-1.693.118h-1.58l-.116-.155c-.11-.148-.115-.223-.115-1.874v-1.719l.153-.176zm10.216 23.35c.132.139.164.144.892.144.729 0 .761-.005.893-.144l.136-.144v-4.915l-.292-.073c-.535-.134-1.098-.464-1.529-.898l-.236-.237v6.123l.136.144zm-.076-8.007c.082.444.361.986.679 1.32 1.003 1.058 2.571 1.056 3.577-.004 1.327-1.399.745-3.811-1.063-4.401-.361-.118-1.088-.117-1.458.002-1.238.399-1.987 1.731-1.735 3.083zm.041-13.792c.182.683.565 1.226 1.111 1.573 1.286.819 2.939.307 3.577-1.107.608-1.348.075-2.921-1.203-3.551-1.92-.947-4.055.943-3.485 3.085zm1.283 12.714a1.37 1.37 0 01.722-.7c.484-.18.909-.075 1.294.319.839.857.194 2.318-.977 2.215-.849-.074-1.392-1.032-1.039-1.834zm-.051-13.798c.137-.518.648-.903 1.197-.903 1.23 0 1.706 1.659.689 2.401-.213.156-.277.172-.693.172-.421 0-.479-.015-.698-.177-.44-.326-.642-.936-.495-1.493z" fill="#fff"/><path d="M393.134 194.602c2.37-.002 4.123.007 4.202.022v-1.202h-4.202v1.18z" fill="#fff"/></svg>