<svg width="79" height="79" viewBox="0 0 79 79" fill="none" xmlns="http://www.w3.org/2000/svg"><circle cx="39.5" cy="39.5" r="39.5" fill="#F16B84"/><path fill-rule="evenodd" clip-rule="evenodd" d="M40.756 19.565c-1.67.18-3.021 1.473-3.305 3.16-.306 1.82.963 3.717 2.802 4.188 2.18.559 4.362-.84 4.747-3.045.298-1.71-.786-3.534-2.445-4.115-.49-.17-1.235-.249-1.799-.188zm1.465 1.585c.537.227 1.087.817 1.272 1.364.316.935-.022 2.032-.809 2.622-.473.355-.84.468-1.518.468a2.292 2.292 0 01-2.31-2.467c.118-1.67 1.786-2.655 3.365-1.987zm-14.067 3.866c-3.027.365-5.72 1.85-7.45 4.109-.643.839-1.316 2.204-1.58 3.202-.259.985-.347 2.552-.199 3.547.603 4.052 4.058 7.369 8.5 8.16 1.03.183 2.857.183 3.885 0 4.134-.736 7.39-3.618 8.339-7.382.236-.936.293-2.504.127-3.499-.428-2.562-2.018-4.908-4.339-6.403-1.233-.795-2.411-1.27-3.927-1.585-.625-.13-2.739-.224-3.356-.15zm2.882 1.505a9.587 9.587 0 012.783.922c2.218 1.117 3.79 2.995 4.418 5.282.124.449.153.82.148 1.91-.005 1.232-.024 1.414-.223 2.05-.831 2.672-2.955 4.737-5.793 5.633-5.036 1.591-10.453-1.032-11.83-5.729-.469-1.597-.309-3.585.415-5.154.567-1.23 1.8-2.658 2.952-3.42a10.317 10.317 0 013.722-1.488c.873-.153 2.521-.156 3.408-.006zm18.603.2c-4.741.725-8.225 4.92-7.94 9.558.06.976.32 2.071.725 3.048.28.672.28.679.107.712-1.669.323-2.718.674-3.746 1.254-3.76 2.12-5.581 6.081-4.57 9.945.913 3.486 4.043 6.2 7.925 6.872.93.16 2.703.159 3.667-.005 2.508-.424 4.906-1.842 6.388-3.775 1.979-2.584 2.34-6.108.914-8.944-.152-.303-.257-.57-.233-.594.024-.024.343-.127.71-.23 2.422-.68 4.584-2.457 5.726-4.705.728-1.433 1.008-2.743.944-4.427-.091-2.418-.965-4.377-2.717-6.094-1.357-1.328-2.666-2.037-4.623-2.5-.632-.15-2.597-.22-3.277-.115zm3.396 1.584a8.643 8.643 0 012.38 1.072c.633.413 1.746 1.521 2.142 2.132 1.54 2.371 1.724 5.181.501 7.66-1.08 2.191-3.125 3.724-5.635 4.224-.993.198-2.617.125-3.594-.161-2.7-.792-4.733-2.831-5.476-5.495-.15-.535-.178-.843-.178-1.949 0-1.54.125-2.115.722-3.335 1.093-2.233 2.998-3.698 5.549-4.265.783-.174 2.748-.11 3.589.117zm-24.063 1.24c-.733.157-1.765.684-2.341 1.197-2.373 2.111-2.314 5.783.125 7.77 1.008.822 2.064 1.197 3.38 1.202 1.454.006 2.628-.483 3.69-1.536 2.203-2.184 2-5.652-.445-7.63-1.15-.928-2.895-1.325-4.41-1.002zm20.586.427c-1.051.304-1.895.83-2.5 1.562-2.068 2.495-.863 6.06 2.437 7.209.666.232 2.059.288 2.814.113 2.39-.552 4.009-2.729 3.686-4.954-.273-1.882-1.766-3.452-3.764-3.959-.663-.168-2.042-.153-2.673.03zm-18.305 1.043c1.056.32 1.882 1.054 2.376 2.11.295.63.36 1.71.15 2.474-.256.929-1.026 1.86-1.894 2.293-2.349 1.17-5.08-.177-5.525-2.726-.318-1.823.838-3.604 2.725-4.198.51-.161 1.559-.138 2.168.047zm20.414.244c1.142.206 2.169.965 2.646 1.958.234.486.261.617.261 1.26 0 .649-.024.768-.261 1.242-1.268 2.532-5.328 2.436-6.563-.156-.188-.395-.215-.552-.215-1.248 0-.741.019-.836.266-1.33.655-1.308 2.244-2.017 3.866-1.726zM22.57 32.367v.716h1.538V31.65h-1.537v.716zm-.792 2.205l.024.699h1.538v-1.353l-.793-.023-.792-.022.023.699zm.793 2.25v.717h1.537v-1.433h-1.537v.716zm32.449 1.472v.677h1.537v-1.353H55.02v.676zm-1.538 2.228v.677h1.619v-1.353h-1.619v.676zm-9.357 1.43c.998 1.092 2.457 2.026 3.911 2.505.787.26 2.05.48 2.75.48.497.001.578.087 1.082 1.144.559 1.173.799 2.6.644 3.828-.362 2.866-2.39 5.29-5.339 6.385-1.262.468-2.851.659-4.206.504-3.16-.361-5.81-2.193-6.99-4.832-1.117-2.497-.658-5.406 1.2-7.602 1.395-1.649 3.91-2.857 6.237-2.996.114-.007.344.181.711.583zm-.596 3.704c-1.683.288-3.143 1.571-3.662 3.22-.218.694-.236 1.86-.039 2.487.311.987.884 1.823 1.638 2.386 1.937 1.449 4.392 1.298 6.117-.377.937-.909 1.368-1.925 1.368-3.222 0-2.809-2.613-4.974-5.422-4.494zm-6.716 1.354v.72l.708-.024.708-.023.023-.696.023-.696h-1.462v.72zm-11.396-.08c-1 .258-1.595.596-2.371 1.349-.577.56-.754.795-1.023 1.354-.42.873-.538 1.377-.536 2.307.004 1.398.511 2.559 1.572 3.594 2.487 2.425 6.578 1.78 8.252-1.301.35-.644.566-1.548.566-2.368 0-3.294-3.235-5.766-6.46-4.935zm19.908.242c1.525.505 2.446 1.994 2.167 3.505-.564 3.063-4.74 3.615-6.091.805-.234-.487-.258-.606-.256-1.292.002-.6.04-.851.188-1.216.344-.85 1.32-1.68 2.219-1.89.507-.118 1.265-.081 1.773.087zm-17.57 1.155a3.656 3.656 0 012.678 3.534c.017 3.28-3.88 4.958-6.333 2.725-1.579-1.438-1.588-3.865-.02-5.38.902-.872 2.428-1.237 3.675-.88zm22.652 1.465v.716h1.457v-1.432h-1.457v.716zm5.358 3.985c-.53.205-1.207.84-1.478 1.386-.167.337-.198.513-.198 1.153 0 .628.032.82.186 1.127.882 1.76 3.166 2.148 4.524.77.796-.808 1.021-1.995.563-2.97a3.037 3.037 0 00-1.308-1.375c-.568-.29-1.664-.334-2.29-.091zm1.821 1.446c.32.213.59.718.59 1.106 0 .44-.316.944-.725 1.157-.424.22-.742.229-1.183.032-1.072-.478-1.072-1.915 0-2.408a1.397 1.397 0 011.318.113z" fill="#fff"/></svg>