<svg width="67" height="44" viewBox="0 0 67 44" fill="none" xmlns="http://www.w3.org/2000/svg"><path d="M65 22a34.67 34.67 0 01-4.314 6.938A34.802 34.802 0 0133.5 42 34.802 34.802 0 016.314 28.938 34.668 34.668 0 012 22a34.665 34.665 0 014.314-6.939A34.802 34.802 0 0133.5 2a34.802 34.802 0 0127.186 13.062A34.664 34.664 0 0165 22z" stroke="#fff" stroke-width="3" stroke-linecap="round" stroke-linejoin="round"/><path d="M28.736 31.87a11.003 11.003 0 009.528 0 10.96 10.96 0 005.941-7.432 10.937 10.937 0 00-2.12-9.269 10.99 10.99 0 00-8.585-4.125 10.99 10.99 0 00-8.585 4.125 10.937 10.937 0 00-2.12 9.269 10.96 10.96 0 005.94 7.433z" stroke="#fff" stroke-width="3" stroke-linecap="round" stroke-linejoin="round"/></svg>