<svg width="404" height="180" viewBox="0 0 404 180" fill="none" xmlns="http://www.w3.org/2000/svg"><path fill-rule="evenodd" clip-rule="evenodd" d="M246.943.88c4.278.61 7.965 1.296 8.193 1.524 8.593 1.646 28.183 6.296 37.797 11.73l6.632 3.668c24.569 13.587 46.738 34.946 62.323 60.048 12.56 20.232 22.752 48.955 24.738 69.72.8 8.356.754 8.28 4.989 8.284 7.36.005 12.287 5.225 11.752 12.449-.358 4.845-2.221 7.824-6.144 9.824-2.553 1.302-13.508 1.379-195.516 1.379-182.008 0-192.964-.077-195.516-1.379-3.923-2-5.786-4.979-6.144-9.824-.363-4.907 1.388-8.379 5.49-10.879 2.445-1.492 4.025-1.568 32.624-1.57l30.055-.004.544-6.111c1.495-16.797 8.467-40.696 16.642-57.043 24.22-48.434 67.505-82.075 117.094-91.005C212.728-.152 236.643-.59 246.943.88zM270.8 97.494c0-4.263 1.428-6.887 5.336-9.808 2.038-1.523 3.335-1.635 20.456-1.758 10.053-.072 18.988.058 19.856.29.867.23 2.558 1.116 3.758 1.968 6.272 4.45 6.066 14.298-.395 18.906-2.529 1.804-2.922 1.837-22.035 1.837-18.424 0-19.575-.087-21.637-1.626-3.909-2.919-5.339-5.545-5.339-9.809zm0 32.421c0-4.785 2.171-8.381 6.253-10.357 2.918-1.413 4.897-1.56 20.915-1.559 19.817.001 21.597.389 24.97 5.439 2.289 3.424 2.397 8.934.245 12.462-2.87 4.708-4.201 4.967-25.425 4.964-17.603-.002-19.368-.128-21.683-1.539-3.63-2.214-5.275-5.148-5.275-9.41z" fill="#6496FF"/></svg>