<svg width="1382" height="591" viewBox="0 0 1382 591" fill="none" xmlns="http://www.w3.org/2000/svg">
<g clip-path="url(#clip0_2530_4889)">
<path d="M1159.6 294C1148.67 294 1138.6 292.2 1129.4 288.6C1120.2 285 1112.2 280 1105.4 273.6C1098.6 267.067 1093.33 259.467 1089.6 250.8C1085.87 242 1084 232.4 1084 222C1084 211.6 1085.87 202.067 1089.6 193.4C1093.33 184.6 1098.6 177 1105.4 170.6C1112.2 164.067 1120.2 159 1129.4 155.4C1138.6 151.8 1148.6 150 1159.4 150C1170.33 150 1180.33 151.8 1189.4 155.4C1198.6 159 1206.6 164.067 1213.4 170.6C1220.2 177 1225.47 184.6 1229.2 193.4C1232.93 202.067 1234.8 211.6 1234.8 222C1234.8 232.4 1232.93 242 1229.2 250.8C1225.47 259.6 1220.2 267.2 1213.4 273.6C1206.6 280 1198.6 285 1189.4 288.6C1180.33 292.2 1170.4 294 1159.6 294ZM1159.4 271.2C1166.47 271.2 1173 270 1179 267.6C1185 265.2 1190.2 261.8 1194.6 257.4C1199 252.867 1202.4 247.667 1204.8 241.8C1207.33 235.8 1208.6 229.2 1208.6 222C1208.6 214.8 1207.33 208.267 1204.8 202.4C1202.4 196.4 1199 191.2 1194.6 186.8C1190.2 182.267 1185 178.8 1179 176.4C1173 174 1166.47 172.8 1159.4 172.8C1152.33 172.8 1145.8 174 1139.8 176.4C1133.93 178.8 1128.73 182.267 1124.2 186.8C1119.8 191.2 1116.33 196.4 1113.8 202.4C1111.4 208.267 1110.2 214.8 1110.2 222C1110.2 229.067 1111.4 235.6 1113.8 241.6C1116.33 247.6 1119.8 252.867 1124.2 257.4C1128.6 261.8 1133.8 265.2 1139.8 267.6C1145.8 270 1152.33 271.2 1159.4 271.2Z" fill="white"/>
<path d="M999.539 291.668V173.668H953.139V151.668H1071.94V173.668H1025.54V291.668H999.539Z" fill="white"/>
<path d="M816.271 291.668L879.271 151.668H904.871L968.071 291.668H940.871L886.671 165.468H897.071L843.071 291.668H816.271ZM845.271 259.268L852.271 238.868H927.871L934.871 259.268H845.271Z" fill="white"/>
<path d="M972.378 287.979L974.905 287.174L971.512 285.421C967.844 283.525 963.99 282.016 960.01 280.916C952.692 278.895 945.828 275.495 939.785 270.899L929.794 263.3C922.927 258.077 916.62 252.156 910.974 245.631L908.83 243.152C900.955 234.052 894.158 224.072 888.573 213.411L864.174 166.835L849.493 144.231C844.24 136.144 838.31 128.517 831.767 121.433L821.882 110.731C810.399 98.2988 796.173 88.7176 780.337 82.7492L771.549 79.4375C761.811 75.7673 751.362 74.3727 741.002 75.3603C725.684 76.8204 711.309 83.4134 700.209 94.0696L697.814 96.3696C691.201 102.718 685.762 110.186 681.748 118.428L679.352 123.349C673.856 134.633 670.36 146.784 669.019 159.264L665.925 188.042L663.679 234.089L661.705 259.519C660.726 272.135 658.514 284.625 655.103 296.81L652.495 306.126C647.984 322.237 640.63 337.411 630.778 350.933L628.174 354.508C621.057 364.276 612.419 372.838 602.589 379.869L601.41 380.712C588.38 390.033 573.416 396.297 557.631 399.039C551.831 400.046 545.958 400.572 540.071 400.61L538.9 400.617C518.455 400.749 498.311 395.687 480.357 385.904L469.155 379.801C458.335 373.905 448.188 366.852 438.891 358.766L397.656 322.895L378.015 303.487C362.862 288.515 345.902 275.491 327.525 264.717L323.74 262.498C305.424 251.759 285.681 243.663 265.098 238.451C245.639 233.524 225.576 231.22 205.507 231.6C183.683 232.012 161.997 235.588 141.198 242.214L100.08 255.313L64.3393 270.864C37.9425 282.35 12.9458 296.817 -10.1635 313.983C-36.8317 333.792 -60.769 357.034 -81.3553 383.108L-105.298 413.431L-76.7337 488.228L-14.8192 431.969L43.4967 385.651L45.7872 384.205C80.1703 362.497 117.182 345.263 155.926 332.92L178.065 327.745C195.051 323.775 212.643 323.121 229.876 325.818C243.728 327.986 257.161 332.29 269.694 338.577L272.484 339.976C280.547 344.021 288.243 348.76 295.486 354.139L320.94 373.044L372.699 420.831C392.994 438.117 415.935 452.032 440.643 462.043L444.77 463.715C453.909 467.418 463.3 470.468 472.871 472.843L476.296 473.693C489.851 477.057 503.754 478.821 517.72 478.947C535.275 479.106 552.759 476.677 569.606 471.738L597.414 463.587L600.786 462.513C620.083 456.365 638.111 446.785 654.004 434.234L656.362 432.372C669.311 422.145 680.486 409.855 689.438 395.995C700.838 378.344 708.408 358.497 711.657 337.737L714.231 321.287C716.358 307.698 717.254 293.946 716.909 280.197L716.096 247.837L717.951 200.562L720.014 170.955C720.795 159.747 725.812 149.256 734.046 141.611C742.871 133.419 754.662 129.178 766.684 129.869C775.522 130.376 784.01 133.522 791.042 138.901L802.452 147.627C809.676 153.153 816.032 159.729 821.308 167.138L834.163 185.191L841.374 198.318C848.364 211.041 856.412 223.154 865.432 234.528L872.57 243.529C877.612 249.886 883.223 255.77 889.335 261.107L903.802 273.74C914.649 283.213 928.109 289.18 942.412 290.858C952.492 292.041 962.708 291.059 972.378 287.979Z" fill="#C03B5E"/>
<path d="M-122.132 345.723L-85.4887 300.903C-75.5261 288.717 -64.6607 277.298 -52.9845 266.742C-41.5793 256.432 -29.4318 246.973 -16.6401 238.444L-10.6717 234.464C7.48214 222.359 26.5706 211.717 46.4129 202.64L75.0647 189.534L128.504 172.51L153.342 168.096C175.13 164.225 197.294 162.904 219.387 164.16L224.953 164.477C245.843 165.665 266.49 169.554 286.379 176.049C304.104 181.837 321.1 189.651 337.031 199.339L369.276 218.946L419.106 258.552L453.911 293.472L482.005 317.179C487.322 321.665 493.052 325.638 499.119 329.043L508.391 334.247C519.014 340.21 531.01 343.298 543.193 343.207L544.135 343.2C556.942 343.104 569.452 339.33 580.175 332.326C593.095 323.888 602.697 311.238 607.349 296.525L612.019 281.758C614.883 272.701 616.563 263.313 617.019 253.826L619.437 203.528L621.572 160.04C622.015 151.019 623.295 142.059 625.396 133.276L626.664 127.974C629.877 114.542 635.471 101.794 643.181 90.3357C651.553 77.8931 662.266 67.1985 674.723 58.8482L676.329 57.7718C688.208 49.8093 701.564 44.3111 715.605 41.6029C733.423 38.1664 751.823 39.3222 769.07 44.9616L769.934 45.2442C785.856 50.4498 800.384 59.2098 812.419 70.8609L820.077 78.2755C830.769 88.6261 839.931 100.447 847.287 113.383L863.886 142.569L883.699 185.648L908.343 229.357C913.653 238.776 920.454 247.272 928.48 254.518L935.927 261.241C944.866 269.31 955.875 274.732 967.721 276.898L976.953 278.586C982.345 279.572 982.26 287.331 976.847 288.198C964.687 290.146 952.24 287.421 942.006 280.57L930.437 272.825C924.14 268.61 918.442 263.564 913.495 257.825L904.791 247.726C896.977 238.659 890.074 228.845 884.182 218.426L865.157 184.789L836.185 140.569L814.442 115.08C808.104 107.651 800.585 101.317 792.188 96.3315L785.38 92.2895C772.086 84.3974 756.275 81.3907 740.993 83.7285C732.514 85.0256 724.27 87.9964 716.934 92.4404C704.3 100.094 694.634 111.805 689.516 125.662L684.879 138.216C682.109 145.715 680.217 153.51 679.24 161.445L673.165 210.769L669.248 266.168C668.176 281.333 665.429 296.332 661.058 310.893L656.924 324.663C652.718 338.674 646.083 351.837 637.322 363.552L636.219 365.027C628.133 375.838 618.201 385.135 606.879 392.488C595.216 400.063 582.271 405.451 568.678 408.388L566.107 408.944C550.848 412.241 535.118 412.738 519.681 410.411L515.394 409.765C500.263 407.485 485.561 402.94 471.782 396.285L471.217 396.012C455.183 388.267 440.586 377.845 428.054 365.195L400.117 336.995L346.516 289.796L324.078 274.2C308.423 263.319 291.204 254.881 273.012 249.175C249.446 241.784 224.655 239.106 200.054 241.294L193.724 241.857C177.656 243.286 161.794 246.478 146.423 251.375L101.982 265.532L46.9698 290.882C32.9244 297.354 19.3622 304.827 6.388 313.243C-20.1014 330.427 -43.9266 351.403 -64.3267 375.503L-99.4331 416.976L-122.132 345.723Z" fill="#FF4878"/>
<ellipse cx="-7.35918" cy="361.703" rx="42.1466" ry="20.4753" transform="rotate(156.105 -7.35918 361.703)" fill="#EE6D8F"/>
<ellipse cx="65.9848" cy="314.885" rx="35.4121" ry="18.1869" transform="rotate(156.105 65.9848 314.885)" fill="#EE6D8F"/>
<ellipse cx="141.17" cy="284.61" rx="35.4121" ry="18.1869" transform="rotate(167.07 141.17 284.61)" fill="#EE6D8F"/>
<ellipse cx="234.768" cy="273.239" rx="35.4121" ry="18.1869" transform="rotate(-176.816 234.768 273.239)" fill="#EE6D8F"/>
<ellipse cx="156.085" cy="326.716" rx="35.4121" ry="16.4117" transform="rotate(167.07 156.085 326.716)" fill="#EE6D8F"/>
<ellipse cx="231.688" cy="318.65" rx="32.8029" ry="17.4586" transform="rotate(-170.049 231.688 318.65)" fill="#EE6D8F"/>
<ellipse cx="301.622" cy="349.282" rx="32.8029" ry="17.4586" transform="rotate(-150.277 301.622 349.282)" fill="#EE6D8F"/>
<ellipse cx="319.765" cy="308.147" rx="35.0973" ry="20.4382" transform="rotate(-150.277 319.765 308.147)" fill="#EE6D8F"/>
<ellipse cx="386.712" cy="372.837" rx="35.0973" ry="20.4382" transform="rotate(-143.778 386.712 372.837)" fill="#EE6D8F"/>
<ellipse cx="449.972" cy="418.498" rx="35.0973" ry="20.4382" transform="rotate(-155.831 449.972 418.498)" fill="#EE6D8F"/>
<ellipse cx="521.178" cy="434.29" rx="27.7053" ry="17.8908" transform="rotate(-177.612 521.178 434.29)" fill="#EE6D8F"/>
<ellipse cx="588.168" cy="426.185" rx="29.6186" ry="15.5846" transform="rotate(159.554 588.168 426.185)" fill="#EE6D8F"/>
<ellipse cx="648.807" cy="383.789" rx="29.6186" ry="15.5846" transform="rotate(127.078 648.807 383.789)" fill="#EE6D8F"/>
<ellipse cx="678.443" cy="312.766" rx="27.4781" ry="13.7026" transform="rotate(106.14 678.443 312.766)" fill="#EE6D8F"/>
<ellipse cx="688.137" cy="245.152" rx="23.5672" ry="13.3665" transform="rotate(96.9222 688.137 245.152)" fill="#EE6D8F"/>
<ellipse cx="693.985" cy="174.28" rx="23.5672" ry="13.3665" transform="rotate(88.9514 693.985 174.28)" fill="#EE6D8F"/>
<ellipse cx="720.84" cy="114.852" rx="23.5672" ry="13.3665" transform="rotate(148.848 720.84 114.852)" fill="#EE6D8F"/>
<ellipse cx="771.321" cy="109.042" rx="23.5672" ry="13.3665" transform="rotate(-155.688 771.321 109.042)" fill="#EE6D8F"/>
<ellipse cx="820.093" cy="138.807" rx="19.0543" ry="9.24232" transform="rotate(-131.242 820.093 138.807)" fill="#EE6D8F"/>
<ellipse cx="854.762" cy="188.92" rx="18.3868" ry="8.28679" transform="rotate(-116.345 854.762 188.92)" fill="#EE6D8F"/>
<ellipse cx="874.037" cy="236.343" rx="21.6722" ry="8.98383" transform="rotate(-132.83 874.037 236.343)" fill="#EE6D8F"/>
<ellipse cx="910.777" cy="274.684" rx="21.6722" ry="6.73502" transform="rotate(-150.612 910.777 274.684)" fill="#EE6D8F"/>
<ellipse cx="835.977" cy="187.656" rx="17.5538" ry="6.76897" transform="rotate(-116.345 835.977 187.656)" fill="#EE6D8F"/>
<ellipse cx="802.204" cy="150.129" rx="15.7146" ry="7.7259" transform="rotate(-131.242 802.204 150.129)" fill="#EE6D8F"/>
<ellipse cx="720.693" cy="193.866" rx="21.6529" ry="8.18626" transform="rotate(92.9394 720.693 193.866)" fill="#EE6D8F"/>
<ellipse cx="741.92" cy="140.109" rx="21.6529" ry="10.1084" transform="rotate(142.946 741.92 140.109)" fill="#EE6D8F"/>
<ellipse cx="710.877" cy="331.206" rx="27.4781" ry="13.9098" transform="rotate(100.152 710.877 331.206)" fill="#EE6D8F"/>
<ellipse cx="716.346" cy="257.753" rx="27.4781" ry="10.9002" transform="rotate(90.6396 716.346 257.753)" fill="#EE6D8F"/>
<ellipse cx="576.65" cy="465.856" rx="26.2717" ry="12.6071" transform="rotate(162.294 576.65 465.856)" fill="#EE6D8F"/>
<ellipse cx="643.843" cy="438.584" rx="26.2717" ry="15.4095" transform="rotate(141.347 643.843 438.584)" fill="#EE6D8F"/>
<ellipse cx="688.496" cy="391.68" rx="26.2717" ry="15.4095" transform="rotate(121.94 688.496 391.68)" fill="#EE6D8F"/>
<ellipse cx="506.591" cy="475.156" rx="24.707" ry="16.1244" transform="rotate(-171.922 506.591 475.156)" fill="#EE6D8F"/>
<ellipse cx="435.297" cy="460.492" rx="32.2395" ry="17.9771" transform="rotate(-155.831 435.297 460.492)" fill="#EE6D8F"/>
<ellipse cx="361.415" cy="407.103" rx="31.5413" ry="16.8656" transform="rotate(-143.778 361.415 407.103)" fill="#EE6D8F"/>
<ellipse cx="82.7831" cy="361.563" rx="32.9611" ry="16.4117" transform="rotate(156.053 82.7831 361.563)" fill="#EE6D8F"/>
<ellipse cx="15.7774" cy="401.854" rx="32.9611" ry="16.4117" transform="rotate(146.611 15.7774 401.854)" fill="#EE6D8F"/>
<path d="M73.7929 522.597L56 382.403H87.9873L103.581 506.374H86.7877L152.961 382.403H182.949L197.943 506.374H181.95L247.724 382.403H279.911L205.94 522.597H171.354L157.36 413.646H167.156L108.579 522.597H73.7929Z" fill="white"/>
<path d="M316.384 438.881H383.757L378.759 464.116H311.386L316.384 438.881ZM307.187 496.561H383.557L378.159 522.597H269.802L297.791 382.403H403.549L398.151 408.439H324.78L307.187 496.561Z" fill="white"/>
<path d="M403.929 522.597L431.917 382.403H499.491C514.684 382.403 526.28 385.14 534.277 390.615C542.407 396.089 546.472 404.033 546.472 414.448C546.472 423.26 544.139 430.67 539.475 436.678C534.943 442.686 528.879 447.226 521.282 450.297C513.685 453.368 505.421 454.903 496.492 454.903L501.69 446.892C513.418 446.892 522.748 449.629 529.678 455.104C536.742 460.444 540.274 468.188 540.274 478.336C540.274 488.216 537.542 496.494 532.078 503.17C526.746 509.712 519.349 514.586 509.886 517.79C500.423 520.994 489.561 522.597 477.299 522.597H403.929ZM441.114 498.163H479.299C488.228 498.163 495.226 496.494 500.29 493.156C505.488 489.685 508.087 484.611 508.087 477.935C508.087 472.728 506.155 469.056 502.289 466.92C498.558 464.65 493.493 463.515 487.095 463.515H444.312L449.111 439.883H485.496C491.094 439.883 495.892 439.148 499.89 437.68C504.022 436.211 507.154 434.008 509.287 431.07C511.419 428 512.485 424.328 512.485 420.055C512.485 415.382 510.686 412.044 507.087 410.041C503.489 407.905 498.424 406.837 491.894 406.837H459.107L441.114 498.163Z" fill="white"/>
<path d="M652 525C641.737 525 632.141 523.598 623.212 520.794C614.282 517.99 606.818 513.985 600.82 508.778L616.414 484.945C620.946 488.95 626.477 492.088 633.008 494.358C639.672 496.628 646.735 497.762 654.199 497.762C660.597 497.762 665.995 496.961 670.393 495.359C674.924 493.757 678.323 491.42 680.589 488.349C682.988 485.279 684.187 481.674 684.187 477.535C684.187 472.461 682.255 468.722 678.39 466.319C674.658 463.782 668.927 462.514 661.196 462.514H646.402L650.601 441.084L697.782 396.823L699.981 408.439H626.21L631.608 382.403H729.569L725.571 403.432L678.39 447.693L663.196 438.481H670.393C680.122 438.481 688.452 440.016 695.383 443.087C702.313 446.024 707.645 450.297 711.376 455.905C715.108 461.379 716.974 467.921 716.974 475.532C716.974 485.012 714.175 493.49 708.578 500.967C703.113 508.444 695.449 514.319 685.587 518.591C675.857 522.864 664.662 525 652 525Z" fill="white"/>
<path d="M743.923 524.199C738.592 524.199 734.193 522.53 730.728 519.192C727.263 515.721 725.53 511.381 725.53 506.174C725.53 499.899 727.529 494.892 731.528 491.153C735.659 487.281 740.591 485.345 746.322 485.345C751.653 485.345 755.985 487.014 759.317 490.352C762.782 493.69 764.515 498.029 764.515 503.37C764.515 507.509 763.515 511.181 761.516 514.385C759.65 517.456 757.184 519.86 754.119 521.595C751.053 523.331 747.655 524.199 743.923 524.199Z" fill="white"/>
<path d="M838.029 525C827.633 525 818.637 522.93 811.04 518.791C803.576 514.519 797.778 508.444 793.647 500.566C789.515 492.555 787.449 483.009 787.449 471.927C787.449 459.243 789.182 447.36 792.647 436.278C796.246 425.196 801.244 415.449 807.641 407.037C814.039 398.492 821.702 391.883 830.632 387.21C839.695 382.403 849.624 380 860.42 380C870.816 380 879.746 382.136 887.21 386.409C894.806 390.548 900.671 396.556 904.802 404.434C908.934 412.311 911 421.858 911 433.073C911 445.757 909.201 457.64 905.602 468.722C902.137 479.804 897.206 489.618 890.808 498.163C884.411 506.575 876.747 513.184 867.817 517.99C858.887 522.663 848.958 525 838.029 525ZM841.028 497.562C847.159 497.562 852.557 495.559 857.221 491.554C861.886 487.415 865.751 482.074 868.817 475.532C872.016 468.989 874.415 462.046 876.014 454.703C877.613 447.36 878.413 440.417 878.413 433.874C878.413 424.662 876.547 417.986 872.815 413.847C869.083 409.574 863.952 407.438 857.421 407.438C851.29 407.438 845.893 409.507 841.228 413.646C836.563 417.652 832.631 422.926 829.432 429.468C826.367 436.011 824.035 442.953 822.435 450.297C820.836 457.64 820.036 464.583 820.036 471.126C820.036 480.205 821.902 486.881 825.634 491.153C829.499 495.426 834.63 497.562 841.028 497.562Z" fill="white"/>
<path d="M52 292V152H78.0009V292H52Z" fill="white"/>
<path d="M115.87 292V152H137.27L225.074 259.8H214.473V152H240.274V292H218.873L131.07 184.2H141.67V292H115.87Z" fill="white"/>
<path d="M306.191 292V174H259.789V152H378.593V174H332.191V292H306.191Z" fill="white"/>
<path d="M422.107 210.2H491.71V231.6H422.107V210.2ZM424.107 270.2H503.11V292H398.106V152H500.31V173.8H424.107V270.2Z" fill="white"/>
<path d="M597.498 294C586.564 294 576.497 292.267 567.297 288.8C558.23 285.2 550.296 280.2 543.496 273.8C536.696 267.267 531.429 259.6 527.695 250.8C523.962 242 522.095 232.4 522.095 222C522.095 211.6 523.962 202 527.695 193.2C531.429 184.4 536.696 176.8 543.496 170.4C550.43 163.867 558.497 158.867 567.697 155.4C576.897 151.8 586.964 150 597.898 150C609.765 150 620.432 151.933 629.899 155.8C639.5 159.667 647.567 165.333 654.1 172.8L637.7 188.8C632.233 183.333 626.299 179.333 619.899 176.8C613.632 174.133 606.698 172.8 599.098 172.8C591.764 172.8 584.964 174 578.697 176.4C572.43 178.8 567.03 182.2 562.497 186.6C557.963 191 554.43 196.2 551.896 202.2C549.496 208.2 548.296 214.8 548.296 222C548.296 229.067 549.496 235.6 551.896 241.6C554.43 247.6 557.963 252.867 562.497 257.4C567.03 261.8 572.364 265.2 578.497 267.6C584.631 270 591.431 271.2 598.898 271.2C605.832 271.2 612.499 270.133 618.899 268C625.432 265.733 631.633 262 637.5 256.8L652.3 276.2C644.966 282.067 636.433 286.533 626.699 289.6C617.099 292.533 607.365 294 597.498 294ZM627.699 272.8V220.4H652.3V276.2L627.699 272.8Z" fill="white"/>
<path d="M686.593 292V152H744.196C756.596 152 767.196 154 775.997 158C784.93 162 791.797 167.733 796.597 175.2C801.398 182.667 803.798 191.533 803.798 201.8C803.798 212.067 801.398 220.933 796.597 228.4C791.797 235.733 784.93 241.4 775.997 245.4C767.196 249.267 756.596 251.2 744.196 251.2H700.994L712.594 239.4V292H686.593ZM778.197 292L742.796 241.2H770.597L806.198 292H778.197ZM712.594 242.2L700.994 229.8H742.996C754.463 229.8 763.063 227.333 768.796 222.4C774.663 217.467 777.597 210.6 777.597 201.8C777.597 192.867 774.663 186 768.796 181.2C763.063 176.4 754.463 174 742.996 174H700.994L712.594 161.2V242.2Z" fill="white"/>
<path d="M1262.4 292V152H1320C1332.4 152 1343 154 1351.8 158C1360.73 162 1367.6 167.733 1372.4 175.2C1377.2 182.667 1379.6 191.533 1379.6 201.8C1379.6 212.067 1377.2 220.933 1372.4 228.4C1367.6 235.733 1360.73 241.4 1351.8 245.4C1343 249.267 1332.4 251.2 1320 251.2H1276.8L1288.4 239.4V292H1262.4ZM1354 292L1318.6 241.2H1346.4L1382 292H1354ZM1288.4 242.2L1276.8 229.8H1318.8C1330.26 229.8 1338.87 227.333 1344.6 222.4C1350.47 217.467 1353.4 210.6 1353.4 201.8C1353.4 192.867 1350.47 186 1344.6 181.2C1338.87 176.4 1330.26 174 1318.8 174H1276.8L1288.4 161.2V242.2Z" fill="white"/>
</g>
<defs>
<clipPath id="clip0_2530_4889">
<rect width="1643" height="591" fill="white" transform="translate(-261)"/>
</clipPath>
</defs>
</svg>
