<svg width="1920" height="1325" viewBox="0 0 1920 1325" fill="none" xmlns="http://www.w3.org/2000/svg">
<g clip-path="url(#clip0)">
<mask id="mask0" mask-type="alpha" maskUnits="userSpaceOnUse" x="-547" y="-95" width="2621" height="1607">
<rect width="2620" height="1605.95" transform="matrix(-1 8.74228e-08 8.74228e-08 1 2073 -94.5268)" fill="#C4C4C4"/>
</mask>
<g mask="url(#mask0)">
<path d="M-23.8926 1313.12L-23.8926 875.652C-23.8926 875.332 -23.9962 875.216 -23.7362 875.029C-14.9579 868.694 361.809 597.867 701.97 537.551C1386.86 416.109 1908.58 655.584 1908.58 655.584L1908.58 792.141C1908.58 792.141 1036.11 594.29 802.631 907.466C507.659 1303.12 -2.22667 1313.84 -23.2231 1314.11C-23.7773 1314.12 -23.8926 1313.67 -23.8926 1313.12Z" fill="#404040"/>
<path d="M1001.36 6.27567C1455.84 -17.4218 1923.69 85.6665 1940.09 89.3168C1940.53 89.4158 1940.53 89.7307 1940.53 90.1786L1940.53 90.2159L1940.53 694.333C1940.53 695.073 1939.98 695.671 1939.32 695.351C1909.4 680.977 1331.45 408.797 838.817 592.136C333.271 780.28 382.987 960.647 -80.68 903.684C-81.1812 903.623 -81.589 903.193 -81.589 902.688L-81.589 189.55C-81.589 189.168 -81.5627 188.912 -81.2177 188.748C-69.4395 183.139 223.967 46.8104 1001.36 6.27567Z" fill="#4F4F4F"/>
<ellipse rx="127.878" ry="32.2052" transform="matrix(0.980251 -0.0303421 0.00747455 -1.01879 1322.9 723.843)" fill="#EE6D8F"/>
<ellipse rx="136.075" ry="39.4239" transform="matrix(0.940897 -0.324957 -0.313012 -0.952184 1013.22 771.251)" fill="#EE6D8F"/>
<ellipse rx="133.598" ry="53.5278" transform="matrix(0.756312 -0.679412 -0.654767 -0.730798 734.963 966.706)" fill="#EE6D8F"/>
<ellipse rx="126.846" ry="65.6903" transform="matrix(0.875847 -0.493869 -0.478514 -0.869041 743.885 747.37)" fill="#EE6D8F"/>
<ellipse rx="94.8615" ry="47.6226" transform="matrix(0.95848 -0.253525 -0.235771 -0.978813 1001.71 627.474)" fill="#EE6D8F"/>
<ellipse rx="94.164" ry="37.1317" transform="matrix(0.977365 0.038172 0.0743899 -1.01866 1261.14 596.787)" fill="#EE6D8F"/>
<ellipse rx="82.5969" ry="29.9384" transform="matrix(0.969942 0.107378 0.140649 -1.01381 1522.21 628.58)" fill="#EE6D8F"/>
<ellipse rx="165.321" ry="85.6232" transform="matrix(0.875494 -0.494583 -0.479208 -0.868609 439.157 935.233)" fill="#EE6D8F"/>
<ellipse rx="189.029" ry="95.7113" transform="matrix(0.942298 -0.319987 -0.304786 -0.955364 56.2038 1053.04)" fill="#EE6D8F"/>
<ellipse rx="135.216" ry="64.1572" transform="matrix(0.872861 -0.499863 -0.484596 -0.865224 474.004 1159.23)" fill="#EE6D8F"/>
<ellipse rx="137.526" ry="58.269" transform="matrix(0.972613 -0.167715 -0.145119 -1.00125 114.371 1259.54)" fill="#EE6D8F"/>
<ellipse rx="120.585" ry="67.647" transform="matrix(0.910862 -0.414348 -0.399922 -0.91328 -34.5629 1048.12)" fill="#EE6D8F"/>
<ellipse rx="137.258" ry="39.8409" transform="matrix(0.971537 0.095526 0.127586 -1.01514 1665.37 745.518)" fill="#EE6D8F"/>
<ellipse rx="137.052" ry="67.5155" transform="matrix(0.939121 0.253084 0.287258 -0.98573 1953.5 756.002)" fill="#EE6D8F"/>
</g>
</g>
<defs>
<clipPath id="clip0">
<rect width="1920" height="1325" fill="white"/>
</clipPath>
</defs>
</svg>
