<svg width="1366" height="266" viewBox="0 0 1366 266" fill="none" xmlns="http://www.w3.org/2000/svg">
<mask id="path-1-outside-1_133_11339" maskUnits="userSpaceOnUse" x="0" y="0" width="1366" height="266" fill="black">
<rect fill="white" width="1366" height="266"/>
<path d="M121.716 265C155.15 265 186.473 257.266 204.774 249.533V133.879H112.565V171.141H153.742V219.652C146 222.465 133.33 224.925 121.012 224.925C69.2766 224.925 57.6625 192.585 57.6625 143.722V132.824C57.6625 89.2344 73.4999 55.4873 128.755 55.4873C160.429 55.4873 179.434 62.518 193.864 67.7909V27.0133C179.434 19.9827 156.558 12.9521 123.827 12.9521C59.0703 12.9521 1 43.1838 1 135.988V143.37C1 230.901 47.8082 265 121.716 265Z"/>
<path d="M293.584 264.297C316.812 264.297 334.057 256.563 349.895 244.611H351.654L355.526 260.782H398.462V76.2277H349.191V216.137C339.336 221.059 327.722 225.628 313.645 225.628C293.232 225.628 286.545 218.598 286.545 200.67V76.2277H237.273V210.513C237.273 247.423 258.038 264.297 293.584 264.297Z"/>
<path d="M481.394 264.297C504.974 264.297 520.811 256.915 528.906 246.017H531.018L534.889 260.782H575.714V128.606C575.714 88.8828 549.319 73.0639 505.678 73.0639C479.282 73.0639 457.814 76.5792 439.513 83.2583V116.654C451.831 113.842 468.372 111.381 486.673 111.381C515.884 111.381 526.443 116.302 526.443 139.152V150.752L486.673 156.025C448.664 160.947 424.028 175.711 424.028 211.919C424.028 247.423 447.96 264.297 481.394 264.297ZM497.583 231.253C482.802 231.253 472.244 224.574 472.244 207.7C472.244 191.53 480.338 184.851 497.231 183.093L526.443 180.281V222.113C520.811 227.386 509.197 231.253 497.583 231.253Z"/>
<path d="M609.853 260.782H659.476V128.606C670.738 122.278 686.224 118.06 702.765 118.06C706.988 118.06 713.675 118.763 717.898 119.466V75.8762C715.787 74.8216 711.564 74.47 706.636 74.47C687.28 74.47 669.331 84.3129 659.476 98.0226H657.717V76.2277H609.853V260.782Z"/>
<path d="M802.832 264.297C826.412 264.297 843.305 257.618 855.271 246.369H857.031L860.902 260.782H903.135V1H853.863V82.2037C846.121 77.9854 832.395 72.7124 811.982 72.7124C763.414 72.7124 728.572 100.835 728.572 169.383V173.953C728.572 240.041 765.526 264.297 802.832 264.297ZM821.133 227.035C796.145 227.035 779.604 215.083 779.604 171.844V165.165C779.604 122.278 795.441 108.92 821.485 108.92C835.562 108.92 847.88 112.435 853.863 117.005V216.489C847.176 221.41 836.266 227.035 821.133 227.035Z"/>
<path d="M939.127 49.5113H989.454V8.38215H939.127V49.5113ZM939.478 260.782H989.102V76.2277H939.478V260.782Z"/>
<path d="M1072.89 264.297C1096.47 264.297 1112.31 256.915 1120.4 246.017H1122.51L1126.38 260.782H1167.21V128.606C1167.21 88.8828 1140.81 73.0639 1097.17 73.0639C1070.78 73.0639 1049.31 76.5792 1031.01 83.2583V116.654C1043.33 113.842 1059.87 111.381 1078.17 111.381C1107.38 111.381 1117.94 116.302 1117.94 139.152V150.752L1078.17 156.025C1040.16 160.947 1015.52 175.711 1015.52 211.919C1015.52 247.423 1039.45 264.297 1072.89 264.297ZM1089.08 231.253C1074.3 231.253 1063.74 224.574 1063.74 207.7C1063.74 191.53 1071.83 184.851 1088.73 183.093L1117.94 180.281V222.113C1112.31 227.386 1100.69 231.253 1089.08 231.253Z"/>
<path d="M1201.35 260.782H1250.97V120.872C1260.83 116.654 1274.9 112.435 1287.22 112.435C1309.04 112.435 1315.38 119.115 1315.38 136.34V260.782H1365V123.684C1365 87.4767 1345.99 72.7124 1310.8 72.7124C1287.57 72.7124 1266.46 80.4461 1250.97 92.3981H1249.21V76.2277H1201.35V260.782Z"/>
</mask>
<path d="M121.716 265C155.15 265 186.473 257.266 204.774 249.533V133.879H112.565V171.141H153.742V219.652C146 222.465 133.33 224.925 121.012 224.925C69.2766 224.925 57.6625 192.585 57.6625 143.722V132.824C57.6625 89.2344 73.4999 55.4873 128.755 55.4873C160.429 55.4873 179.434 62.518 193.864 67.7909V27.0133C179.434 19.9827 156.558 12.9521 123.827 12.9521C59.0703 12.9521 1 43.1838 1 135.988V143.37C1 230.901 47.8082 265 121.716 265Z" stroke="white" stroke-opacity="0.2" stroke-width="2" mask="url(#path-1-outside-1_133_11339)"/>
<path d="M293.584 264.297C316.812 264.297 334.057 256.563 349.895 244.611H351.654L355.526 260.782H398.462V76.2277H349.191V216.137C339.336 221.059 327.722 225.628 313.645 225.628C293.232 225.628 286.545 218.598 286.545 200.67V76.2277H237.273V210.513C237.273 247.423 258.038 264.297 293.584 264.297Z" stroke="white" stroke-opacity="0.2" stroke-width="2" mask="url(#path-1-outside-1_133_11339)"/>
<path d="M481.394 264.297C504.974 264.297 520.811 256.915 528.906 246.017H531.018L534.889 260.782H575.714V128.606C575.714 88.8828 549.319 73.0639 505.678 73.0639C479.282 73.0639 457.814 76.5792 439.513 83.2583V116.654C451.831 113.842 468.372 111.381 486.673 111.381C515.884 111.381 526.443 116.302 526.443 139.152V150.752L486.673 156.025C448.664 160.947 424.028 175.711 424.028 211.919C424.028 247.423 447.96 264.297 481.394 264.297ZM497.583 231.253C482.802 231.253 472.244 224.574 472.244 207.7C472.244 191.53 480.338 184.851 497.231 183.093L526.443 180.281V222.113C520.811 227.386 509.197 231.253 497.583 231.253Z" stroke="white" stroke-opacity="0.2" stroke-width="2" mask="url(#path-1-outside-1_133_11339)"/>
<path d="M609.853 260.782H659.476V128.606C670.738 122.278 686.224 118.06 702.765 118.06C706.988 118.06 713.675 118.763 717.898 119.466V75.8762C715.787 74.8216 711.564 74.47 706.636 74.47C687.28 74.47 669.331 84.3129 659.476 98.0226H657.717V76.2277H609.853V260.782Z" stroke="white" stroke-opacity="0.2" stroke-width="2" mask="url(#path-1-outside-1_133_11339)"/>
<path d="M802.832 264.297C826.412 264.297 843.305 257.618 855.271 246.369H857.031L860.902 260.782H903.135V1H853.863V82.2037C846.121 77.9854 832.395 72.7124 811.982 72.7124C763.414 72.7124 728.572 100.835 728.572 169.383V173.953C728.572 240.041 765.526 264.297 802.832 264.297ZM821.133 227.035C796.145 227.035 779.604 215.083 779.604 171.844V165.165C779.604 122.278 795.441 108.92 821.485 108.92C835.562 108.92 847.88 112.435 853.863 117.005V216.489C847.176 221.41 836.266 227.035 821.133 227.035Z" stroke="white" stroke-opacity="0.2" stroke-width="2" mask="url(#path-1-outside-1_133_11339)"/>
<path d="M939.127 49.5113H989.454V8.38215H939.127V49.5113ZM939.478 260.782H989.102V76.2277H939.478V260.782Z" stroke="white" stroke-opacity="0.2" stroke-width="2" mask="url(#path-1-outside-1_133_11339)"/>
<path d="M1072.89 264.297C1096.47 264.297 1112.31 256.915 1120.4 246.017H1122.51L1126.38 260.782H1167.21V128.606C1167.21 88.8828 1140.81 73.0639 1097.17 73.0639C1070.78 73.0639 1049.31 76.5792 1031.01 83.2583V116.654C1043.33 113.842 1059.87 111.381 1078.17 111.381C1107.38 111.381 1117.94 116.302 1117.94 139.152V150.752L1078.17 156.025C1040.16 160.947 1015.52 175.711 1015.52 211.919C1015.52 247.423 1039.45 264.297 1072.89 264.297ZM1089.08 231.253C1074.3 231.253 1063.74 224.574 1063.74 207.7C1063.74 191.53 1071.83 184.851 1088.73 183.093L1117.94 180.281V222.113C1112.31 227.386 1100.69 231.253 1089.08 231.253Z" stroke="white" stroke-opacity="0.2" stroke-width="2" mask="url(#path-1-outside-1_133_11339)"/>
<path d="M1201.35 260.782H1250.97V120.872C1260.83 116.654 1274.9 112.435 1287.22 112.435C1309.04 112.435 1315.38 119.115 1315.38 136.34V260.782H1365V123.684C1365 87.4767 1345.99 72.7124 1310.8 72.7124C1287.57 72.7124 1266.46 80.4461 1250.97 92.3981H1249.21V76.2277H1201.35V260.782Z" stroke="white" stroke-opacity="0.2" stroke-width="2" mask="url(#path-1-outside-1_133_11339)"/>
</svg>
