<svg width="63" height="63" viewBox="0 0 63 63" fill="none" xmlns="http://www.w3.org/2000/svg">
<g clip-path="url(#clip0_3_321)">
<path d="M31.468 63C14.124 62.979 0 48.834 0 31.458C0.042 14.082 14.187 -0.0209766 31.553 2.3422e-05C48.918 0.0320234 63.042 14.166 63 31.542C62.99 48.908 48.844 63.01 31.468 63Z" fill="#DD2F44"/>
<path d="M53.39 34.8151C53.412 29.5111 49.086 25.1851 43.792 25.1751C42.2699 25.1733 40.7692 25.534 39.414 26.2271L39.246 26.3221L39.225 20.4601C39.225 19.0601 38.099 17.9231 36.699 17.9131C35.32 17.9131 34.152 19.0491 34.173 20.4491L34.152 34.8051C34.162 40.1091 38.477 44.4251 43.772 44.4351L43.761 44.5611L43.771 44.4351C49.065 44.4251 53.381 40.1201 53.391 34.8151H53.39ZM43.75 39.3201C41.277 39.3201 39.225 37.2881 39.246 34.7941C39.2452 34.2015 39.3615 33.6145 39.5883 33.067C39.8151 32.5195 40.1478 32.0222 40.5673 31.6036C40.9869 31.1851 41.485 30.8536 42.0331 30.6282C42.5812 30.4027 43.1684 30.2879 43.761 30.2901C44.3543 30.2853 44.9427 30.3985 45.4919 30.623C46.0411 30.8475 46.5403 31.1789 46.9604 31.598C47.3804 32.017 47.713 32.5153 47.9389 33.064C48.1648 33.6127 48.2794 34.2008 48.276 34.7941C48.276 37.2991 46.256 39.3411 43.75 39.3201ZM31.563 34.6151C31.5064 32.1226 30.4732 29.7521 28.6859 28.0139C26.8986 26.2758 24.5001 25.3091 22.007 25.3221C20.5004 25.3307 19.0161 25.6873 17.67 26.3641L17.502 26.4691V20.4181C17.4992 19.7471 17.2328 19.1041 16.7603 18.6276C16.2878 18.1512 15.647 17.8795 14.976 17.8711C14.3018 17.8753 13.6564 18.145 13.1797 18.6217C12.7029 19.0985 12.4332 19.7439 12.429 20.4181L12.419 41.5301C12.4156 41.8601 12.4775 42.1875 12.6012 42.4934C12.725 42.7993 12.908 43.0777 13.1399 43.3126C13.3717 43.5474 13.6478 43.734 13.9521 43.8616C14.2564 43.9892 14.583 44.0553 14.913 44.0561C15.397 44.0761 15.871 43.9191 16.303 43.6561C16.6559 43.425 16.9475 43.1117 17.1526 42.7432C17.3578 42.3746 17.4705 41.9618 17.481 41.5401V34.9201C17.4829 33.7176 17.9614 32.565 18.8116 31.7147C19.6619 30.8644 20.8146 30.3859 22.017 30.3841C23.1928 30.3927 24.3195 30.8571 25.1598 31.6797C26 32.5022 26.4884 33.6187 26.522 34.7941L26.512 41.5401C26.5119 41.875 26.5781 42.2066 26.7068 42.5158C26.8355 42.8249 27.0241 43.1056 27.2619 43.3414C27.4996 43.5773 27.7817 43.7638 28.0919 43.89C28.402 44.0163 28.7341 44.0799 29.069 44.0771C30.416 44.0871 31.584 42.9511 31.595 41.5511L31.584 34.7631C31.584 34.7421 31.574 34.7101 31.574 34.6781C31.563 34.6581 31.584 34.6471 31.563 34.6151Z" fill="white"/>
</g>
<defs>
<clipPath id="clip0_3_321">
<rect width="63" height="63" fill="white"/>
</clipPath>
</defs>
</svg>
