<svg width="312" height="339" viewBox="0 0 312 339" fill="none" xmlns="http://www.w3.org/2000/svg">
<path fill-rule="evenodd" clip-rule="evenodd" d="M119.953 7.18065C126.837 9.7456 137.235 15.4924 143.062 19.9508C148.89 24.4068 154.706 28.0538 155.985 28.0538C157.263 28.0538 163.079 24.4068 168.907 19.9508C185.914 6.94338 203.617 1.23453 227.056 1.20131C244.863 1.17759 249.059 2.0555 263.031 8.73718C280.767 17.2198 292.688 29.4561 301.411 48.1344C320.157 88.2648 313.945 130.063 283.317 169.914C269.303 188.146 252.296 202.959 205.713 237.513C182.921 254.417 162.433 270.528 160.181 273.314C154.031 280.928 154.846 294.455 161.969 302.937C173.138 316.239 185.402 315.01 207.378 298.389L219.698 289.071L218.349 277.649C216.262 259.983 225.086 244.99 242.891 235.957C269.666 222.371 302.925 249.474 297.137 280.159C292.617 304.136 267.104 318.913 244.863 310.44C239.448 308.378 236.708 309.557 221.981 320.292C204.119 333.309 192.293 338.621 180.849 338.768C135.43 339.35 112.387 281.666 145.703 250.789C149.404 247.358 169.482 231.933 190.321 216.507C231.081 186.335 262.758 156.742 272.73 139.514C295.714 99.813 285.685 49.1737 251.415 31.8787C246.492 29.3944 237.778 28.0609 226.551 28.0775C205.514 28.106 191.32 34.0236 173.397 50.2438C166.655 56.3441 158.874 61.2723 155.985 61.2723C153.096 61.2723 145.314 56.3441 138.573 50.2438C120.649 34.0236 106.455 28.106 85.4177 28.0775C58.8249 28.0419 41.6426 39.4525 32.8573 62.9783C25.1707 83.562 24.4058 98.7144 30.0985 117.497C38.5547 145.394 56.6179 168.084 96.8552 201.365C105.69 208.673 106.803 210.618 105.387 216.277C103.358 224.38 94.0089 228.549 86.5662 224.672C75.4744 218.897 48.0386 194.597 34.7209 178.755C-0.955599 136.311 -9.37389 90.806 10.5577 48.1344C22.0236 23.5835 44.2664 6.02275 69.3957 1.67824C83.0876 -0.687399 105.349 1.73281 119.953 7.18065ZM249.578 283.462C243.674 279.134 243.755 266.323 249.718 261.803C256.031 257.017 261.726 257.39 267.281 262.956C272.972 268.658 273.291 274.312 268.33 281.409C264.165 287.37 256.116 288.25 249.578 283.462Z" fill="white"/>
</svg>
