<svg width="74" height="74" viewBox="0 0 74 74" fill="none" xmlns="http://www.w3.org/2000/svg"><path d="M62.9 16.65a5.55 5.55 0 11-11.1 0 5.55 5.55 0 0111.1 0z" fill="#fff"/><path fill-rule="evenodd" clip-rule="evenodd" d="M37 55.5c10.217 0 18.5-8.283 18.5-18.5S47.217 18.5 37 18.5 18.5 26.783 18.5 37 26.783 55.5 37 55.5zm0-7.4c6.13 0 11.1-4.97 11.1-11.1S43.13 25.9 37 25.9 25.9 30.87 25.9 37 30.87 48.1 37 48.1z" fill="#fff"/><path fill-rule="evenodd" clip-rule="evenodd" d="M0 35.52c0-12.433 0-18.65 2.42-23.399a22.2 22.2 0 019.7-9.701C16.871 0 23.087 0 35.52 0h2.96c12.433 0 18.65 0 23.399 2.42a22.2 22.2 0 019.701 9.701C74 16.871 74 23.087 74 35.52v2.96c0 12.433 0 18.65-2.42 23.399a22.199 22.199 0 01-9.701 9.701C57.129 74 50.913 74 38.48 74h-2.96c-12.433 0-18.65 0-23.399-2.42a22.2 22.2 0 01-9.701-9.7C0 57.129 0 50.913 0 38.48v-2.96zM35.52 7.4h2.96c6.339 0 10.648.006 13.978.278 3.245.265 4.904.745 6.061 1.335a14.8 14.8 0 016.468 6.468c.59 1.157 1.07 2.816 1.335 6.06.272 3.331.278 7.64.278 13.979v2.96c0 6.339-.006 10.648-.278 13.978-.265 3.245-.745 4.904-1.335 6.061a14.8 14.8 0 01-6.468 6.468c-1.157.59-2.816 1.07-6.06 1.335-3.331.272-7.64.278-13.979.278h-2.96c-6.339 0-10.648-.006-13.978-.278-3.245-.265-4.904-.745-6.061-1.335a14.8 14.8 0 01-6.468-6.468c-.59-1.157-1.07-2.816-1.335-6.06-.272-3.331-.278-7.64-.278-13.979v-2.96c0-6.339.006-10.648.278-13.978.265-3.245.745-4.904 1.335-6.061a14.8 14.8 0 016.468-6.468c1.157-.59 2.816-1.07 6.06-1.335 3.331-.272 7.64-.278 13.979-.278z" fill="#fff"/></svg>