<svg width="8" height="8" viewBox="0 0 8 8" fill="none" xmlns="http://www.w3.org/2000/svg">
<path d="M8 4.00081C8.00016 3.20961 7.76568 2.43614 7.32621 1.77822C6.88675 1.1203 6.26204 0.607488 5.53111 0.304638C4.80017 0.0017874 3.99584 -0.0774938 3.21984 0.0768214C2.44384 0.231137 1.73104 0.612117 1.17158 1.17158C0.612118 1.73103 0.231136 2.44384 0.0768208 3.21984C-0.0774944 3.99583 0.00178922 4.80017 0.304639 5.5311C0.60749 6.26204 1.1203 6.88675 1.77822 7.32621C2.43614 7.76568 3.20961 8.00016 4.00081 8C5.06139 7.99979 6.07848 7.57838 6.82843 6.82843C7.57838 6.07848 7.99979 5.06139 8 4.00081ZM2.07044 4.00081C2.07044 3.6187 2.18374 3.24517 2.39603 2.92746C2.60832 2.60974 2.91006 2.36212 3.26308 2.21589C3.6161 2.06966 4.00456 2.03141 4.37933 2.10595C4.75409 2.1805 5.09834 2.3645 5.36853 2.63469C5.63872 2.90488 5.82273 3.24913 5.89727 3.62389C5.97182 3.99866 5.93356 4.38712 5.78733 4.74014C5.64111 5.09316 5.39348 5.3949 5.07577 5.60719C4.75806 5.81947 4.38453 5.93278 4.00242 5.93278C3.49003 5.93278 2.99862 5.72924 2.6363 5.36692C2.27399 5.00461 2.07044 4.5132 2.07044 4.00081Z" fill="#6996E4"/>
</svg>
