<svg width="338" height="90" viewBox="0 0 338 90" fill="none" xmlns="http://www.w3.org/2000/svg">
<g clip-path="url(#clip0_133_11167)">
<path d="M252.995 42.5743L252.831 42.5128L252.723 42.6528C251.779 43.8956 250.503 44.6365 249.318 44.6365H235.301C233.081 44.6365 231.927 43.3323 231.586 40.4131H260.683L260.72 40.2219C261.001 38.912 261.149 37.5771 261.163 36.2374C261.163 32.632 259.954 29.3884 257.758 27.1009C255.375 24.6187 251.946 23.3076 247.83 23.3076H235.147C226.731 23.3076 221.709 28.651 221.709 37.6032C221.709 46.5554 226.731 51.8987 235.147 51.8987H249.491C254.718 51.8987 258.62 49.775 260.771 45.753L260.901 45.5106L260.645 45.415L252.995 42.5743ZM231.709 34.0387C232.161 31.6794 233.305 30.58 235.297 30.58H247.949C250.186 30.58 251.694 31.9457 251.844 34.0387H231.709Z" fill="white"/>
<path d="M299.223 23.3018H262.82H262.578V23.5408V30.4068V30.6458H262.82H276.125V51.6675V51.9065H276.364H285.676H285.914V51.6675V30.6458H299.223H299.461V30.4068V23.5408V23.3018H299.223Z" fill="white"/>
<path d="M217.77 23.3018H208.458H208.22V23.5408V33.8211H190.968V23.5408V23.3018H190.73H181.418H181.18V23.5408V51.6675V51.9065H181.418H190.73H190.968V51.6675V40.5779H208.22V51.6675V51.9065H208.458H217.77H218.008V51.6675V23.5408V23.3018H217.77Z" fill="white"/>
<path d="M175.83 23.3194H165.889C164.366 23.3147 162.863 23.6581 161.493 24.3237C160.123 24.9893 158.923 25.9595 157.983 27.1604L145.944 42.4666C145.611 42.8898 145.195 43.2397 144.722 43.4947C144.249 43.7496 143.728 43.9041 143.193 43.9484V23.3194H133.404V51.9241H143.193C147.861 51.8558 149.825 50.3979 152.188 47.3934L164.224 32.0701C164.422 31.818 164.675 31.6144 164.964 31.4748C165.252 31.3352 165.568 31.2632 165.889 31.2644H166.28V51.9343H176.072V23.3194H175.83Z" fill="white"/>
<path d="M122.833 37.2149C126.445 36.1906 128.28 34.0772 128.28 30.8815C128.28 28.7441 127.599 27.0302 126.237 25.7908C124.433 24.1485 121.43 23.3154 117.31 23.3154H92.5068V51.9065H117.361C125.121 51.9065 128.89 49.3219 128.89 44.0093C128.89 40.5097 126.847 38.229 122.85 37.2149H122.833ZM116.599 34.364H102.363V30.3556H116.578C117.389 30.3556 117.811 31.3629 117.811 32.3598C117.811 33.3568 117.426 34.364 116.578 34.364H116.599ZM118.573 42.7528C118.573 43.7225 118.103 44.7536 117.232 44.7536H102.363V40.6941H117.232C118.114 40.6941 118.573 41.7183 118.573 42.7426" fill="white"/>
<path d="M334.698 26.6673C332.359 24.4377 328.931 23.3076 324.511 23.3076H312.894C307.668 23.3076 303.766 25.4313 301.615 29.4533L301.482 29.6991L301.744 29.7913L309.272 32.4715L309.466 32.5432L309.561 32.3588C309.927 31.7519 310.439 31.2465 311.05 30.8887C311.661 30.5309 312.351 30.3321 313.058 30.3103H324.351C327.153 30.3103 328.151 32.2735 328.151 33.9567V34.3733H312.734C308.887 34.3733 305.949 35.1688 303.994 36.7428C302.142 38.2177 301.199 40.3892 301.199 43.1206C301.199 47.1221 303.201 51.8918 312.728 51.8918H319.602C323.241 51.8918 326.112 50.7924 328.144 48.621V51.8918H338.001V35.2985C338.001 31.7101 336.857 28.7226 334.695 26.6604L334.698 26.6673ZM328.144 40.3516V41.2598C328.144 43.8888 326.738 45.3979 324.29 45.3979H312.714C311.447 45.3979 310.882 44.1415 310.882 42.9021C310.882 41.6627 311.447 40.3516 312.714 40.3516H328.144Z" fill="white"/>
<path d="M61.2543 40.0039V43.6606C61.2543 46.9377 60.6106 50.1827 59.36 53.2104C58.1094 56.2381 56.2764 58.9891 53.9656 61.3063C51.6548 63.6236 48.9115 65.4618 45.8923 66.7159C42.8731 67.97 39.6371 68.6154 36.3692 68.6154C33.1012 68.6154 29.8653 67.97 26.8461 66.7159C23.8269 65.4618 21.0836 63.6236 18.7728 61.3063C16.462 58.9891 14.629 56.2381 13.3784 53.2104C12.1278 50.1827 11.4841 46.9377 11.4841 43.6606V40.0039H0V64.6651L36.6143 89.999L73.2287 64.6651V40.0039H61.2543Z" fill="white"/>
<path d="M53.3761 43.1222C53.3768 39.7665 52.3851 36.4859 50.5263 33.6954C48.6676 30.9049 46.0254 28.7299 42.9339 27.4454C39.8424 26.1609 36.4405 25.8246 33.1584 26.4791C29.8763 27.1337 26.8615 28.7495 24.4952 31.1224C22.129 33.4953 20.5176 36.5185 19.865 39.8098C19.2123 43.1011 19.5476 46.5126 20.8285 49.6128C22.1094 52.713 24.2784 55.3626 27.0611 57.2265C29.8437 59.0904 33.1151 60.085 36.4615 60.0843C40.9473 60.0834 45.249 58.296 48.421 55.1152C51.5929 51.9344 53.3752 47.6206 53.3761 43.1222ZM28.297 43.1222C28.297 41.5016 28.7762 39.9173 29.6741 38.5698C30.572 37.2222 31.8482 36.1719 33.3413 35.5517C34.8344 34.9315 36.4774 34.7693 38.0624 35.0854C39.6475 35.4016 41.1035 36.182 42.2463 37.328C43.3891 38.474 44.1673 39.9341 44.4826 41.5236C44.7979 43.1131 44.6361 44.7607 44.0176 46.258C43.3992 47.7553 42.3518 49.0351 41.0081 49.9355C39.6643 50.8359 38.0844 51.3165 36.4683 51.3165C34.3011 51.3165 32.2227 50.4531 30.6903 48.9164C29.1579 47.3797 28.297 45.2955 28.297 43.1222Z" fill="white"/>
<path d="M11.5306 33.3744H4.47266V25.4738L19.6577 9.30387H26.1845V0H33.2425V16.3816H22.7083L11.5306 28.2804V33.3744Z" fill="white"/>
<path d="M68.2484 33.3744H61.1904V28.2804L50.0161 16.3816H39.4785V0H46.5365V9.30387H53.0633L68.2484 25.4738V33.3744Z" fill="white"/>
<path d="M93.3535 64.1553H94.7256L97.1021 70.5092L99.4888 64.1553H100.861V71.7145H99.911V65.4254H99.8906L97.5345 71.7145H96.6799L94.3239 65.4254H94.3034V71.7145H93.3535V64.1553Z" fill="white"/>
<path d="M104.681 64.1553H105.791L108.736 71.7179H107.63L106.806 69.4406H103.616L102.771 71.7179H101.75L104.681 64.1553ZM106.489 68.5938L105.233 65.0669H105.209L103.932 68.5938H106.489Z" fill="white"/>
<path d="M109.584 64.1553H110.585V70.8677H113.595V64.1553H114.599V70.8677H117.609V64.1553H118.61V71.7145H109.584V64.1553Z" fill="white"/>
<path d="M120.363 64.1553H121.368V70.5604L125.157 64.1553H126.424V71.7145H125.423V65.2888L121.62 71.7145H120.363V64.1553Z" fill="white"/>
<path d="M128.178 64.1553H129.182V67.4057H133.152V64.1553H134.156V71.7145H133.152V68.2524H129.182V71.7145H128.178V64.1553Z" fill="white"/>
<path d="M139.097 71.884C138.554 71.8963 138.015 71.7866 137.52 71.5631C137.085 71.3587 136.7 71.0602 136.393 70.689C136.088 70.3168 135.857 69.8891 135.713 69.4292C135.408 68.459 135.408 67.4187 135.713 66.4485C135.855 65.9859 136.087 65.5557 136.393 65.1818C136.701 64.8106 137.086 64.5112 137.52 64.3044C138.017 64.0881 138.553 63.9766 139.095 63.9766C139.637 63.9766 140.173 64.0881 140.67 64.3044C141.105 64.5112 141.489 64.8106 141.797 65.1818C142.102 65.5566 142.334 65.9866 142.478 66.4485C142.777 67.4194 142.777 68.4584 142.478 69.4292C142.332 69.8884 142.101 70.3158 141.797 70.689C141.49 71.0602 141.105 71.3587 140.67 71.5631C140.176 71.7862 139.638 71.8959 139.097 71.884ZM139.097 71.0475C139.507 71.0591 139.913 70.9663 140.278 70.7778C140.601 70.6066 140.88 70.3623 141.092 70.0642C141.305 69.7615 141.462 69.4226 141.555 69.0638C141.755 68.3249 141.755 67.546 141.555 66.807C141.462 66.4483 141.305 66.1094 141.092 65.8066C140.88 65.5086 140.601 65.2643 140.278 65.0931C139.907 64.9119 139.5 64.8178 139.087 64.8178C138.674 64.8178 138.266 64.9119 137.895 65.0931C137.572 65.2643 137.293 65.5086 137.081 65.8066C136.868 66.1094 136.711 66.4483 136.618 66.807C136.423 67.5466 136.423 68.3243 136.618 69.0638C136.711 69.4226 136.868 69.7615 137.081 70.0642C137.293 70.3623 137.572 70.6066 137.895 70.7778C138.261 70.9666 138.669 71.0593 139.08 71.0475" fill="white"/>
<path d="M147.152 71.8839C146.626 71.8964 146.103 71.7939 145.62 71.5835C145.199 71.3933 144.827 71.1082 144.534 70.7504C144.235 70.3821 144.014 69.957 143.884 69.5008C143.737 68.9996 143.665 68.4797 143.669 67.9575C143.664 67.4307 143.742 66.9064 143.901 66.404C144.043 65.9424 144.275 65.5132 144.582 65.1407C144.885 64.7766 145.265 64.485 145.695 64.2872C146.18 64.0707 146.707 63.9646 147.237 63.9765C147.616 63.9738 147.994 64.0267 148.357 64.1335C148.695 64.2336 149.013 64.3919 149.297 64.6013C149.572 64.8092 149.803 65.069 149.978 65.3661C150.168 65.6934 150.291 66.0556 150.339 66.4313H149.348C149.268 65.9459 149 65.5118 148.603 65.2227C148.201 64.9509 147.725 64.8113 147.241 64.8232C146.84 64.8122 146.443 64.8989 146.083 65.0759C145.77 65.2391 145.498 65.4728 145.29 65.7587C145.079 66.0546 144.925 66.3868 144.834 66.7386C144.734 67.1116 144.683 67.4962 144.684 67.8824C144.682 68.2945 144.732 68.7052 144.834 69.1047C144.92 69.4664 145.075 69.8083 145.29 70.1119C145.5 70.3988 145.774 70.6326 146.09 70.7948C146.451 70.9713 146.849 71.058 147.251 71.0474C147.551 71.052 147.848 70.9963 148.126 70.8835C148.382 70.7818 148.614 70.6271 148.807 70.4294C148.996 70.2325 149.145 70.0006 149.246 69.7466C149.353 69.4675 149.417 69.1741 149.437 68.8759H150.438C150.396 69.7143 150.049 70.508 149.461 71.1055C148.832 71.6592 148.011 71.9425 147.176 71.8942" fill="white"/>
<path d="M153.479 65.002H150.966V64.1553H156.996V65.002H154.48V71.7145H153.479V65.002Z" fill="white"/>
<path d="M157.931 64.1537H161.237C161.55 64.1308 161.865 64.171 162.162 64.2718C162.46 64.3727 162.734 64.5322 162.97 64.741C163.344 65.208 163.548 65.7892 163.548 66.3884C163.548 66.9876 163.344 67.5688 162.97 68.0357C162.735 68.2454 162.461 68.4054 162.163 68.5063C161.865 68.6072 161.55 68.6469 161.237 68.623H158.935V71.7163H157.931V64.1537ZM160.9 67.7763C161.344 67.8176 161.787 67.6963 162.149 67.4348C162.4 67.1532 162.539 66.7885 162.539 66.4106C162.539 66.0326 162.4 65.668 162.149 65.3863C161.787 65.1248 161.344 65.0036 160.9 65.0449H158.935V67.8207L160.9 67.7763Z" fill="white"/>
<path d="M168.074 71.8839C167.533 71.8965 166.995 71.7868 166.501 71.563C166.065 71.3586 165.679 71.0601 165.371 70.6889C165.066 70.3167 164.834 69.8889 164.69 69.429C164.386 68.4589 164.386 67.4185 164.69 66.4484C164.833 65.9858 165.064 65.5555 165.371 65.1817C165.68 64.8104 166.066 64.5109 166.501 64.3042C166.998 64.0881 167.533 63.9766 168.074 63.9766C168.616 63.9766 169.151 64.0881 169.647 64.3042C170.083 64.5119 170.468 64.8112 170.778 65.1817C171.082 65.5572 171.313 65.987 171.459 66.4484C171.758 67.4192 171.758 68.4582 171.459 69.429C171.312 69.8877 171.081 70.315 170.778 70.6889C170.469 71.0594 170.083 71.3577 169.647 71.563C169.153 71.7861 168.616 71.8958 168.074 71.8839ZM168.074 71.0474C168.485 71.0589 168.891 70.9662 169.256 70.7777C169.579 70.6065 169.857 70.3622 170.07 70.0641C170.283 69.7614 170.44 69.4225 170.533 69.0637C170.732 68.3248 170.732 67.5458 170.533 66.8069C170.44 66.4482 170.283 66.1092 170.07 65.8065C169.857 65.5085 169.579 65.2641 169.256 65.0929C168.885 64.9118 168.477 64.8177 168.064 64.8177C167.651 64.8177 167.244 64.9118 166.873 65.0929C166.551 65.2641 166.273 65.5085 166.062 65.8065C165.847 66.1085 165.689 66.4476 165.596 66.8069C165.401 67.5464 165.401 68.3242 165.596 69.0637C165.689 69.4231 165.847 69.7622 166.062 70.0641C166.273 70.3621 166.551 70.6065 166.873 70.7777C167.238 70.9664 167.646 71.0592 168.057 71.0474" fill="white"/>
<path d="M173.011 64.1553H174.015V70.5604L177.805 64.1553H179.075V71.7145H178.07V65.2888L174.267 71.7145H173.011V64.1553Z" fill="white"/>
<path d="M182.538 65.002H180.025V64.1553H186.055V65.002H183.539V71.7145H182.538V65.002Z" fill="white"/>
<path d="M186.99 64.1553H192.196V65.002H187.995V67.4057H191.913V68.2524H187.995V70.8677H192.23V71.7145H186.99V64.1553Z" fill="white"/>
<path d="M193.442 71.8237C193.328 71.8229 193.214 71.8138 193.101 71.7964C193.005 71.7842 192.911 71.7577 192.822 71.7179V70.8063C192.963 70.8479 193.108 70.8686 193.255 70.8677C193.413 70.8658 193.567 70.8185 193.699 70.7314C193.831 70.6442 193.936 70.5209 194 70.3761C194.211 69.9476 194.345 69.4853 194.395 69.0104C194.49 68.3062 194.543 67.5971 194.555 66.8867C194.576 66.0627 194.586 65.1522 194.586 64.1553H199.318V71.7179H198.297V65.002H195.553C195.553 65.6029 195.532 66.1868 195.515 66.7569C195.498 67.3271 195.464 67.8598 195.42 68.3651C195.379 68.8331 195.309 69.2983 195.212 69.7581C195.135 70.1373 195.012 70.5054 194.845 70.8541C194.711 71.1358 194.511 71.3808 194.262 71.5677C194.016 71.7427 193.72 71.8326 193.418 71.8237" fill="white"/>
<path d="M201.076 64.1553H202.098V67.2281H204.454C205.074 67.1903 205.685 67.3974 206.156 67.8051C206.541 68.2731 206.752 68.861 206.752 69.4679C206.752 70.0747 206.541 70.6626 206.156 71.1306C205.685 71.5383 205.074 71.7454 204.454 71.7076H201.093L201.076 64.1553ZM204.096 70.8677C205.197 70.8677 205.746 70.4057 205.744 69.4815C205.742 68.5574 205.192 68.0885 204.096 68.0749H202.081V70.8677H204.096Z" fill="white"/>
<path d="M208.08 64.1553H209.085V67.4057H213.054V64.1553H214.055V71.7145H213.054V68.2524H209.085V71.7145H208.08V64.1553Z" fill="white"/>
<path d="M218.995 71.8839C218.453 71.8958 217.916 71.7861 217.422 71.563C216.986 71.3577 216.6 71.0594 216.291 70.6889C215.987 70.3158 215.756 69.8883 215.611 69.429C215.311 68.4582 215.311 67.4192 215.611 66.4484C215.755 65.9864 215.986 65.5564 216.291 65.1817C216.601 64.8112 216.987 64.5119 217.422 64.3042C217.918 64.0881 218.454 63.9766 218.995 63.9766C219.536 63.9766 220.071 64.0881 220.568 64.3042C221.004 64.5109 221.389 64.8104 221.698 65.1817C222.005 65.5555 222.236 65.9858 222.379 66.4484C222.683 67.4185 222.683 68.4589 222.379 69.429C222.235 69.8889 222.004 70.3167 221.698 70.6889C221.39 71.0601 221.004 71.3586 220.568 71.563C220.074 71.7868 219.537 71.8965 218.995 71.8839ZM218.995 71.0474C219.402 71.0566 219.804 70.9639 220.166 70.7777C220.488 70.6055 220.767 70.3613 220.98 70.0641C221.193 69.7614 221.35 69.4225 221.443 69.0637C221.638 68.3242 221.638 67.5464 221.443 66.8069C221.35 66.4482 221.193 66.1092 220.98 65.8065C220.767 65.5093 220.488 65.2652 220.166 65.0929C219.795 64.9118 219.387 64.8177 218.974 64.8177C218.561 64.8177 218.154 64.9118 217.783 65.0929C217.46 65.2641 217.181 65.5085 216.969 65.8065C216.756 66.1092 216.599 66.4482 216.506 66.8069C216.306 67.5458 216.306 68.3248 216.506 69.0637C216.599 69.4225 216.756 69.7614 216.969 70.0641C217.181 70.3622 217.46 70.6065 217.783 70.7777C218.148 70.9662 218.554 71.0589 218.964 71.0474" fill="white"/>
<path d="M223.939 64.1553H229.145V65.002H224.944V67.4057H228.859V68.2524H224.944V70.8677H229.176V71.7145H223.939V64.1553Z" fill="white"/>
<path d="M93.333 76.8623H99.2027V84.4215H98.1983V77.709H94.334V84.4215H93.333V76.8623Z" fill="white"/>
<path d="M100.956 76.8623H104.259C104.572 76.8382 104.887 76.8778 105.185 76.9787C105.483 77.0796 105.757 77.2398 105.992 77.4496C106.368 77.9155 106.574 78.4971 106.574 79.097C106.574 79.6968 106.368 80.2784 105.992 80.7443C105.757 80.9535 105.482 81.1132 105.184 81.2141C104.887 81.3149 104.572 81.3549 104.259 81.3316H101.957V84.4352H100.956V76.8623ZM103.922 80.4848C104.367 80.5261 104.811 80.4048 105.175 80.1434C105.424 79.8611 105.562 79.4966 105.562 79.1191C105.562 78.7416 105.424 78.3772 105.175 78.0949C104.811 77.8335 104.367 77.7122 103.922 77.7534H101.957V80.5292L103.922 80.4848Z" fill="white"/>
<path d="M107.905 76.8623H113.111V77.709H108.906V80.1127H112.825V80.9594H108.906V83.5748H113.142V84.4215H107.905V76.8623Z" fill="white"/>
<path d="M113.73 83.5747H114.469C114.633 83.2718 114.764 82.9525 114.861 82.6222C114.988 82.2106 115.093 81.7923 115.174 81.3691C115.259 80.9116 115.331 80.4302 115.378 79.9181C115.426 79.4059 115.453 78.8938 115.453 78.3646V76.8623H120.308V83.5747H121.143V86.3062H120.182V84.4351H114.691V86.3096H113.73V83.5747ZM119.307 83.5747V77.709H116.424V78.7982C116.424 79.2659 116.4 79.7337 116.355 80.2014C116.311 80.6692 116.247 81.1165 116.165 81.5364C116.083 81.9564 115.991 82.3422 115.889 82.6973C115.806 82.998 115.699 83.2915 115.569 83.5747H119.307Z" fill="white"/>
<path d="M122.264 76.8623H128.137V84.4215H127.132V77.709H123.268V84.4215H122.264V76.8623Z" fill="white"/>
<path d="M129.887 76.8612H133.193C133.506 76.8373 133.821 76.877 134.119 76.9779C134.417 77.0788 134.691 77.2389 134.926 77.4485C135.3 77.9155 135.504 78.4967 135.504 79.0959C135.504 79.6951 135.3 80.2763 134.926 80.7433C134.69 80.9521 134.416 81.1116 134.118 81.2124C133.821 81.3133 133.506 81.3534 133.193 81.3305H130.891V84.4341H129.887V76.8612ZM132.856 80.4838C133.3 80.5251 133.743 80.4038 134.105 80.1423C134.356 79.8607 134.495 79.496 134.495 79.1181C134.495 78.7401 134.356 78.3755 134.105 78.0938C133.743 77.8323 133.3 77.7111 132.856 77.7524H130.891V80.5282L132.856 80.4838Z" fill="white"/>
<path d="M136.836 76.8623H137.84V83.2675L141.63 76.8623H142.896V84.4215H141.895V77.9924L138.092 84.4215H136.836V76.8623Z" fill="white"/>
<path d="M146.284 81.2454C145.784 81.1813 145.324 80.9389 144.987 80.5625C144.631 80.1381 144.45 79.5936 144.48 79.0398C144.458 78.738 144.503 78.4351 144.612 78.153C144.721 77.8708 144.891 77.6163 145.11 77.4078C145.605 77.0161 146.227 76.8205 146.856 76.8581H150.087V84.4343H149.093V81.3205H147.415L145.072 84.4343H143.826L146.284 81.2454ZM149.093 80.4601V77.7082H147.193C146.749 77.6807 146.306 77.7916 145.927 78.0258C145.773 78.1454 145.652 78.302 145.575 78.481C145.497 78.6601 145.466 78.8558 145.484 79.05C145.471 79.2481 145.504 79.4466 145.579 79.6301C145.655 79.8136 145.772 79.9772 145.92 80.1085C146.291 80.3709 146.741 80.4975 147.193 80.467L149.093 80.4601Z" fill="white"/>
<path d="M153.553 77.709H151.04V76.8623H157.066V77.709H154.554V84.4215H153.553V77.709Z" fill="white"/>
<path d="M158.007 76.8623H159.011V83.2675L162.804 76.8623H164.071V84.4215H163.066V77.9924L159.267 84.4215H158.007V76.8623Z" fill="white"/>
<path d="M165.819 76.8623H171.025V77.709H166.824V80.1127H170.743V80.9594H166.824V83.5748H171.059V84.4215H165.819V76.8623Z" fill="white"/>
</g>
<defs>
<clipPath id="clip0_133_11167">
<rect width="338" height="90" fill="white"/>
</clipPath>
</defs>
</svg>
