<svg width="141" height="37" viewBox="0 0 141 37" fill="none" xmlns="http://www.w3.org/2000/svg">
<g clip-path="url(#clip0_133_11208)">
<path d="M41.9607 20.0852C39.0483 20.0852 36.6914 17.7369 36.6914 14.3149C36.6914 10.742 38.7116 8.19238 42.2132 8.19238C45.0078 8.19238 47.4825 10.3227 47.4825 13.9627C47.4825 17.4517 45.4792 20.0852 41.9607 20.0852ZM41.9944 10.2221C40.2941 10.2221 39.0651 11.6143 39.0651 13.9627C39.0651 16.7304 40.0752 18.0891 42.1796 18.0891C43.964 18.0891 45.1088 16.8143 45.1088 14.2814C45.1088 11.5808 43.9472 10.2086 41.9944 10.2086V10.2221Z" fill="white"/>
<path d="M56.1524 13.7446C55.8494 13.2246 54.9908 12.8053 53.6945 12.8053C53.0489 12.8024 52.428 13.0522 51.9652 13.5007C51.5025 13.9493 51.2348 14.5608 51.2198 15.204C51.2198 16.8478 52.1962 17.9717 53.7282 17.9717C55.0245 17.9717 55.7989 17.5523 56.1188 17.133H56.2029V18.173C56.2029 19.2633 55.1423 20.0517 53.5094 20.0517C52.9065 20.061 52.3077 19.9515 51.7475 19.7295C51.1872 19.5075 50.6765 19.1773 50.2447 18.758C49.8129 18.3387 49.4686 17.8385 49.2315 17.2861C48.9943 16.7338 48.8691 16.1402 48.8629 15.5394C48.8629 12.9562 50.6643 10.742 53.7619 10.742C55.2097 10.742 56.2366 11.6143 56.2366 12.6878V13.7446H56.1524Z" fill="white"/>
<path d="M61.6742 20.0685C59.8729 20.0685 57.7854 19.4981 57.7854 17.0156V10.8259H58.1726C59.4857 10.8259 60.0413 11.3795 60.0413 12.4362V14.0298C60.5835 13.7281 61.1886 13.5559 61.8089 13.5265C63.9806 13.5265 65.4453 14.9523 65.4453 16.831C65.4453 18.7098 64.0311 20.0685 61.6742 20.0685ZM61.4554 15.2409C60.9562 15.2737 60.4718 15.4231 60.0413 15.677V17.0692C60.0413 17.9415 60.9504 18.277 61.6911 18.277C62.5833 18.277 63.1557 17.7402 63.1557 16.7673C63.1557 15.7944 62.4116 15.2409 61.4554 15.2409Z" fill="white"/>
<path d="M76.9434 19.8839C76.1185 19.8839 75.5798 19.4478 75.5798 18.542C75.5798 17.6362 75.4283 15.0865 75.2768 13.6943C75.1421 14.0298 74.9738 14.4659 74.7886 15.0027C74.4687 15.9756 73.6101 18.6594 72.9704 19.8672H72.4822C71.7247 19.8672 71.1859 19.2801 70.5462 17.4014C70.26 16.5459 69.7213 14.6504 69.2836 13.6607C69.0648 15.5394 68.8964 18.2569 68.8964 19.8672H68.0378C67.8594 19.8728 67.6818 19.8419 67.5159 19.7764C67.3499 19.7109 67.1992 19.6123 67.073 19.4866C66.9468 19.3608 66.8478 19.2106 66.7821 19.0453C66.7164 18.88 66.6854 18.703 66.691 18.5252C66.7675 15.9308 67.0774 13.3484 67.617 10.8091H68.4419C70.6136 10.8091 71.2701 13.644 71.8425 15.3046C72.0277 15.8246 72.1119 16.3614 72.3307 16.8646C72.7516 15.6233 73.3071 14.0298 73.7617 12.8891C74.0529 12.1254 74.4807 11.4207 75.0243 10.8091H75.4956C76.6909 10.8091 77.2296 11.5304 77.3811 12.7382C77.6168 14.7007 77.903 17.4685 77.9367 19.8672L76.9434 19.8839Z" fill="white"/>
<path d="M84.2161 20.0014C81.1522 20.0014 79.7549 18.5923 79.7549 15.7743V10.8259H80.1421C81.4552 10.8259 82.0107 11.3795 82.0107 12.4362V15.8581C82.0107 17.4349 82.7346 18.0891 84.0983 18.0891C84.5635 18.0883 85.0269 18.032 85.4787 17.9214V10.8259H85.8659C87.179 10.8259 87.7346 11.3795 87.7346 12.4362V19.4814C86.5919 19.8176 85.4076 19.9926 84.2161 20.0014Z" fill="white"/>
<path d="M97.3641 19.8839C96.2867 19.8839 95.6638 19.3304 95.6638 18.2736V16.0427H92.179V19.8839H91.6235C90.546 19.8839 89.9231 19.3304 89.9231 18.2736V10.8259H90.3103C91.6235 10.8259 92.179 11.3795 92.179 12.4362V14.2982H95.6638V10.8259H96.051C97.3641 10.8259 97.9197 11.3795 97.9197 12.4362V19.8839H97.3641Z" fill="white"/>
<path d="M103.98 20.0852C101.253 20.0852 99.6873 17.9214 99.6873 15.5227C99.6873 12.8053 101.253 10.6246 104.182 10.6246C106.909 10.6246 108.475 12.8053 108.475 15.204C108.475 17.9247 106.909 20.0852 103.98 20.0852ZM103.98 12.6375C102.684 12.6375 102.027 13.7111 102.027 15.204C102.027 16.9988 102.684 18.0723 104.182 18.0723C105.495 18.0723 106.135 16.9988 106.135 15.5227C106.135 13.7111 105.462 12.6375 103.98 12.6375Z" fill="white"/>
<path d="M119.401 14.9859C120.028 15.944 120.714 16.8628 121.455 17.7369C122.195 18.542 122.498 18.693 123.088 18.8272C122.97 19.5317 122.599 19.951 121.64 19.951C121.383 19.9541 121.128 19.9052 120.891 19.8071C120.654 19.7091 120.439 19.564 120.259 19.3807C119.148 18.1898 118.256 16.8143 117.296 15.5059V19.8672H116.741C115.664 19.8672 115.041 19.3136 115.041 18.2568V15.4891C114.064 16.7975 113.189 18.173 112.078 19.3639C111.894 19.5464 111.676 19.6907 111.436 19.7886C111.197 19.8865 110.94 19.936 110.68 19.9343C109.721 19.9343 109.35 19.5149 109.233 18.8104C109.822 18.6762 110.125 18.5252 110.866 17.7201C111.612 16.8502 112.298 15.9311 112.919 14.9691C111.768 13.5416 110.53 12.186 109.212 10.9098V10.8259H110.795C111.569 10.8259 111.94 11.0104 112.209 11.2956C113.232 12.3901 114.183 13.55 115.054 14.7678V10.8259H115.441C116.754 10.8259 117.31 11.3795 117.31 12.4362V14.7846C118.176 13.5673 119.121 12.4074 120.138 11.3124C120.424 11.0272 120.795 10.8427 121.552 10.8427H123.152V10.9266C121.822 12.2048 120.57 13.5603 119.401 14.9859Z" fill="white"/>
<path d="M131.202 19.9376C130.648 19.9231 130.119 19.7016 129.721 19.317C128.583 18.1003 127.526 16.8116 126.556 15.4589V19.8873H125.832C124.788 19.8873 124.283 19.3505 124.283 18.2938V10.8259H125.007C126.101 10.8259 126.556 11.4466 126.556 12.3188V14.7007C127.394 13.5339 128.322 12.4346 129.333 11.413C129.872 10.9098 130.411 10.8259 131.135 10.8259H132.444V10.9098C131.131 12.2071 129.895 13.5793 128.741 15.0194C129.465 15.9085 130.172 16.831 130.98 17.653C131.788 18.4749 132.175 18.6594 132.731 18.8272C132.498 19.5485 132.128 19.9376 131.202 19.9376Z" fill="white"/>
<path d="M137.566 20.0349H137.111C134.956 20.0349 133.475 18.8272 133.475 17.1665C133.475 15.5562 134.653 14.3317 137.987 14.3317H138.778V14.2143C138.778 12.9395 138.172 12.5369 136.825 12.5369C135.192 12.5369 134.283 13.1575 133.946 13.5769H133.862V12.8724C133.862 11.8659 134.771 10.6582 137.162 10.6582C139.182 10.6582 141 11.5975 141 14.7175V16.7975C141 18.7098 139.586 20.0349 137.566 20.0349ZM138.795 15.942H137.987C136.269 15.942 135.781 16.3446 135.781 17.0827C135.781 17.8207 136.354 18.2065 137.347 18.2065C138.34 18.2065 138.795 17.7369 138.795 16.8143V15.942Z" fill="white"/>
<path d="M36.9531 28.6345V24.3093H37.4149V28.6345H36.9531Z" fill="white"/>
<path d="M40.4151 25.3597C40.6814 25.3597 40.9144 25.4112 41.1141 25.5142C41.3179 25.6131 41.476 25.7655 41.5884 25.9714C41.7048 26.1774 41.7631 26.4369 41.7631 26.75V28.6345H41.32V26.7932C41.32 26.4513 41.2326 26.1939 41.0579 26.0209C40.8873 25.8437 40.646 25.7552 40.334 25.7552C40.101 25.7552 39.8972 25.8025 39.7224 25.8973C39.5519 25.9879 39.4187 26.1218 39.323 26.2989C39.2315 26.4719 39.1857 26.682 39.1857 26.9291V28.6345H38.7427V25.3906H39.167V26.2804L39.0984 26.1135C39.2024 25.8787 39.3688 25.6954 39.5976 25.5636C39.8264 25.4277 40.0989 25.3597 40.4151 25.3597Z" fill="white"/>
<path d="M43.9959 28.6654C43.688 28.6654 43.4508 28.583 43.2844 28.4182C43.118 28.2535 43.0348 28.0207 43.0348 27.72V24.6739H43.4779V27.6953C43.4779 27.8848 43.5257 28.031 43.6214 28.134C43.7213 28.237 43.8627 28.2885 44.0458 28.2885C44.2413 28.2885 44.4036 28.2329 44.5325 28.1217L44.6886 28.4368C44.6012 28.515 44.4951 28.5727 44.3703 28.6098C44.2496 28.6469 44.1248 28.6654 43.9959 28.6654ZM42.4482 25.7552V25.3906H44.4764V25.7552H42.4482Z" fill="white"/>
<path d="M46.771 28.6654C46.4299 28.6654 46.1303 28.5954 45.8724 28.4553C45.6144 28.3111 45.4126 28.1155 45.267 27.8683C45.1214 27.6171 45.0486 27.3308 45.0486 27.0095C45.0486 26.6882 45.1173 26.4039 45.2545 26.1568C45.396 25.9096 45.5874 25.716 45.8287 25.576C46.0741 25.4318 46.3487 25.3597 46.6524 25.3597C46.9603 25.3597 47.2328 25.4297 47.47 25.5698C47.7113 25.7057 47.9005 25.8993 48.0378 26.1506C48.1751 26.3978 48.2438 26.684 48.2438 27.0095C48.2438 27.0301 48.2417 27.0527 48.2375 27.0774C48.2375 27.098 48.2375 27.1207 48.2375 27.1454H45.3856V26.8179H48.0004L47.8257 26.9477C47.8257 26.7129 47.7737 26.5049 47.6696 26.3236C47.5698 26.1383 47.4325 25.9941 47.2578 25.8911C47.083 25.7881 46.8813 25.7366 46.6524 25.7366C46.4278 25.7366 46.226 25.7881 46.0471 25.8911C45.8682 25.9941 45.7288 26.1383 45.629 26.3236C45.5291 26.509 45.4792 26.7211 45.4792 26.96V27.028C45.4792 27.2752 45.5333 27.4935 45.6415 27.683C45.7538 27.8683 45.9077 28.0146 46.1033 28.1217C46.303 28.2246 46.5297 28.2761 46.7835 28.2761C46.9832 28.2761 47.1683 28.2411 47.3389 28.1711C47.5136 28.1011 47.6634 27.994 47.7882 27.8498L48.0378 28.134C47.8922 28.307 47.7092 28.4388 47.4887 28.5295C47.2723 28.6201 47.0331 28.6654 46.771 28.6654Z" fill="white"/>
<path d="M50.5435 29.8641C50.244 29.8641 49.9569 29.8208 49.6823 29.7343C49.4077 29.6478 49.1852 29.5243 49.0146 29.3636L49.2392 29.0299C49.3932 29.1659 49.5825 29.273 49.8071 29.3512C50.036 29.4336 50.2773 29.4748 50.531 29.4748C50.9471 29.4748 51.2529 29.378 51.4484 29.1844C51.644 28.9949 51.7417 28.6984 51.7417 28.2947V27.4852L51.8041 26.9291L51.7604 26.373V25.3906H52.1848V28.2391C52.1848 28.7993 52.0454 29.2091 51.7667 29.4686C51.4921 29.7323 51.0844 29.8641 50.5435 29.8641ZM50.4624 28.5109C50.1504 28.5109 49.8695 28.445 49.6199 28.3132C49.3703 28.1773 49.1727 27.9898 49.0271 27.7509C48.8856 27.512 48.8149 27.2381 48.8149 26.9291C48.8149 26.6202 48.8856 26.3483 49.0271 26.1135C49.1727 25.8746 49.3703 25.6893 49.6199 25.5574C49.8695 25.4256 50.1504 25.3597 50.4624 25.3597C50.7536 25.3597 51.0157 25.4194 51.2487 25.5389C51.4817 25.6584 51.6668 25.8355 51.8041 26.0703C51.9414 26.3051 52.0101 26.5914 52.0101 26.9291C52.0101 27.2669 51.9414 27.5532 51.8041 27.788C51.6668 28.0228 51.4817 28.202 51.2487 28.3256C51.0157 28.4491 50.7536 28.5109 50.4624 28.5109ZM50.5061 28.1217C50.7474 28.1217 50.9616 28.0722 51.1489 27.9734C51.3361 27.8704 51.4838 27.7303 51.5919 27.5532C51.7001 27.372 51.7542 27.1639 51.7542 26.9291C51.7542 26.6943 51.7001 26.4884 51.5919 26.3113C51.4838 26.1341 51.3361 25.9961 51.1489 25.8973C50.9616 25.7943 50.7474 25.7428 50.5061 25.7428C50.2689 25.7428 50.0547 25.7943 49.8633 25.8973C49.6761 25.9961 49.5284 26.1341 49.4202 26.3113C49.3162 26.4884 49.2642 26.6943 49.2642 26.9291C49.2642 27.1639 49.3162 27.372 49.4202 27.5532C49.5284 27.7303 49.6761 27.8704 49.8633 27.9734C50.0547 28.0722 50.2689 28.1217 50.5061 28.1217Z" fill="white"/>
<path d="M53.4178 28.6345V25.3906H53.8421V26.2742L53.7984 26.1197C53.89 25.8726 54.0439 25.6851 54.2602 25.5574C54.4766 25.4256 54.7449 25.3597 55.0653 25.3597V25.7861C55.0486 25.7861 55.032 25.7861 55.0153 25.7861C54.9987 25.7819 54.9821 25.7799 54.9654 25.7799C54.6201 25.7799 54.3497 25.8849 54.1541 26.095C53.9586 26.301 53.8608 26.5955 53.8608 26.9786V28.6345H53.4178Z" fill="white"/>
<path d="M57.6831 28.6345V27.9178L57.6644 27.8004V26.6017C57.6644 26.3257 57.5854 26.1135 57.4273 25.9652C57.2733 25.817 57.0424 25.7428 56.7346 25.7428C56.5224 25.7428 56.3206 25.7778 56.1292 25.8478C55.9379 25.9179 55.7756 26.0106 55.6425 26.1259L55.4428 25.7984C55.6092 25.6584 55.8089 25.5513 56.0419 25.4771C56.2748 25.3989 56.5203 25.3597 56.7782 25.3597C57.2026 25.3597 57.5292 25.4648 57.758 25.6748C57.991 25.8808 58.1075 26.1959 58.1075 26.6202V28.6345H57.6831ZM56.5536 28.6654C56.3081 28.6654 56.0939 28.6263 55.9108 28.548C55.7319 28.4656 55.5946 28.3544 55.4989 28.2143C55.4032 28.0702 55.3554 27.9054 55.3554 27.72C55.3554 27.5511 55.3949 27.3987 55.474 27.2628C55.5572 27.1227 55.6903 27.0115 55.8734 26.9291C56.0606 26.8426 56.3102 26.7994 56.6222 26.7994H57.7518V27.1269H56.6347C56.3185 27.1269 56.098 27.1825 55.9732 27.2937C55.8526 27.4049 55.7922 27.5429 55.7922 27.7077C55.7922 27.893 55.865 28.0413 56.0107 28.1526C56.1563 28.2638 56.3601 28.3194 56.6222 28.3194C56.8719 28.3194 57.0861 28.2638 57.265 28.1526C57.4481 28.0372 57.5812 27.8724 57.6644 27.6582L57.7643 27.961C57.6811 28.1752 57.5354 28.3462 57.3274 28.4739C57.1236 28.6015 56.8656 28.6654 56.5536 28.6654Z" fill="white"/>
<path d="M60.3469 28.6654C60.039 28.6654 59.8019 28.583 59.6355 28.4182C59.469 28.2535 59.3858 28.0207 59.3858 27.72V24.6739H59.8289V27.6953C59.8289 27.8848 59.8768 28.031 59.9724 28.134C60.0723 28.237 60.2137 28.2885 60.3968 28.2885C60.5923 28.2885 60.7546 28.2329 60.8836 28.1217L61.0396 28.4368C60.9522 28.515 60.8461 28.5727 60.7213 28.6098C60.6007 28.6469 60.4759 28.6654 60.3469 28.6654ZM58.7992 25.7552V25.3906H60.8274V25.7552H58.7992Z" fill="white"/>
<path d="M63.0659 28.6654C62.7497 28.6654 62.4647 28.5954 62.2109 28.4553C61.9613 28.3111 61.7637 28.1155 61.6181 27.8683C61.4724 27.6171 61.3996 27.3308 61.3996 27.0095C61.3996 26.684 61.4724 26.3978 61.6181 26.1506C61.7637 25.9035 61.9613 25.7099 62.2109 25.5698C62.4605 25.4297 62.7455 25.3597 63.0659 25.3597C63.3904 25.3597 63.6774 25.4297 63.9271 25.5698C64.1809 25.7099 64.3785 25.9035 64.5199 26.1506C64.6655 26.3978 64.7383 26.684 64.7383 27.0095C64.7383 27.3308 64.6655 27.6171 64.5199 27.8683C64.3785 28.1155 64.1809 28.3111 63.9271 28.4553C63.6733 28.5954 63.3862 28.6654 63.0659 28.6654ZM63.0659 28.2761C63.303 28.2761 63.5131 28.2246 63.6962 28.1217C63.8792 28.0146 64.0228 27.8663 64.1268 27.6768C64.2349 27.4832 64.289 27.2607 64.289 27.0095C64.289 26.7541 64.2349 26.5316 64.1268 26.3422C64.0228 26.1527 63.8792 26.0064 63.6962 25.9035C63.5131 25.7964 63.3051 25.7428 63.0721 25.7428C62.8391 25.7428 62.6311 25.7964 62.4481 25.9035C62.265 26.0064 62.1194 26.1527 62.0112 26.3422C61.903 26.5316 61.849 26.7541 61.849 27.0095C61.849 27.2607 61.903 27.4832 62.0112 27.6768C62.1194 27.8663 62.265 28.0146 62.4481 28.1217C62.6311 28.2246 62.837 28.2761 63.0659 28.2761Z" fill="white"/>
<path d="M65.6429 28.6345V25.3906H66.0673V26.2742L66.0236 26.1197C66.1151 25.8726 66.2691 25.6851 66.4854 25.5574C66.7017 25.4256 66.9701 25.3597 67.2904 25.3597V25.7861C67.2738 25.7861 67.2572 25.7861 67.2405 25.7861C67.2239 25.7819 67.2072 25.7799 67.1906 25.7799C66.8453 25.7799 66.5749 25.8849 66.3793 26.095C66.1838 26.301 66.086 26.5955 66.086 26.9786V28.6345H65.6429Z" fill="white"/>
<path d="M70.4487 28.6345L69.2131 25.3906H69.6374L70.7607 28.3997H70.5673L71.7218 25.3906H72.1025L73.2445 28.3997H73.051L74.1931 25.3906H74.5987L73.3568 28.6345H72.9387L71.8404 25.8046H71.9714L70.8668 28.6345H70.4487Z" fill="white"/>
<path d="M76.5661 28.6654C76.2249 28.6654 75.9254 28.5954 75.6674 28.4553C75.4095 28.3111 75.2077 28.1155 75.0621 27.8683C74.9165 27.6171 74.8437 27.3308 74.8437 27.0095C74.8437 26.6882 74.9123 26.4039 75.0496 26.1568C75.1911 25.9096 75.3824 25.716 75.6237 25.576C75.8692 25.4318 76.1438 25.3597 76.4475 25.3597C76.7554 25.3597 77.0279 25.4297 77.265 25.5698C77.5063 25.7057 77.6956 25.8993 77.8329 26.1506C77.9702 26.3978 78.0389 26.684 78.0389 27.0095C78.0389 27.0301 78.0368 27.0527 78.0326 27.0774C78.0326 27.098 78.0326 27.1207 78.0326 27.1454H75.1807V26.8179H77.7955L77.6207 26.9477C77.6207 26.7129 77.5687 26.5049 77.4647 26.3236C77.3649 26.1383 77.2276 25.9941 77.0528 25.8911C76.8781 25.7881 76.6763 25.7366 76.4475 25.7366C76.2228 25.7366 76.0211 25.7881 75.8422 25.8911C75.6633 25.9941 75.5239 26.1383 75.4241 26.3236C75.3242 26.509 75.2743 26.7211 75.2743 26.96V27.028C75.2743 27.2752 75.3284 27.4935 75.4365 27.683C75.5489 27.8683 75.7028 28.0146 75.8983 28.1217C76.098 28.2246 76.3248 28.2761 76.5786 28.2761C76.7783 28.2761 76.9634 28.2411 77.134 28.1711C77.3087 28.1011 77.4585 27.994 77.5833 27.8498L77.8329 28.134C77.6873 28.307 77.5042 28.4388 77.2837 28.5295C77.0674 28.6201 76.8282 28.6654 76.5661 28.6654Z" fill="white"/>
<path d="M80.6319 28.6654C80.3448 28.6654 80.0869 28.6015 79.8581 28.4739C79.6293 28.342 79.4483 28.1526 79.3151 27.9054C79.182 27.6582 79.1154 27.3596 79.1154 27.0095C79.1154 26.6552 79.182 26.3566 79.3151 26.1135C79.4524 25.8664 79.6355 25.679 79.8643 25.5513C80.0931 25.4236 80.349 25.3597 80.6319 25.3597C80.9439 25.3597 81.2227 25.4297 81.4681 25.5698C81.7178 25.7057 81.9133 25.8973 82.0548 26.1444C82.1962 26.3916 82.2669 26.6799 82.2669 27.0095C82.2669 27.3349 82.1962 27.6232 82.0548 27.8745C81.9133 28.1217 81.7178 28.3153 81.4681 28.4553C81.2227 28.5954 80.9439 28.6654 80.6319 28.6654ZM78.9407 28.6345V24.0498H79.3838V26.3483L79.3214 27.0033L79.3651 27.6582V28.6345H78.9407ZM80.6007 28.2761C80.8337 28.2761 81.0417 28.2246 81.2248 28.1217C81.4078 28.0146 81.5534 27.8663 81.6616 27.6768C81.7698 27.4832 81.8239 27.2607 81.8239 27.0095C81.8239 26.7541 81.7698 26.5316 81.6616 26.3422C81.5534 26.1527 81.4078 26.0064 81.2248 25.9035C81.0417 25.7964 80.8337 25.7428 80.6007 25.7428C80.3677 25.7428 80.1576 25.7964 79.9704 25.9035C79.7873 26.0064 79.6417 26.1527 79.5336 26.3422C79.4296 26.5316 79.3776 26.7541 79.3776 27.0095C79.3776 27.2607 79.4296 27.4832 79.5336 27.6768C79.6417 27.8663 79.7873 28.0146 79.9704 28.1217C80.1576 28.2246 80.3677 28.2761 80.6007 28.2761Z" fill="white"/>
<path d="M85.8144 28.6716C85.4982 28.6716 85.1987 28.6221 84.9158 28.5233C84.637 28.4203 84.4124 28.2844 84.2418 28.1155L84.4602 27.7633C84.6017 27.9075 84.791 28.0269 85.0281 28.1217C85.2694 28.2164 85.5315 28.2638 85.8144 28.2638C86.1764 28.2638 86.453 28.1855 86.6444 28.029C86.8399 27.8724 86.9377 27.6624 86.9377 27.3987C86.9377 27.1351 86.842 26.925 86.6506 26.7685C86.4634 26.612 86.166 26.5337 85.7582 26.5337H85.4462V26.2062L86.7942 24.5318L86.8566 24.7048H84.4228V24.3093H87.231V24.6244L85.8831 26.2989L85.6646 26.1568H85.8331C86.3573 26.1568 86.7484 26.2721 87.0064 26.5028C87.2685 26.7335 87.3995 27.0301 87.3995 27.3926C87.3995 27.6356 87.3413 27.8539 87.2248 28.0475C87.1083 28.2411 86.9315 28.3935 86.6943 28.5047C86.4613 28.616 86.168 28.6716 85.8144 28.6716Z" fill="white"/>
<path d="M88.3696 28.6654C88.2781 28.6654 88.1991 28.6324 88.1325 28.5665C88.0701 28.5006 88.0389 28.4203 88.0389 28.3256C88.0389 28.2267 88.0701 28.1464 88.1325 28.0846C88.1991 28.0228 88.2781 27.9919 88.3696 27.9919C88.4612 27.9919 88.5381 28.0228 88.6005 28.0846C88.6671 28.1464 88.7004 28.2267 88.7004 28.3256C88.7004 28.4203 88.6671 28.5006 88.6005 28.5665C88.5381 28.6324 88.4612 28.6654 88.3696 28.6654Z" fill="white"/>
<path d="M91.0292 28.6716C90.6922 28.6716 90.3926 28.5851 90.1305 28.4121C89.8684 28.2349 89.6625 27.9837 89.5127 27.6582C89.363 27.3287 89.2881 26.9333 89.2881 26.4719C89.2881 26.0106 89.363 25.6172 89.5127 25.2918C89.6625 24.9622 89.8684 24.7109 90.1305 24.5379C90.3926 24.3608 90.6922 24.2722 91.0292 24.2722C91.3662 24.2722 91.6657 24.3608 91.9278 24.5379C92.1899 24.7109 92.3959 24.9622 92.5456 25.2918C92.6996 25.6172 92.7765 26.0106 92.7765 26.4719C92.7765 26.9333 92.6996 27.3287 92.5456 27.6582C92.3959 27.9837 92.1899 28.2349 91.9278 28.4121C91.6657 28.5851 91.3662 28.6716 91.0292 28.6716ZM91.0292 28.2638C91.2871 28.2638 91.5118 28.1958 91.7032 28.0599C91.8945 27.9198 92.0443 27.718 92.1525 27.4543C92.2607 27.1866 92.3147 26.8591 92.3147 26.4719C92.3147 26.0847 92.2607 25.7593 92.1525 25.4957C92.0443 25.2279 91.8945 25.0261 91.7032 24.8901C91.5118 24.7501 91.2871 24.68 91.0292 24.68C90.7796 24.68 90.557 24.7501 90.3614 24.8901C90.1659 25.0261 90.0141 25.2279 89.9059 25.4957C89.7977 25.7593 89.7436 26.0847 89.7436 26.4719C89.7436 26.8591 89.7977 27.1866 89.9059 27.4543C90.0141 27.718 90.1659 27.9198 90.3614 28.0599C90.557 28.1958 90.7796 28.2638 91.0292 28.2638Z" fill="white"/>
<path fill-rule="evenodd" clip-rule="evenodd" d="M28.1342 15.8465C28.2056 15.7944 28.2913 15.7663 28.3793 15.7662C28.4672 15.766 28.553 15.7938 28.6246 15.8456C28.6962 15.8974 28.7501 15.9706 28.7788 16.0551C28.8074 16.1396 28.8093 16.231 28.7842 16.3166C28.7592 16.4022 28.7084 16.4778 28.639 16.5326C28.5696 16.5875 28.4851 16.6189 28.3972 16.6226C28.3094 16.6262 28.2226 16.6019 28.149 16.5529C28.0754 16.504 28.0188 16.4329 27.9869 16.3497C27.9432 16.2626 27.9342 16.1618 27.9616 16.0682C27.989 15.9745 28.0508 15.8951 28.1342 15.8465ZM27.4213 13.6774C27.496 13.5369 27.6122 13.4236 27.7535 13.3536C27.8948 13.2835 28.0541 13.2601 28.2092 13.2867C28.3642 13.3132 28.5072 13.3884 28.618 13.5017C28.7289 13.615 28.802 13.7607 28.8272 13.9184C28.8524 14.076 28.8284 14.2377 28.7585 14.3808C28.6887 14.5239 28.5765 14.6412 28.4377 14.7162C28.2989 14.7913 28.1404 14.8203 27.9846 14.7992C27.8287 14.7782 27.6832 14.7081 27.5686 14.5988C27.4329 14.4933 27.3421 14.3391 27.3147 14.1678C27.2874 13.9965 27.3255 13.8211 27.4213 13.6774ZM26.2499 13.895C25.9889 13.8712 25.7947 13.6842 25.8148 13.4802C25.8411 13.3703 25.9087 13.2753 26.0032 13.2156C26.0977 13.1558 26.2115 13.1361 26.3202 13.1606C26.5779 13.1844 26.7754 13.3714 26.7553 13.5754C26.7283 13.6848 26.6605 13.7793 26.5662 13.8389C26.4719 13.8986 26.3585 13.9187 26.2499 13.895ZM29.0345 17.8558C29.0733 17.8329 29.1176 17.8215 29.1624 17.8229C29.2072 17.8242 29.2508 17.8382 29.2882 17.8633C29.3256 17.8884 29.3554 17.9236 29.3741 17.965C29.3929 18.0063 29.4 18.0522 29.3945 18.0974C29.3891 18.1426 29.3713 18.1853 29.3432 18.2208C29.3151 18.2564 29.2779 18.2832 29.2356 18.2984C29.1933 18.3135 29.1477 18.3164 29.1039 18.3067C29.0601 18.297 29.0198 18.275 28.9876 18.2433C28.9448 18.1851 28.9257 18.1122 28.9344 18.04C28.9432 17.9678 28.979 17.9018 29.0345 17.8558ZM29.4428 15.2991C29.5303 15.2458 29.632 15.2216 29.7336 15.2299C29.8353 15.2382 29.9319 15.2786 30.0098 15.3455C30.0877 15.4124 30.1431 15.5023 30.1681 15.6028C30.1931 15.7032 30.1866 15.8091 30.1494 15.9056C30.1122 16.0021 30.0462 16.0843 29.9607 16.1408C29.8752 16.1973 29.7744 16.2252 29.6725 16.2205C29.5706 16.2159 29.4727 16.1789 29.3925 16.1149C29.3123 16.0509 29.2538 15.963 29.2253 15.8635C29.1831 15.7591 29.1821 15.6421 29.2226 15.537C29.2632 15.4319 29.342 15.3467 29.4428 15.2991ZM21.1526 5.39212C21.7216 6.07208 21.9793 7.22461 21.5509 9.0605C21.4672 8.57092 21.1928 6.99682 20.8548 6.34066L21.1526 5.39892V5.39212ZM19.6733 4.66456C18.2911 3.20265 16.0553 2.17591 12.7152 3.17545C12.7152 3.17545 14.8304 1.69994 17.3405 2.15551C18.5048 2.39586 19.5493 3.04306 20.2925 3.9846L19.6733 4.66456ZM17.133 12.3787C18.5856 12.1815 20.4799 10.4034 20.4799 10.4034C20.4464 13.6196 17.7187 13.7794 17.133 12.3787ZM17.0695 35.7557C17.0014 35.7344 16.9443 35.6869 16.9105 35.6233C16.8767 35.5597 16.8689 35.4851 16.8887 35.4157C16.886 35.3787 16.8916 35.3416 16.9051 35.3071C16.9186 35.2727 16.9396 35.2418 16.9666 35.2168C16.9935 35.1918 17.0257 35.1734 17.0607 35.1629C17.0958 35.1524 17.1327 35.1501 17.1687 35.1562C17.2047 35.1623 17.2388 35.1766 17.2686 35.198C17.2983 35.2195 17.3229 35.2476 17.3404 35.2801C17.358 35.3126 17.368 35.3488 17.3697 35.3858C17.3715 35.4228 17.3649 35.4598 17.3506 35.4939C17.3238 35.6639 17.1966 35.7829 17.0695 35.7591V35.7557ZM15.6571 33.4268C15.5991 33.4667 15.5312 33.4893 15.4612 33.492C15.3912 33.4947 15.3219 33.4775 15.261 33.4422C15.2002 33.4069 15.1503 33.355 15.1171 33.2924C15.0838 33.2297 15.0685 33.1589 15.0728 33.0879C15.0771 33.0169 15.101 32.9485 15.1416 32.8905C15.1823 32.8326 15.2381 32.7874 15.3028 32.76C15.3674 32.7326 15.4384 32.7242 15.5075 32.7357C15.5766 32.7472 15.6412 32.7782 15.6939 32.8251C15.7671 32.91 15.8042 33.0209 15.7973 33.1336C15.7905 33.2463 15.74 33.3517 15.6571 33.4268ZM16.0788 34.8513C16.0131 34.8521 15.9488 34.832 15.8949 34.7938C15.841 34.7557 15.8003 34.7013 15.7784 34.6384C15.7564 34.5754 15.7545 34.5071 15.7727 34.443C15.791 34.3789 15.8285 34.3222 15.8801 34.2809C15.9317 34.2395 15.9947 34.2156 16.0603 34.2125C16.126 34.2094 16.1909 34.2273 16.246 34.2636C16.3012 34.2999 16.3437 34.3528 16.3678 34.4149C16.3918 34.477 16.3961 34.5452 16.38 34.6099C16.3708 34.6822 16.3341 34.7479 16.2778 34.793C16.2215 34.8381 16.1501 34.859 16.0788 34.8513ZM14.7635 31.8629C14.6065 31.8548 14.456 31.797 14.3331 31.6977C14.2101 31.5984 14.1208 31.4625 14.0776 31.309C14.0345 31.1555 14.0397 30.9922 14.0925 30.8419C14.1453 30.6915 14.243 30.5618 14.3721 30.4707C14.5011 30.3796 14.655 30.3319 14.8121 30.3341C14.9692 30.3363 15.1217 30.3883 15.2482 30.483C15.3747 30.5776 15.4689 30.71 15.5177 30.8618C15.5664 31.0135 15.5671 31.1769 15.5199 31.3291C15.485 31.4995 15.3871 31.6499 15.2464 31.7492C15.1057 31.8485 14.9328 31.8892 14.7635 31.8629ZM14.7835 29.0207C14.8175 28.9578 14.8681 28.9058 14.9296 28.8705C14.9912 28.8353 15.0612 28.8183 15.1318 28.8215C15.2023 28.8246 15.2706 28.8478 15.3289 28.8883C15.3872 28.9288 15.4331 28.9852 15.4615 29.0508C15.4899 29.1165 15.4996 29.189 15.4896 29.26C15.4795 29.331 15.45 29.3978 15.4046 29.4527C15.3591 29.5076 15.2994 29.5484 15.2322 29.5706C15.165 29.5928 15.0931 29.5955 15.0245 29.5783C14.9216 29.5344 14.8393 29.4521 14.7944 29.3483C14.7496 29.2446 14.7457 29.1273 14.7835 29.0207ZM11.7513 10.2606C11.7513 10.2606 13.6289 12.1645 15.0814 12.3617C14.4957 13.7624 11.9655 13.878 11.7513 10.2606ZM22.0931 18.8179C22.1841 18.8426 22.2665 18.8927 22.3309 18.9624C22.3954 19.0321 22.4394 19.1188 22.458 19.2126C22.4766 19.3063 22.469 19.4035 22.4361 19.4932C22.4032 19.5828 22.3463 19.6613 22.2718 19.7199C22.1973 19.7784 22.1082 19.8147 22.0145 19.8245C21.9209 19.8343 21.8263 19.8174 21.7416 19.7756C21.6569 19.7337 21.5854 19.6687 21.5352 19.5878C21.4849 19.5069 21.4579 19.4133 21.4572 19.3177C21.4788 19.1669 21.5572 19.0306 21.6758 18.9374C21.7944 18.8442 21.944 18.8013 22.0931 18.8179ZM22.8629 21.3813C22.9748 21.3818 23.0837 21.4178 23.1744 21.4844C23.2651 21.5509 23.333 21.6447 23.3686 21.7524C23.4041 21.8602 23.4056 21.9766 23.3727 22.0852C23.3398 22.1938 23.2742 22.2893 23.1852 22.3581C23.0962 22.427 22.9882 22.4658 22.8763 22.469C22.7645 22.4723 22.6544 22.44 22.5616 22.3764C22.4688 22.3129 22.398 22.2215 22.3589 22.115C22.3199 22.0085 22.3147 21.8922 22.3441 21.7825C22.3624 21.6603 22.4267 21.5501 22.5235 21.4753C22.6204 21.4004 22.7421 21.3667 22.8629 21.3813ZM23.3448 19.8616C23.4586 19.8264 23.5808 19.8306 23.692 19.8736C23.8031 19.9167 23.897 19.9962 23.9588 20.0995C24.0206 20.2028 24.0467 20.324 24.0331 20.4441C24.0195 20.5642 23.9669 20.6762 23.8837 20.7626C23.7699 20.7979 23.6477 20.7936 23.5366 20.7506C23.4254 20.7075 23.3315 20.6281 23.2697 20.5248C23.2079 20.4215 23.1818 20.3002 23.1954 20.1801C23.209 20.06 23.2616 19.948 23.3448 19.8616ZM9.72642 31.0028C9.67943 31.0493 9.61929 31.0797 9.55443 31.0898C9.48957 31.0998 9.42323 31.0891 9.3647 31.0589C9.30617 31.0288 9.25837 30.9809 9.22801 30.9218C9.19764 30.8627 9.18621 30.7954 9.19533 30.7294C9.20445 30.6634 9.23366 30.602 9.27886 30.5537C9.32407 30.5054 9.38302 30.4726 9.44745 30.46C9.51188 30.4474 9.57858 30.4556 9.6382 30.4834C9.69782 30.5113 9.7474 30.5573 9.77997 30.6152C9.82211 30.6743 9.84008 30.7477 9.83009 30.8199C9.82011 30.8922 9.78295 30.9577 9.72642 31.0028ZM9.03027 27.7322C9.00149 27.6653 8.99935 27.5896 9.02432 27.5211C9.04928 27.4527 9.0994 27.3967 9.16415 27.365C9.18947 27.3367 9.2209 27.3147 9.25598 27.3007C9.29106 27.2868 9.32884 27.2812 9.36636 27.2846C9.40389 27.2879 9.44015 27.3 9.4723 27.32C9.50446 27.3399 9.53164 27.3671 9.55173 27.3995C9.57181 27.4319 9.58426 27.4685 9.58809 27.5066C9.59192 27.5447 9.58703 27.5831 9.57381 27.6189C9.56059 27.6548 9.53939 27.687 9.51187 27.7131C9.48434 27.7393 9.45125 27.7586 9.41516 27.7696C9.35879 27.8153 9.2871 27.837 9.21526 27.83C9.14342 27.8231 9.07708 27.788 9.03027 27.7322ZM8.85624 29.5069C8.76367 29.5975 8.64549 29.6565 8.51826 29.6755C8.39102 29.6945 8.26113 29.6725 8.1468 29.6127C8.03247 29.5529 7.93944 29.4583 7.88076 29.342C7.82208 29.2258 7.80069 29.0938 7.8196 28.9646C7.83851 28.8354 7.89676 28.7154 7.98619 28.6216C8.07562 28.5277 8.19173 28.4646 8.31824 28.4412C8.44475 28.4177 8.57532 28.4351 8.69161 28.4909C8.8079 28.5466 8.90409 28.638 8.96668 28.7521C9.0486 28.8678 9.08289 29.0113 9.06227 29.1522C9.04164 29.2932 8.96773 29.4204 8.85624 29.5069ZM7.79862 27.569C7.69985 27.5991 7.59423 27.5967 7.49689 27.5621C7.39954 27.5275 7.31545 27.4626 7.25667 27.3765C7.19788 27.2904 7.16741 27.1877 7.16962 27.0829C7.17182 26.9782 7.20659 26.8769 7.26895 26.7934C7.3313 26.71 7.41805 26.6487 7.51676 26.6184C7.61547 26.5881 7.7211 26.5903 7.81851 26.6247C7.91593 26.6591 8.00014 26.7239 8.05909 26.8098C8.11804 26.8958 8.1487 26.9985 8.1467 27.1032C8.1592 27.216 8.12818 27.3293 8.06015 27.4193C7.99212 27.5094 7.89238 27.5691 7.78189 27.586L7.79862 27.569ZM8.89305 24.9681C8.93184 24.9453 8.97613 24.9339 9.02095 24.9352C9.06576 24.9366 9.10932 24.9506 9.14673 24.9757C9.18413 25.0008 9.2139 25.036 9.23269 25.0773C9.25147 25.1187 9.25853 25.1645 9.25307 25.2098C9.2476 25.255 9.22983 25.2977 9.20175 25.3332C9.17368 25.3687 9.1364 25.3956 9.09413 25.4107C9.05186 25.4259 9.00626 25.4288 8.96246 25.4191C8.91866 25.4093 8.87839 25.3874 8.8462 25.3557C8.80331 25.2974 8.78424 25.2246 8.79297 25.1524C8.8017 25.0801 8.83756 25.0141 8.89305 24.9681ZM4.69943 22.0035C4.66824 22.0572 4.62313 22.1011 4.56904 22.1305C4.51495 22.1598 4.45394 22.1736 4.3927 22.1701C4.33145 22.1667 4.27231 22.1462 4.22175 22.1109C4.17118 22.0756 4.13114 22.0269 4.10598 21.9701C4.08082 21.9133 4.07153 21.8505 4.0791 21.7887C4.08668 21.7268 4.11084 21.6683 4.14894 21.6195C4.18705 21.5706 4.23763 21.5334 4.29517 21.5118C4.3527 21.4902 4.41498 21.485 4.47519 21.4969C4.57022 21.535 4.64686 21.6092 4.68876 21.7039C4.73065 21.7985 4.73448 21.906 4.69943 22.0035ZM2.73147 22.3435C2.34658 22.4319 1.94495 22.0919 1.83451 21.5887C1.72406 21.0856 1.94161 20.6028 2.32315 20.5144C2.70469 20.426 3.10966 20.766 3.22011 21.2692C3.33056 21.7723 3.11301 22.2551 2.73147 22.3435ZM2.06209 18.9437C2.10668 18.864 2.17239 18.7986 2.25175 18.755C2.3311 18.7114 2.42092 18.6913 2.51097 18.697C2.60103 18.7027 2.6877 18.7339 2.76114 18.7872C2.83457 18.8404 2.89181 18.9136 2.92634 18.9982C2.96088 19.0829 2.97132 19.1757 2.95648 19.2661C2.94163 19.3565 2.90211 19.4409 2.84239 19.5096C2.78268 19.5783 2.70518 19.6286 2.61871 19.6548C2.53224 19.681 2.44027 19.682 2.35327 19.6577C2.22334 19.5999 2.12045 19.4933 2.06617 19.3602C2.01188 19.2271 2.01043 19.0779 2.06209 18.9437ZM30.4502 21.7621C30.8987 21.9865 30.5875 24.0706 29.0144 23.9244C27.3878 23.768 28.2045 22.4387 29.5533 20.3818C32.86 15.3501 28.4086 11.267 24.7606 12.4909C23.4935 13.0039 22.3322 13.7535 21.3367 14.7008C25.9554 7.07161 22.7625 -0.0203549 16.0453 4.38982e-05H15.9349C15.1015 0.0170429 8.77926 0.605208 8.59853 7.81957C8.52155 10.5972 9.78667 12.3515 10.8644 14.7959C12.1596 17.747 11.8952 20.9904 7.78859 20.4634C8.87966 20.256 9.58251 19.8412 10.0176 19.3279C9.50218 19.2803 8.92652 18.9267 8.39437 18.2025C7.6681 17.2132 7.58777 16.8154 6.80126 16.3633C3.5548 14.5002 0.228009 17.7912 1.06138 21.3847C1.98177 25.3421 4.89689 25.6549 3.83593 27.8444C2.77498 30.0338 -0.71246 28.4053 0.981055 25.4237C-0.458098 26.6408 -0.0698616 28.6569 0.602859 29.6802C1.60692 31.2068 4.88016 31.6317 6.29253 29.5884C5.34872 27.331 4.33127 23.3872 8.30066 22.5407C13.0231 21.5377 11.6107 21.7213 12.5612 20.7932C11.9722 23.2818 8.72571 22.0953 7.38361 23.802C5.86748 25.7263 6.90167 28.3645 6.95522 28.4971C7.47398 29.6768 8.48139 30.962 10.0778 32.2369C10.5631 32.8115 10.9848 33.4948 10.8476 34.3482C10.6468 35.5993 8.66212 35.6299 8.60522 33.9708C8.43118 34.6507 8.51486 35.9291 9.94397 36.2248C11.3731 36.5206 13.4046 34.4298 12.8725 32.3049C12.3403 30.18 12.1194 29.9658 12.183 28.7113C12.3035 26.3314 14.8605 25.0565 15.7073 25.0225C11.5471 27.4228 13.0566 37 19.4825 37C24.8375 37 24.5028 30.7172 21.32 31.183C19.3119 31.4719 19.3453 32.8829 19.3453 32.8829C19.8839 32.6968 20.4617 32.6604 21.0188 32.7775C22.2002 33.1446 22.3809 34.7663 21.1024 35.4667C19.5261 36.3302 16.9657 34.7867 18.937 31.132C19.121 30.8473 19.3468 30.5927 19.6064 30.3772C18.8634 30.2208 17.8024 29.6632 17.5112 27.79C17.1431 25.4101 18.5789 23.4926 17.6685 23.4348C18.3078 22.0137 20.2657 21.7077 19.4156 23.547C19.111 24.1998 16.0453 28.0517 19.9243 30.0372C22.9767 30.8906 27.669 27.535 27.9367 30.2412C27.7326 31.3733 26.5344 31.8595 25.952 31.6011C26.3302 31.7983 27.5585 32.3287 28.586 31.4141C30.7883 29.4525 29.4094 26.1445 25.9387 26.7054C21.7986 27.3854 21.4271 25.5971 23.3013 23.921C24.8509 22.5339 25.2659 21.1026 24.9948 19.899C24.9665 19.8645 24.9438 19.8254 24.9279 19.7834C24.5028 18.2705 21.9559 15.7037 18.1271 19.1817C18.6492 18.5765 19.9645 17.305 21.7484 17.0364C22.8763 16.8698 24.3556 17.152 25.1823 18.0563C25.7646 16.948 26.4976 17.3764 26.6582 18.002C26.8423 18.7227 24.3154 22.6937 25.8282 24.3494C27.341 26.0051 30.0888 25.4169 30.9422 24.312C32.0634 22.8841 31.0661 22.0035 30.4469 21.7655L30.4502 21.7621Z" fill="white"/>
</g>
<defs>
<clipPath id="clip0_133_11208">
<rect width="141" height="37" fill="white"/>
</clipPath>
</defs>
</svg>
