<svg width="360" height="917" viewBox="0 0 360 917" fill="none" xmlns="http://www.w3.org/2000/svg"><path d="M369.396 891.337v-148.4a.938.938 0 00-.39-.791c-7.4-5.299-118.623-84.031-219.258-101.875-207.25-36.749-365.124 35.717-365.124 35.717v41.322s158.512-91.03 277.656-30.676C173.056 742.75 349.857 878.31 367.898 892.22c.658.507 1.498-.052 1.498-.883z" fill="#0E0F1A"/><path d="M59.152 1.459c-134.34-7.005-272.54 22.598-283.498 25.004-.456.1-.697.487-.697.954v659.445c0 .669.535 1.182 1.177.996 14.87-4.314 167.762-47.757 294.098-47.757 132.415 0 191.866 49.333 315.164 110.212.664.328 1.459-.146 1.459-.887V55.636c0-.388-.161-.712-.515-.87-7.497-3.327-97.58-41.335-327.188-53.307z" fill="#121423"/><ellipse cx="-35.92" cy="666.26" rx="37.876" ry="10.636" transform="rotate(178.387 -35.92 666.26)" fill="#EE6D8F"/><ellipse cx="61.714" cy="688.315" rx="40.639" ry="15.646" transform="rotate(-152.379 61.714 688.315)" fill="#EE6D8F"/><ellipse cx="150.206" cy="738.45" rx="40.639" ry="16.358" transform="rotate(-149.739 150.206 738.45)" fill="#EE6D8F"/><ellipse cx="137.446" cy="677.556" rx="38.081" ry="20.267" transform="rotate(-154.426 137.446 677.556)" fill="#EE6D8F"/><ellipse cx="232.467" cy="718.651" rx="40.261" ry="21.428" transform="rotate(-154.426 232.467 718.651)" fill="#EE6D8F"/><ellipse cx="327.365" cy="765.057" rx="40.261" ry="21.428" transform="rotate(-154.426 327.365 765.057)" fill="#EE6D8F"/><ellipse cx="249.167" cy="796.649" rx="40.639" ry="21.629" transform="rotate(-151.034 249.167 796.649)" fill="#EE6D8F"/><ellipse cx="345.739" cy="850.704" rx="40.639" ry="21.629" transform="rotate(-165.26 345.739 850.704)" fill="#EE6D8F"/></svg>