<svg width="360" height="917" viewBox="0 0 360 917" fill="none" xmlns="http://www.w3.org/2000/svg">
<path d="M369.396 891.337V742.937C369.396 742.616 369.267 742.332 369.006 742.146C361.606 736.847 250.383 658.115 149.748 640.271C-57.5028 603.522 -215.376 675.988 -215.376 675.988V717.31C-215.376 717.31 -56.8645 626.28 62.28 686.634C173.056 742.75 349.857 878.31 367.898 892.22C368.556 892.727 369.396 892.168 369.396 891.337Z" fill="#404040"/>
<path d="M59.1516 1.45895C-75.1885 -5.54576 -213.388 24.0575 -224.346 26.463C-224.802 26.5633 -225.043 26.9497 -225.043 27.4174L-225.043 686.862C-225.043 687.531 -224.508 688.044 -223.866 687.858C-208.996 683.544 -56.1044 640.101 70.2316 640.101C202.647 640.101 262.098 689.434 385.396 750.313C386.06 750.641 386.855 750.167 386.855 749.426V55.6357C386.855 55.2478 386.694 54.9242 386.34 54.7668C378.843 51.4387 288.76 13.4311 59.1516 1.45895Z" fill="#4F4F4F"/>
<ellipse cx="-35.9205" cy="666.26" rx="37.8764" ry="10.6362" transform="rotate(178.387 -35.9205 666.26)" fill="#EE6D8F"/>
<ellipse cx="61.7144" cy="688.315" rx="40.6391" ry="15.6465" transform="rotate(-152.379 61.7144 688.315)" fill="#EE6D8F"/>
<ellipse cx="150.206" cy="738.45" rx="40.6391" ry="16.3577" transform="rotate(-149.739 150.206 738.45)" fill="#EE6D8F"/>
<ellipse cx="137.446" cy="677.556" rx="38.0806" ry="20.2675" transform="rotate(-154.426 137.446 677.556)" fill="#EE6D8F"/>
<ellipse cx="232.467" cy="718.651" rx="40.2611" ry="21.428" transform="rotate(-154.426 232.467 718.651)" fill="#EE6D8F"/>
<ellipse cx="327.365" cy="765.057" rx="40.2611" ry="21.428" transform="rotate(-154.426 327.365 765.057)" fill="#EE6D8F"/>
<ellipse cx="249.167" cy="796.649" rx="40.6391" ry="21.6292" transform="rotate(-151.034 249.167 796.649)" fill="#EE6D8F"/>
<ellipse cx="345.739" cy="850.704" rx="40.6391" ry="21.6292" transform="rotate(-165.26 345.739 850.704)" fill="#EE6D8F"/>
</svg>
