<svg width="39" height="30" viewBox="0 0 39 30" fill="none" xmlns="http://www.w3.org/2000/svg">
<path d="M20.5011 15.0204C20.5011 17.3605 20.3094 19.4558 19.9259 21.3061C19.5699 23.1565 18.981 24.7347 18.1593 26.0408C17.365 27.3197 16.3105 28.2993 14.9958 28.9796C13.7085 29.6599 12.1199 30 10.23 30C7.87451 30 5.94354 29.4014 4.43711 28.2041C2.93069 27.0068 1.80771 25.2925 1.06819 23.0612C0.356065 20.8299 0 18.1497 0 15.0204C0 11.8639 0.328675 9.17007 0.986025 6.93878C1.64338 4.70748 2.72526 2.9932 4.23169 1.79592C5.73812 0.598639 7.73756 0 10.23 0C12.5855 0 14.5165 0.598639 16.0229 1.79592C17.5293 2.96599 18.6523 4.68027 19.3918 6.93878C20.1314 9.17007 20.5011 11.8639 20.5011 15.0204ZM6.16266 15.0204C6.16266 17.2245 6.28591 19.0748 6.53242 20.5714C6.77892 22.0408 7.18977 23.1565 7.76495 23.9184C8.36752 24.6531 9.18921 25.0204 10.23 25.0204C11.2708 25.0204 12.0788 24.6531 12.654 23.9184C13.2566 23.1837 13.6811 22.0816 13.9276 20.6122C14.2015 19.1156 14.3385 17.2517 14.3385 15.0204C14.3385 12.7891 14.2015 10.9388 13.9276 9.46939C13.6811 7.97279 13.2566 6.85714 12.654 6.12245C12.0788 5.36054 11.2708 4.97959 10.23 4.97959C9.18921 4.97959 8.36752 5.36054 7.76495 6.12245C7.18977 6.85714 6.77892 7.97279 6.53242 9.46939C6.28591 10.9388 6.16266 12.7891 6.16266 15.0204Z" fill="#2B3A64" fill-opacity="0.5"/>
<path d="M39 29.5918H32.7963V12.7347C32.7963 12.2721 32.7963 11.7007 32.7963 11.0204C32.8236 10.3401 32.851 9.63265 32.8784 8.89796C32.9058 8.16326 32.9332 7.5102 32.9606 6.93878C32.8236 7.10204 32.5224 7.40136 32.0567 7.83673C31.6185 8.2449 31.2077 8.61225 30.8242 8.93878L27.4553 11.6327L24.4561 7.91837L33.9055 0.448979H39V29.5918Z" fill="#2B3A64" fill-opacity="0.5"/>
</svg>
