<svg width="28" height="28" viewBox="0 0 28 28" fill="none" xmlns="http://www.w3.org/2000/svg">
<path fill-rule="evenodd" clip-rule="evenodd" d="M23.676 2.87764C24.2651 2.88241 24.7388 3.36217 24.734 3.94921L24.6559 13.5156C24.6511 14.1026 24.1697 14.5746 23.5806 14.5698C22.9915 14.5651 22.5178 14.0853 22.5226 13.4983L22.5798 6.49805L11.2594 17.5971C10.8394 18.0088 10.1641 18.0034 9.75092 17.5849C9.33777 17.1664 9.34326 16.4934 9.76319 16.0817L21.0836 4.98262L14.059 4.92569C13.4699 4.92092 12.9962 4.44116 13.001 3.85412C13.0058 3.26708 13.4872 2.79507 14.0763 2.79984L23.676 2.87764ZM5.9998 5.32938C5.4107 5.32938 4.93314 5.80528 4.93314 6.39234V22.0109C4.93314 22.598 5.4107 23.0739 5.99981 23.0739H21.9998C22.5889 23.0739 23.0665 22.598 23.0665 22.0109V18.9249C23.0665 18.3379 23.544 17.862 24.1331 17.862C24.7222 17.862 25.1998 18.3379 25.1998 18.9249V22.0109C25.1998 23.7721 23.7671 25.1998 21.9998 25.1998H5.99981C4.2325 25.1998 2.7998 23.7721 2.7998 22.0109V6.39234C2.7998 4.63117 4.23249 3.20346 5.9998 3.20346H9.18232C9.77142 3.20346 10.249 3.67936 10.249 4.26642C10.249 4.85347 9.77142 5.32938 9.18232 5.32938H5.9998Z" fill="white"/>
</svg>
