<svg width="124" height="124" viewBox="0 0 124 124" fill="none" xmlns="http://www.w3.org/2000/svg"><circle cx="62" cy="62" r="62" fill="#F16B84"/><path fill-rule="evenodd" clip-rule="evenodd" d="M60.625 30.553c-3.25.786-5.67 3.926-5.67 7.355 0 .881.366 2.46.741 3.196.462.904 1.427 2.057 2.18 2.605l.747.544.007 1.3.008 1.302-.477-.001c-.262 0-.768-.137-1.124-.303-1.117-.52-1.63-1.241-2.015-2.835-.507-2.104-1.991-3.652-4.12-4.298-.455-.138-1.661-.178-5.474-.18-2.69-.003-5.415-.06-6.056-.127-.641-.068-2.748-.522-4.681-1.01-3.294-.83-3.543-.875-3.937-.71-.72.3-.871.676-.783 1.948.136 1.98.781 3.71 1.997 5.36.552.748.624.927.753 1.867.19 1.391.44 2.194 1.037 3.347.526 1.016 1.68 2.512 2.199 2.852.17.11.723.754 1.23 1.43 1.679 2.234 3.41 3.727 5.56 4.794 4.555 2.262 9.76 2.045 14.033-.584.568-.35 1.218-.784 1.445-.967l.413-.332v4.475l-1.048.003c-3.287.007-6.024 1.703-7.473 4.631-1.046 2.114-1.14 4.246-.288 6.542.444 1.2.87 1.646 1.566 1.646.42 0 .61-.079.914-.383.337-.337.376-.45.32-.92-.035-.296-.211-.937-.39-1.426-.742-2.02-.234-4.333 1.279-5.815 1.116-1.093 2.212-1.556 4.008-1.692l1.112-.084v11.336h-1.62c-2.063.002-2.909.144-4.025.677a5.939 5.939 0 00-3.39 5.365c-.009 1.73.568 3.144 1.77 4.34 1.463 1.456 2.555 1.805 5.638 1.805h2.13l.075.35c.31 1.438.89 3.516 1.273 4.561.251.686.52 1.439.599 1.673.078.235.296.592.484.794.477.51 1.253.517 1.752.017.462-.464 1.379-2.975 2-5.475l.484-1.952 1.058.066c1.315.082 2.07.485 2.527 1.351.873 1.653-.163 3.526-2.084 3.766-.98.122-1.466.561-1.466 1.324 0 .462.067.614.4.912.332.296.515.357 1.066.356 1.285-.003 2.545-.564 3.548-1.58a5.085 5.085 0 000-7.12c-1.073-1.088-2.258-1.578-3.822-1.58l-.939-.002.08-.666c.045-.367.081-1.927.082-3.468v-2.8l1.373-.144c2.264-.237 3.82-.948 5.272-2.409 2.2-2.214 2.95-5.246 2.05-8.286-.346-1.17-1.046-2.282-2.077-3.3-1.559-1.539-3.17-2.26-5.315-2.377l-1.302-.072v-4.44l.413.333c.227.183.877.618 1.444.967 4.273 2.63 9.478 2.846 14.034.584 2.15-1.067 3.88-2.56 5.559-4.794.507-.676 1.061-1.32 1.23-1.43.52-.34 1.673-1.836 2.2-2.852.597-1.153.846-1.956 1.036-3.344.128-.93.202-1.117.719-1.804a10.116 10.116 0 002.032-5.426c.087-1.272-.063-1.648-.783-1.948-.395-.165-.643-.12-3.937.71-1.934.488-4.04.942-4.681 1.01-.642.067-3.367.124-6.056.126-5.185.004-5.398.025-6.62.64a5.583 5.583 0 00-2.166 1.949c-.455.703-.618 1.128-.986 2.561a3.169 3.169 0 01-1.688 2.081c-.46.23-.973.387-1.262.387h-.488l.007-1.301.007-1.301.747-.544c.754-.548 1.719-1.701 2.18-2.605.376-.736.742-2.315.742-3.196 0-3.46-2.43-6.584-5.729-7.361-1.002-.236-2.599-.234-3.588.006zm3.574 2.746c2.944 1.085 4.045 4.775 2.195 7.358-.895 1.25-2.387 2.009-3.946 2.009-1.558 0-3.05-.76-3.945-2.01-1.77-2.469-.863-5.97 1.87-7.22 1.264-.578 2.507-.623 3.826-.137zM38.08 41.577c.933.16 2.2.2 6.284.2 3.219 0 5.356.051 5.763.139.782.168 1.612.771 1.993 1.45.154.275.377.9.496 1.391.294 1.222.72 2.018 1.532 2.87 1.038 1.087 2.143 1.608 3.886 1.832l.604.078v4.02l-.79.73c-1.74 1.61-2.923 2.36-4.697 2.979-1.5.523-2.686.678-4.548.595-2.348-.105-4.243-.727-6.112-2.008l-.81-.556 1.714-.066c.944-.037 1.81-.113 1.928-.169.214-.103.613-.816.613-1.098 0-.357-.425-1.002-.74-1.12-.187-.072-1.14-.16-2.118-.197-.978-.038-2.092-.155-2.476-.26-1.888-.521-3.598-1.896-4.497-3.615-.407-.778-.45-.926-.252-.861.131.043.656.221 1.167.397 1.147.394 2.564.578 4.44.578 1.746 0 2.238-.162 2.518-.831.154-.369.163-.547.047-.898-.256-.777-.536-.863-3.1-.957-2.39-.087-2.877-.18-4.153-.795a6.976 6.976 0 01-2.468-1.946c-.58-.722-1.358-2.195-1.501-2.84l-.074-.335 2.091.546c1.15.3 2.617.636 3.26.747zm53.946-.745c-.51 1.847-2.091 3.7-3.902 4.573-1.275.614-1.763.708-4.152.795-2.565.094-2.844.18-3.1.957-.117.351-.108.529.047.898.28.669.772.831 2.518.831 1.875 0 3.292-.184 4.44-.578.51-.176 1.035-.354 1.167-.398.198-.064.155.084-.252.862-.9 1.72-2.61 3.094-4.498 3.614-.383.106-1.497.223-2.475.26-.978.038-1.932.126-2.119.197-.314.12-.74.764-.74 1.121 0 .282.4.995.614 1.098.117.056.984.132 1.927.169l1.715.066-.81.556c-1.87 1.28-3.764 1.903-6.113 2.008-1.862.083-3.048-.072-4.547-.595-1.774-.618-2.957-1.368-4.697-2.979l-.79-.73v-4.02l.603-.078c1.744-.224 2.849-.745 3.886-1.832.813-.852 1.238-1.648 1.533-2.87.118-.49.341-1.116.495-1.39.381-.68 1.211-1.283 1.994-1.451.407-.087 2.544-.139 5.762-.139 5.75 0 6.02-.027 9.506-.941 1.138-.298 2.082-.534 2.097-.524.016.01-.033.245-.11.52zm-28.308 19.51V75.42h-2.54V45.265h2.54v15.077zm4.167 3.9c4.192.605 6.246 5.532 3.712 8.903-1.02 1.356-2.46 2.109-4.285 2.237l-1.053.075V64.12l.413.002c.227.001.773.055 1.213.118zm-9.247 16.554c0 1.49.037 3.068.083 3.505l.083.794-1.957-.052c-2.195-.058-2.904-.259-3.643-1.031-1.797-1.878-1.133-4.822 1.3-5.759.228-.088 1.155-.153 2.26-.158l1.874-.01v2.71zm5.08-.838c-.003 3.513-.363 6.837-1 9.235-.23.868-.24.88-.382.526-.195-.485-.732-3.181-.902-4.525-.075-.593-.172-2.436-.216-4.094l-.08-3.015h2.58v1.873zm-7.23 13.244c-.545.545-.545 1.213 0 1.758.301.3.503.39.88.39.686 0 1.27-.582 1.27-1.27a1.29 1.29 0 00-1.27-1.269c-.377 0-.579.09-.88.391z" fill="#fff"/></svg>