<svg width="317" height="317" viewBox="0 0 317 317" fill="none" xmlns="http://www.w3.org/2000/svg">
<mask id="path-1-inside-1_55021_273" fill="white">
<path fill-rule="evenodd" clip-rule="evenodd" d="M143.337 0.561165C89.3441 6.09299 41.8626 38.4276 17.5536 86.2198C0.606321 119.54 -4.17992 156.384 3.67554 193.046C7.14613 209.243 16.5669 231.498 25.9263 245.611C41.9586 269.787 62.9581 288.274 88.8287 300.987C111.51 312.132 132.053 316.873 158.204 316.997C177.57 317.089 189.926 315.228 207.434 309.584C214.453 307.322 216.315 306.468 217.62 304.916C220.015 302.067 219.582 298.64 216.511 296.15C214.574 294.579 212.084 294.802 205.221 297.158C197.623 299.767 188.018 302.142 179.883 303.423C171.028 304.818 152.791 305.317 144.197 304.399C117.195 301.516 92.321 291.865 71.3005 276.114C71.1214 275.98 75.9089 250.478 76.4887 248.477C76.6479 247.928 78.8053 246.476 81.283 245.25C87.847 242.003 91.6465 236.734 92.5471 229.632C92.8481 227.255 92.5638 225.246 91.3287 221.025C89.8613 216.012 89.7523 214.903 90.114 208.624C90.5761 200.607 89.8056 197.805 85.8289 193.043C82.6061 189.183 78.7756 187.433 69.1721 185.434L60.9549 183.722L46.8675 173.037C35.3185 164.278 32.4159 162.352 30.7627 162.352C29.6527 162.352 25.2703 163.454 21.0229 164.801C16.7756 166.148 13.1966 167.146 13.0696 167.019C12.5499 166.499 12.1962 156.73 12.5995 154.037L13.0343 151.136L15.1818 153.023C16.9001 154.534 17.8912 154.911 20.1409 154.911C24.2334 154.911 40.7873 152.421 43.169 151.447C45.4738 150.505 47.3216 147.005 46.6848 144.789C46.4717 144.046 44.4481 140.702 42.1884 137.357C39.7083 133.686 38.3326 131.106 38.7185 130.846C44.2957 127.101 49.689 122.884 50.6014 121.555C51.2357 120.632 55.3418 113.597 59.726 105.924C66.1159 94.7398 68.5899 91.0137 72.1955 87.145C79.4972 79.3089 82.0684 72.3533 80.9894 63.354C80.1612 56.4443 75.5868 48.8128 69.9365 44.9143L68.388 43.8459L70.2462 42.2914C74.8138 38.4697 85.8766 31.6897 94.4035 27.4867C110.935 19.3375 129.508 14.2782 147.657 12.9797C152.418 12.6393 156.38 12.4284 156.463 12.5115C156.546 12.5946 154.148 15.7372 151.133 19.4956L145.652 26.329L129.01 32.1256C105.09 40.4571 103 41.2936 101.893 42.9859C100.251 45.4941 89.1384 72.9976 89.1384 74.5528C89.1384 76.1712 90.9484 78.9988 100.457 92.2346L106.882 101.178L101.882 107.691C99.1315 111.273 95.2087 116.173 93.1647 118.58C83.9979 129.376 80.9039 136.67 80.9101 147.47C80.9163 158.116 84.4705 166.44 92.0361 173.525C101.101 182.013 111.711 184.495 126.251 181.526C134.56 179.829 135.247 180.185 135.773 186.468C136.204 191.616 137.627 195.106 140.855 198.937C143.548 202.132 144.886 204.958 144.886 207.448C144.886 208.399 144.193 211.687 143.345 214.754C140.744 224.169 141.292 228.2 146.999 241.617C148.837 245.939 151.356 252.125 152.596 255.365C156.472 265.495 160.611 270.429 166.032 271.385C172.045 272.445 179.249 269.468 186.329 263C191.271 258.484 193.211 255.517 194.736 250.138C195.37 247.897 196.821 245.103 198.448 242.986C199.918 241.075 201.973 237.627 203.017 235.322C204.06 233.018 206.325 229.549 208.049 227.612C214.21 220.692 215.378 215.679 212.977 206.465C210.854 198.322 211.045 197.905 222.241 186.3C232.325 175.848 234.702 172.22 234.702 167.283C234.702 161.683 231.198 158.704 222.7 157.077C220.084 156.575 217.128 155.743 216.131 155.227C213.223 153.722 210.695 149.334 204.639 135.281C201.171 127.234 197.979 120.794 196.461 118.78C193.237 114.506 189.139 112.339 178.225 109.139C170.924 106.999 169.395 106.736 167.165 107.238C163.739 108.008 161.374 109.278 159.971 111.102L158.823 112.595L155.261 110.472C151.852 108.44 151.7 108.24 151.7 105.815C151.7 102.106 149.796 99.4761 145.628 97.4273C142.128 95.7065 142.009 95.6935 131.352 95.8442L120.606 95.9967L122.13 93.3638C123.826 90.4327 128.292 87.0674 131.769 86.1013C133.021 85.7528 135.644 85.4664 137.598 85.4645C140.641 85.4614 141.438 85.2028 143.164 83.6594C144.864 82.1383 145.167 81.4531 145.11 79.2555C145.002 75.1518 142.912 73.4732 137.528 73.1687C128.966 72.6844 122.055 75.4104 115.602 81.8171L111.405 85.9848L109.075 82.777C103.449 75.0352 102.766 74.0195 102.761 73.4019C102.758 73.0429 104.737 67.9687 107.159 62.1262L111.563 51.5028L131.476 44.5255C142.429 40.6878 151.877 37.2965 152.473 36.9896C153.069 36.682 157.499 31.4875 162.317 25.4454C167.135 19.4038 171.387 14.1331 171.764 13.7325C172.289 13.175 173.833 13.2079 178.335 13.8702C227.735 21.1382 268.64 50.9032 289.891 95.0449C292.197 99.8345 295.379 107.647 296.963 112.406L299.842 121.057L298.231 122.232C295.799 124.005 293.018 128.411 292.125 131.906L291.328 135.023L289.272 129.169C286.839 122.241 285.315 119.746 279.29 112.827C273.033 105.64 270.916 104.698 261.017 104.69C252.553 104.683 250.141 105.49 248.07 109.019C246.585 111.552 246.531 115.829 247.957 118.008C249.325 120.098 249.024 120.472 242.434 124.861C237.661 128.04 229.266 132.313 228.769 131.816C228.646 131.692 225.749 126.265 222.332 119.754C216.699 109.022 216.119 107.605 216.119 104.585C216.119 100.161 215.174 98.6929 207.757 91.5984C201.951 86.0437 201.214 85.5476 195.988 83.6613C192.922 82.5544 189.716 81.5102 188.865 81.3397C185.229 80.6123 181.803 83.7419 181.803 87.7898C181.803 90.7719 184.474 93.0333 190.159 94.8663C193.954 96.0897 195.345 96.9666 199.188 100.559C203.672 104.752 203.731 104.846 203.731 107.938C203.731 110.752 204.556 112.651 211.838 126.586C221.574 145.216 221.284 144.758 223.84 145.603C226.439 146.461 230.993 145.014 240.383 140.346C248.118 136.501 253.769 132.601 259.349 127.256L263.365 123.411L263.061 120.248C262.764 117.16 262.797 117.085 264.406 117.085C266.416 117.085 266.99 117.545 271.436 122.725C275.368 127.305 275.454 127.485 280.615 141.792C282.656 147.45 284.659 152.481 285.065 152.971C285.472 153.462 286.709 154.242 287.817 154.705C289.517 155.417 290.143 155.415 291.843 154.694C294.52 153.558 300.712 146.953 302.223 143.621C302.886 142.157 303.449 141.238 303.472 141.579C305.014 163.962 304.174 176.915 300.095 193.666C292.862 223.372 276.596 249.845 253.171 270.034C248.36 274.182 247.063 275.654 246.749 277.325C245.745 282.688 251.824 286.488 256.485 283.41C260.324 280.876 270.866 271.035 276.267 264.944C311.087 225.677 324.432 174.111 313.006 122.976C309.424 106.947 300.448 85.8514 291.238 71.8188C264.477 31.0435 222.353 5.69613 172.76 0.523339C165.914 -0.190384 150.481 -0.170542 143.337 0.561165ZM60.6031 53.8151C63.6178 55.3542 67.278 59.5962 68.077 62.4771C69.8535 68.8783 68.44 72.7775 61.627 80.2688C58.3757 83.8442 55.3164 88.5048 48.9289 99.6131L40.5142 114.247L33.4051 119.333C29.4953 122.13 25.6624 125.156 24.8881 126.057C22.6285 128.687 23.0255 131.196 26.5259 136.417C28.2008 138.914 29.4935 141.037 29.3975 141.132C29.3021 141.228 27.6228 141.567 25.6655 141.886L22.1069 142.466L18.2312 138.996L14.3555 135.526L15.7492 128.938C20.813 105.002 30.8655 83.9781 46.0257 65.6179C50.2638 60.4854 57.5066 52.596 57.9805 52.596C58.1106 52.596 59.2906 53.1442 60.6031 53.8151ZM161.848 74.0406C155.922 76.9668 158.548 85.4608 165.378 85.4608C169.671 85.4608 172.366 81.2466 170.671 77.1838C169.757 74.993 167.02 73.046 164.893 73.0732C164.28 73.0807 162.909 73.5166 161.848 74.0406ZM137.271 109.879C137.239 111.031 137.661 112.66 138.209 113.498C139.482 115.443 152.313 123.484 156.212 124.781C161.768 126.629 166.147 125.568 169.388 121.592L170.662 120.028L176.474 121.702C179.671 122.623 183.071 123.782 184.03 124.278C186.521 125.569 188.384 128.701 192.303 138.193C197.652 151.148 201.074 157.602 204.748 161.666C208.495 165.811 211.603 167.557 217.285 168.708L221.188 169.499L212.556 178.211C199.704 191.181 197.685 196.276 200.595 208.404C202.241 215.265 202.15 215.594 196.974 221.51C194.62 224.199 192.706 227.148 191.821 229.446C191.047 231.458 189.225 234.555 187.771 236.329C185.289 239.358 182.671 244.887 182.671 247.099C182.671 249.654 176.823 255.672 171.717 258.371C168.4 260.123 166.97 258.431 163.125 248.203C162.316 246.054 160.134 240.677 158.274 236.255C153.936 225.94 153.619 223.872 155.486 218.027C157.612 211.366 157.561 202.999 155.365 198.317C154.485 196.441 152.629 193.593 151.239 191.987C148.897 189.28 148.681 188.718 148.269 184.236C147.564 176.555 145.108 172.76 138.692 169.436C135.867 167.974 129.572 167.979 122.587 169.449C110.404 172.014 101.111 168.194 95.9143 158.488C94.0585 155.022 93.807 153.963 93.5908 148.71C93.2198 139.701 94.8544 135.903 103.488 125.715C105.646 123.169 109.084 118.793 111.128 115.991C113.34 112.959 115.648 110.511 116.83 109.944C118.512 109.137 124.495 108.48 135.688 107.873C137.169 107.793 137.325 107.99 137.271 109.879ZM42.658 185.489L56.0293 195.604L64.6863 197.333C69.4478 198.284 73.9008 199.345 74.5821 199.692C77.9028 201.382 78.6139 204.295 77.3026 210.834C76.7043 213.816 76.7953 214.927 78.01 219.464C81.2303 231.493 80.7936 232.391 69.7686 236.416C67.8311 237.124 66.526 238.063 65.979 239.145C65.5207 240.051 64.0972 246.374 62.8157 253.195C61.5347 260.016 60.2878 265.817 60.0456 266.086C59.4702 266.726 49.0033 255.79 43.7723 249.084C34.3076 236.95 25.3452 220.493 20.5144 206.378C17.7611 198.334 14.9347 186.965 14.6733 182.882L14.4986 180.159L21.3122 177.815C25.0597 176.526 28.3866 175.449 28.7062 175.423C29.0252 175.396 35.303 179.926 42.658 185.489ZM241.026 199.233C240.023 200.078 238.573 202.24 237.804 204.039C235.683 208.999 234.301 210.591 230.402 212.561C222.332 216.639 220.202 219.973 220.086 228.702C220.027 233.157 219.657 235.575 218.565 238.623C216.626 244.036 216.56 250.35 218.406 253.815C220.859 258.422 225.954 262.186 229.735 262.186C236.072 262.186 241.295 256.626 244.991 245.946C248.109 236.934 253.904 216.695 253.903 214.814C253.902 211.159 250.793 201.207 249.089 199.402C246.949 197.138 243.597 197.067 241.026 199.233ZM238.808 223.586C234.373 238.967 232.239 245.257 230.723 247.425C228.934 249.981 229.098 246.463 231.04 240.628C232.754 235.479 232.941 234.264 232.581 230.614C232.133 226.066 232.387 225.576 236.25 223.533C238.669 222.254 239.189 222.264 238.808 223.586ZM231.588 285.53C229.17 287.142 228.507 288.292 228.507 290.877C228.507 294.017 231.186 296.911 234.094 296.911C236.557 296.911 239.344 295.301 240.224 293.37C242.739 287.843 236.547 282.224 231.588 285.53Z"/>
</mask>
<path fill-rule="evenodd" clip-rule="evenodd" d="M143.337 0.561165C89.3441 6.09299 41.8626 38.4276 17.5536 86.2198C0.606321 119.54 -4.17992 156.384 3.67554 193.046C7.14613 209.243 16.5669 231.498 25.9263 245.611C41.9586 269.787 62.9581 288.274 88.8287 300.987C111.51 312.132 132.053 316.873 158.204 316.997C177.57 317.089 189.926 315.228 207.434 309.584C214.453 307.322 216.315 306.468 217.62 304.916C220.015 302.067 219.582 298.64 216.511 296.15C214.574 294.579 212.084 294.802 205.221 297.158C197.623 299.767 188.018 302.142 179.883 303.423C171.028 304.818 152.791 305.317 144.197 304.399C117.195 301.516 92.321 291.865 71.3005 276.114C71.1214 275.98 75.9089 250.478 76.4887 248.477C76.6479 247.928 78.8053 246.476 81.283 245.25C87.847 242.003 91.6465 236.734 92.5471 229.632C92.8481 227.255 92.5638 225.246 91.3287 221.025C89.8613 216.012 89.7523 214.903 90.114 208.624C90.5761 200.607 89.8056 197.805 85.8289 193.043C82.6061 189.183 78.7756 187.433 69.1721 185.434L60.9549 183.722L46.8675 173.037C35.3185 164.278 32.4159 162.352 30.7627 162.352C29.6527 162.352 25.2703 163.454 21.0229 164.801C16.7756 166.148 13.1966 167.146 13.0696 167.019C12.5499 166.499 12.1962 156.73 12.5995 154.037L13.0343 151.136L15.1818 153.023C16.9001 154.534 17.8912 154.911 20.1409 154.911C24.2334 154.911 40.7873 152.421 43.169 151.447C45.4738 150.505 47.3216 147.005 46.6848 144.789C46.4717 144.046 44.4481 140.702 42.1884 137.357C39.7083 133.686 38.3326 131.106 38.7185 130.846C44.2957 127.101 49.689 122.884 50.6014 121.555C51.2357 120.632 55.3418 113.597 59.726 105.924C66.1159 94.7398 68.5899 91.0137 72.1955 87.145C79.4972 79.3089 82.0684 72.3533 80.9894 63.354C80.1612 56.4443 75.5868 48.8128 69.9365 44.9143L68.388 43.8459L70.2462 42.2914C74.8138 38.4697 85.8766 31.6897 94.4035 27.4867C110.935 19.3375 129.508 14.2782 147.657 12.9797C152.418 12.6393 156.38 12.4284 156.463 12.5115C156.546 12.5946 154.148 15.7372 151.133 19.4956L145.652 26.329L129.01 32.1256C105.09 40.4571 103 41.2936 101.893 42.9859C100.251 45.4941 89.1384 72.9976 89.1384 74.5528C89.1384 76.1712 90.9484 78.9988 100.457 92.2346L106.882 101.178L101.882 107.691C99.1315 111.273 95.2087 116.173 93.1647 118.58C83.9979 129.376 80.9039 136.67 80.9101 147.47C80.9163 158.116 84.4705 166.44 92.0361 173.525C101.101 182.013 111.711 184.495 126.251 181.526C134.56 179.829 135.247 180.185 135.773 186.468C136.204 191.616 137.627 195.106 140.855 198.937C143.548 202.132 144.886 204.958 144.886 207.448C144.886 208.399 144.193 211.687 143.345 214.754C140.744 224.169 141.292 228.2 146.999 241.617C148.837 245.939 151.356 252.125 152.596 255.365C156.472 265.495 160.611 270.429 166.032 271.385C172.045 272.445 179.249 269.468 186.329 263C191.271 258.484 193.211 255.517 194.736 250.138C195.37 247.897 196.821 245.103 198.448 242.986C199.918 241.075 201.973 237.627 203.017 235.322C204.06 233.018 206.325 229.549 208.049 227.612C214.21 220.692 215.378 215.679 212.977 206.465C210.854 198.322 211.045 197.905 222.241 186.3C232.325 175.848 234.702 172.22 234.702 167.283C234.702 161.683 231.198 158.704 222.7 157.077C220.084 156.575 217.128 155.743 216.131 155.227C213.223 153.722 210.695 149.334 204.639 135.281C201.171 127.234 197.979 120.794 196.461 118.78C193.237 114.506 189.139 112.339 178.225 109.139C170.924 106.999 169.395 106.736 167.165 107.238C163.739 108.008 161.374 109.278 159.971 111.102L158.823 112.595L155.261 110.472C151.852 108.44 151.7 108.24 151.7 105.815C151.7 102.106 149.796 99.4761 145.628 97.4273C142.128 95.7065 142.009 95.6935 131.352 95.8442L120.606 95.9967L122.13 93.3638C123.826 90.4327 128.292 87.0674 131.769 86.1013C133.021 85.7528 135.644 85.4664 137.598 85.4645C140.641 85.4614 141.438 85.2028 143.164 83.6594C144.864 82.1383 145.167 81.4531 145.11 79.2555C145.002 75.1518 142.912 73.4732 137.528 73.1687C128.966 72.6844 122.055 75.4104 115.602 81.8171L111.405 85.9848L109.075 82.777C103.449 75.0352 102.766 74.0195 102.761 73.4019C102.758 73.0429 104.737 67.9687 107.159 62.1262L111.563 51.5028L131.476 44.5255C142.429 40.6878 151.877 37.2965 152.473 36.9896C153.069 36.682 157.499 31.4875 162.317 25.4454C167.135 19.4038 171.387 14.1331 171.764 13.7325C172.289 13.175 173.833 13.2079 178.335 13.8702C227.735 21.1382 268.64 50.9032 289.891 95.0449C292.197 99.8345 295.379 107.647 296.963 112.406L299.842 121.057L298.231 122.232C295.799 124.005 293.018 128.411 292.125 131.906L291.328 135.023L289.272 129.169C286.839 122.241 285.315 119.746 279.29 112.827C273.033 105.64 270.916 104.698 261.017 104.69C252.553 104.683 250.141 105.49 248.07 109.019C246.585 111.552 246.531 115.829 247.957 118.008C249.325 120.098 249.024 120.472 242.434 124.861C237.661 128.04 229.266 132.313 228.769 131.816C228.646 131.692 225.749 126.265 222.332 119.754C216.699 109.022 216.119 107.605 216.119 104.585C216.119 100.161 215.174 98.6929 207.757 91.5984C201.951 86.0437 201.214 85.5476 195.988 83.6613C192.922 82.5544 189.716 81.5102 188.865 81.3397C185.229 80.6123 181.803 83.7419 181.803 87.7898C181.803 90.7719 184.474 93.0333 190.159 94.8663C193.954 96.0897 195.345 96.9666 199.188 100.559C203.672 104.752 203.731 104.846 203.731 107.938C203.731 110.752 204.556 112.651 211.838 126.586C221.574 145.216 221.284 144.758 223.84 145.603C226.439 146.461 230.993 145.014 240.383 140.346C248.118 136.501 253.769 132.601 259.349 127.256L263.365 123.411L263.061 120.248C262.764 117.16 262.797 117.085 264.406 117.085C266.416 117.085 266.99 117.545 271.436 122.725C275.368 127.305 275.454 127.485 280.615 141.792C282.656 147.45 284.659 152.481 285.065 152.971C285.472 153.462 286.709 154.242 287.817 154.705C289.517 155.417 290.143 155.415 291.843 154.694C294.52 153.558 300.712 146.953 302.223 143.621C302.886 142.157 303.449 141.238 303.472 141.579C305.014 163.962 304.174 176.915 300.095 193.666C292.862 223.372 276.596 249.845 253.171 270.034C248.36 274.182 247.063 275.654 246.749 277.325C245.745 282.688 251.824 286.488 256.485 283.41C260.324 280.876 270.866 271.035 276.267 264.944C311.087 225.677 324.432 174.111 313.006 122.976C309.424 106.947 300.448 85.8514 291.238 71.8188C264.477 31.0435 222.353 5.69613 172.76 0.523339C165.914 -0.190384 150.481 -0.170542 143.337 0.561165ZM60.6031 53.8151C63.6178 55.3542 67.278 59.5962 68.077 62.4771C69.8535 68.8783 68.44 72.7775 61.627 80.2688C58.3757 83.8442 55.3164 88.5048 48.9289 99.6131L40.5142 114.247L33.4051 119.333C29.4953 122.13 25.6624 125.156 24.8881 126.057C22.6285 128.687 23.0255 131.196 26.5259 136.417C28.2008 138.914 29.4935 141.037 29.3975 141.132C29.3021 141.228 27.6228 141.567 25.6655 141.886L22.1069 142.466L18.2312 138.996L14.3555 135.526L15.7492 128.938C20.813 105.002 30.8655 83.9781 46.0257 65.6179C50.2638 60.4854 57.5066 52.596 57.9805 52.596C58.1106 52.596 59.2906 53.1442 60.6031 53.8151ZM161.848 74.0406C155.922 76.9668 158.548 85.4608 165.378 85.4608C169.671 85.4608 172.366 81.2466 170.671 77.1838C169.757 74.993 167.02 73.046 164.893 73.0732C164.28 73.0807 162.909 73.5166 161.848 74.0406ZM137.271 109.879C137.239 111.031 137.661 112.66 138.209 113.498C139.482 115.443 152.313 123.484 156.212 124.781C161.768 126.629 166.147 125.568 169.388 121.592L170.662 120.028L176.474 121.702C179.671 122.623 183.071 123.782 184.03 124.278C186.521 125.569 188.384 128.701 192.303 138.193C197.652 151.148 201.074 157.602 204.748 161.666C208.495 165.811 211.603 167.557 217.285 168.708L221.188 169.499L212.556 178.211C199.704 191.181 197.685 196.276 200.595 208.404C202.241 215.265 202.15 215.594 196.974 221.51C194.62 224.199 192.706 227.148 191.821 229.446C191.047 231.458 189.225 234.555 187.771 236.329C185.289 239.358 182.671 244.887 182.671 247.099C182.671 249.654 176.823 255.672 171.717 258.371C168.4 260.123 166.97 258.431 163.125 248.203C162.316 246.054 160.134 240.677 158.274 236.255C153.936 225.94 153.619 223.872 155.486 218.027C157.612 211.366 157.561 202.999 155.365 198.317C154.485 196.441 152.629 193.593 151.239 191.987C148.897 189.28 148.681 188.718 148.269 184.236C147.564 176.555 145.108 172.76 138.692 169.436C135.867 167.974 129.572 167.979 122.587 169.449C110.404 172.014 101.111 168.194 95.9143 158.488C94.0585 155.022 93.807 153.963 93.5908 148.71C93.2198 139.701 94.8544 135.903 103.488 125.715C105.646 123.169 109.084 118.793 111.128 115.991C113.34 112.959 115.648 110.511 116.83 109.944C118.512 109.137 124.495 108.48 135.688 107.873C137.169 107.793 137.325 107.99 137.271 109.879ZM42.658 185.489L56.0293 195.604L64.6863 197.333C69.4478 198.284 73.9008 199.345 74.5821 199.692C77.9028 201.382 78.6139 204.295 77.3026 210.834C76.7043 213.816 76.7953 214.927 78.01 219.464C81.2303 231.493 80.7936 232.391 69.7686 236.416C67.8311 237.124 66.526 238.063 65.979 239.145C65.5207 240.051 64.0972 246.374 62.8157 253.195C61.5347 260.016 60.2878 265.817 60.0456 266.086C59.4702 266.726 49.0033 255.79 43.7723 249.084C34.3076 236.95 25.3452 220.493 20.5144 206.378C17.7611 198.334 14.9347 186.965 14.6733 182.882L14.4986 180.159L21.3122 177.815C25.0597 176.526 28.3866 175.449 28.7062 175.423C29.0252 175.396 35.303 179.926 42.658 185.489ZM241.026 199.233C240.023 200.078 238.573 202.24 237.804 204.039C235.683 208.999 234.301 210.591 230.402 212.561C222.332 216.639 220.202 219.973 220.086 228.702C220.027 233.157 219.657 235.575 218.565 238.623C216.626 244.036 216.56 250.35 218.406 253.815C220.859 258.422 225.954 262.186 229.735 262.186C236.072 262.186 241.295 256.626 244.991 245.946C248.109 236.934 253.904 216.695 253.903 214.814C253.902 211.159 250.793 201.207 249.089 199.402C246.949 197.138 243.597 197.067 241.026 199.233ZM238.808 223.586C234.373 238.967 232.239 245.257 230.723 247.425C228.934 249.981 229.098 246.463 231.04 240.628C232.754 235.479 232.941 234.264 232.581 230.614C232.133 226.066 232.387 225.576 236.25 223.533C238.669 222.254 239.189 222.264 238.808 223.586ZM231.588 285.53C229.17 287.142 228.507 288.292 228.507 290.877C228.507 294.017 231.186 296.911 234.094 296.911C236.557 296.911 239.344 295.301 240.224 293.37C242.739 287.843 236.547 282.224 231.588 285.53Z" fill="white" stroke="#009F3C" stroke-width="6" mask="url(#path-1-inside-1_55021_273)"/>
</svg>
