<svg xmlns="http://www.w3.org/2000/svg" width="100%" height="100%" viewBox="0 0 233 280" fill="none">
    <!-- <circle r="0" fill-rule="evenodd" clip-rule="evenodd" fill="#E73D6D">
        <animateMotion xmlns="http://www.w3.org/2000/svg" dur="5s" begin="0" repeatCount="indefinite">
            <mpath xmlns:xlink="http://www.w3.org/1999/xlink" xlink:href="#path"/>
        </animateMotion>
        <animate
            attributeName="r"
            begin="0"
            dur="5s"
            repeatCount="indefinite"
            values="0; 15;"
        />
    </circle>
    <circle r="0" fill-rule="evenodd" clip-rule="evenodd" fill="#E73D6D">
        <animateMotion xmlns="http://www.w3.org/2000/svg" dur="5s" begin="0.7" repeatCount="indefinite">
            <mpath xmlns:xlink="http://www.w3.org/1999/xlink" xlink:href="#path"/>
        </animateMotion>
        <animate
            attributeName="r"
            begin="0.7"
            dur="5s"
            repeatCount="indefinite"
            values="0; 15;"
        />
    </circle>
    <circle r="0" fill-rule="evenodd" clip-rule="evenodd" fill="#E73D6D">
        <animateMotion xmlns="http://www.w3.org/2000/svg" dur="5s" begin="1.4" repeatCount="indefinite">
            <mpath xmlns:xlink="http://www.w3.org/1999/xlink" xlink:href="#path"/>
        </animateMotion>
        <animate
            attributeName="r"
            begin="1.4"
            dur="5s"
            repeatCount="indefinite"
            values="0; 15;"
        />
    </circle>
    <circle r="0" fill-rule="evenodd" clip-rule="evenodd" fill="#E73D6D">
        <animateMotion xmlns="http://www.w3.org/2000/svg" dur="5s" begin="2.1" repeatCount="indefinite">
            <mpath xmlns:xlink="http://www.w3.org/1999/xlink" xlink:href="#path"/>
        </animateMotion>
        <animate
            attributeName="r"
            begin="2.1"
            dur="5s"
            repeatCount="indefinite"
            values="0; 15;"
        />
    </circle>
    <circle r="0" fill-rule="evenodd" clip-rule="evenodd" fill="#E73D6D">
        <animateMotion xmlns="http://www.w3.org/2000/svg" dur="5s" begin="2.8" repeatCount="indefinite">
            <mpath xmlns:xlink="http://www.w3.org/1999/xlink" xlink:href="#path"/>
        </animateMotion>
        <animate
            attributeName="r"
            begin="2.8"
            dur="5s"
            repeatCount="indefinite"
            values="0; 15;"
        />
    </circle>
    <circle r="0" fill-rule="evenodd" clip-rule="evenodd" fill="#E73D6D">
        <animateMotion xmlns="http://www.w3.org/2000/svg" dur="5s" begin="3.5" repeatCount="indefinite">
            <mpath xmlns:xlink="http://www.w3.org/1999/xlink" xlink:href="#path"/>
        </animateMotion>
        <animate
            attributeName="r"
            begin="3.5"
            dur="5s"
            repeatCount="indefinite"
            values="0; 15;"
        />
    </circle>
    <circle r="0" fill-rule="evenodd" clip-rule="evenodd" fill="#E73D6D">
        <animateMotion xmlns="http://www.w3.org/2000/svg" dur="5s" begin="4.2" repeatCount="indefinite">
            <mpath xmlns:xlink="http://www.w3.org/1999/xlink" xlink:href="#path"/>
        </animateMotion>
        <animate
            attributeName="r"
            begin="4.2"
            dur="5s"
            repeatCount="indefinite"
            values="0; 15;"
        />
    </circle> -->
    <path fill-opacity="1" d="M192.07 103.158C195.78 104.604 199.96 102.767 201.406 99.0568C202.851 95.3462 201.015 91.1664 197.304 89.7209C193.593 88.2755 189.413 90.1117 187.968 93.8222C186.523 97.5328 188.359 101.713 192.07 103.158Z" fill="#E73D6D">
        <animate
            attributeName="fill-opacity"
            dur="10s"
            repeatCount="indefinite"
            values="1; 1; 0; 0; 0; 0;0; 0;0; 0;0;1; 1; 1; 1; 1; 1; 1; 1; "
        />
    </path>
    <path fill-opacity="1" d="M199.565 162.352C204.512 164.279 210.085 161.831 212.013 156.883C213.94 151.936 211.491 146.363 206.544 144.436C201.596 142.508 196.023 144.956 194.096 149.904C192.169 154.851 194.617 160.424 199.565 162.352Z" fill="#E73D6D">
        <animate
            attributeName="fill-opacity"
            dur="10s"
            begin="0.4s"
            repeatCount="indefinite"
            values="1; 1; 0; 0; 0; 0;0; 0;0; 0;0;1; 1; 1; 1; 1; 1; 1; 1; "
        />
    </path>
    <path fill-opacity="1" d="M159.438 213.77C165.627 216.181 172.598 213.119 175.008 206.93C177.419 200.742 174.356 193.771 168.168 191.361C161.979 188.95 155.008 192.012 152.598 198.201C150.187 204.389 153.25 211.36 159.438 213.77Z" fill="#E73D6D">
        <animate
            attributeName="fill-opacity"
            dur="10s"
            begin="1s"
            repeatCount="indefinite"
            values="1; 1; 0; 0; 0; 0;0; 0;0; 0;0;1; 1; 1; 1; 1; 1; 1; 1; "
        />
    </path>
    
    
    <path fill-opacity="1" d="M79.4684 212.155C86.8938 215.048 95.2581 211.374 98.1505 203.948C101.043 196.523 97.3682 188.159 89.9428 185.267C82.5174 182.374 74.1531 186.048 71.2607 193.474C68.3682 200.899 72.043 209.263 79.4684 212.155Z" fill="#E73D6D">
        <animate
            attributeName="fill-opacity"
            dur="10s"
            begin="2.1s"
            repeatCount="indefinite"
            values="1; 1; 0; 0; 0; 0;0; 0;0; 0;0;1; 1; 1; 1; 1; 1; 1; 1; "
        />
    </path>
    
    <path fill-opacity="1" d="M39.8911 124.552C31.3735 128.293 27.5101 138.211 31.2522 146.729C34.987 155.243 44.9198 159.113 53.4301 155.368C61.9477 151.626 65.8111 141.708 62.0691 133.191C58.3371 124.669 48.4342 120.744 39.8911 124.552Z" fill="#E73D6D">
        <animate
            attributeName="fill-opacity"
            dur="10s"
            begin="2.6s"
            repeatCount="indefinite"
            values="1; 1; 0; 0; 0; 0;0; 0;0; 0;0;1; 1; 1; 1; 1; 1; 1; 1; "
        />
    </path>
    <path fill-opacity="1" d="M59.5866 90.1595C70.7268 94.4991 83.2754 88.9865 87.6148 77.8467C91.9543 66.707 86.4412 54.1586 75.301 49.819C64.1609 45.4794 51.6122 50.992 47.2728 62.1317C42.9334 73.2714 48.4465 85.8199 59.5866 90.1595Z" fill="#E73D6D">
        <animate
            attributeName="fill-opacity"
            dur="10s"
            begin="3.2s"
            repeatCount="indefinite"
            values="1; 1; 0; 0; 0; 0;0; 0;0; 0;0;1; 1; 1; 1; 1; 1; 1; 1; "
        />
    </path>
    <path fill-rule="evenodd" transform="translate(-40, -20)" clip-rule="evenodd" d="M69.8422 38.0029C70.2578 37.8395 70.7566 38.1664 70.9229 38.6567C71.0892 39.1471 70.9229 39.7192 70.5904 39.8826C70.1747 40.0461 69.6759 39.7192 69.5096 39.2288C69.2602 38.7385 69.4265 38.1664 69.8422 38.0029ZM68.0964 32.7725C68.5952 32.2004 69.6759 32.2821 70.341 33.0176C71.0892 33.6714 71.2554 34.6522 70.6735 35.2242C70.1747 35.7963 69.094 35.7146 68.4289 34.9791C67.6807 34.3252 67.5145 33.3445 68.0964 32.7725ZM65.1867 33.3445C64.5217 33.2628 64.0229 32.8542 64.106 32.3638C64.1891 31.8735 64.6879 31.5466 65.353 31.6283C66.0181 31.71 66.5169 32.1186 66.4337 32.609C66.3506 33.0176 65.7687 33.3445 65.1867 33.3445ZM72.0868 42.8248C72.4193 42.4979 72.835 42.4979 73.0012 42.6613C73.2506 42.9065 73.1675 43.3151 72.9181 43.5603C72.5855 43.8872 72.1699 43.8872 72.0036 43.7237C71.7542 43.5603 71.7542 43.1517 72.0868 42.8248ZM73.0844 36.6953C73.5832 36.5319 74.0819 36.9405 74.2482 37.5943C74.4145 38.1664 74.1651 38.8202 73.6663 38.9836C73.1675 39.1471 72.6687 38.7385 72.5024 38.0847C72.3362 37.4308 72.5856 36.8588 73.0844 36.6953ZM52.4674 12.913C53.8806 14.5475 54.5457 17.3262 53.465 21.7394C53.2987 20.5953 52.5505 16.7541 51.7192 15.2013L52.4674 12.913ZM48.8095 11.115C45.4011 7.60082 39.8312 5.14904 31.5179 7.5191C31.5179 7.5191 36.7553 4.00487 42.9902 5.06731C45.8167 5.55767 48.3939 7.19219 50.3059 9.48052L48.8095 11.115ZM42.4914 29.6669C46.0662 29.1765 50.8047 24.9267 50.8047 24.9267C50.7216 32.609 43.9878 33.0176 42.4914 29.6669ZM42.3252 85.8127C41.9926 85.7309 41.8264 85.404 41.9095 84.9954C41.9926 84.5868 42.3252 84.3416 42.5746 84.3416C42.9071 84.4233 43.0734 84.7502 42.9902 85.1589C42.9902 85.5675 42.6577 85.8944 42.3252 85.8127ZM38.8336 80.2553C38.4179 80.7457 37.7529 80.8274 37.4203 80.5005C37.0047 80.1736 37.0878 79.5198 37.5035 79.0294C37.9191 78.5391 38.5842 78.4573 38.9167 78.7842C39.3324 79.1111 39.2492 79.7649 38.8336 80.2553ZM39.9143 83.6878C39.5818 83.6061 39.4155 83.1974 39.4986 82.7888C39.5818 82.3802 39.9143 82.135 40.2469 82.2167C40.5794 82.2985 40.7457 82.7071 40.6625 83.1157C40.5794 83.4426 40.2468 83.6878 39.9143 83.6878ZM36.6721 76.4959C35.9239 76.2507 35.5914 75.3517 35.9239 74.371C36.2565 73.472 37.0878 72.8182 37.836 73.0634C38.5842 73.3086 38.9167 74.2076 38.5842 75.1883C38.1685 76.169 37.3372 76.7411 36.6721 76.4959ZM36.6721 69.6309C36.8384 68.9771 37.3372 68.5685 37.836 68.7319C38.3348 68.8137 38.5842 69.4675 38.4179 70.0395C38.2517 70.6934 37.7529 71.102 37.2541 70.9385C36.7553 70.8568 36.5059 70.2847 36.6721 69.6309ZM29.1902 24.5998C29.1902 24.5998 33.8456 29.1765 37.5035 29.6669C35.9239 33.0176 29.689 33.2628 29.1902 24.5998ZM54.7951 45.1131C55.7096 45.1131 56.3746 45.6852 56.3746 46.339C56.3746 46.9928 55.6264 47.5649 54.7951 47.5649C53.8807 47.5649 53.2156 46.9928 53.2156 46.339C53.2156 45.6852 53.9638 45.1131 54.7951 45.1131ZM56.7903 51.3243C57.2891 51.4877 57.6216 52.1415 57.3722 52.7953C57.206 53.4492 56.624 53.9395 56.0421 53.7761C55.5433 53.6126 55.2108 52.9588 55.4602 52.305C55.6264 51.5695 56.2084 51.1608 56.7903 51.3243ZM57.9542 47.6466C58.453 47.4014 59.118 47.6466 59.4506 48.2187C59.7831 48.7908 59.7831 49.5263 59.2843 49.7715C58.7855 50.0167 58.1204 49.7715 57.7879 49.1994C57.3722 48.6273 57.4554 47.9735 57.9542 47.6466ZM24.1191 74.4528C23.8697 74.6162 23.454 74.4528 23.2046 74.1258C23.0383 73.7989 23.0383 73.3903 23.3709 73.2269C23.6203 73.0634 24.0359 73.2269 24.2853 73.5538C24.4516 73.8807 24.3685 74.2893 24.1191 74.4528ZM22.3733 66.607C22.207 66.3619 22.3733 65.9532 22.7058 65.7081C23.0383 65.4629 23.454 65.5446 23.6203 65.7898C23.7865 66.035 23.6203 66.4436 23.2877 66.6888C22.9552 66.8522 22.5395 66.8522 22.3733 66.607ZM21.8745 70.8568C21.2925 71.1837 20.5443 70.8568 20.1287 70.1213C19.713 69.3857 19.8793 68.6502 20.3781 68.3233C20.96 67.9964 21.7082 68.3233 22.1239 69.0588C22.6227 69.7126 22.4564 70.5299 21.8745 70.8568ZM19.2974 66.1984C18.7986 66.1984 18.3829 65.7081 18.3829 65.0543C18.3829 64.4005 18.7986 63.9101 19.2974 63.9101C19.7962 63.9101 20.2118 64.4005 20.2118 65.0543C20.2118 65.6263 19.7962 66.1984 19.2974 66.1984ZM22.0407 59.9055C22.3733 59.5786 22.7889 59.5786 22.9552 59.7421C23.2046 59.9872 23.1215 60.3959 22.8721 60.641C22.5395 60.9679 22.1239 60.968 21.9576 60.8045C21.6251 60.6411 21.7082 60.2324 22.0407 59.9055ZM11.6491 52.7953C11.4829 53.3674 11.0672 53.7761 10.5684 53.6126C10.1527 53.5309 9.90333 52.9588 9.98646 52.3867C10.1527 51.8146 10.5684 51.406 11.0672 51.5695C11.4829 51.6512 11.7323 52.2233 11.6491 52.7953ZM6.74429 53.6126C5.82982 53.8578 4.83222 53.0405 4.49969 51.8146C4.25029 50.5887 4.74909 49.4446 5.74669 49.1994C6.66115 48.9542 7.65875 49.7715 7.99128 50.9974C8.24068 52.2233 7.65875 53.3674 6.74429 53.6126ZM5.08163 45.44C5.33103 44.6227 5.99608 44.1324 6.57801 44.2958C7.15995 44.4593 7.49248 45.1948 7.32621 46.0121C7.07681 46.8293 6.41175 47.3197 5.82982 47.1562C5.16475 46.9928 4.83223 46.2573 5.08163 45.44ZM75.5783 52.2233C76.6591 52.7953 75.9109 57.7806 72.0036 57.4537C67.9301 57.0451 70.0084 53.8578 73.3337 48.9542C81.5639 36.8588 70.5072 27.0516 61.4457 29.9938C58.8686 30.811 55.377 33.0994 52.9662 35.306C64.4385 16.9993 56.5409 -0.081434 39.8312 0.000292094C39.8312 0.000292094 39.748 0.000292094 39.6649 0.000292094C39.5818 0.000292094 39.4986 0.000292094 39.4986 0.000292094C37.4203 0.0820182 21.7082 1.47136 21.2925 18.7973C21.1263 25.4988 24.2853 29.6669 26.9456 35.5511C30.1878 42.6613 29.5227 50.4253 19.2974 49.1994C22.0407 48.709 23.7865 47.7283 24.8673 46.5024C23.6203 46.4207 22.1239 45.5217 20.7937 43.8055C18.9648 41.4354 18.7986 40.4547 16.8034 39.3923C8.73947 34.8973 0.509316 42.8248 2.58764 51.4877C4.83223 60.9679 12.1479 61.7852 9.48767 67.0974C6.82741 72.4096 -1.81841 68.4867 2.42137 61.2949C-1.15335 64.237 -0.15575 69.0588 1.50691 71.5106C4.0009 75.1883 12.1479 76.169 15.6395 71.2654C13.3118 65.8715 10.7347 56.3913 20.6275 54.3481C32.3492 51.9781 28.8576 52.3867 31.1854 50.1801C29.689 56.1461 21.6251 53.2857 18.2998 57.372C14.5588 62.0304 17.1359 68.3233 17.219 68.6502C18.5492 71.5106 21.0431 74.6162 24.9504 77.6401C26.1142 79.0294 27.195 80.6639 26.8624 82.7071C26.3636 85.7309 21.4588 85.8127 21.2925 81.8081C20.8769 83.4426 21.0431 86.5482 24.6179 87.202C28.1926 87.9376 33.1805 82.8705 31.8504 77.8035C30.5203 72.6548 29.9384 72.1644 30.1046 69.1406C30.4372 63.4197 36.8384 60.3141 38.8336 60.2324C28.5251 66.035 32.2661 89 48.2276 89C61.5289 89 60.6975 73.8807 52.7999 75.0248C47.8119 75.7604 47.8951 79.1111 47.8951 79.1111C47.8951 79.1111 50.2228 78.2939 52.0517 78.866C54.9614 79.7649 55.4602 83.6878 52.218 85.3223C48.3107 87.3655 41.9095 83.6878 46.8143 74.8614C47.23 74.1259 47.8119 73.6355 48.3939 73.0634C46.5649 72.6548 43.9047 71.3472 43.1565 66.8522C42.242 61.1314 45.8168 56.5547 43.5722 56.3913C45.1517 52.9588 50.0565 52.2233 47.8951 56.6365C47.1469 58.1893 39.4987 67.4243 49.1421 72.2462C56.7072 74.2893 68.3458 66.1984 69.0108 72.7365C68.512 75.4335 65.5193 76.6594 64.106 76.0055C65.0205 76.4959 68.0964 77.7218 70.6735 75.5969C76.1603 70.8568 72.7518 62.9294 64.106 64.3187C53.7975 65.9532 52.883 61.6218 57.5385 57.6172C61.3626 54.2664 62.4433 50.8339 61.7783 47.9735C61.6951 47.8918 61.612 47.8101 61.612 47.7283C60.5313 44.1324 54.2132 37.9212 44.736 46.2573C46.0662 44.7862 49.3083 41.7623 53.7144 41.1085C56.5409 40.6999 60.1988 41.3537 62.2771 43.5603C63.6903 40.8633 65.5193 41.9258 65.9349 43.3968C66.3506 45.1131 60.1156 54.675 63.8566 58.6796C67.6807 62.6842 74.4145 61.2131 76.5759 58.5979C79.5687 54.9202 77.1579 52.7953 75.5783 52.2233Z" fill="#E73D6D">
        <animateMotion xmlns="http://www.w3.org/2000/svg" dur="5s" begin="0" repeatCount="indefinite">
            <mpath xmlns:xlink="http://www.w3.org/1999/xlink" xlink:href="#path"/>
        </animateMotion>
    </path>
    <path id="path" d="M142.22 46.7774C185.421 61.2583 208.703 108.019 194.223 151.22C179.742 194.421 132.981 217.703 89.7801 203.223C46.5727 188.74 22.771 143.549 37.7774 98.7801C52.7838 54.0109 99.0125 32.2945 142.22 46.7774Z" stroke="none"/>
    
</svg>