<svg width="164" height="144" viewBox="0 0 164 144" fill="none" xmlns="http://www.w3.org/2000/svg"><path d="M82 62c44.183 0 80-13.431 80-30 0-16.569-35.817-30-80-30S2 15.431 2 32c0 16.569 35.817 30 80 30zm0 0c21.102 0 40.295-3.064 54.589-8.07C133.26 41.571 110.089 32 81.999 32 53.91 32 30.74 41.571 27.41 53.93 41.705 58.936 60.9 62 82 62zm0 0c24.501 0 46.43-4.13 61.105-10.636 4.102 3.228 6.395 6.833 6.395 10.636 0 13.807-30.221 25-67.5 25m0-25c-24.501 0-46.43-4.13-61.105-10.636C16.793 54.592 14.5 58.197 14.5 62c0 13.807 30.22 25 67.5 25m0 0c20.278 0 38.468-3.312 50.841-8.555C138.628 81.612 142 85.413 142 89.5c0 11.046-24.624 20-55 20M82 87c-17.06 0-32.641-2.344-44.525-6.21C33.967 83.423 32 86.378 32 89.5c0 11.046 24.624 20 55 20m0 0c10.054 0 19.477-.981 27.586-2.694 4.646 2.122 7.414 4.792 7.414 7.694 0 6.904-15.67 12.5-35 12.5m0-17.5c-10.054 0-19.477-.981-27.587-2.694C54.77 108.928 52 111.598 52 114.5c0 6.904 15.67 12.5 35 12.5m0 0c4.12 0 8.074-.254 11.746-.721a7.405 7.405 0 01.754 3.221c0 6.904-10.074 12.5-22.5 12.5s-22.5-5.596-22.5-12.5c0-2.814 1.674-5.411 4.498-7.5 6.386 3.036 16.552 5 28.002 5z" stroke="#fff" stroke-width="4" stroke-linecap="round" stroke-linejoin="round"/></svg>