<svg width="178" height="144" viewBox="0 0 178 144" fill="none" xmlns="http://www.w3.org/2000/svg">
<path d="M119.676 141.645L139.016 141.644L159.865 112.637L124.523 106.806L118.667 71.6154L89.5349 92.3752L60.4031 71.6154L54.5464 106.806L19.2046 112.637L40.0535 141.645L59.3934 141.644M119.676 141.645C119.676 141.644 119.676 141.645 119.676 141.645ZM119.676 141.645C119.676 133.685 116.501 126.051 110.848 120.422C105.196 114.794 97.529 111.632 89.5349 111.632C81.5409 111.632 73.8742 114.794 68.2216 120.422C62.569 126.051 59.3934 133.685 59.3934 141.644M119.676 141.645L59.3934 141.644M59.3934 141.644C59.3934 141.644 59.3934 141.644 59.3934 141.644ZM2 142H176M88.9964 17.1179V65.8464M69.7389 17.1179H108.261C110.488 17.1179 111.3 14.1979 109.391 13.0572L92.497 2.96445C90.3445 1.67852 87.6555 1.67852 85.503 2.96445L68.6094 13.0572C66.7 14.1979 67.5122 17.1179 69.7389 17.1179Z" stroke="white" stroke-width="4" stroke-linecap="round" stroke-linejoin="round"/>
</svg>
