<svg width="178" height="144" viewBox="0 0 178 144" fill="none" xmlns="http://www.w3.org/2000/svg"><path d="M119.676 141.645l19.34-.001 20.849-29.007-35.342-5.831-5.856-35.19-29.132 20.76-29.132-20.76-5.857 35.19-35.341 5.831 20.849 29.008 19.34-.001m60.282.001c0-.001 0 0 0 0zm0 0c0-7.96-3.175-15.594-8.828-21.223a30.207 30.207 0 00-21.313-8.79 30.209 30.209 0 00-21.313 8.79 29.95 29.95 0 00-8.829 21.222m60.283.001l-60.283-.001m0 0s0 0 0 0zM2 142h174M88.996 17.118v48.728M69.74 17.118h38.522c2.227 0 3.039-2.92 1.13-4.06L92.497 2.963a6.822 6.822 0 00-6.994 0L68.609 13.057c-1.909 1.14-1.097 4.06 1.13 4.06z" stroke="#fff" stroke-width="4" stroke-linecap="round" stroke-linejoin="round"/></svg>