<svg width="144" height="144" viewBox="0 0 144 144" fill="none" xmlns="http://www.w3.org/2000/svg">
<path d="M13.1209 103.693C11.9277 101.516 10.8478 99.2672 9.88911 96.9525C2.91962 80.1258 2.91962 61.2195 9.88911 44.3927C16.8586 27.566 30.2267 14.1972 47.0525 7.22739C63.8783 0.257537 82.7836 0.257537 99.6095 7.22739C116.435 14.1972 129.803 27.566 136.773 44.3927C143.742 61.2195 143.742 80.1258 136.773 96.9525C129.803 113.779 116.435 127.148 99.6095 134.118C82.7836 141.088 63.8783 141.088 47.0525 134.118C44.7339 133.157 42.481 132.075 40.3014 130.88L2 142L13.1209 103.693Z" stroke="white" stroke-width="4" stroke-linecap="round" stroke-linejoin="round"/>
</svg>
