<svg width="307" height="308" viewBox="0 0 307 308" fill="none" xmlns="http://www.w3.org/2000/svg">
<path d="M153.298 80.5426C138.776 80.5426 124.58 84.859 112.506 92.9458C100.431 101.033 91.0204 112.527 85.4631 125.975C79.9058 139.423 78.4518 154.221 81.2849 168.497C84.1179 182.773 91.1109 195.887 101.379 206.179C111.648 216.472 124.731 223.481 138.973 226.321C153.216 229.161 167.979 227.703 181.396 222.133C194.812 216.563 206.279 207.13 214.347 195.027C222.415 182.924 226.721 168.695 226.721 154.139C226.721 134.62 218.986 115.9 205.216 102.098C191.446 88.2965 172.771 80.5426 153.298 80.5426ZM153.298 185.254C147.158 185.254 141.157 183.429 136.052 180.01C130.947 176.591 126.968 171.731 124.619 166.046C122.269 160.361 121.655 154.104 122.852 148.069C124.05 142.033 127.007 136.489 131.348 132.137C135.689 127.786 141.22 124.823 147.242 123.622C153.263 122.421 159.505 123.038 165.177 125.393C170.849 127.748 175.697 131.736 179.108 136.852C182.519 141.969 184.34 147.985 184.34 154.139C184.324 162.386 181.049 170.292 175.231 176.124C169.413 181.955 161.526 185.239 153.298 185.254Z" fill="#535B68"/>
<path d="M306.33 139.615C305.927 137.016 304.904 134.552 303.349 132.434C301.793 130.315 299.751 128.604 297.396 127.444C292.234 124.886 286.365 124.138 280.729 125.32C280.271 123.139 279.756 121.015 279.126 118.891C277.956 114.628 276.561 110.432 274.945 106.318C276.688 105.354 278.486 104.492 280.328 103.735C285.7 101.576 291.26 99.9232 296.937 98.7981C295.822 96.3905 294.139 94.2909 292.034 92.6807C289.929 91.0705 287.464 89.9979 284.853 89.5555C279.216 88.4921 273.385 89.3617 268.301 92.024L265.037 86.2833C262.688 82.5518 260.226 78.8777 257.534 75.3759C258.92 73.9219 260.435 72.5962 262.058 71.4148C266.636 67.8491 271.546 64.7347 276.72 62.1148C275.007 60.0911 272.831 58.5123 270.378 57.5128C267.925 56.5133 265.267 56.1226 262.631 56.374C256.887 56.8723 251.478 59.2996 247.282 63.2629C245.736 61.6555 244.189 60.1055 242.586 58.6129C239.378 55.6277 235.999 52.8722 232.506 50.0592C233.466 48.3137 234.557 46.6441 235.77 45.0648C239.166 40.418 243.002 36.1115 247.225 32.2055C245.031 30.7139 242.506 29.7825 239.871 29.4923C237.236 29.2022 234.569 29.5621 232.105 30.5407C226.732 32.5728 222.194 36.3528 219.218 41.2759C217.328 40.1851 215.381 39.0944 213.491 38.1185C209.597 35.9715 205.581 34.0546 201.464 32.3777C201.962 30.4298 202.574 28.5129 203.297 26.637C205.375 21.2169 207.964 16.0076 211.028 11.0796C208.509 10.2622 205.83 10.065 203.218 10.5046C200.606 10.9443 198.138 12.0079 196.023 13.6055C191.414 17.0359 188.07 21.9017 186.516 27.4407L180.101 25.9481C175.748 25.087 171.396 24.3981 167.043 23.9388C166.911 22.0275 166.911 20.1094 167.043 18.1981C167.568 12.3689 168.642 6.6025 170.25 0.975867C167.617 0.878208 164.999 1.41656 162.617 2.54553C160.234 3.67451 158.158 5.36102 156.562 7.4629C152.904 11.9782 150.884 17.6055 150.835 23.4222C148.601 23.4222 146.425 23.4222 144.248 23.4222C139.838 23.7666 135.428 24.2833 131.076 25.0296C130.501 23.1458 130.042 21.2287 129.701 19.2888C128.666 13.6084 128.186 7.84037 128.269 2.06661C125.701 2.6903 123.321 3.92317 121.327 5.66148C119.334 7.39979 117.786 9.59266 116.815 12.0555C114.597 17.3694 114.254 23.2825 115.841 28.8185C113.722 29.4499 111.66 30.1388 109.541 30.8851C105.417 32.3777 101.351 34.0425 97.342 35.937C96.2458 34.2674 95.2697 32.5216 94.4211 30.7129C91.8626 25.5137 89.8289 20.0712 88.3502 14.4666C86.0346 15.7495 84.0609 17.5719 82.5956 19.78C81.1303 21.9881 80.2164 24.5171 79.9311 27.1537C79.287 32.876 80.5561 38.6507 83.5393 43.5722C81.7065 44.7777 79.8738 45.9833 77.812 47.2462C74.4955 49.8878 71.3218 52.7047 68.3047 55.6851C66.7935 54.3714 65.3772 52.9518 64.0665 51.437C60.2175 47.1149 56.8028 42.4231 53.872 37.4296C51.9748 39.2765 50.5555 41.5593 49.7372 44.0802C48.9188 46.601 48.7261 49.2839 49.1756 51.8962C50.0412 57.5608 52.7373 62.7842 56.8502 66.7647C55.3611 68.3722 53.9292 70.037 52.5547 71.7592C49.8056 75.2037 47.1711 78.7629 44.7656 82.437C42.9561 81.5963 41.2137 80.6175 39.5538 79.5092C34.6758 76.3792 30.111 72.7841 25.9229 68.774C24.5954 71.0686 23.8445 73.6524 23.7348 76.3026C23.625 78.9528 24.1597 81.59 25.2929 83.987C27.6906 89.1834 31.7116 93.4556 36.7474 96.1574C35.7738 98.1092 34.8574 100.118 33.9983 101.898C32.2509 105.966 30.7215 110.124 29.4165 114.355C27.4838 114.001 25.5718 113.541 23.6892 112.978C18.1696 111.256 12.8204 109.027 7.71014 106.318C6.99918 108.898 6.93027 111.613 7.5094 114.225C8.08854 116.837 9.29806 119.267 11.032 121.302C14.772 125.697 19.8737 128.708 25.522 129.855C25.0638 132.037 24.7201 134.161 24.4338 136.343C23.8437 140.741 23.4805 145.167 23.3456 149.604C21.4387 149.734 19.5252 149.734 17.6183 149.604C11.8378 149.474 6.08347 148.782 0.436523 147.537C0.501868 150.182 1.20865 152.772 2.49585 155.083C3.78306 157.393 5.612 159.355 7.82471 160.798C12.5815 164.049 18.2888 165.605 24.0329 165.218C24.0329 167.4 24.262 169.581 24.7201 171.763C25.3501 176.126 26.152 180.489 27.1829 184.794C25.3139 185.51 23.4009 186.105 21.4556 186.574C15.8278 188.013 10.0732 188.897 4.27379 189.215C4.98037 191.81 6.31024 194.193 8.14723 196.154C9.98422 198.115 12.2725 199.596 14.812 200.467C20.2512 202.33 26.1537 202.33 31.5929 200.467C32.3374 202.533 33.1965 204.543 34.0556 206.552C35.7582 210.61 37.6698 214.576 39.7829 218.435C38.1804 219.63 36.5173 220.742 34.8002 221.765C29.7547 224.624 24.4645 227.025 18.9929 228.941C20.4307 231.17 22.3844 233.018 24.6879 234.327C26.9914 235.636 29.5764 236.368 32.2229 236.461C37.9632 236.682 43.6172 235.008 48.3165 231.696C49.6338 233.476 50.9511 235.198 52.3256 236.92C55.1829 240.227 58.2031 243.388 61.3747 246.393C60.172 247.943 58.8547 249.435 57.4802 250.928C53.4063 255.046 48.9579 258.775 44.1929 262.065C46.169 263.821 48.5396 265.073 51.1026 265.713C53.6655 266.352 56.3448 266.361 58.912 265.739C64.5202 264.444 69.5382 261.313 73.1729 256.841C74.8911 258.218 76.6665 259.539 78.442 260.802C82.0501 263.328 85.7729 265.739 89.8965 267.92C89.1553 269.773 88.2944 271.576 87.3192 273.317C84.5287 278.409 81.2486 283.216 77.5256 287.668C79.9045 288.826 82.5276 289.388 85.1706 289.308C87.8135 289.228 90.3979 288.508 92.7029 287.209C97.8139 284.498 101.853 280.125 104.157 274.809C106.219 275.67 108.224 276.417 110.286 277.163C114.454 278.652 118.698 279.916 123 280.952C122.785 282.882 122.46 284.799 122.027 286.693C120.638 292.353 118.721 297.869 116.299 303.168C118.9 303.641 121.577 303.475 124.1 302.685C126.623 301.895 128.918 300.505 130.789 298.633C134.9 294.596 137.559 289.307 138.349 283.593C140.526 283.593 142.702 284.052 144.878 284.224C149.288 284.224 153.698 284.568 158.108 284.224C158.457 286.12 158.668 288.038 158.738 289.965C158.943 295.721 158.637 301.485 157.822 307.187C160.448 306.933 162.973 306.049 165.186 304.61C167.399 303.171 169.234 301.22 170.537 298.92C173.417 293.922 174.565 288.108 173.801 282.387C175.977 282.043 178.097 281.698 180.273 281.239C184.568 280.32 188.864 279.23 193.102 277.909C193.928 279.783 194.655 281.699 195.278 283.65C197.074 289.259 198.34 295.025 199.058 300.872C201.534 299.909 203.743 298.363 205.497 296.365C207.251 294.367 208.5 291.975 209.138 289.391C210.563 283.806 210.079 277.904 207.764 272.628C209.768 271.709 211.773 270.733 213.491 269.7C217.422 267.682 221.246 265.459 224.946 263.041C226.243 264.535 227.448 266.107 228.554 267.748C231.757 272.599 234.517 277.729 236.801 283.076C238.915 281.485 240.618 279.409 241.764 277.021C242.91 274.633 243.467 272.004 243.387 269.355C243.269 263.604 241.255 258.053 237.66 253.568C239.378 252.191 240.982 250.698 242.586 249.205C245.731 246.293 248.732 243.227 251.577 240.02C253.246 241.11 254.835 242.319 256.331 243.637C260.74 247.403 264.768 251.595 268.358 256.152C269.968 254.051 271.052 251.595 271.52 248.988C271.988 246.381 271.827 243.7 271.05 241.168C269.352 235.654 265.89 230.853 261.199 227.506C262.459 225.726 263.605 223.831 264.807 221.765C267.098 217.976 269.16 214.072 271.05 210.283C273.013 210.837 274.928 211.548 276.777 212.407C281.995 214.924 286.979 217.902 291.668 221.305C292.645 218.844 293.02 216.183 292.761 213.546C292.502 210.91 291.617 208.373 290.179 206.15C287.096 201.282 282.481 197.585 277.064 195.644C277.751 193.578 278.381 191.511 278.954 189.387C280.151 185.116 281.126 180.785 281.875 176.413C283.822 176.413 285.827 176.413 287.602 176.987C293.318 177.944 298.935 179.424 304.383 181.407C304.648 178.755 304.265 176.079 303.268 173.608C302.27 171.138 300.687 168.948 298.656 167.228C294.373 163.387 288.927 161.102 283.192 160.741C283.192 158.502 283.192 156.32 283.192 154.139C283.192 149.718 283.192 145.298 282.562 140.878C284.448 140.417 286.361 140.072 288.289 139.844C294.283 139.211 300.322 139.134 306.33 139.615ZM157.421 47.074C163.443 47.2736 169.438 47.9648 175.347 49.1407C184.869 51.1471 194.077 54.4297 202.724 58.8999C211.361 63.3878 219.34 69.0479 226.435 75.7203L214.98 87.2018C199.179 72.6016 178.721 64.0979 157.249 63.2055L157.421 47.074ZM91.8438 66.5351C99.8266 60.9036 108.535 56.3846 117.731 53.1018C126.963 49.8603 136.602 47.928 146.367 47.3611H149.804V63.3203C128.332 64.2127 107.874 72.7165 92.0729 87.3166L80.6183 75.8351C84.1579 72.4977 87.9074 69.3913 91.8438 66.5351ZM47.572 139.5C50.2194 120.067 58.1444 101.737 70.481 86.5129C71.9701 84.6759 73.5165 82.9536 75.0629 81.2314L86.5174 92.7129C71.9974 108.512 63.5177 128.947 62.5774 150.407H46.7129C46.7976 146.758 47.0843 143.117 47.572 139.5ZM75.292 227.218C73.6311 225.439 72.0847 223.659 70.5383 221.478C58.2017 206.254 50.2767 187.924 47.6292 168.491C47.1711 164.989 46.8847 161.43 46.7701 157.87H62.5774C63.4847 179.355 71.968 199.82 86.5174 215.622L75.292 227.218ZM149.747 261.204H146.31C136.545 260.637 126.906 258.704 117.674 255.463C108.478 252.18 99.7693 247.661 91.7865 242.03C87.9248 239.25 84.2335 236.241 80.7329 233.017L92.1874 221.535C107.899 235.964 128.172 244.397 149.46 245.359L149.747 261.204ZM104.444 206.896C103.299 205.864 102.209 204.771 101.179 203.624C88.5965 190.28 81.5858 172.615 81.5858 154.254C81.5858 135.892 88.5965 118.227 101.179 104.883C102.267 103.678 103.413 102.587 104.558 101.496C117.887 88.8466 135.544 81.7969 153.899 81.7969C172.254 81.7969 189.911 88.8466 203.239 101.496C204.327 102.587 205.473 103.678 206.504 104.826C219.078 118.186 226.081 135.858 226.081 154.225C226.081 172.592 219.078 190.264 206.504 203.624C205.416 204.772 204.327 205.863 203.182 206.896C189.875 219.475 172.276 226.482 153.985 226.482C135.694 226.482 118.094 219.475 104.787 206.896H104.444ZM202.838 249.378C194.191 253.848 184.983 257.131 175.462 259.137C169.552 260.313 163.557 261.004 157.536 261.204V245.244C178.831 244.317 199.115 235.879 214.808 221.42L226.263 232.902C219.174 239.408 211.259 244.947 202.724 249.378H202.838ZM256.56 183.244C253.991 192.649 250.137 201.651 245.106 209.996C241.305 216.167 236.891 221.937 231.933 227.218L220.478 215.737C234.957 200.026 243.436 179.695 244.418 158.33H260.34C260.066 166.755 258.797 175.118 256.56 183.244ZM244.418 150.58C243.63 129.016 235.204 108.44 220.65 92.5407L232.105 81.0592C236.998 86.3528 241.354 92.122 245.106 98.2814C254.699 113.945 260.012 131.862 260.512 150.235L244.418 150.58Z" fill="white"/>
<path d="M153.526 117.513C146.299 117.513 139.235 119.661 133.226 123.686C127.217 127.71 122.533 133.43 119.768 140.123C117.002 146.815 116.279 154.179 117.688 161.284C119.098 168.389 122.578 174.915 127.689 180.037C132.799 185.16 139.31 188.648 146.398 190.061C153.486 191.474 160.833 190.749 167.51 187.977C174.186 185.205 179.893 180.51 183.908 174.487C187.923 168.464 190.066 161.383 190.066 154.139C190.066 144.425 186.217 135.109 179.364 128.24C172.511 121.372 163.217 117.513 153.526 117.513ZM153.526 174.92C149.403 174.92 145.373 173.695 141.944 171.399C138.516 169.103 135.844 165.839 134.266 162.021C132.688 158.202 132.275 154.001 133.08 149.947C133.884 145.894 135.87 142.171 138.785 139.248C141.701 136.326 145.415 134.336 149.459 133.529C153.503 132.723 157.695 133.137 161.504 134.718C165.314 136.3 168.569 138.978 170.86 142.415C173.151 145.851 174.374 149.891 174.374 154.024C174.389 156.778 173.861 159.507 172.82 162.056C171.779 164.604 170.246 166.922 168.308 168.874C166.371 170.827 164.068 172.376 161.531 173.434C158.994 174.491 156.274 175.035 153.526 175.035V174.92Z" fill="white"/>
<path d="M153.526 117.513V133.243C159.055 133.243 164.358 135.444 168.268 139.363C172.177 143.282 174.374 148.597 174.374 154.139C174.374 159.681 172.177 164.996 168.268 168.915C164.358 172.834 159.055 175.035 153.526 175.035V190.765C163.217 190.765 172.511 186.906 179.364 180.037C186.217 173.169 190.066 163.853 190.066 154.139C190.066 144.425 186.217 135.109 179.364 128.24C172.511 121.372 163.217 117.513 153.526 117.513Z" fill="#EBEBEB"/>
<path d="M306.33 139.615C305.927 137.016 304.904 134.552 303.349 132.434C301.793 130.315 299.751 128.604 297.396 127.444C292.234 124.886 286.365 124.138 280.729 125.32C280.271 123.139 279.756 121.015 279.126 118.891C277.956 114.628 276.561 110.432 274.945 106.318C276.688 105.354 278.486 104.492 280.328 103.735C285.7 101.576 291.26 99.9232 296.938 98.7981C295.822 96.3905 294.14 94.2909 292.034 92.6807C289.929 91.0705 287.464 89.9979 284.853 89.5555C279.216 88.4921 273.385 89.3617 268.301 92.024L265.037 86.2833C262.688 82.5518 260.226 78.8777 257.534 75.3759C258.92 73.9219 260.435 72.5962 262.058 71.4148C266.636 67.8491 271.546 64.7347 276.72 62.1148C275.007 60.0911 272.831 58.5123 270.378 57.5128C267.925 56.5133 265.267 56.1226 262.631 56.374C256.887 56.8723 251.479 59.2996 247.282 63.2629C245.736 61.6555 244.189 60.1055 242.586 58.6129C239.378 55.6277 235.999 52.8722 232.506 50.0592C233.466 48.3137 234.557 46.6441 235.77 45.0648C239.166 40.418 243.002 36.1115 247.225 32.2055C245.031 30.7139 242.506 29.7825 239.871 29.4923C237.236 29.2022 234.57 29.5621 232.105 30.5407C226.732 32.5728 222.194 36.3528 219.218 41.2759C217.328 40.1851 215.381 39.0944 213.491 38.1185C209.597 35.9715 205.581 34.0546 201.464 32.3777C201.962 30.4298 202.574 28.5129 203.297 26.637C205.375 21.2169 207.964 16.0076 211.028 11.0796C208.509 10.2622 205.83 10.065 203.218 10.5046C200.606 10.9443 198.138 12.0079 196.023 13.6055C191.414 17.0359 188.071 21.9017 186.516 27.4407L180.101 25.9481C175.748 25.087 171.396 24.3981 167.043 23.9388C166.912 22.0275 166.912 20.1094 167.043 18.1981C167.568 12.3689 168.642 6.6025 170.25 0.975867C167.617 0.878208 164.999 1.41656 162.617 2.54553C160.234 3.67451 158.158 5.36102 156.562 7.4629C155.272 9.1093 154.212 10.9249 153.412 12.8592V81.7481C171.771 81.7617 189.432 88.8055 202.781 101.439C203.869 102.53 205.015 103.62 206.046 104.768C218.62 118.129 225.623 135.801 225.623 154.168C225.623 172.534 218.62 190.206 206.046 203.567C204.958 204.715 203.869 205.806 202.724 206.839C189.416 219.414 171.816 226.417 153.527 226.415V284.626H157.879C158.228 286.522 158.439 288.44 158.509 290.367C158.714 296.123 158.408 301.887 157.593 307.589C160.219 307.335 162.745 306.451 164.957 305.012C167.17 303.573 169.005 301.622 170.308 299.322C173.188 294.324 174.336 288.51 173.572 282.789C175.748 282.444 177.868 282.1 180.044 281.641C184.339 280.722 188.635 279.631 192.873 278.311C193.699 280.185 194.426 282.101 195.049 284.052C196.845 289.661 198.111 295.427 198.829 301.274C201.305 300.311 203.514 298.765 205.268 296.767C207.022 294.769 208.271 292.376 208.909 289.793C210.334 284.208 209.85 278.306 207.535 273.03C209.539 272.111 211.544 271.135 213.262 270.102C217.193 268.084 221.017 265.861 224.717 263.443C226.014 264.937 227.219 266.509 228.325 268.15C231.528 273.001 234.288 278.131 236.572 283.478C238.686 281.887 240.389 279.811 241.535 277.423C242.681 275.035 243.238 272.406 243.158 269.757C243.04 264.006 241.026 258.455 237.431 253.97C239.149 252.593 240.753 251.1 242.357 249.607C245.59 246.57 248.667 243.37 251.578 240.02C253.247 241.11 254.835 242.319 256.331 243.637C260.74 247.403 264.769 251.595 268.358 256.152C269.968 254.051 271.052 251.595 271.52 248.988C271.988 246.381 271.827 243.7 271.05 241.168C269.352 235.654 265.89 230.853 261.199 227.506C262.459 225.726 263.605 223.831 264.808 221.765C267.098 217.976 269.16 214.072 271.05 210.283C273.013 210.837 274.928 211.548 276.778 212.407C281.995 214.924 286.979 217.902 291.668 221.305C292.646 218.844 293.02 216.183 292.761 213.546C292.502 210.91 291.617 208.373 290.179 206.15C287.097 201.282 282.481 197.585 277.064 195.644C277.751 193.578 278.381 191.511 278.954 189.387C280.151 185.116 281.126 180.785 281.875 176.413C283.822 176.413 285.827 176.413 287.602 176.987C293.319 177.944 298.936 179.424 304.383 181.407C304.648 178.755 304.265 176.079 303.268 173.608C302.27 171.138 300.687 168.948 298.656 167.228C294.374 163.387 288.927 161.102 283.192 160.741C283.192 158.502 283.192 156.32 283.192 154.139C283.192 149.718 283.192 145.298 282.562 140.878C284.449 140.417 286.361 140.072 288.289 139.844C294.283 139.211 300.322 139.134 306.33 139.615ZM157.421 63.0333V47.074C163.443 47.2736 169.438 47.9648 175.348 49.1407C184.869 51.1471 194.077 54.4297 202.724 58.8999C211.361 63.3878 219.34 69.0479 226.435 75.7203L214.98 87.2018C199.249 72.5764 178.855 64.0133 157.421 63.0333ZM202.724 249.378C194.077 253.848 184.869 257.131 175.348 259.137C169.438 260.313 163.443 261.004 157.421 261.204V245.244C178.717 244.317 199.001 235.879 214.694 221.42L226.148 232.902C219.095 239.399 211.219 244.939 202.724 249.378ZM256.56 183.244C253.992 192.649 250.137 201.651 245.106 209.996C241.305 216.167 236.892 221.937 231.933 227.218L220.478 215.737C234.957 200.026 243.436 179.695 244.418 158.33H260.34C260.066 166.755 258.798 175.118 256.56 183.244ZM244.418 150.58C243.631 129.016 235.204 108.44 220.65 92.5407L232.105 81.0592C236.999 86.3528 241.354 92.122 245.106 98.2814C254.699 113.945 260.012 131.862 260.512 150.235L244.418 150.58Z" fill="#EBEBEB"/>
</svg>
