<svg width="307" height="308" viewBox="0 0 307 308" fill="none" xmlns="http://www.w3.org/2000/svg"><path d="M153.298 80.543a73.3 73.3 0 00-40.792 12.403 73.559 73.559 0 00-27.043 33.029 73.757 73.757 0 00-4.178 42.522 73.649 73.649 0 0020.094 37.682 73.375 73.375 0 0037.594 20.142 73.267 73.267 0 0042.423-4.188 73.459 73.459 0 0032.951-27.106 73.72 73.72 0 0012.374-40.888 73.683 73.683 0 00-21.505-52.041 73.338 73.338 0 00-51.918-21.555zm0 104.711a30.99 30.99 0 01-17.246-5.244 31.098 31.098 0 01-11.433-13.964 31.184 31.184 0 01-1.767-17.977 31.145 31.145 0 018.496-15.932 31.023 31.023 0 0115.894-8.515 30.97 30.97 0 0117.935 1.771 31.062 31.062 0 0113.931 11.459 31.169 31.169 0 015.232 17.287 31.216 31.216 0 01-9.109 21.985 31.065 31.065 0 01-21.933 9.13z" fill="#535B68"/><path d="M306.33 139.615a16.347 16.347 0 00-8.934-12.171 25.668 25.668 0 00-16.667-2.124 81.027 81.027 0 00-1.603-6.429 124.539 124.539 0 00-4.181-12.573 51.83 51.83 0 015.383-2.583 93.043 93.043 0 0116.609-4.937 16.355 16.355 0 00-4.903-6.117 16.302 16.302 0 00-7.181-3.126 25.491 25.491 0 00-16.552 2.469l-3.264-5.74c-2.349-3.732-4.811-7.406-7.503-10.908a33.433 33.433 0 014.524-3.961 90.098 90.098 0 0114.662-9.3 16.434 16.434 0 00-6.342-4.602c-2.453-1-5.111-1.39-7.747-1.139a25.573 25.573 0 00-15.349 6.889 119.664 119.664 0 00-4.696-4.65c-3.208-2.985-6.587-5.74-10.08-8.554a39.256 39.256 0 013.264-4.994 89.249 89.249 0 0111.455-12.86 16.243 16.243 0 00-15.12-1.664 25.674 25.674 0 00-12.887 10.735 141.692 141.692 0 00-5.727-3.158 113.88 113.88 0 00-12.027-5.74 51.285 51.285 0 011.833-5.741 91.497 91.497 0 017.731-15.557 16.455 16.455 0 00-15.005 2.525 26 26 0 00-9.507 13.836l-6.415-1.493c-4.353-.861-8.705-1.55-13.058-2.01a41.66 41.66 0 010-5.74A93.053 93.053 0 01170.25.976a16.402 16.402 0 00-7.633 1.57 16.442 16.442 0 00-6.055 4.917 25.699 25.699 0 00-5.727 15.96h-6.587c-4.41.344-8.82.86-13.172 1.607a48.317 48.317 0 01-1.375-5.741 88.946 88.946 0 01-1.432-17.222 16.484 16.484 0 00-6.942 3.594 16.53 16.53 0 00-4.512 6.395 25.372 25.372 0 00-.974 16.762 134.13 134.13 0 00-6.3 2.067 140 140 0 00-12.199 5.052 42.1 42.1 0 01-2.92-5.224 87.148 87.148 0 01-6.072-16.246 16.51 16.51 0 00-5.754 5.313 16.557 16.557 0 00-2.665 7.374 26.054 26.054 0 003.608 16.418c-1.832 1.206-3.665 2.411-5.727 3.674a119.226 119.226 0 00-9.507 8.44 42.32 42.32 0 01-4.239-4.249A88.166 88.166 0 0153.873 37.43a16.308 16.308 0 00-4.135 6.65 16.34 16.34 0 00-.561 7.816 26.198 26.198 0 007.674 14.869 89.501 89.501 0 00-4.295 4.994c-2.75 3.445-5.384 7.004-7.79 10.678a38.911 38.911 0 01-5.211-2.928 89.945 89.945 0 01-13.631-10.735 16.388 16.388 0 00-.63 15.213 26.325 26.325 0 0011.454 12.17c-.973 1.952-1.89 3.961-2.749 5.741a124.641 124.641 0 00-4.581 12.457 53.856 53.856 0 01-5.728-1.377 93.69 93.69 0 01-15.979-6.66 16.401 16.401 0 003.322 14.984 25.758 25.758 0 0014.49 8.553 85.125 85.125 0 00-1.088 6.488 129.03 129.03 0 00-1.088 13.261c-1.907.13-3.82.13-5.728 0a89.108 89.108 0 01-17.181-2.067 16.338 16.338 0 002.059 7.546 16.287 16.287 0 005.329 5.715 25.665 25.665 0 0016.208 4.42c0 2.182.229 4.363.687 6.545.63 4.363 1.432 8.726 2.463 13.031a46.43 46.43 0 01-5.727 1.78 89.035 89.035 0 01-17.182 2.641 16.485 16.485 0 003.873 6.939 16.443 16.443 0 006.665 4.313 25.89 25.89 0 0016.78 0c.745 2.066 1.605 4.076 2.464 6.085a127.23 127.23 0 005.727 11.883 57.964 57.964 0 01-4.983 3.33 97.271 97.271 0 01-15.807 7.176 16.45 16.45 0 005.695 5.386 16.418 16.418 0 007.535 2.134 26.186 26.186 0 0016.093-4.765 179.152 179.152 0 004.01 5.224 131.33 131.33 0 009.049 9.473c-1.203 1.55-2.52 3.042-3.895 4.535a93.103 93.103 0 01-13.287 11.137 16.358 16.358 0 0014.72 3.674 25.883 25.883 0 0014.26-8.898 115.385 115.385 0 005.269 3.961c3.608 2.526 7.33 4.937 11.455 7.118a46.01 46.01 0 01-2.578 5.397 89.18 89.18 0 01-9.793 14.351 16.336 16.336 0 0015.177-.459 25.522 25.522 0 0011.454-12.4c2.062.861 4.067 1.608 6.129 2.354A124.278 124.278 0 00123 280.952a51.193 51.193 0 01-.973 5.741 92.881 92.881 0 01-5.728 16.475 16.33 16.33 0 007.801-.483 16.375 16.375 0 006.689-4.052 26.085 26.085 0 007.56-15.04c2.177 0 4.353.459 6.529.631 4.41 0 8.82.344 13.23 0a39.66 39.66 0 01.63 5.741 97.257 97.257 0 01-.916 17.222 16.404 16.404 0 007.364-2.577 16.468 16.468 0 005.351-5.69 26.178 26.178 0 003.264-16.533c2.176-.344 4.296-.689 6.472-1.148 4.295-.919 8.591-2.009 12.829-3.33a57.912 57.912 0 012.176 5.741 94.077 94.077 0 013.78 17.222 16.554 16.554 0 006.439-4.507 16.604 16.604 0 003.641-6.974 25.83 25.83 0 00-1.374-16.763c2.004-.919 4.009-1.895 5.727-2.928a126.778 126.778 0 0011.455-6.659 48.69 48.69 0 013.608 4.707 96.898 96.898 0 018.247 15.328 16.53 16.53 0 004.963-6.055 16.563 16.563 0 001.623-7.666 26.1 26.1 0 00-5.727-15.787c1.718-1.377 3.322-2.87 4.926-4.363a130.96 130.96 0 008.991-9.185 41.613 41.613 0 014.754 3.617 88.413 88.413 0 0112.027 12.515 16.599 16.599 0 003.162-7.164 16.636 16.636 0 00-.47-7.82 26.284 26.284 0 00-9.851-13.662c1.26-1.78 2.406-3.675 3.608-5.741 2.291-3.789 4.353-7.693 6.243-11.482a38.256 38.256 0 015.727 2.124 97.397 97.397 0 0114.891 8.898 16.627 16.627 0 00-1.489-15.155 25.845 25.845 0 00-13.115-10.506 113.133 113.133 0 001.89-6.257 128.454 128.454 0 002.921-12.974c1.947 0 3.952 0 5.727.574a94.859 94.859 0 0116.781 4.42 16.467 16.467 0 00-1.115-7.799 16.422 16.422 0 00-4.612-6.38 25.566 25.566 0 00-15.464-6.487v-6.602c0-4.421 0-8.841-.63-13.261a47.728 47.728 0 015.727-1.034 97.607 97.607 0 0118.041-.229zM157.421 47.074c6.022.2 12.017.89 17.926 2.067a108.187 108.187 0 0127.377 9.759 105.858 105.858 0 0123.711 16.82L214.98 87.202a90.61 90.61 0 00-57.731-23.996l.172-16.132zM91.844 66.535a107.752 107.752 0 0125.887-13.433 104.767 104.767 0 0128.636-5.74h3.437V63.32a90.611 90.611 0 00-57.731 23.997L80.618 75.835c3.54-3.337 7.29-6.444 11.226-9.3zM47.572 139.5a107.133 107.133 0 0122.909-52.987c1.49-1.837 3.035-3.56 4.582-5.282l11.454 11.482a91.159 91.159 0 00-23.94 57.694H46.713c.085-3.649.371-7.29.859-10.907zm27.72 87.718c-1.66-1.779-3.207-3.559-4.754-5.74a107.134 107.134 0 01-22.909-52.987 109.118 109.118 0 01-.859-10.621h15.807a90.927 90.927 0 0023.94 57.752l-11.225 11.596zm74.455 33.986h-3.437a104.79 104.79 0 01-28.636-5.741 107.778 107.778 0 01-25.888-13.433 118.586 118.586 0 01-11.053-9.013l11.454-11.482a90.726 90.726 0 0057.273 23.824l.287 15.845zm-45.303-54.308a43.822 43.822 0 01-3.265-3.272 71.966 71.966 0 01-19.593-49.37 71.966 71.966 0 0119.593-49.371c1.088-1.205 2.234-2.296 3.379-3.387a71.676 71.676 0 0149.341-19.7 71.672 71.672 0 0149.34 19.7c1.088 1.091 2.234 2.182 3.265 3.33a72.078 72.078 0 0119.577 49.399 72.078 72.078 0 01-19.577 49.399 59.458 59.458 0 01-3.322 3.272 71.615 71.615 0 01-49.197 19.586 71.617 71.617 0 01-49.198-19.586h-.343zm98.394 42.482a108.186 108.186 0 01-27.376 9.759 110.679 110.679 0 01-17.926 2.067v-15.96a90.318 90.318 0 0057.272-23.824l11.455 11.482a109.279 109.279 0 01-23.539 16.476h.114zm53.722-66.134a105.815 105.815 0 01-11.454 26.752 107.63 107.63 0 01-13.173 17.222l-11.455-11.481a90.868 90.868 0 0023.94-57.407h15.922a106.97 106.97 0 01-3.78 24.914zm-12.142-32.664a90.872 90.872 0 00-23.768-58.04l11.455-11.48a108.633 108.633 0 0113.001 17.221 104.944 104.944 0 0115.406 51.954l-16.094.345z" fill="#fff"/><path d="M153.526 117.513a36.474 36.474 0 00-20.3 6.173 36.597 36.597 0 00-13.458 16.437 36.708 36.708 0 00-2.08 21.161 36.647 36.647 0 0010.001 18.753 36.506 36.506 0 0018.709 10.024 36.464 36.464 0 0021.112-2.084 36.561 36.561 0 0016.398-13.49 36.686 36.686 0 006.158-20.348c0-9.714-3.849-19.03-10.702-25.899a36.5 36.5 0 00-25.838-10.727zm0 57.407a20.814 20.814 0 01-11.582-3.521 20.89 20.89 0 01-7.678-9.378 20.938 20.938 0 014.519-22.773 20.809 20.809 0 0122.719-4.53 20.856 20.856 0 019.356 7.697 20.927 20.927 0 013.514 11.609 20.94 20.94 0 01-1.554 8.032 20.891 20.891 0 01-11.289 11.378 20.812 20.812 0 01-8.005 1.601v-.115z" fill="#fff"/><path d="M153.526 117.513v15.73a20.824 20.824 0 0114.742 6.12 20.924 20.924 0 016.106 14.776 20.924 20.924 0 01-6.106 14.776 20.824 20.824 0 01-14.742 6.12v15.73a36.497 36.497 0 0025.838-10.728 36.665 36.665 0 0010.702-25.898c0-9.714-3.849-19.03-10.702-25.899a36.5 36.5 0 00-25.838-10.727z" fill="#EBEBEB"/><path d="M306.33 139.615a16.347 16.347 0 00-8.934-12.171 25.668 25.668 0 00-16.667-2.124 81.027 81.027 0 00-1.603-6.429 124.539 124.539 0 00-4.181-12.573 51.83 51.83 0 015.383-2.583 93.029 93.029 0 0116.61-4.937 16.358 16.358 0 00-4.904-6.117 16.302 16.302 0 00-7.181-3.126 25.491 25.491 0 00-16.552 2.469l-3.264-5.74c-2.349-3.732-4.811-7.406-7.503-10.908a33.433 33.433 0 014.524-3.961 90.098 90.098 0 0114.662-9.3 16.434 16.434 0 00-6.342-4.602c-2.453-1-5.111-1.39-7.747-1.139a25.575 25.575 0 00-15.349 6.889 119.664 119.664 0 00-4.696-4.65c-3.208-2.985-6.587-5.74-10.08-8.554a39.256 39.256 0 013.264-4.994 89.249 89.249 0 0111.455-12.86 16.243 16.243 0 00-15.12-1.664 25.674 25.674 0 00-12.887 10.735 141.692 141.692 0 00-5.727-3.158 113.88 113.88 0 00-12.027-5.74 51.285 51.285 0 011.833-5.741 91.497 91.497 0 017.731-15.557 16.455 16.455 0 00-15.005 2.525 26.006 26.006 0 00-9.507 13.836l-6.415-1.493c-4.353-.861-8.705-1.55-13.058-2.01a41.977 41.977 0 010-5.74A93.053 93.053 0 01170.25.976a16.402 16.402 0 00-7.633 1.57 16.442 16.442 0 00-6.055 4.917 23.006 23.006 0 00-3.15 5.396v68.89a71.9 71.9 0 0149.369 19.69c1.088 1.091 2.234 2.181 3.265 3.329a72.082 72.082 0 0119.577 49.4 72.082 72.082 0 01-19.577 49.399 59.458 59.458 0 01-3.322 3.272 71.62 71.62 0 01-49.197 19.576v58.211h4.352a39.66 39.66 0 01.63 5.741 97.257 97.257 0 01-.916 17.222 16.4 16.4 0 007.364-2.577 16.468 16.468 0 005.351-5.69 26.178 26.178 0 003.264-16.533c2.176-.345 4.296-.689 6.472-1.148 4.295-.919 8.591-2.01 12.829-3.33a57.912 57.912 0 012.176 5.741 94.077 94.077 0 013.78 17.222 16.554 16.554 0 006.439-4.507 16.61 16.61 0 003.641-6.974 25.83 25.83 0 00-1.374-16.763c2.004-.919 4.009-1.895 5.727-2.928a126.778 126.778 0 0011.455-6.659 48.69 48.69 0 013.608 4.707 96.898 96.898 0 018.247 15.328 16.53 16.53 0 004.963-6.055 16.563 16.563 0 001.623-7.666 26.1 26.1 0 00-5.727-15.787c1.718-1.377 3.322-2.87 4.926-4.363a131.426 131.426 0 009.221-9.587 41.602 41.602 0 014.753 3.617 88.357 88.357 0 0112.027 12.515 16.599 16.599 0 003.162-7.164 16.636 16.636 0 00-.47-7.82 26.284 26.284 0 00-9.851-13.662c1.26-1.78 2.406-3.675 3.609-5.741 2.29-3.789 4.352-7.693 6.242-11.482a38.309 38.309 0 015.728 2.124 97.436 97.436 0 0114.89 8.898 16.614 16.614 0 00-1.489-15.155 25.84 25.84 0 00-13.115-10.506 113.133 113.133 0 001.89-6.257 128.454 128.454 0 002.921-12.974c1.947 0 3.952 0 5.727.574a94.813 94.813 0 0116.781 4.42 16.467 16.467 0 00-1.115-7.799 16.422 16.422 0 00-4.612-6.38 25.564 25.564 0 00-15.464-6.487v-6.602c0-4.421 0-8.841-.63-13.261a47.763 47.763 0 015.727-1.034 97.607 97.607 0 0118.041-.229zM157.421 63.033V47.074c6.022.2 12.017.89 17.927 2.067a108.194 108.194 0 0127.376 9.759 105.858 105.858 0 0123.711 16.82L214.98 87.202a90.61 90.61 0 00-57.559-24.169zm45.303 186.345a108.186 108.186 0 01-27.376 9.759 110.678 110.678 0 01-17.927 2.067v-15.96a90.319 90.319 0 0057.273-23.824l11.454 11.482a109.262 109.262 0 01-23.424 16.476zm53.836-66.134a105.779 105.779 0 01-11.454 26.752 107.572 107.572 0 01-13.173 17.222l-11.455-11.481a90.868 90.868 0 0023.94-57.407h15.922a106.917 106.917 0 01-3.78 24.914zm-12.142-32.664a90.866 90.866 0 00-23.768-58.04l11.455-11.48a108.573 108.573 0 0113.001 17.221 104.944 104.944 0 0115.406 51.954l-16.094.345z" fill="#EBEBEB"/></svg>