<svg width="960" height="727" viewBox="0 0 960 727" fill="none" xmlns="http://www.w3.org/2000/svg"><path fill="#100E0C" d="M0 0h960v727H0z"/><path fill="#FCBE00" d="M0 0h960v727H0z"/><path fill-rule="evenodd" clip-rule="evenodd" d="M567.616 263.321c-58.094-19.607-103.843-2.905-127.081 15.25-66.809 51.559-36.309 173.557 59.547 173.557 84.963-.726 51.558-79.88 5.083-110.38 31.226 10.893 86.415 34.131 82.058 79.154-4.357 47.202-45.749 66.809-90.046 66.082-2.905 0-6.536 0-9.441-.726-30.499-2.904-57.368-15.976-77.701-36.309C387.524 427.438 373 395.486 373 360.629c0-53.737 36.309-99.487 87.868-114.736 26.868-7.988 76.249-12.345 106.748 17.428z" fill="#fff"/><path d="M586.496 254.609v83.511h-5.81c-2.905-16.703-8.714-30.5-19.607-40.666-15.249-13.798-63.177-14.524-79.153 0-22.512 20.333 3.631 41.392 21.059 56.642 18.881 15.976 40.666 34.856 38.488 68.987-2.179-2.905-5.084-5.084-7.989-7.988-5.083-4.357-14.523-9.441-27.594-15.976-21.786-10.893-46.476-22.512-58.095-44.297-12.345-22.512-6.535-50.107 11.619-67.535 32.678-33.404 97.308-17.428 111.106-17.428 7.988 0 11.619-9.441 13.071-15.25h2.905zm-.002 196.792v33.404h-38.487c15.976-7.262 32.678-18.154 38.487-33.404z" fill="#fff"/></svg>