<svg width="960" height="727" viewBox="0 0 960 727" fill="none" xmlns="http://www.w3.org/2000/svg">
<rect width="960" height="727" fill="#100E0C"/>
<rect width="960" height="727" fill="#FCBE00"/>
<path fill-rule="evenodd" clip-rule="evenodd" d="M567.616 263.321C509.522 243.714 463.773 260.416 440.535 278.571C373.726 330.13 404.226 452.128 500.082 452.128C585.045 451.402 551.64 372.248 505.165 341.748C536.391 352.641 591.58 375.879 587.223 420.902C582.866 468.104 541.474 487.711 497.177 486.984C494.272 486.984 490.641 486.984 487.736 486.258C457.237 483.354 430.368 470.282 410.035 449.949C387.524 427.438 373 395.486 373 360.629C373 306.892 409.309 261.142 460.868 245.893C487.736 237.905 537.117 233.548 567.616 263.321Z" fill="white"/>
<path d="M586.496 254.609V338.12H580.686C577.781 321.417 571.972 307.62 561.079 297.454C545.83 283.656 497.902 282.93 481.926 297.454C459.414 317.787 485.557 338.846 502.985 354.096C521.866 370.072 543.651 388.952 541.473 423.083C539.294 420.178 536.389 417.999 533.484 415.095C528.401 410.738 518.961 405.654 505.89 399.119C484.104 388.226 459.414 376.607 447.795 354.822C435.45 332.31 441.26 304.715 459.414 287.287C492.092 253.883 556.722 269.859 570.52 269.859C578.508 269.859 582.139 260.418 583.591 254.609H586.496Z" fill="white"/>
<path d="M586.494 451.401V484.805H548.007C563.983 477.543 580.685 466.651 586.494 451.401Z" fill="white"/>
</svg>
