<svg width="317" height="317" viewBox="0 0 317 317" fill="none" xmlns="http://www.w3.org/2000/svg"><circle cx="158.5" cy="158.5" r="158" stroke="#fff"/><path fill-rule="evenodd" clip-rule="evenodd" d="M22.88 148.283c-.115-.102-.247-.113-1.547-.129l-1.42-.018v-.425c0-.253-.03-.454-.072-.496-.044-.043-.254-.07-.533-.07-.396 0-.471.016-.524.113-.036.068-.061.598-.061 1.311 0 1.422-.013 1.392.61 1.392.525 0 .58-.058.58-.62v-.436h1.453c1.435 0 1.455-.002 1.546-.13.128-.18.116-.359-.032-.492zm-5.143-1.103c-.052-.019-.796-.035-1.654-.035-1.133 0-1.579.019-1.63.07-.052.051-.072.433-.072 1.348 0 1.202.007 1.28.115 1.337.172.091 3.17.082 3.263-.009.051-.051.072-.438.072-1.373 0-1.133-.013-1.307-.095-1.338zm-1.687 7.947c-.154-.081-2.59-.081-2.743 0-.109.057-.115.136-.115 1.426 0 .983.02 1.384.071 1.435.101.1 2.73.1 2.831 0 .051-.051.071-.452.071-1.435 0-1.29-.006-1.369-.115-1.426zm.04 4.132c-.042-.016-.704-.022-1.472-.013l-1.396.016-.016 1.371c-.012.963.004 1.396.051 1.452.092.11 2.727.119 2.837.011.105-.104.101-2.797-.004-2.837zm-2.74-14.569c-.135-.125-.17-.127-1.958-.127h-1.82l-.124.154c-.121.153-.123.201-.123 3.846v3.692l.146.144.146.144h3.58l.145-.144.146-.144v-7.437l-.138-.128zm-1.09 10.539c-.043-.15-.282-.172-1.644-.152-1.02.015-1.246.034-1.292.106-.031.049-.057.674-.057 1.39-.001 1.105.013 1.315.092 1.393.08.079.292.093 1.413.092.725-.001 1.359-.026 1.408-.057.074-.046.09-.272.099-1.363.005-.719-.004-1.353-.02-1.409zm-.025 4.106c-.056-.093-.191-.103-1.48-.103-1.237 0-1.422.012-1.453.093-.072.185-.04 2.696.035 2.771.051.05.458.07 1.455.07 1.307 0 1.387-.006 1.445-.113.082-.151.08-2.58-.002-2.718zm0 4.107c-.056-.093-.19-.102-1.444-.102-.996 0-1.403.019-1.454.07-.101.1-.101 2.693 0 2.793.051.051.458.07 1.455.07 1.307 0 1.387-.006 1.445-.113.082-.15.08-2.579-.002-2.718zm-3.475 4.047l-.446-.34v-12.058c0-10.593-.01-12.061-.088-12.091-.08-.03-6.981 2.683-7.153 2.812-.059.045-.074 2.351-.074 11.185v11.129l4.015 2.454c2.416 1.476 4.05 2.44 4.104 2.42.076-.029.088-.386.088-2.603v-2.569l-.446-.339zm-2.443-4.004c-.112.169-.43.285-.638.234-.254-.063-.428-.299-.428-.581s.098-.429.357-.536c.388-.16.803.105.803.513a.792.792 0 01-.094.37zm.033 2.909c-.079.144-.363.29-.566.29-.1 0-.232-.073-.36-.199-.225-.222-.256-.409-.113-.682.112-.213.257-.292.536-.292.423 0 .71.502.503.883z" fill="#fff"/></svg>