<svg width="981" height="453" viewBox="0 0 981 453" fill="none" xmlns="http://www.w3.org/2000/svg">
<path d="M972.378 248.979L974.904 248.174L971.511 246.421C967.843 244.526 963.989 243.016 960.009 241.917C952.692 239.896 945.827 236.496 939.785 231.9L929.794 224.301C922.926 219.078 916.619 213.156 910.973 206.632L908.829 204.153C900.954 195.052 894.157 185.072 888.572 174.412L864.173 127.835L849.492 105.231C844.239 97.144 838.309 89.5173 831.766 82.4334L821.881 71.7314C810.398 59.2993 796.172 49.7181 780.336 43.7497L771.548 40.4379C761.81 36.7678 751.361 35.3732 741.001 36.3608C725.683 37.8209 711.308 44.4139 700.208 55.0701L697.813 57.3701C691.2 63.7187 685.761 71.1862 681.747 79.428L679.351 84.3492C673.855 95.6332 670.359 107.785 669.018 120.264L665.924 149.043L663.678 195.089L661.704 220.52C660.725 233.136 658.513 245.625 655.102 257.81L652.494 267.126C647.983 283.237 640.629 298.412 630.777 311.934L628.173 315.508C621.056 325.276 612.418 333.839 602.588 340.87L601.409 341.713C588.379 351.033 573.415 357.297 557.63 360.039C551.83 361.047 545.957 361.572 540.07 361.61L538.899 361.618C518.454 361.75 498.31 356.687 480.356 346.905L469.154 340.801C458.334 334.906 448.187 327.853 438.891 319.766L397.655 283.895L378.014 264.487C362.861 249.515 345.901 236.491 327.524 225.717L323.739 223.498C305.423 212.759 285.68 204.664 265.097 199.452C245.638 194.525 225.575 192.221 205.506 192.6C183.682 193.013 161.996 196.588 141.197 203.214L100.079 216.313L64.3384 231.864C37.9416 243.35 12.9449 257.817 -10.1644 274.983C-36.8326 294.793 -60.7699 318.035 -81.3562 344.108L-105.299 374.432L-76.7346 449.229L-14.8201 392.969L43.4958 346.652L45.7863 345.206C80.1694 323.497 117.181 306.263 155.925 293.921L178.065 288.746C195.05 284.776 212.642 284.121 229.875 286.818C243.728 288.986 257.16 293.29 269.693 299.577L272.483 300.977C280.546 305.022 288.243 309.76 295.485 315.139L320.939 334.045L372.698 381.832C392.993 399.118 415.934 413.032 440.642 423.043L444.769 424.715C453.908 428.418 463.299 431.469 472.87 433.844L476.296 434.694C489.85 438.058 503.753 439.821 517.719 439.948C535.274 440.107 552.758 437.678 569.605 432.739L597.413 424.587L600.785 423.513C620.082 417.366 638.11 407.786 654.003 395.234L656.361 393.372C669.31 383.146 680.485 370.855 689.437 356.995C700.837 339.344 708.407 319.497 711.656 298.737L714.23 282.287C716.357 268.699 717.253 254.947 716.908 241.198L716.096 208.837L717.95 161.562L720.013 131.956C720.794 120.747 725.811 110.256 734.045 102.612C742.87 94.4192 754.661 90.1789 766.683 90.869C775.521 91.3764 784.009 94.5228 791.041 99.9012L802.451 108.628C809.675 114.153 816.031 120.73 821.307 128.139L834.162 146.191L841.373 159.318C848.363 172.041 856.411 184.154 865.431 195.528L872.569 204.529C877.611 210.887 883.223 216.77 889.334 222.107L903.801 234.741C914.648 244.213 928.108 250.181 942.411 251.859C952.491 253.042 962.707 252.06 972.378 248.979Z" fill="#C03B5E"/>
<path d="M-122.133 306.723L-85.4896 261.903C-75.527 249.717 -64.6616 238.298 -52.9854 227.743C-41.5802 217.432 -29.4327 207.974 -16.641 199.444L-10.6727 195.464C7.48122 183.359 26.5697 172.718 46.412 163.641L75.0638 150.534L128.503 133.51L153.341 129.097C175.129 125.225 197.293 123.905 219.386 125.161L224.952 125.477C245.842 126.665 266.489 130.555 286.379 137.049C304.103 142.837 321.099 150.652 337.03 160.339L369.276 179.946L419.105 219.552L453.91 254.472L482.004 278.179C487.321 282.666 493.051 286.638 499.118 290.043L508.39 295.247C519.014 301.21 531.009 304.299 543.192 304.208L544.134 304.201C556.941 304.105 569.451 300.33 580.174 293.327C593.094 284.889 602.696 272.239 607.349 257.525L612.018 242.758C614.882 233.702 616.562 224.313 617.018 214.826L619.436 164.529L621.571 121.04C622.014 112.02 623.294 103.06 625.395 94.2763L626.663 88.9745C629.876 75.5424 635.47 62.7948 643.18 51.3362C651.552 38.8936 662.265 28.199 674.723 19.8487L676.328 18.7723C688.207 10.8098 701.563 5.31162 715.604 2.60339C733.422 -0.833151 751.822 0.322705 769.069 5.96209L769.934 6.24465C785.855 11.4503 800.383 20.2103 812.418 31.8614L820.076 39.276C830.768 49.6266 839.93 61.4479 847.287 74.3835L863.885 103.57L883.698 146.649L908.342 190.357C913.653 199.776 920.453 208.273 928.479 215.518L935.926 222.241C944.865 230.311 955.874 235.732 967.72 237.898L976.952 239.587C982.344 240.573 982.259 248.332 976.846 249.199C964.686 251.147 952.239 248.422 942.005 241.571L930.436 233.826C924.139 229.611 918.441 224.565 913.494 218.825L904.791 208.726C896.976 199.659 890.073 189.846 884.181 179.427L865.156 145.79L836.184 101.569L814.441 76.081C808.103 68.6516 800.584 62.3171 792.187 57.332L785.379 53.29C772.085 45.3979 756.274 42.3912 740.992 44.729C732.513 46.026 724.269 48.9969 716.933 53.4409C704.299 61.0944 694.633 72.806 689.515 86.6626L684.878 99.2165C682.108 106.716 680.216 114.511 679.239 122.445L673.164 171.77L669.247 227.169C668.175 242.333 665.429 257.333 661.057 271.893L656.923 285.664C652.717 299.675 646.082 312.838 637.321 324.552L636.218 326.028C628.132 336.838 618.2 346.135 606.878 353.488C595.215 361.063 582.27 366.451 568.677 369.389L566.106 369.944C550.847 373.241 535.117 373.738 519.68 371.412L515.393 370.766C500.262 368.485 485.56 363.941 471.781 357.285L471.216 357.012C455.182 349.267 440.585 338.846 428.053 326.195L400.116 297.996L346.515 250.796L324.078 235.201C308.422 224.32 291.203 215.881 273.011 210.176C249.445 202.785 224.654 200.107 200.053 202.295L193.724 202.858C177.655 204.287 161.793 207.478 146.422 212.375L101.981 226.533L46.9689 251.882C32.9235 258.354 19.3613 265.828 6.38708 274.244C-20.1023 291.427 -43.9275 312.404 -64.3277 336.503L-99.434 377.976L-122.133 306.723Z" fill="#FF4878"/>
<path d="M-45.8942 339.776C-50.4747 329.437 -36.9357 313.412 -15.6539 303.984C5.62789 294.555 26.5935 295.293 31.174 305.632C35.7546 315.971 22.2155 331.996 0.933753 341.424C-20.348 350.853 -41.3136 350.115 -45.8942 339.776Z" fill="#EE6D8F"/>
<path d="M-111.17 428.229C-119.357 420.428 -112.975 400.443 -96.9173 383.592C-80.8593 366.741 -61.2053 359.405 -53.019 367.206C-44.8326 375.007 -51.2139 394.992 -67.2719 411.843C-83.33 428.694 -102.984 436.03 -111.17 428.229Z" fill="#EE6D8F"/>
<path d="M33.607 290.23C29.5384 281.046 40.7357 267.18 58.6169 259.257C76.4982 251.335 94.292 252.358 98.3607 261.541C102.429 270.725 91.232 284.592 73.3508 292.514C55.4695 300.436 37.6756 299.413 33.607 290.23Z" fill="#EE6D8F"/>
<path d="M106.655 253.534C104.408 243.745 118.038 232.261 137.1 227.885C156.161 223.509 173.436 227.897 175.684 237.687C177.931 247.476 164.3 258.96 145.239 263.336C126.177 267.713 108.903 263.324 106.655 253.534Z" fill="#EE6D8F"/>
<path d="M199.41 232.273C199.968 222.244 216.25 214.995 235.777 216.081C255.305 217.167 270.682 226.178 270.125 236.207C269.567 246.236 253.284 253.485 233.757 252.399C214.23 251.312 198.852 242.302 199.41 232.273Z" fill="#EE6D8F"/>
<path d="M121.57 295.641C119.542 286.806 133.35 276.097 152.412 271.721C171.474 267.345 188.57 270.959 190.598 279.793C192.626 288.627 178.818 299.336 159.756 303.712C140.695 308.088 123.598 304.475 121.57 295.641Z" fill="#EE6D8F"/>
<path d="M199.378 273.982C201.044 264.485 216.86 259.324 234.704 262.455C252.548 265.585 265.663 275.822 263.997 285.319C262.33 294.816 246.514 299.977 228.67 296.846C210.826 293.716 197.711 283.479 199.378 273.982Z" fill="#EE6D8F"/>
<path d="M273.134 294.019C277.915 285.645 294.544 286.139 310.277 295.121C326.01 304.104 334.889 318.173 330.108 326.547C325.328 334.92 308.698 334.427 292.965 325.444C277.232 316.462 268.354 302.392 273.134 294.019Z" fill="#EE6D8F"/>
<path d="M289.285 251.746C294.881 241.943 313.064 241.788 329.898 251.398C346.731 261.009 355.84 276.747 350.244 286.549C344.647 296.352 326.464 296.507 309.631 286.897C292.797 277.286 283.688 261.549 289.285 251.746Z" fill="#EE6D8F"/>
<path d="M358.397 313.098C365.067 303.991 383.151 305.895 398.789 317.349C414.426 328.803 421.696 345.471 415.026 354.577C408.355 363.683 390.272 361.779 374.634 350.325C358.997 338.871 351.727 322.204 358.397 313.098Z" fill="#EE6D8F"/>
<path d="M417.951 365.129C422.572 354.83 440.655 352.916 458.339 360.852C476.024 368.788 486.614 383.57 481.992 393.868C477.371 404.167 459.288 406.081 441.603 398.145C423.919 390.209 413.329 375.427 417.951 365.129Z" fill="#EE6D8F"/>
<path d="M493.496 394.136C493.907 384.264 506.634 376.778 521.922 377.416C537.21 378.053 549.27 386.573 548.858 396.446C548.446 406.318 535.719 413.804 520.431 413.166C505.143 412.528 493.084 404.009 493.496 394.136Z" fill="#EE6D8F"/>
<path d="M560.415 397.532C557.408 389.467 567.396 378.297 582.723 372.583C598.051 366.869 612.913 368.774 615.92 376.839C618.927 384.904 608.939 396.074 593.612 401.788C578.284 407.503 563.422 405.597 560.415 397.532Z" fill="#EE6D8F"/>
<path d="M630.949 368.42C624.082 363.231 626.51 348.444 636.372 335.394C646.235 322.343 659.796 315.97 666.663 321.159C673.53 326.348 671.102 341.135 661.24 354.185C651.378 367.236 637.816 373.609 630.949 368.42Z" fill="#EE6D8F"/>
<path d="M670.803 300.161C663.534 298.057 661.061 284.534 665.28 269.957C669.498 255.379 678.811 245.267 686.081 247.371C693.35 249.475 695.823 262.998 691.605 277.575C687.386 292.153 678.073 302.265 670.803 300.161Z" fill="#EE6D8F"/>
<path d="M685.295 229.548C677.967 228.658 673.298 217.462 674.867 204.541C676.435 191.62 683.648 181.867 690.976 182.757C698.304 183.646 702.973 194.842 701.405 207.763C699.836 220.684 692.624 230.437 685.295 229.548Z" fill="#EE6D8F"/>
<path d="M694.415 158.843C687.035 158.978 680.858 148.538 680.62 135.525C680.382 122.511 686.172 111.852 693.553 111.717C700.934 111.582 707.11 122.022 707.348 135.035C707.587 148.049 701.796 158.708 694.415 158.843Z" fill="#EE6D8F"/>
<path d="M700.671 88.0443C696.852 81.7268 702.786 71.147 713.925 64.4137C725.064 57.6805 737.189 57.3435 741.008 63.6611C744.827 69.9787 738.893 80.5585 727.754 87.2917C716.615 94.0249 704.49 94.3619 700.671 88.0443Z" fill="#EE6D8F"/>
<path d="M749.843 60.3395C752.882 53.6121 764.962 52.5026 776.823 57.8613C788.685 63.22 795.836 73.0178 792.797 79.7452C789.758 86.4726 777.678 87.5821 765.817 82.2234C753.955 76.8647 746.803 67.0669 749.843 60.3395Z" fill="#EE6D8F"/>
<path d="M807.531 85.4799C811.369 82.1149 820.105 85.8017 827.042 93.7146C833.98 101.628 836.492 110.77 832.654 114.135C828.816 117.5 820.08 113.813 813.143 105.9C806.205 97.9875 803.693 88.8449 807.531 85.4799Z" fill="#EE6D8F"/>
<path d="M846.602 133.443C850.703 131.412 857.681 137.143 862.188 146.243C866.694 155.343 867.023 164.366 862.921 166.397C858.82 168.428 851.842 162.698 847.335 153.598C842.829 144.498 842.5 135.474 846.602 133.443Z" fill="#EE6D8F"/>
<path d="M859.303 181.45C862.942 178.077 872.488 182.459 880.625 191.237C888.762 200.014 892.408 209.865 888.769 213.238C885.131 216.611 875.584 212.229 867.448 203.451C859.311 194.673 855.664 184.823 859.303 181.45Z" fill="#EE6D8F"/>
<path d="M891.893 225.05C893.718 221.809 903.652 223.943 914.081 229.816C924.51 235.69 931.485 243.079 929.66 246.32C927.834 249.561 917.9 247.426 907.471 241.553C897.042 235.679 890.068 228.291 891.893 225.05Z" fill="#EE6D8F"/>
<path d="M828.186 132.926C831.536 131.267 837.74 136.965 842.042 145.653C846.344 154.34 847.116 162.728 843.766 164.387C840.416 166.046 834.212 160.348 829.91 151.66C825.608 142.973 824.836 134.585 828.186 132.926Z" fill="#EE6D8F"/>
<path d="M791.843 99.3127C795.052 96.4998 802.291 99.5099 808.012 106.036C813.734 112.562 815.771 120.132 812.562 122.945C809.354 125.758 802.115 122.748 796.393 116.222C790.672 109.696 788.635 102.126 791.843 99.3127Z" fill="#EE6D8F"/>
<path d="M719.581 176.491C715.066 176.259 711.903 166.389 712.516 154.446C713.129 142.504 717.287 133.01 721.802 133.242C726.317 133.474 729.48 143.343 728.867 155.286C728.254 167.229 724.097 176.722 719.581 176.491Z" fill="#EE6D8F"/>
<path d="M724.638 114.157C721.274 109.702 726.284 100.248 735.828 93.0424C745.371 85.8366 755.835 83.6068 759.199 88.0622C762.563 92.5176 757.553 101.971 748.01 109.177C738.466 116.383 728.002 118.612 724.638 114.157Z" fill="#EE6D8F"/>
<path d="M706.033 319.254C698.471 317.9 694.509 304.693 697.184 289.754C699.859 274.816 708.157 263.804 715.719 265.158C723.281 266.512 727.243 279.72 724.568 294.658C721.893 309.596 713.595 320.608 706.033 319.254Z" fill="#EE6D8F"/>
<path d="M716.039 246.23C710.019 246.163 705.277 233.807 705.446 218.632C705.616 203.457 710.633 191.21 716.652 191.277C722.672 191.344 727.414 203.701 727.245 218.875C727.076 234.05 722.058 246.297 716.039 246.23Z" fill="#EE6D8F"/>
<path d="M551.622 434.846C549.505 428.214 558.993 419.259 572.815 414.847C586.637 410.434 599.559 412.234 601.677 418.867C603.794 425.499 594.306 434.454 580.484 438.866C566.661 443.279 553.74 441.479 551.622 434.846Z" fill="#EE6D8F"/>
<path d="M623.325 415.994C618.01 409.348 622.886 396.614 634.217 387.551C645.548 378.488 659.043 376.529 664.359 383.175C669.674 389.822 664.798 402.556 653.467 411.619C642.136 420.681 628.641 422.64 623.325 415.994Z" fill="#EE6D8F"/>
<path d="M674.596 374.975C667.374 370.472 667.742 356.841 675.418 344.528C683.094 332.216 695.171 325.884 702.393 330.386C709.615 334.889 709.247 348.52 701.571 360.833C693.895 373.145 681.818 379.477 674.596 374.975Z" fill="#EE6D8F"/>
<path d="M482.128 432.684C483.38 423.867 495.346 418.274 508.856 420.192C522.366 422.109 532.303 430.811 531.052 439.628C529.801 448.445 517.834 454.038 504.324 452.121C490.814 450.203 480.877 441.501 482.128 432.684Z" fill="#EE6D8F"/>
<path d="M405.882 408.292C409.947 399.234 426.411 397.801 442.656 405.091C458.901 412.381 468.774 425.634 464.709 434.692C460.644 443.75 444.18 445.183 427.935 437.893C411.691 430.603 401.817 417.351 405.882 408.292Z" fill="#EE6D8F"/>
<path d="M335.969 349.465C341.473 341.951 357.327 344.204 371.381 354.498C385.434 364.791 392.364 379.228 386.86 386.742C381.356 394.256 365.501 392.003 351.448 381.71C337.395 371.416 330.465 356.98 335.969 349.465Z" fill="#EE6D8F"/>
<path d="M52.6585 335.942C48.9795 327.658 59.4839 314.953 76.1207 307.564C92.7576 300.175 109.227 300.9 112.906 309.184C116.585 317.468 106.081 330.173 89.4437 337.562C72.8069 344.951 56.3375 344.226 52.6585 335.942Z" fill="#EE6D8F"/>
<path d="M-11.7444 380.994C-16.7325 373.426 -8.45459 359.17 6.74481 349.152C21.9442 339.134 38.3094 337.147 43.2975 344.715C48.2855 352.283 40.0076 366.54 24.8082 376.558C9.60882 386.576 -6.75637 388.562 -11.7444 380.994Z" fill="#EE6D8F"/>
<path d="M-73.0578 446.644C-77.9078 441.62 -71.2222 427.298 -58.1249 414.655C-45.0276 402.012 -30.4785 395.836 -25.6284 400.86C-20.7784 405.884 -27.464 420.207 -40.5613 432.85C-53.6586 445.492 -68.2077 451.669 -73.0578 446.644Z" fill="#EE6D8F"/>
</svg>
