<svg width="44" height="30" viewBox="0 0 44 30" fill="none" xmlns="http://www.w3.org/2000/svg">
<path d="M20.5529 15.0204C20.5529 17.3605 20.3607 19.4558 19.9763 21.3061C19.6193 23.1565 19.029 24.7347 18.2052 26.0408C17.4089 27.3197 16.3517 28.2993 15.0337 28.9796C13.7431 29.6599 12.1505 30 10.2559 30C7.89442 30 5.95857 29.4014 4.44833 28.2041C2.9381 27.0068 1.81228 25.2925 1.07089 23.0612C0.356965 20.8299 0 18.1497 0 15.0204C0 11.8639 0.329506 9.17007 0.988518 6.93878C1.64753 4.70748 2.73215 2.9932 4.24239 1.79592C5.75263 0.598639 7.75712 0 10.2559 0C12.6173 0 14.5532 0.598639 16.0634 1.79592C17.5737 2.96599 18.6995 4.68027 19.4409 6.93878C20.1822 9.17007 20.5529 11.8639 20.5529 15.0204ZM6.17824 15.0204C6.17824 17.2245 6.3018 19.0748 6.54893 20.5714C6.79606 22.0408 7.20795 23.1565 7.78458 23.9184C8.38868 24.6531 9.21244 25.0204 10.2559 25.0204C11.2993 25.0204 12.1093 24.6531 12.686 23.9184C13.2901 23.1837 13.7157 22.0816 13.9628 20.6122C14.2374 19.1156 14.3747 17.2517 14.3747 15.0204C14.3747 12.7891 14.2374 10.9388 13.9628 9.46939C13.7157 7.97279 13.2901 6.85714 12.686 6.12245C12.1093 5.36054 11.2993 4.97959 10.2559 4.97959C9.21244 4.97959 8.38868 5.36054 7.78458 6.12245C7.20795 6.85714 6.79606 7.97279 6.54893 9.46939C6.3018 10.9388 6.17824 12.7891 6.17824 15.0204Z" fill="#2B3A64"/>
<path d="M43.1351 6.97959C43.1351 8.31293 42.8467 9.46939 42.2701 10.449C41.7209 11.4286 40.9658 12.2313 40.0047 12.8571C39.0711 13.483 38.0002 13.9456 36.7921 14.2449V14.3673C39.1535 14.6395 40.9383 15.3469 42.1465 16.4898C43.3822 17.6327 44 19.1701 44 21.102C44 22.7891 43.5744 24.3129 42.7232 25.6735C41.8994 27.0068 40.6088 28.068 38.8515 28.8571C37.1216 29.619 34.8837 30 32.1378 30C30.5177 30 29.0075 29.8639 27.6071 29.5918C26.2067 29.3197 24.8886 28.9252 23.653 28.4082V23.1837C24.9161 23.8095 26.2341 24.2857 27.6071 24.6122C29.0075 24.9388 30.298 25.102 31.4788 25.102C33.7029 25.102 35.2544 24.7211 36.133 23.9592C37.0392 23.1973 37.4923 22.1224 37.4923 20.7347C37.4923 19.9184 37.2863 19.2381 36.8744 18.6939C36.4626 18.1224 35.7349 17.7007 34.6915 17.4286C33.6755 17.1293 32.2476 16.9796 30.4079 16.9796H28.1837V12.2449H30.4491C32.2613 12.2449 33.6343 12.0816 34.5679 11.7551C35.5289 11.4014 36.1742 10.9388 36.5037 10.3673C36.8607 9.76871 37.0392 9.08844 37.0392 8.32653C37.0392 7.29252 36.7097 6.4898 36.0507 5.91837C35.4191 5.31973 34.3482 5.02041 32.838 5.02041C31.9044 5.02041 31.0532 5.14286 30.2843 5.38775C29.5155 5.60544 28.8153 5.87755 28.1837 6.20408C27.5796 6.53061 27.0442 6.84354 26.5774 7.14286L23.6942 2.89796C24.463 2.35374 25.3143 1.86395 26.2479 1.42857C27.2089 0.993197 28.2661 0.653061 29.4194 0.408163C30.5726 0.163265 31.8632 0.0408158 33.2911 0.0408158C36.3115 0.0408158 38.7004 0.653061 40.4578 1.87755C42.2426 3.07483 43.1351 4.77551 43.1351 6.97959Z" fill="#2B3A64"/>
</svg>
