<svg width="44" height="30" viewBox="0 0 44 30" fill="none" xmlns="http://www.w3.org/2000/svg">
<path d="M20.4191 15.0204C20.4191 17.3605 20.2282 19.4558 19.8463 21.3061C19.4916 23.1565 18.9051 24.7347 18.0867 26.0408C17.2956 27.3197 16.2453 28.2993 14.9358 28.9796C13.6537 29.6599 12.0714 30 10.1891 30C7.84302 30 5.91978 29.4014 4.41937 28.2041C2.91897 27.0068 1.80049 25.2925 1.06392 23.0612C0.354641 20.8299 0 18.1497 0 15.0204C0 11.8639 0.327361 9.17007 0.982083 6.93878C1.6368 4.70748 2.71437 2.9932 4.21477 1.79592C5.71518 0.598639 7.70662 0 10.1891 0C12.5352 0 14.4584 0.598639 15.9588 1.79592C17.4593 2.96599 18.5777 4.68027 19.3143 6.93878C20.0509 9.17007 20.4191 11.8639 20.4191 15.0204ZM6.13802 15.0204C6.13802 17.2245 6.26078 19.0748 6.5063 20.5714C6.75182 22.0408 7.16102 23.1565 7.7339 23.9184C8.33406 24.6531 9.15247 25.0204 10.1891 25.0204C11.2258 25.0204 12.0305 24.6531 12.6034 23.9184C13.2036 23.1837 13.6264 22.0816 13.8719 20.6122C14.1447 19.1156 14.2811 17.2517 14.2811 15.0204C14.2811 12.7891 14.1447 10.9388 13.8719 9.46939C13.6264 7.97279 13.2036 6.85714 12.6034 6.12245C12.0305 5.36054 11.2258 4.97959 10.1891 4.97959C9.15247 4.97959 8.33406 5.36054 7.7339 6.12245C7.16102 6.85714 6.75182 7.97279 6.5063 9.46939C6.26078 10.9388 6.13802 12.7891 6.13802 15.0204Z" fill="#2B3A64"/>
<path d="M44 29.5918H23.5809V25.3061L30.9056 17.9184C32.3787 16.3946 33.5654 15.1293 34.4656 14.1224C35.3659 13.0884 36.0206 12.1633 36.4298 11.3469C36.839 10.5034 37.0436 9.60544 37.0436 8.65306C37.0436 7.48299 36.7162 6.61224 36.0615 6.04082C35.4341 5.46939 34.5747 5.18367 33.4835 5.18367C32.365 5.18367 31.2738 5.44218 30.2099 5.95918C29.146 6.47619 28.0275 7.21088 26.8545 8.16326L23.499 4.20408C24.3447 3.46939 25.2313 2.78911 26.1588 2.16326C27.1136 1.53741 28.2048 1.03401 29.4324 0.65306C30.6873 0.244897 32.1877 0.0408158 33.9337 0.0408158C35.8433 0.0408158 37.4801 0.394558 38.8441 1.10204C40.2353 1.78231 41.2993 2.72109 42.0358 3.91837C42.7997 5.08844 43.1816 6.42177 43.1816 7.91837C43.1816 9.14286 42.9906 10.2721 42.6087 11.3061C42.2541 12.3401 41.7221 13.3469 41.0128 14.3265C40.3308 15.2789 39.4851 16.2721 38.4758 17.3061C37.4664 18.3129 36.3207 19.415 35.0385 20.6122L31.2738 24.1224V24.4082H44V29.5918Z" fill="#2B3A64"/>
</svg>
