<svg width="547" height="92" viewBox="0 0 547 92" fill="none" xmlns="http://www.w3.org/2000/svg">
<path d="M0.5625 0.375H66.5V9.375H38.3125V90H28.75V9.375H0.5625V0.375ZM75.4375 0.375H141.375V9.375H113.188V90H103.625V9.375H75.4375V0.375ZM245.062 0.375H254.625V90H246.312L191.312 17.6875V90H181.688V0.375H190L245.062 72.75V0.375ZM320.375 76.125C324.792 71.5417 327 65.9375 327 59.3125C327 52.6458 324.792 47.0417 320.375 42.5C316 37.9167 310.729 35.625 304.562 35.625C298.438 35.625 293.167 37.9167 288.75 42.5C284.375 47.0417 282.188 52.625 282.188 59.25C282.188 65.8333 284.375 71.4375 288.75 76.0625C293.167 80.6458 298.438 82.9375 304.562 82.9375C310.729 82.9375 316 80.6667 320.375 76.125ZM282.375 82C276.292 75.8333 273.25 68.2708 273.25 59.3125C273.25 50.3125 276.292 42.7292 282.375 36.5625C288.5 30.3542 295.917 27.25 304.625 27.25C313.333 27.25 320.729 30.3542 326.812 36.5625C332.896 42.7292 335.938 50.3125 335.938 59.3125C335.938 68.2708 332.896 75.8333 326.812 82C320.729 88.1667 313.333 91.25 304.625 91.25C295.917 91.25 288.5 88.1667 282.375 82ZM384 27.25V36.25H380.125C374.833 36.25 370.312 38.0833 366.562 41.75C362.812 45.4167 360.938 50.1875 360.938 56.0625V90H352V28.5625H360.938V36.875C361.104 36.625 361.354 36.2917 361.688 35.875C362.021 35.4167 362.812 34.6458 364.062 33.5625C365.312 32.4375 366.646 31.4583 368.062 30.625C369.521 29.75 371.438 28.9792 373.812 28.3125C376.229 27.6042 378.771 27.25 381.438 27.25H384ZM478 90V53.5C478 47.7917 476.583 43.3958 473.75 40.3125C470.958 37.1875 467.271 35.625 462.688 35.625C457.979 35.625 454.021 37.4792 450.812 41.1875C447.604 44.8958 446 49.8542 446 56.0625V90H437.062V53.5C437.062 47.875 435.646 43.5 432.812 40.375C430.021 37.2083 426.312 35.625 421.688 35.625C416.979 35.625 413.021 37.4792 409.812 41.1875C406.646 44.8958 405.062 49.8542 405.062 56.0625V90H396.125V28.5625H405.062V36.25C405.229 36 405.438 35.6875 405.688 35.3125C405.938 34.8958 406.562 34.1875 407.562 33.1875C408.604 32.1458 409.75 31.2292 411 30.4375C412.25 29.6042 413.875 28.875 415.875 28.25C417.875 27.5833 420.021 27.25 422.312 27.25C425.062 27.25 427.625 27.6458 430 28.4375C432.417 29.1875 434.312 30.0833 435.688 31.125C437.104 32.125 438.312 33.1667 439.312 34.25C440.354 35.3333 441.104 36.25 441.562 37L442.188 38.1875C442.354 37.9375 442.583 37.5625 442.875 37.0625C443.167 36.5208 443.938 35.625 445.188 34.375C446.438 33.125 447.771 32.0208 449.188 31.0625C450.646 30.0625 452.625 29.1875 455.125 28.4375C457.667 27.6458 460.396 27.25 463.312 27.25C470.312 27.25 476 29.5625 480.375 34.1875C484.792 38.8125 487 45.25 487 53.5V90H478ZM544.625 35.625L538.188 42C537.854 41.5 537.354 40.9167 536.688 40.25C536.062 39.5417 534.583 38.6042 532.25 37.4375C529.917 36.2292 527.417 35.625 524.75 35.625C521.333 35.625 518.562 36.5208 516.438 38.3125C514.312 40.1042 513.25 42.1875 513.25 44.5625C513.25 47.0208 514.396 49 516.688 50.5C518.979 52 521.75 53.2083 525 54.125C528.25 55 531.5 56.0208 534.75 57.1875C538 58.3125 540.771 60.1875 543.062 62.8125C545.354 65.3958 546.5 68.7083 546.5 72.75C546.5 78.0417 544.479 82.4583 540.438 86C536.396 89.5 530.958 91.25 524.125 91.25C521.208 91.25 518.458 90.875 515.875 90.125C513.333 89.375 511.229 88.4792 509.562 87.4375C507.896 86.3958 506.438 85.3542 505.188 84.3125C503.979 83.2292 503.083 82.3125 502.5 81.5625L501.688 80.375L508.125 74C508.292 74.25 508.521 74.5833 508.812 75C509.104 75.375 509.75 76.0833 510.75 77.125C511.792 78.125 512.896 79.0417 514.062 79.875C515.229 80.6667 516.729 81.375 518.562 82C520.396 82.625 522.25 82.9375 524.125 82.9375C528.458 82.9375 531.771 81.9792 534.062 80.0625C536.396 78.1458 537.562 75.7083 537.562 72.75C537.562 70.2083 536.396 68.1458 534.062 66.5625C531.771 64.9375 529 63.6667 525.75 62.75C522.542 61.7917 519.312 60.75 516.062 59.625C512.812 58.4583 510.021 56.6458 507.688 54.1875C505.396 51.6875 504.25 48.4792 504.25 44.5625C504.25 39.9375 506.188 35.8958 510.062 32.4375C513.979 28.9792 518.875 27.25 524.75 27.25C527.125 27.25 529.438 27.5417 531.688 28.125C533.979 28.6667 535.854 29.3542 537.312 30.1875C538.771 30.9792 540.062 31.8125 541.188 32.6875C542.354 33.5208 543.188 34.1875 543.688 34.6875L544.625 35.625Z" fill="white"/>
</svg>
