<svg width="108" height="56" viewBox="0 0 108 56" fill="none" xmlns="http://www.w3.org/2000/svg">
<path d="M7.59766 14.9922H9.80469V43H6.79688V20.5977H1.60156V18.8008C2.51302 18.7747 3.33333 18.625 4.0625 18.3516C4.79167 18.0651 5.37109 17.7461 5.80078 17.3945C6.23047 17.0299 6.58203 16.6654 6.85547 16.3008C7.14193 15.9362 7.33724 15.6367 7.44141 15.4023L7.59766 14.9922ZM21.9922 25.3047C22.9427 26.1641 24.2057 26.5938 25.7812 26.5938C27.3568 26.5938 28.6133 26.1641 29.5508 25.3047C30.5013 24.4323 30.9766 23.332 30.9766 22.0039C30.9766 20.6628 30.5013 19.5625 29.5508 18.7031C28.6133 17.8307 27.3568 17.3945 25.7812 17.3945C24.2057 17.3945 22.9427 17.8307 21.9922 18.7031C21.0547 19.5625 20.5859 20.6628 20.5859 22.0039C20.5859 23.332 21.0547 24.4323 21.9922 25.3047ZM19.9805 16.8477C21.582 15.3503 23.5156 14.6016 25.7812 14.6016C28.0469 14.6016 29.9805 15.3503 31.582 16.8477C33.1836 18.332 33.9844 20.0508 33.9844 22.0039C33.9844 22.7721 33.8542 23.5078 33.5938 24.2109C33.3464 24.901 33.0469 25.4544 32.6953 25.8711C32.3568 26.2747 32.0117 26.6328 31.6602 26.9453C31.3216 27.2448 31.0286 27.4661 30.7812 27.6094L30.3906 27.8047C30.5208 27.8568 30.6901 27.9284 30.8984 28.0195C31.1198 28.1107 31.5039 28.3581 32.0508 28.7617C32.5977 29.1654 33.0794 29.6081 33.4961 30.0898C33.9258 30.5586 34.3099 31.2227 34.6484 32.082C35 32.9284 35.1758 33.8333 35.1758 34.7969C35.1758 37.1406 34.2773 39.1589 32.4805 40.8516C30.6836 42.5443 28.4505 43.3906 25.7812 43.3906C23.112 43.3906 20.8789 42.5443 19.082 40.8516C17.2852 39.1589 16.3867 37.1406 16.3867 34.7969C16.3867 33.8333 16.5495 32.9349 16.875 32.1016C17.2135 31.2552 17.6172 30.5846 18.0859 30.0898C18.5547 29.582 19.0169 29.1458 19.4727 28.7812C19.9414 28.4167 20.3516 28.1693 20.7031 28.0391L21.1914 27.8047C21.0872 27.7526 20.9505 27.6875 20.7812 27.6094C20.625 27.5182 20.3385 27.3099 19.9219 26.9844C19.5052 26.6458 19.1341 26.2747 18.8086 25.8711C18.4961 25.4544 18.2096 24.901 17.9492 24.2109C17.7018 23.5078 17.5781 22.7721 17.5781 22.0039C17.5781 20.0508 18.3789 18.332 19.9805 16.8477ZM30.293 30.7539C29.043 29.582 27.5391 28.9961 25.7812 28.9961C24.0234 28.9961 22.513 29.582 21.25 30.7539C20 31.9258 19.375 33.2734 19.375 34.7969C19.375 36.3724 19.9609 37.7331 21.1328 38.8789C22.3177 40.0247 23.8672 40.5977 25.7812 40.5977C27.7083 40.5977 29.2578 40.0247 30.4297 38.8789C31.6016 37.7331 32.1875 36.3724 32.1875 34.7969C32.1875 33.2734 31.556 31.9258 30.293 30.7539Z" fill="white"/>
<path d="M77.5977 14.9922H79.8047V43H76.7969V20.5977H71.6016V18.8008C72.513 18.7747 73.3333 18.625 74.0625 18.3516C74.7917 18.0651 75.3711 17.7461 75.8008 17.3945C76.2305 17.0299 76.582 16.6654 76.8555 16.3008C77.1419 15.9362 77.3372 15.6367 77.4414 15.4023L77.5977 14.9922ZM95.9766 24.9922C98.6719 24.9922 100.911 25.8776 102.695 27.6484C104.492 29.4062 105.391 31.5938 105.391 34.2109C105.391 36.8151 104.479 38.9961 102.656 40.7539C100.846 42.5117 98.5547 43.3906 95.7812 43.3906C93.0078 43.3906 90.7161 42.5117 88.9062 40.7539C87.0964 38.9961 86.1914 36.8086 86.1914 34.1914C86.1914 33.1758 86.3542 32.1732 86.6797 31.1836C87.0182 30.181 87.3438 29.4258 87.6562 28.918L88.1836 28.1953L96.582 14.9922H99.5898L92.9883 25.4023C93.7565 25.1289 94.7526 24.9922 95.9766 24.9922ZM100.586 38.8398C101.784 37.668 102.383 36.125 102.383 34.2109C102.383 32.2839 101.784 30.7344 100.586 29.5625C99.388 28.3906 97.7865 27.8047 95.7812 27.8047C93.7891 27.8047 92.1875 28.3906 90.9766 29.5625C89.7786 30.7344 89.1797 32.2839 89.1797 34.2109C89.1797 36.125 89.7786 37.668 90.9766 38.8398C92.1875 40.0117 93.7891 40.5977 95.7812 40.5977C97.7865 40.5977 99.388 40.0117 100.586 38.8398Z" fill="white"/>
</svg>
