<svg width="130" height="130" viewBox="0 0 130 130" fill="none" xmlns="http://www.w3.org/2000/svg">
<path d="M69.4771 53.0363L69.5655 53.978L70.2938 53.3746L107.18 22.8205L76.6254 59.7062L76.022 60.4345L76.9637 60.5229L124.651 65L76.9637 69.4771L76.022 69.5655L76.6254 70.2938L107.18 107.18L70.2938 76.6254L69.5655 76.022L69.4771 76.9637L65 124.651L60.5229 76.9637L60.4345 76.022L59.7062 76.6254L22.8205 107.18L53.3746 70.2938L53.978 69.5655L53.0363 69.4771L5.34912 65L53.0363 60.5229L53.978 60.4345L53.3746 59.7062L22.8205 22.8205L59.7062 53.3746L60.4345 53.978L60.5229 53.0363L65 5.34912L69.4771 53.0363Z" stroke="#9EB4DC"/>
</svg>
